<svg xmlns="http://www.w3.org/2000/svg" width="512" height="512" viewBox="0 0 135.467 135.467" xmlns:v="https://vecta.io/nano"><path d="M73.773 135.24c-.203-.08-.646-.322-.984-.538l-.86-.527c-.133-.074-.466-.36-.738-.632s-.63-.58-.796-.68-.606-.523-.98-.938c-2.08-2.325-3.77-3.823-5.087-4.525l-.833-.442-1.24-1.63-2.286-2.88c-.07-.062-.28-.356-.464-.66s-.438-.63-.563-.723-.56-.583-.963-1.085l-2.15-2.642-1.597-1.982c-.233-.33-1.824-2.284-2.814-3.457a833.67 833.67 0 0 1-9.427-11.648l-3.8-4.877c-1.164-1.627-1.764-2.37-2.117-2.624L33.6 90.803l-2.7-2.134a19.43 19.43 0 0 1-1.066-.893l-1.315-1.2a106.35 106.35 0 0 1-5.276-5.258L20.46 77.86c-.5-.722-.824-1.522-1.267-3.03l-.46-1.558c-.093-.316-.217-.63-.276-.7-.14-.166-1.096-2.172-1.385-2.907-.698-1.775-1.3-3.953-1.567-5.658-.125-.8-.153-1.436-.15-3.403.002-2.145.024-2.545.192-3.526.715-4.18 2.335-8.087 5.026-12.12a60 60 0 0 1 3.103-4.16c.387-.465.6-.8.732-1.2 1.13-3.228 4.217-5.6 9.482-7.254 1.153-.364 5.17-1.347 8.402-2.056 2.694-.6 4.34-1.032 5.524-1.486l.75-.286 2.002.002c2.145.002 2.68.032 4.025.226 2.803.405 5.04 1.466 6.797 3.223.352.352.745.657.976.757.676.294 1.74 1.054 2.375 1.698.338.343 1.055 1.166 1.593 1.83 1.404 1.733 1.863 2.056 2.98 2.1.565.023.723-.003 1.136-.187 1.317-.587 2.527-1.807 4.398-4.432 2.503-3.512 3.78-4.732 5.5-5.24.672-.2 1.676-.176 10.256.24 7.336.356 10.68.967 13.72 2.503 4.97 2.5 7.873 7.845 9.775 17.953.6 3.2 1.28 8.235 1.612 11.983l.1 1.116-.35 2.492-1.236 8.232c-.04.1-.152.7-.248 1.353s-.226 1.374-.3 1.6c-.347 1.2-.546 1.733-.703 1.852-.144.108-.225.42-.5 1.886-.604 3.323-1.535 7.77-1.708 8.153-.067.148-.24.932-.503 2.296a8.127 8.127 0 0 1-.254.943c-.087.248-.356 1.115-.6 1.927-.376 1.257-.8 2.557-1.85 5.536-.502 1.438-.605 1.694-.747 1.85-.084.093-.153.208-.153.254 0 .195-1.003 2.293-1.15 2.405-.088.068-.217.328-.28.578-.133.5-.762 1.85-1.054 2.24-.105.14-.48.737-.834 1.323-2.3 3.832-5.403 7.406-7.95 9.185a31.01 31.01 0 0 0-1.1.822 125.105 125.105 0 0 1-1.779 1.352c-1.138.85-2.022 1.577-2.592 2.13-.163.155-.414.372-.558.482-.296.22-.95 1.004-1.7 2.05-.88 1.2-1.16 1.66-1.624 2.615-.247.507-.482.923-.522.923s-.465.267-.95.594-.978.65-1.1.718c-.396.218-2.232 2.16-3.14 3.32-.282.36-1.256 1.403-2.165 2.317l-1.653 1.66-1.177-.004c-.93-.003-1.255-.035-1.546-.15z" fill="#de2921"/><g fill-rule="evenodd"><path d="M73.464 20.764l-1.27 2.324s8.38 2.86 10.956.547c0 0 5.177-6.96 10.784-7.142 0 0 11.033-.876 13.084-6.667 0 0-10.455-.828-12.988-2.9 0 0-6.578-2.4-10.497 3.386 0 0-7.26 9.733-10.07 10.45" fill="#99b085"/><path d="M31.342 5.87s18.716-3.515 27.045 2.652c0 0 8.206 5.1 8.292 18.363 0 0-24.744 3.26-35.337-21.015" fill="#b8db7d"/><path d="M69.616 22.524S80.844-6.8 101.135 3.384c0 0 10.274 3.13 13.347-.772 0 0-4.032 11.823-14.428 14.103 0 0-11.207 1.754-14.97 8.4 0 0-4.56 4.555-13.636-.12 0 0 10.595.4 12.5-5.374 0 0 1.607-5.767 16.437-6.525 0 0 5.503-2.1 6.8-5.128 0 0-8.8-.967-13.088-3.45 0 0-6.344-3.4-13.1 6.258 0 0-3.706 8.5-11.37 11.758M30.263 1.448S59-6.252 67.715 13.86c0 0-.15 10.956 3.784 15.084 1.013 1.063 3.523 2.367 3.025 3.48-1.177 2.628-4.114 6.526-6 4.76-1.527-1.437-2.285-8.3-2.836-8.343-9.037-.692-26.38-4.24-35.44-20.74 0 0 18.856 16.898 35.115 17.263 0 0-2.7-8.596-2.995-13.832 0 0-.103-10.322-32.114-10.085m-9.5.816S39.186 1.65 42.71 11.34c0 0-7.484-7.595-21.955-9.076" fill="#4c4740"/></g><path d="M81.636 28.43c-.728.003-1.026.046-1.278.12-1.7.508-2.988 1.728-5.492 5.24-1.87 2.626-3.082 3.847-4.4 4.434-.414.184-.572.2-1.137.187-1.116-.046-1.575-.37-2.98-2.102l-1.593-1.83c-.636-.644-1.7-1.405-2.376-1.698-.23-.1-.624-.405-.976-.758-1.758-1.758-3.995-2.82-6.8-3.224-1.344-.194-1.88-.225-4.026-.227l-2.003-.002-.75.287c-1.185.454-2.83.896-5.525 1.487l-8.4 2.058c-5.267 1.665-8.354 4.027-9.485 7.256-.132.378-.345.724-.732 1.2-.912 1.098-2.3 2.972-3.104 4.16-2.692 4.034-4.312 7.942-5.027 12.123a10.62 10.62 0 0 0-.164 1.51c.53-5.68 3.2-11.816 8.874-18.423 2.487-8.938 17.745-8.688 24.293-11.573 4.604-.136 9.695-.2 13.4 4.014 4.503 1.76 4.74 6.58 8.143 5.8 4.502-1.5 6.408-10.285 11.677-10.004 23.12 1.234 30.725-1.747 34.04 33.85l-.728 5.18.396-2.638.35-2.493-.1-1.117c-.333-3.75-1.012-8.795-1.612-11.986-1.902-10.112-4.807-15.447-9.777-17.96-3.04-1.536-6.387-2.147-13.725-2.504l-8.98-.362z" fill="#e4e4e4"/><path d="M42.98 36.393L18.3 51.76l15.307.06c2.64 34.62 73.755 33.2 79.216.2l-16.896.013c-1.313 18.9-41.15 19.28-44.55-.175l13.673.024z" fill="#99b085"/><path d="M65.598 58.35l-9.387.395c7.592 6.714 24.628 7.672 33.097 1.846-7.317-1.43-14.703-2.197-22.395-2.24H65.6zM36.34 63.013c-7.887 2.15-13.956 5.62-17.154 9.746a11.64 11.64 0 0 0-.406.556c-.043-.077-.083-.155-.125-.232.03.083.058.16.084.247l.46 1.558c.437 1.484.77 2.283 1.245 2.996v-.634l3.672.607.002 4.457.73.746-.002-5.083 1.383.222.003 6.25 1.388 1.355-.004-7.384 2.107.33.004 8.987.115.104a16.36 16.36 0 0 0 .616.529l-.005-9.508 1 .152.005 10.16 3.547 2.802L35 79.534l2.107.296.007 14.13c.208.27.452.597.73.98l-.007-15 1.543.207.008 16.817.73.938-.008-17.66 1.2.153.01 19.035.732.937-.01-19.88.824.102.01 20.812 3.548 4.418-.012-24.813 3.14.337.013 28.348.73.9-.014-29.163 1.376.133.015 30.697 2.468 3.032-.016-33.506 1.763.146.017 35.554 1.388 1.707-.018-37.154 1.58.112.018 38.915c.038.037.08.08.1.094.126.093.38.42.564.723a6.7 6.7 0 0 0 .337.507l-.02-40.174.958.06.02 41.26 1.454 1.9.958 1.26-.02-44.277 1.684.078.02 45.352c.516.335 1.08.773 1.696 1.32l-.022-46.62 2.624.076.023 49.18.198.217c.318.354.674.7.878.86L70.3 82.626l.97.015.024 51.05c.256.25.543.493.664.56l.172.105-.024-51.705 3.072.004.025 52.808.145.002 1.177.004.96-.964-.024-51.878 1.916-.045.024 49.96.63-.685-.024-49.295.95-.033.023 48.197a36.47 36.47 0 0 1 .842-.941l-.022-47.3 1.47-.068.022 45.885a1.26 1.26 0 0 1 .194-.144c.122-.068.615-.4 1.1-.718s.9-.595.95-.595c.01 0 .035-.03.068-.08l-.02-44.483 1.005-.067.02 42.66a16.5 16.5 0 0 0-.622 1.189l.072-.143c.464-.954.745-1.406 1.625-2.615.76-1.046 1.415-1.83 1.7-2.05a8.44 8.44 0 0 0 .558-.482c.08-.076.177-.164.268-.246V81.922l3.755-.4.017 36.025a125.14 125.14 0 0 0 .351-.267l.597-.455-.017-35.416.786-.1.016 34.942a16.11 16.11 0 0 0 .775-.609l-.016-34.433 2.073-.3.015 32.75a34.17 34.17 0 0 0 1.51-1.717l-.015-31.264 3.95-.68.012 26.22-.122.2a10.82 10.82 0 0 1 .322-.492c.3-.4.92-1.73 1.054-2.24.057-.23.17-.462.256-.55L105.5 79.7l1.252-.253.01 21.103a.87.87 0 0 1 .075-.1c.142-.157.245-.412.747-1.85l.337-.973-.393 1.052-.01-19.393 2.304-.5.006 12.9c-.28 1.003-.58 1.992-.9 2.972l.497-1.574.6-1.928a8.129 8.129 0 0 0 .254-.943c.264-1.365.436-2.148.503-2.296a.88.88 0 0 0 .012-.038l-.004-9.3 1.98-.488c-.558 3.274-1.188 6.516-1.94 9.68.245-.805 1.093-4.876 1.66-7.998.267-1.466.348-1.778.5-1.886.157-.12.356-.64.703-1.852.065-.226.195-.946.3-1.6a15.42 15.42 0 0 1 .228-1.277c-1.14-2.083-3.05-3.945-6.337-5.593-1.414 1.06-2.873 1.954-4.418 2.88l-.025.03.32.13c3.845.926 7.376 3.34 8.515 4.598-24.495 8.974-65.932 2.446-92-.514 5.605-4.644 12.23-6.05 19.627-7.473-1.67-1.167-2.282-2.753-3.557-4.205z" fill="#fff"/><path d="M15.4 63.14l.1.923.16.878-.26-1.8zm20.917 29.877c.124.122.27.287.446.5l-.25-.353-.196-.147zm70.323 7.883l-.352.805.352-.805z" fill="#e4e4e4"/></svg>