<?xml version="1.0" encoding="UTF-8" standalone="no"?>
<!-- Generator: Adobe Illustrator 20.1.0, SVG Export Plug-In . SVG Version: 6.00 Build 0)  -->

<svg
   xmlns:dc="http://purl.org/dc/elements/1.1/"
   xmlns:cc="http://creativecommons.org/ns#"
   xmlns:rdf="http://www.w3.org/1999/02/22-rdf-syntax-ns#"
   xmlns:svg="http://www.w3.org/2000/svg"
   xmlns="http://www.w3.org/2000/svg"
   xmlns:sodipodi="http://sodipodi.sourceforge.net/DTD/sodipodi-0.dtd"
   xmlns:inkscape="http://www.inkscape.org/namespaces/inkscape"
   version="1.1"
   x="0px"
   y="0px"
   viewBox="0 0 567.55916 217.17815"
   xml:space="preserve"
   id="svg1329"
   sodipodi:docname="credits-all-de-1orig.svg"
   inkscape:export-filename="/home/matthias/Projects/Real_MHD_App/ProjectMgm.06-SupportAttribution/Logo.All.v2.1024x290.png"
   inkscape:export-xdpi="128.59"
   inkscape:export-ydpi="128.59"
   inkscape:version="0.92.4 (5da689c313, 2019-01-14)"
   width="150.1667mm"
   height="57.461716mm"><metadata
   id="metadata1335"><rdf:RDF><cc:Work
       rdf:about=""><dc:format>image/svg+xml</dc:format><dc:type
         rdf:resource="http://purl.org/dc/dcmitype/StillImage" /><dc:title></dc:title></cc:Work></rdf:RDF></metadata><defs
   id="defs1333"><clipPath
   id="clip1"><path
     id="path1846"
     d="M 0,0 H 226.76953 V 155.89844 H 0 Z m 0,0"
     inkscape:connector-curvature="0" /></clipPath>
	
	
<clipPath
   id="clip1-5"><path
     inkscape:connector-curvature="0"
     d="M 0,0 H 226.76953 V 155.89844 H 0 Z m 0,0"
     id="path1846-3" /></clipPath></defs><sodipodi:namedview
   pagecolor="#ffffff"
   bordercolor="#666666"
   borderopacity="1"
   objecttolerance="10"
   gridtolerance="10"
   guidetolerance="10"
   inkscape:pageopacity="1"
   inkscape:pageshadow="2"
   inkscape:window-width="1280"
   inkscape:window-height="736"
   id="namedview1331"
   showgrid="false"
   inkscape:zoom="0.62136325"
   inkscape:cx="234.29497"
   inkscape:cy="83.24003"
   inkscape:window-x="0"
   inkscape:window-y="1024"
   inkscape:window-maximized="1"
   inkscape:current-layer="svg1329"
   inkscape:snap-intersection-paths="true"
   inkscape:snap-others="true"
   inkscape:object-nodes="true"
   inkscape:snap-nodes="true"
   inkscape:snap-object-midpoints="true"
   inkscape:snap-grids="true"
   inkscape:snap-to-guides="true"
   inkscape:snap-global="false"
   inkscape:snap-bbox="true"
   inkscape:snap-bbox-midpoints="true"
   fit-margin-top="9.595"
   fit-margin-left="10.187"
   fit-margin-right="10.287"
   fit-margin-bottom="9.595"
   borderlayer="true"
   showguides="true"
   inkscape:guide-bbox="true"
   inkscape:bbox-paths="true"
   inkscape:bbox-nodes="true"
   inkscape:snap-page="true"
   inkscape:document-units="mm"
   inkscape:snap-bbox-edge-midpoints="true"
   inkscape:object-paths="true"
   inkscape:snap-smooth-nodes="true"
   inkscape:snap-midpoints="true"
   inkscape:snap-center="true"
   inkscape:snap-text-baseline="true"
   units="mm"><sodipodi:guide
     position="100.89675,136.29048"
     orientation="0,1"
     id="guide6646"
     inkscape:locked="false" /><sodipodi:guide
     position="201.48203,169.68479"
     orientation="0,1"
     id="guide6648"
     inkscape:locked="false" /><sodipodi:guide
     position="387.56481,51.999997"
     orientation="1,0"
     id="guide6752"
     inkscape:locked="false"
     inkscape:label=""
     inkscape:color="rgb(0,0,255)" /><sodipodi:guide
     position="240.62906,299.39004"
     orientation="1,0"
     id="guide1514"
     inkscape:locked="false" /><sodipodi:guide
     position="285.86696,290.2861"
     orientation="1,0"
     id="guide1516"
     inkscape:locked="false"
     inkscape:label=""
     inkscape:color="rgb(0,0,255)" /><sodipodi:guide
     position="433.26854,200.38468"
     orientation="1,0"
     id="guide1518"
     inkscape:locked="false"
     inkscape:label=""
     inkscape:color="rgb(0,0,255)" /><sodipodi:guide
     position="397.01983,64.874912"
     orientation="0,1"
     id="guide1539"
     inkscape:locked="false" /></sodipodi:namedview>
<style
   type="text/css"
   id="style1095">
	.st0{fill:#1D1D1B;}
	.st1{fill:#099ACF;}
	.st2{fill:#010101;}
	.st3{fill:#231F20;}
	.st4{fill:#F5CE00;}
	.st5{fill:#ED1C24;}
</style>









<style
   id="style1095-1"
   type="text/css">
	.st0{fill:#1D1D1B;}
	.st1{fill:#099ACF;}
	.st2{fill:#010101;}
	.st3{fill:#231F20;}
	.st4{fill:#F5CE00;}
	.st5{fill:#ED1C24;}
</style><text
   xml:space="preserve"
   style="font-style:normal;font-variant:normal;font-weight:bold;font-stretch:normal;font-size:12.48223591px;line-height:1.25;font-family:Calibri;-inkscape-font-specification:'Calibri Bold';font-variant-ligatures:normal;font-variant-caps:normal;font-variant-numeric:normal;font-feature-settings:normal;text-align:start;letter-spacing:0px;word-spacing:0px;writing-mode:lr-tb;text-anchor:start;fill:#211e1e;fill-opacity:1;stroke:none;stroke-width:0.62411183"
   x="285.1398"
   y="47.577663"
   id="text6750-2"><tspan
     sodipodi:role="line"
     id="tspan6748-7"
     x="285.1398"
     y="47.577663"
     style="font-style:normal;font-variant:normal;font-weight:normal;font-stretch:condensed;font-size:13.4533329px;font-family:'Kristall Now Pro';-inkscape-font-specification:'Kristall Now Pro Condensed';fill:#211e1e;fill-opacity:1;stroke-width:0.62411183">ENTWICKELT VON</tspan></text>



<g
   transform="matrix(0.18164924,0,0,0.18164924,285.8483,80.915284)"
   id="g824"><path
     d="M 560.96136,-6.9383998e-7 H 0.11255025 V 394 H 560.96136"
     style="fill:#4c4740;fill-opacity:1;fill-rule:evenodd;stroke:none"
     id="path3290"
     inkscape:connector-curvature="0" /><path
     d="m 461.09381,210.70158 -44.46303,28.09051 -46.40153,23.88644 -87.19612,36.59189 4.5216,-28.75092 86.5501,-90.17307"
     style="fill:#99b085;fill-opacity:1;fill-rule:evenodd;stroke:none"
     id="path3292"
     inkscape:connector-curvature="0" /><path
     d="m 0.03119107,193.17999 c 3.40680003,2.72122 77.59761993,-1.35204 88.41483993,4.7397 12.376659,6.96878 22.767319,11.94022 34.723209,19.13041 0.0287,-0.39523 32.946,21.97494 47.3673,28.08304 5.29202,2.24279 15.18689,7.64001 27.66507,15.22422 6.26792,3.80883 14.72825,7.73352 14.72825,7.73352 l 23.70728,11.98855 c 9.03497,3.22124 21.55825,13.1348 19.21367,14.12962 7.02533,2.75728 36.90382,17.17876 60.25615,22.31777 16.43454,3.61529 28.19149,-13.51443 22.17966,-22.13577 -4.19967,-6.02156 -20.52619,-9.64911 -30.49147,-14.84053 -8.79094,-4.58029 -15.52376,-8.88652 -15.8792,-7.26737 0,0 -3.40753,-3.30635 2.45383,-0.50076 22.90959,10.97305 51.60047,21.40924 75.96268,30.14575 17.23271,6.18095 35.67666,-19.97399 27.90959,-25.48252 -8.71378,-6.17878 -63.79484,-32.02119 -70.36779,-38.97699 -0.38968,-0.41374 0.85363,-1.82303 0.78466,-1.94421 -0.0696,-0.12059 13.7338,8.19535 25.40393,14.64483 16.71861,9.24162 43.44591,19.36697 44.58119,19.97617 16.18086,8.6656 54.59782,-6.40114 40.68027,-24.83099 -2.28911,-3.03183 -13.94478,-7.64409 -17.01327,-9.22647 -6.26333,-3.23233 -21.61492,-10.5617 -29.5708,-15.06484 -10.22981,-5.78787 -13.40682,-6.69206 -20.75357,-11.2839 -2.23946,-1.39918 -6.03859,-3.99681 -7.49095,-5.17988 -2.41984,-1.97015 0.29249,-2.4166 0.20085,-2.56591 0,0 9.41935,6.12854 22.7408,13.14925 9.72534,5.1234 22.01954,10.53501 31.84281,15.3353 5.37401,2.62647 11.51555,4.17063 15.388,6.01529 6.73066,3.20588 3.4396,2.95561 10.78419,4.46515 6.95636,1.43116 33.72392,-5.75109 33.3316,-28.70451 -0.0588,-3.50422 -4.7801,-8.19343 -5.83677,-8.79109 -7.0803,-4.00835 -14.39065,-7.5032 -16.45503,-8.71414 -14.16231,-3.20563 -61.71624,-64.00562 -61.71624,-64.00562 -5.03424,-11.55053 -93.83609,-87.530504 -100.66587,-90.736135 -11.1459,-5.234463 -45.53632,-19.523719 -57.71213,-19.732165 -9.69955,-0.164825 -91.92218,19.300138 -101.07676,22.251665 0,0 -28.78735,6.5216 -43.919019,1.433076 C 89.459541,43.307278 -0.19233893,39.717952 3.2107389e-4,41.161375 0.10835107,41.964827 0.03122107,193.17999 0.03122107,193.17999 Z M 160.31275,252.76161 c 0.646,0.43008 1.29202,0.85801 1.92837,1.28402 l -0.72123,-1.52251 c 0,0 -0.43527,0.0925 -1.20714,0.23849 z m 40.36801,26.47542 c 0.47721,0.52746 4.87364,2.21681 5.26598,2.70558 0,0 -1.86328,0.39306 -1.67182,0.49813 0.002,-0.0464 -1.14637,-0.93449 -1.14444,-0.97247 0.0392,-0.73133 -1.38533,-1.88361 -2.44972,-2.23124"
     style="fill:#b8db7d;fill-opacity:1;fill-rule:evenodd;stroke:none"
     id="path3294"
     inkscape:connector-curvature="0" /><path
     d="m 322.76816,29.017521 c 0,0 -86.68539,29.82555 -92.49489,40.543041 -2.14205,3.952576 -9.23126,18.474088 -17.07405,34.695528 -1.90981,3.95258 1.02121,6.64783 -0.91681,10.67037 -7.52834,15.6346 -12.048,23.68426 -14.35907,27.65511 -1.47311,2.5296 0.68483,4.99742 1.75934,5.39746 38.88623,14.45755 60.14017,-14.69628 70.36177,-31.65145 0,0 44.10421,19.17487 65.79776,-3.7004 0,0 -2.91055,7.00915 -0.11884,8.62423 28.66509,16.60081 37.21271,15.7904 50.94024,36.09785 0,0 44.04055,26.61173 47.42831,28.33861 10.82856,5.52197 13.31132,4.87311 22.11191,8.99205 0.3629,0.16829 7.85725,4.06294 10.35905,4.96326 2.86617,1.03113 7.52641,-2.63128 11.23609,-5.19694 0.48928,-0.33874 82.48428,0.85852 83.15898,-1.56122 0.12636,-0.45053 -0.0696,-151.703219 -0.0965,-151.705373 C 546.46,39.168124 471.73868,49.80124 458.64463,41.1758 448.72661,34.641198 398.94816,25.975619 355.59318,20.704383 c -13.59224,-1.651388 -22.9477,3.662161 -32.82496,8.313388"
     style="fill:#99b085;fill-opacity:1;fill-rule:evenodd;stroke:none"
     id="path3296"
     inkscape:connector-curvature="0" /><path
     d="M 20.799813,376.46543 V 337.9368 h 43.1042 v 5.56623 H 37.336832 v 10.10563 h 19.147353 v 5.56646 H 37.336832 v 17.29031 z m 40.445177,0 17.653259,-38.52863 h 21.602621 l 17.57585,38.52863 H 101.08466 L 97.764665,368.1256 H 81.051364 l -3.572224,8.33983 z m 21.883791,-13.80651 h 12.60984 L 90.116489,346.56778 H 89.076932 Z M 127.5766,376.46543 V 337.9368 h 16.8404 v 38.52863 z m 49.84331,-32.9624 v 11.19758 h 6.53269 c 3.82565,0 6.45792,-0.40966 7.95226,-1.23764 1.49552,-0.82724 2.22955,-2.36467 2.22955,-4.60216 0,-2.02787 -0.78467,-3.42969 -2.33011,-4.20262 -1.57005,-0.77268 -4.38149,-1.15516 -8.43284,-1.15516 z m 0,16.76307 v 16.19933 H 160.88216 V 337.9368 h 24.26045 c 9.11696,0 15.67905,0.88326 19.75573,2.6373 4.05257,1.7562 6.07862,4.59376 6.07862,8.50548 0,2.41036 -0.80998,4.3656 -2.45792,5.85736 -1.61996,1.49174 -4.30432,2.70148 -8.0017,3.62946 l 12.15627,17.89903 H 195.55352 L 185.29429,360.2661 Z m 63.36706,10.52397 h 8.38077 c 2.91344,0 5.09043,-0.32624 6.48421,-0.98256 1.41909,-0.66376 2.12926,-1.68191 2.12926,-3.06523 v -18.54452 c 0,-1.58359 -1.06439,-2.73876 -3.19293,-3.47489 -2.12707,-0.73662 -5.46902,-1.1107 -10.02821,-1.1107 h -3.7731 z m -16.38655,5.67536 V 337.9368 h 23.50279 c 9.11648,0 15.85219,0.86403 20.23441,2.58273 4.38341,1.7283 6.56041,4.39349 6.56041,7.9958 v 17.20953 c 0,3.74655 -2.07717,6.47521 -6.23175,8.18574 -4.1524,1.6997 -10.76297,2.55483 -19.80493,2.55483 z m 65.36779,0 V 337.9368 h 16.83966 v 38.52863 z m 49.84257,-32.9624 v 11.19758 h 6.53244 c 3.82664,0 6.4589,-0.40966 7.953,-1.23764 1.49577,-0.82724 2.22835,-2.36467 2.22835,-4.60216 0,-2.02787 -0.78393,-3.42969 -2.3294,-4.20262 -1.57077,-0.77268 -4.38075,-1.15516 -8.43357,-1.15516 z m 0,16.76307 v 16.19933 H 323.07376 V 337.9368 h 24.25949 c 9.11793,0 15.67857,0.88326 19.75647,2.6373 4.0528,1.7562 6.07885,4.59376 6.07885,8.50548 0,2.41036 -0.81071,4.3656 -2.45817,5.85736 -1.61997,1.49174 -4.3048,2.70148 -8.00145,3.62946 l 12.15604,17.89903 h -17.12131 l -10.2578,-16.19933 z m 46.98051,16.19933 V 337.9368 h 43.18139 v 5.56623 h -26.64386 v 10.10563 h 19.19725 v 5.56646 h -19.19725 v 11.50604 h 26.64386 v 5.78427 z m 53.94436,-9.88542 v -19.74707 c 0,-3.03806 2.30625,-5.41308 6.89004,-7.14067 4.60985,-1.71941 10.96552,-2.58271 19.09551,-2.58271 7.64891,0 13.72608,0.88182 18.21101,2.64618 4.4806,1.77375 6.71016,4.1841 6.71016,7.24068 v 3.70184 h -16.99495 v -4.23963 c 0,-1.32683 -0.70943,-2.3279 -2.15168,-2.99167 -1.44562,-0.66378 -3.5715,-0.99962 -6.38149,-0.99962 -2.81287,0 -4.93875,0.33584 -6.38438,0.99962 -1.44224,0.66377 -2.15167,1.66484 -2.15167,2.99167 v 21.50349 c 0,1.33693 0.70943,2.33679 2.15167,3.01955 1.44563,0.67196 3.57151,1.00924 6.38438,1.00924 2.80999,0 4.93587,-0.33728 6.38149,-1.00924 1.44225,-0.68276 2.15168,-1.68262 2.15168,-3.01955 v -5.24887 h 16.99495 v 4.02903 c 0,3.37465 -2.20304,5.97708 -6.63638,7.80564 -4.43212,1.82689 -10.73982,2.74573 -18.89174,2.74573 -8.35834,0 -14.69135,-0.91067 -18.96914,-2.71929 -4.28094,-1.81052 -6.40946,-4.47451 -6.40946,-7.99435 z m 55.64291,-23.07698 v -5.56623 h 50.90625 v 5.56623 h -17.2233 v 32.9624 h -16.53752 v -32.9624"
     style="fill:#ffffff;fill-opacity:1;fill-rule:evenodd;stroke:none"
     id="path3298"
     inkscape:connector-curvature="0" /><path
     d="m 236.86551,273.74221 c 0,5.93717 -2.84302,13.42378 -2.84302,20.91064 7.23679,7.22842 17.05716,10.58382 28.94528,10.58382 17.57392,-17.81248 32.82158,-40.27184 22.48446,-66.8617 -9.04533,-24.26605 -42.90116,30.20371 -48.58672,35.36724 z M 221.35934,189.3255 c -11.88812,1.54898 -29.97954,14.45684 -39.02487,23.23445 -5.68556,5.67947 -33.33834,10.84227 -32.04658,21.16789 -4.39305,25.04089 26.36102,32.26954 37.73237,22.20189 10.85461,-9.29403 30.75456,-27.88061 46.51898,-33.30234 8.01183,-2.58155 11.88837,-10.84228 11.88837,-21.16813 -2.84302,-13.42451 -10.33737,-16.26423 -25.06827,-12.13376 z m -33.08081,79.25318 c 6.9783,15.48938 31.01304,23.75013 36.6986,15.74758 6.71933,-6.71177 2.32628,-1.03232 13.69763,-12.39122 5.68581,-5.67944 16.79795,-22.97528 26.87753,-31.75291 17.83219,-16.00579 2.58453,-19.36144 -8.78685,-25.04089 -12.92235,-2.58129 -77.53226,34.59264 -68.48691,53.43744 z m -13.17991,-50.59771 c 21.19173,-24.00833 6.20233,-30.46191 -10.85483,-31.75266 -17.31544,2.58127 -37.99039,10.84225 -50.6545,23.49191 l -2.3253,11.35891 c 9.5621,14.97275 8.52858,29.17115 38.24889,13.682 0.51676,-0.51666 0,-11.35891 25.58574,-16.78016"
     style="fill:#99b085;fill-opacity:1;fill-rule:evenodd;stroke:none"
     id="path3300"
     inkscape:connector-curvature="0" /></g><g
   transform="matrix(1.266202,0,0,1.266202,186.36284,33.542548)"
   id="g1132"><g
     id="Ebene_2_1_"><g
       id="g1127"><g
         id="g1115"><path
           class="st0"
           d="m 195.4,98.4 h 2 c 1.6,0 2.9,0.8 2.9,2.4 0,1.7 -1.4,2.4 -3,2.4 h -0.8 v 2.9 h -1.1 z m 1.1,3.9 h 0.8 c 0.7,0 1.9,-0.3 1.9,-1.5 0,-1.2 -1.2,-1.5 -1.8,-1.5 h -1 v 3 z"
           id="path1097"
           inkscape:connector-curvature="0"
           style="fill:#1d1d1b" /><path
           class="st0"
           d="m 201.2,102.1 c 0,-0.5 0,-0.9 -0.1,-1.4 h 1 l 0.1,1.4 h 0.1 c 0.2,-0.7 0.8,-1.5 1.6,-1.5 0.3,0 0.5,0.1 0.7,0.2 v 0.9 c -0.2,-0.1 -0.4,-0.1 -0.6,-0.1 -1,0 -1.6,1 -1.7,2.1 v 2.4 h -1 v -4 z"
           id="path1099"
           inkscape:connector-curvature="0"
           style="fill:#1d1d1b" /><path
           class="st0"
           d="m 207.5,100.6 c 1.8,0 2.6,1.6 2.6,2.8 0,1.4 -0.9,2.9 -2.6,2.9 -1.7,0 -2.7,-1.4 -2.7,-2.9 0,-1.2 0.8,-2.8 2.7,-2.8 z m 0,4.9 c 0.8,0 1.6,-0.7 1.6,-2.1 0,-1.4 -0.7,-2.1 -1.6,-2.1 -0.7,0 -1.6,0.4 -1.6,2.1 -0.1,1.1 0.4,2.1 1.6,2.1 z"
           id="path1101"
           inkscape:connector-curvature="0"
           style="fill:#1d1d1b" /><path
           class="st0"
           d="m 210.6,100.7 h 0.9 l 0.2,-1.6 h 0.8 v 1.6 h 1.5 v 0.8 h -1.5 v 3 c 0,0.5 0.2,0.8 0.7,0.8 0.3,0 0.6,-0.1 0.8,-0.2 v 0.8 c -0.2,0.1 -0.5,0.3 -0.9,0.3 -1,0 -1.6,-0.6 -1.6,-1.7 v -3 h -0.9 z"
           id="path1103"
           inkscape:connector-curvature="0"
           style="fill:#1d1d1b" /><path
           class="st0"
           d="m 217.2,100.6 c 1.8,0 2.6,1.6 2.6,2.8 0,1.4 -0.9,2.9 -2.6,2.9 -1.7,0 -2.7,-1.4 -2.7,-2.9 0,-1.2 0.8,-2.8 2.7,-2.8 z m 0,4.9 c 0.8,0 1.6,-0.7 1.6,-2.1 0,-1.4 -0.7,-2.1 -1.6,-2.1 -0.7,0 -1.6,0.4 -1.6,2.1 0,1.1 0.5,2.1 1.6,2.1 z"
           id="path1105"
           inkscape:connector-curvature="0"
           style="fill:#1d1d1b" /><path
           class="st0"
           d="m 220.3,100.7 h 0.9 l 0.2,-1.6 h 0.8 v 1.6 h 1.5 v 0.8 h -1.5 v 3 c 0,0.5 0.2,0.8 0.7,0.8 0.3,0 0.6,-0.1 0.8,-0.2 v 0.8 c -0.2,0.1 -0.5,0.3 -0.9,0.3 -1,0 -1.6,-0.6 -1.6,-1.7 v -3 h -0.9 z"
           id="path1107"
           inkscape:connector-curvature="0"
           style="fill:#1d1d1b" /><path
           class="st0"
           d="m 227,107.2 c -0.3,0.8 -0.9,1.1 -1.5,1.1 -0.2,0 -0.5,0 -0.7,-0.1 v -0.9 c 0.2,0.1 0.4,0.1 0.6,0.1 0.3,0 0.6,-0.1 0.7,-0.4 0.1,-0.2 0.3,-0.7 0.3,-0.9 0.1,-0.2 -0.1,-0.4 -0.3,-0.4 l -1.9,-5 h 1.1 l 1.5,4.3 h 0.1 l 1.3,-4.3 h 1.1 c -1.9,5.4 -2.1,5.8 -2.3,6.5 z"
           id="path1109"
           inkscape:connector-curvature="0"
           style="fill:#1d1d1b" /><path
           class="st0"
           d="m 230.9,108.2 h -1 v -6.6 c 0,-0.2 0,-0.6 0,-0.8 h 0.9 c 0,0.2 0,0.6 0,0.8 h 0.1 c 0.4,-0.6 0.9,-0.9 1.6,-0.9 1.5,0 2.3,1.3 2.3,2.8 0,1.6 -0.8,2.8 -2.2,2.8 -1,0 -1.4,-0.6 -1.6,-0.9 h -0.1 c 0,0 0,0.4 0,0.7 z m 1.3,-6.8 c -0.7,0 -1.3,0.8 -1.4,1.3 v 1.3 c 0,0.6 0.6,1.4 1.4,1.4 1,0 1.4,-0.9 1.4,-2 0.1,-1.2 -0.4,-2 -1.4,-2 z"
           id="path1111"
           inkscape:connector-curvature="0"
           style="fill:#1d1d1b" /><path
           class="st0"
           d="m 236.2,103.6 c 0,1.1 0.6,1.9 1.6,1.9 0.7,0 1.2,-0.4 1.3,-1 h 1 c -0.1,0.9 -0.9,1.8 -2.3,1.8 -1.5,0 -2.5,-1.1 -2.5,-2.9 0,-1.5 0.9,-2.8 2.5,-2.8 2,0 2.5,1.7 2.4,3 z m 2.8,-0.8 c 0,-0.5 -0.3,-1.5 -1.4,-1.5 -0.7,0 -1.3,0.5 -1.4,1.5 z"
           id="path1113"
           inkscape:connector-curvature="0"
           style="fill:#1d1d1b" /></g><g
         id="g1125"><path
           class="st0"
           d="m 195.4,108.5 h 4.3 v 0.9 h -3.2 v 2.6 h 3 v 0.9 h -3 v 3.4 h -1.1 z"
           id="path1117"
           inkscape:connector-curvature="0"
           style="fill:#1d1d1b" /><path
           class="st0"
           d="m 205.2,110.8 v 4.5 c 0,0.3 0,0.6 0.1,0.9 h -1 c 0,-0.2 0,-0.6 0,-0.9 h -0.1 c -0.1,0.2 -0.7,1 -1.7,1 -0.7,0 -1.8,-0.4 -1.8,-2 v -3.4 h 1 v 3.4 c 0,0.7 0.3,1.2 1,1.2 0.7,0 1.4,-0.6 1.5,-1.6 v -3.1 z"
           id="path1119"
           inkscape:connector-curvature="0"
           style="fill:#1d1d1b" /><path
           class="st0"
           d="m 206.2,111.8 c 0,-0.3 0,-0.6 -0.1,-0.9 h 1 v 0.9 h 0.1 c 0.1,-0.2 0.7,-1 1.7,-1 0.6,0 1.8,0.3 1.8,2 v 3.5 h -1 v -3.5 c 0,-0.7 -0.3,-1.2 -0.9,-1.2 -0.7,0 -1.4,0.7 -1.6,1.6 v 3.1 h -1 z"
           id="path1121"
           inkscape:connector-curvature="0"
           style="fill:#1d1d1b" /><path
           class="st0"
           d="m 215.3,108.5 h 1 v 6.9 c 0,0.2 0,0.6 0,0.8 h -0.9 c 0,-0.2 0,-0.6 0,-0.8 h -0.1 c -0.4,0.6 -0.9,0.9 -1.6,0.9 -1.5,0 -2.3,-1.3 -2.3,-2.8 0,-1.6 0.8,-2.8 2.2,-2.8 1,0 1.4,0.6 1.6,0.9 h 0.1 c 0,0 0,-0.4 0,-0.7 z m -1.4,7 c 0.7,0 1.3,-0.8 1.3,-1.3 v -1.3 c 0,-0.6 -0.6,-1.4 -1.4,-1.4 -1,0 -1.4,0.9 -1.4,2 0,1.2 0.5,2 1.5,2 z"
           id="path1123"
           inkscape:connector-curvature="0"
           style="fill:#1d1d1b" /></g></g><path
       id="XMLID_19_"
       class="st1"
       d="m 225.5,37.6 6.6,0.8 7.8,15 -7.8,12.6 c 0,0 -8.9,2.3 -12.3,3.2 H 212 v 20.3 l 6.3,2.2 -0.2,2.2 -11.2,-0.2 -11.2,0.2 -0.2,-2.2 6.3,-2.2 V 41.9 l -6.3,-2.2 0.2,-2.2 z m -13.5,27.3 6.5,1.2 10,-7 3.1,-5.7 -3.1,-5.7 -10,-6.6 -6.5,0.9 z"
       inkscape:connector-curvature="0"
       style="fill:#099acf" /></g><g
     id="Ebene_1" /></g><text
   id="text6750-0"
   y="47.543919"
   x="432.58325"
   style="font-style:normal;font-variant:normal;font-weight:bold;font-stretch:normal;font-size:13.45984745px;line-height:1.25;font-family:Calibri;-inkscape-font-specification:'Calibri Bold';font-variant-ligatures:normal;font-variant-caps:normal;font-variant-numeric:normal;font-feature-settings:normal;text-align:start;letter-spacing:0px;word-spacing:0px;writing-mode:lr-tb;text-anchor:start;fill:#211e1e;fill-opacity:1;stroke:none;stroke-width:0.67299241"
   xml:space="preserve"><tspan
     style="font-style:normal;font-variant:normal;font-weight:normal;font-stretch:condensed;font-family:'Kristall Now Pro';-inkscape-font-specification:'Kristall Now Pro Condensed';fill:#211e1e;fill-opacity:1;stroke-width:0.67299241"
     y="47.543919"
     x="432.58325"
     id="tspan6748-9"
     sodipodi:role="line">UNTERSTÜTZT DURCH</tspan></text>



<g
   id="g6644"
   transform="translate(-2.7925373,275.59008)"><g
     transform="translate(21.416598,-29.337073)"
     id="g1954"><path
       inkscape:connector-curvature="0"
       style="fill:#211e1e;fill-opacity:1;fill-rule:nonzero;stroke:none;stroke-width:1.33333325"
       d="m 188.49778,-118.51131 c 0,-0.6875 -0.16146,-1.17187 -0.48438,-1.46354 -0.32812,-0.29166 -0.70312,-0.4375 -1.14062,-0.4375 -0.46355,0 -0.86459,0.14584 -1.1875,0.4375 -0.33333,0.29167 -0.5,0.77604 -0.5,1.46354 0,0.6875 0.16667,1.17709 0.5,1.46355 0.32291,0.29687 0.71354,0.4375 1.14583,0.4375 0.46355,0 0.85417,-0.14063 1.18229,-0.4375 0.32292,-0.28646 0.48438,-0.77605 0.48438,-1.46355 z m -2.11979,6.26042 c -0.28125,0 -0.52084,-0.0208 -0.73437,-0.0625 -0.11974,0.0677 -0.23959,0.14583 -0.34896,0.23958 -0.10934,0.0937 -0.21355,0.20833 -0.3073,0.33854 -0.0937,0.13022 -0.16666,0.28646 -0.22917,0.46354 -0.0573,0.1823 -0.0885,0.38542 -0.0885,0.625 0,1.01563 0.56249,1.52605 1.68749,1.52605 0.96355,0 1.67188,-0.19271 2.14063,-0.56771 0.45833,-0.375 0.6927,-0.80729 0.6927,-1.29688 0,-0.45833 -0.14582,-0.78646 -0.43749,-0.97916 -0.29167,-0.19271 -0.67709,-0.28646 -1.17188,-0.28646 z m 4.41667,-7.96354 h -1.19271 c 0.30728,0.5 0.45833,1.06771 0.45833,1.70312 0,0.50521 -0.0833,0.95313 -0.2448,1.35938 -0.16666,0.40104 -0.40104,0.73958 -0.6927,1.01562 -0.30208,0.28125 -0.65104,0.48959 -1.05208,0.63542 -0.40104,0.14583 -0.83334,0.22396 -1.29688,0.22396 -0.0937,0 -0.1823,0 -0.26042,0 -0.0781,0 -0.16145,-0.0104 -0.25521,-0.026 -0.16145,0.0677 -0.32291,0.17187 -0.49479,0.31771 -0.17188,0.14583 -0.26041,0.33854 -0.26041,0.57291 0,0.19792 0.0781,0.35938 0.22916,0.48959 0.15104,0.11978 0.40104,0.1875 0.7448,0.1875 h 1.20312 c 0.45312,0 0.86979,0.0469 1.25,0.14062 0.38541,0.0885 0.71875,0.23438 1.00521,0.44271 0.28124,0.20312 0.5,0.46354 0.66146,0.78125 0.15625,0.31771 0.23958,0.70313 0.23958,1.14583 0,0.51563 -0.10933,0.98438 -0.32813,1.41146 -0.21875,0.42188 -0.52604,0.78125 -0.92187,1.08854 -0.39584,0.30209 -0.88021,0.54167 -1.44792,0.71355 -0.5677,0.17187 -1.20312,0.2552 -1.90104,0.2552 -1.01562,0 -1.79166,-0.22395 -2.3177,-0.66145 -0.53126,-0.44271 -0.79167,-1.07813 -0.79167,-1.91146 0,-0.35417 0.0625,-0.66667 0.18749,-0.92188 0.11974,-0.25521 0.27084,-0.48437 0.44271,-0.67187 0.17188,-0.19271 0.34896,-0.34375 0.52604,-0.45834 0.17709,-0.10937 0.32292,-0.20312 0.42709,-0.26562 v -0.0417 c -0.41146,-0.30208 -0.61458,-0.74479 -0.61458,-1.32812 0,-0.25 0.0469,-0.46875 0.15104,-0.65104 0.0989,-0.1823 0.20833,-0.33334 0.33333,-0.45313 0.12493,-0.11979 0.25,-0.21875 0.38021,-0.29167 0.12494,-0.0729 0.21875,-0.11978 0.28124,-0.14583 v -0.0417 c -0.48437,-0.22396 -0.875,-0.57812 -1.17708,-1.05729 -0.29686,-0.48437 -0.4427,-1.09896 -0.4427,-1.85416 0,-0.53125 0.0833,-0.9948 0.25521,-1.39584 0.17187,-0.40625 0.40104,-0.73958 0.69271,-1 0.29686,-0.26562 0.63541,-0.46354 1.02082,-0.59375 0.39063,-0.13541 0.81251,-0.20312 1.25522,-0.20312 0.45833,0 0.875,0.0833 1.27082,0.23958 h 2.89584 z m -10.81771,8.26042 v -6.125 c 0,-0.80209 -0.13543,-1.38021 -0.40625,-1.72917 -0.27084,-0.35417 -0.6823,-0.52604 -1.23959,-0.52604 -0.47396,0 -0.86979,0.11978 -1.18749,0.35937 -0.31772,0.23438 -0.56772,0.46875 -0.75522,0.69271 v 7.32813 h -1.60417 v -9.51042 h 1.46876 v 1.07292 h 0.0416 c 0.0364,-0.0833 0.11973,-0.19792 0.2552,-0.34896 0.13027,-0.15104 0.30209,-0.29688 0.51563,-0.4375 0.21354,-0.13542 0.45833,-0.26042 0.75,-0.36459 0.29166,-0.10937 0.625,-0.16145 0.9948,-0.16145 0.42186,0 0.80208,0.0677 1.14582,0.1875 0.34375,0.13021 0.63542,0.33333 0.875,0.60937 0.23438,0.27604 0.42188,0.63542 0.55208,1.07813 0.13027,0.4427 0.19792,0.98958 0.19792,1.63541 v 6.23959 z m -7.64584,0 h -1.46355 v -1.06771 h -0.0469 c -0.0364,0.0781 -0.12493,0.19271 -0.25521,0.34375 -0.13027,0.15625 -0.29687,0.29687 -0.5052,0.43229 -0.20314,0.14062 -0.45314,0.26562 -0.7448,0.36979 -0.28646,0.10937 -0.61459,0.16146 -0.96875,0.16146 -0.42188,0 -0.80208,-0.0625 -1.14063,-0.19271 -0.33333,-0.125 -0.625,-0.32812 -0.85937,-0.60417 -0.23959,-0.27604 -0.42188,-0.63541 -0.54688,-1.07291 -0.12493,-0.44271 -0.18749,-0.98959 -0.18749,-1.63542 v -6.24479 h 1.60416 v 6.125 c 0,0.79167 0.13026,1.35417 0.38542,1.6875 0.26042,0.33854 0.66146,0.50521 1.19791,0.50521 0.46355,0 0.85417,-0.10938 1.17188,-0.34375 0.31771,-0.22917 0.56771,-0.45313 0.75,-0.68229 v -7.29167 h 1.60937 z m -10.66145,0 v -6.125 c 0,-0.80209 -0.13543,-1.38021 -0.40626,-1.72917 -0.27082,-0.35417 -0.68229,-0.52604 -1.23958,-0.52604 -0.47396,0 -0.86979,0.11978 -1.1875,0.35937 -0.3125,0.23438 -0.5677,0.46875 -0.75,0.69271 v 7.32813 h -1.60417 v -14.00521 l 1.60417,-0.18229 v 5.65104 h 0.0364 c 0.0573,-0.0833 0.13542,-0.1875 0.25,-0.31771 0.10934,-0.13542 0.26563,-0.26563 0.46355,-0.39583 0.19792,-0.13022 0.44271,-0.25 0.72396,-0.34896 0.28645,-0.099 0.61979,-0.15104 1,-0.15104 0.83333,0 1.49479,0.27604 1.97916,0.8125 0.48959,0.54687 0.73437,1.4427 0.73437,2.69791 v 6.23959 z m -7.54688,-7.66667 c -0.0364,-0.0365 -0.10414,-0.099 -0.1875,-0.18229 -0.0833,-0.0729 -0.1927,-0.15625 -0.32813,-0.23438 -0.13541,-0.0781 -0.29167,-0.14583 -0.47916,-0.20833 -0.18229,-0.0573 -0.39063,-0.0886 -0.63021,-0.0886 -0.34375,0 -0.66667,0.0625 -0.95834,0.1875 -0.29686,0.125 -0.55729,0.32813 -0.77604,0.60417 -0.21874,0.28125 -0.39062,0.63541 -0.51562,1.07812 -0.12494,0.44792 -0.1875,0.98438 -0.1875,1.6198 0,0.69791 0.0573,1.28645 0.17187,1.76041 0.10933,0.47396 0.26563,0.85417 0.46355,1.14063 0.19792,0.28125 0.43749,0.48437 0.72396,0.60937 0.28125,0.125 0.59374,0.1875 0.93749,0.1875 0.48959,0 0.86459,-0.0833 1.1198,-0.25521 0.26041,-0.17187 0.44271,-0.3125 0.54687,-0.41666 l 0.65104,1.11458 c -0.0625,0.0781 -0.16146,0.17187 -0.28646,0.28646 -0.12493,0.10937 -0.28645,0.21875 -0.48437,0.32292 -0.19792,0.10416 -0.43751,0.1927 -0.72396,0.26562 -0.28125,0.0781 -0.60937,0.11459 -0.97916,0.11459 -0.53125,0 -1.02605,-0.0886 -1.48439,-0.26042 -0.46353,-0.17188 -0.86457,-0.45312 -1.21353,-0.84896 -0.33855,-0.40104 -0.60937,-0.91146 -0.80729,-1.54167 -0.19792,-0.63541 -0.30208,-1.42187 -0.30208,-2.35937 0,-0.91667 0.11973,-1.6875 0.35937,-2.32292 0.23959,-0.6302 0.54687,-1.14583 0.93229,-1.53646 0.3802,-0.38541 0.8073,-0.67187 1.27604,-0.84895 0.47396,-0.17709 0.94271,-0.27084 1.41667,-0.27084 0.35937,0 0.67187,0.0365 0.94271,0.10418 0.27082,0.0625 0.5,0.14583 0.6927,0.24479 0.19271,0.099 0.34896,0.20312 0.47396,0.31771 0.12494,0.10937 0.22916,0.20833 0.3073,0.28645 z m -8.11979,0.0781 c -0.10933,-0.11459 -0.29688,-0.28125 -0.57813,-0.48438 -0.27604,-0.20833 -0.64062,-0.30729 -1.08854,-0.30729 -0.42188,0 -0.7448,0.099 -0.97396,0.29688 -0.21874,0.19791 -0.33333,0.4375 -0.33333,0.71354 0,0.35417 0.10413,0.65104 0.30729,0.88021 0.20312,0.23437 0.51563,0.47916 0.9375,0.74479 l 0.59376,0.35937 c 0.65104,0.38021 1.15624,0.79167 1.53124,1.23438 0.36458,0.44271 0.55209,1.01562 0.55209,1.71354 0,0.75 -0.26043,1.38542 -0.78647,1.90104 -0.51562,0.51563 -1.27082,0.77604 -2.24478,0.77604 -0.38022,0 -0.71875,-0.0417 -1.01042,-0.11978 -0.29166,-0.0833 -0.54166,-0.17188 -0.76042,-0.27604 -0.21875,-0.10938 -0.40104,-0.22396 -0.54687,-0.34896 -0.14584,-0.13022 -0.26563,-0.23959 -0.35417,-0.34896 l 0.77084,-1.26563 c 0.0781,0.0781 0.17708,0.17188 0.28645,0.27605 0.10933,0.10937 0.25,0.21354 0.40625,0.30729 0.15626,0.099 0.33854,0.18229 0.53646,0.25 0.1927,0.0677 0.42708,0.0937 0.6875,0.0937 0.47916,0 0.84375,-0.099 1.09375,-0.3125 0.25521,-0.20833 0.375,-0.46354 0.375,-0.77604 0,-0.21875 -0.0312,-0.41666 -0.0885,-0.58333 -0.0573,-0.16146 -0.14583,-0.3125 -0.26563,-0.44271 -0.11453,-0.13021 -0.26561,-0.26042 -0.43749,-0.375 -0.17188,-0.11979 -0.36979,-0.25 -0.59375,-0.39583 l -0.59376,-0.38021 c -0.59375,-0.38542 -1.05728,-0.78125 -1.39583,-1.20834 -0.33854,-0.42187 -0.50521,-0.96354 -0.50521,-1.625 0,-0.35416 0.0677,-0.68229 0.20833,-0.97916 0.13543,-0.29688 0.33334,-0.55208 0.58334,-0.77604 0.25,-0.21875 0.54166,-0.38542 0.88021,-0.51563 0.33855,-0.11979 0.69792,-0.1875 1.07812,-0.1875 0.3698,0 0.68751,0.0365 0.95313,0.11459 0.26563,0.0677 0.48958,0.16146 0.6823,0.27604 0.1927,0.10937 0.34894,0.22396 0.47916,0.33854 0.12493,0.10937 0.22396,0.20833 0.30729,0.28646 z m -5.60937,-0.51563 c -0.0416,-0.026 -0.12494,-0.0573 -0.25522,-0.099 -0.13541,-0.0365 -0.31249,-0.0573 -0.53645,-0.0573 -0.5,0 -0.89584,0.13542 -1.17709,0.40625 -0.28646,0.27083 -0.48958,0.5625 -0.60416,0.88021 v 6.97396 h -1.60938 v -9.51042 h 1.46875 v 1.29167 h 0.0364 c 0.0677,-0.1875 0.15105,-0.3698 0.26043,-0.54688 0.10413,-0.17708 0.23957,-0.33854 0.39582,-0.47396 0.16147,-0.14062 0.34375,-0.25 0.56251,-0.32812 0.21875,-0.0781 0.47916,-0.11979 0.78645,-0.11979 0.21875,0 0.40626,0.0208 0.54688,0.0573 0.13542,0.0417 0.23958,0.0729 0.32291,0.099 z m -7.86459,3.34896 c 0,-1.26562 -0.18751,-2.1875 -0.55729,-2.76041 -0.36979,-0.57813 -0.88542,-0.86459 -1.54167,-0.86459 -0.66145,0 -1.17188,0.28646 -1.53645,0.86459 -0.36459,0.57291 -0.54688,1.49479 -0.54688,2.76041 0,1.27084 0.1875,2.18229 0.55729,2.73438 0.36979,0.55208 0.88541,0.82812 1.54688,0.82812 0.65624,0 1.16667,-0.27604 1.53124,-0.82812 0.36459,-0.55209 0.54688,-1.46354 0.54688,-2.73438 z m -5.84375,0 c 0,-0.86979 0.0989,-1.625 0.3073,-2.26041 0.20312,-0.63021 0.47916,-1.15105 0.82812,-1.55209 0.35416,-0.40625 0.75521,-0.70312 1.21354,-0.89062 0.45312,-0.19271 0.9375,-0.29167 1.45312,-0.29167 0.53126,0 1.01563,0.099 1.46875,0.29167 0.44792,0.1875 0.83855,0.48437 1.16667,0.89062 0.32813,0.40104 0.59374,0.92188 0.78125,1.55209 0.19271,0.63541 0.28645,1.39062 0.28645,2.26041 0,0.88542 -0.0937,1.64584 -0.29686,2.28125 -0.19792,0.63021 -0.46876,1.14583 -0.81771,1.55209 -0.35417,0.40104 -0.76043,0.69791 -1.21876,0.8802 -0.46353,0.1823 -0.95312,0.28125 -1.46875,0.28125 -0.52604,0 -1.01562,-0.099 -1.46354,-0.28125 -0.45312,-0.18229 -0.83854,-0.47916 -1.17187,-0.8802 -0.32813,-0.40626 -0.58855,-0.91667 -0.78125,-1.54167 -0.19271,-0.63021 -0.28646,-1.39063 -0.28646,-2.29167 z m -7.92708,4.75521 v -13.67187 h 6.71875 l -0.11973,1.36979 h -4.875 v 5.05209 h 4.5 v 1.36979 h -4.5 v 5.88021 z m -10.38021,-1.19271 c 0.25,0 0.47396,-0.026 0.67187,-0.0937 0.19792,-0.0677 0.3698,-0.15105 0.51563,-0.25 0.14583,-0.0937 0.27083,-0.19792 0.36979,-0.3073 0.099,-0.10417 0.17708,-0.19791 0.22396,-0.27604 v -5.86458 c -0.14063,-0.0937 -0.3125,-0.17187 -0.50521,-0.23437 -0.1875,-0.0677 -0.43229,-0.099 -0.71875,-0.099 -0.36979,0 -0.71875,0.0573 -1.04167,0.1875 -0.32291,0.125 -0.60416,0.33333 -0.84375,0.61979 -0.23958,0.29166 -0.42187,0.66666 -0.5625,1.13021 -0.14062,0.46354 -0.20833,1.03125 -0.20833,1.70312 0,0.66146 0.0573,1.21354 0.16667,1.65625 0.11458,0.44271 0.27083,0.80208 0.46875,1.06771 0.19791,0.27083 0.42187,0.46354 0.67187,0.58333 0.25,0.11979 0.51563,0.17709 0.79167,0.17709 z m -3.76563,-3.42187 c 0,-0.96355 0.125,-1.77084 0.38021,-2.41667 0.25,-0.65104 0.57292,-1.17188 0.96875,-1.56771 0.39583,-0.39583 0.84375,-0.67708 1.34896,-0.83854 0.5,-0.16667 1,-0.25 1.50521,-0.25 0.30208,0 0.56771,0.026 0.79166,0.0677 0.22396,0.0469 0.41146,0.10417 0.55209,0.17187 v -4.55728 l 1.60937,-0.18229 v 14.1875 h -1.46875 v -1.01042 h -0.0417 c -0.0365,0.0781 -0.10938,0.1875 -0.21354,0.32812 -0.10938,0.13542 -0.25,0.27605 -0.43751,0.41667 -0.18749,0.13542 -0.41666,0.25521 -0.6927,0.35417 -0.28125,0.099 -0.60417,0.15104 -0.97396,0.15104 -0.44792,0 -0.875,-0.0937 -1.27604,-0.27083 -0.40104,-0.1823 -0.75521,-0.46355 -1.0573,-0.84896 -0.30729,-0.39063 -0.54687,-0.89584 -0.72395,-1.50521 -0.17709,-0.61458 -0.27084,-1.35938 -0.27084,-2.22917 z m -3.5625,4.61458 v -6.125 c 0,-0.80208 -0.13541,-1.38021 -0.40625,-1.72917 -0.27083,-0.35416 -0.682287,-0.52604 -1.239579,-0.52604 -0.473959,0 -0.869792,0.11979 -1.1875,0.35938 -0.31771,0.23437 -0.56771,0.46875 -0.755208,0.6927 v 7.32813 h -1.604168 v -9.51042 h 1.463542 v 1.07292 h 0.04167 c 0.04167,-0.0833 0.125,-0.19792 0.260416,-0.34896 0.130213,-0.15104 0.302084,-0.29687 0.510417,-0.4375 0.213542,-0.13541 0.463542,-0.26041 0.755208,-0.36458 0.291667,-0.10937 0.619792,-0.16145 0.989584,-0.16145 0.421868,0 0.807288,0.0677 1.151038,0.1875 0.34375,0.13021 0.63021,0.33333 0.86979,0.60937 0.23959,0.27604 0.42188,0.63542 0.55729,1.07813 0.13022,0.4427 0.19792,0.98958 0.19792,1.63541 v 6.23959 z m -7.651038,0 H 91.93528 v -1.06771 h -0.04167 c -0.03645,0.0781 -0.125,0.19271 -0.255208,0.34375 -0.135416,0.15625 -0.302083,0.29688 -0.505208,0.43229 -0.208334,0.14063 -0.453126,0.26563 -0.744792,0.3698 -0.291667,0.10937 -0.614584,0.16145 -0.96875,0.16145 -0.421876,0 -0.802084,-0.0625 -1.140625,-0.19271 -0.333333,-0.125 -0.625,-0.32812 -0.859375,-0.60416 -0.239584,-0.27604 -0.421876,-0.63541 -0.546876,-1.07291 -0.125,-0.44271 -0.1875,-0.98959 -0.1875,-1.63542 v -6.24479 h 1.604167 v 6.125 c 0,0.79167 0.130213,1.35417 0.385417,1.6875 0.260416,0.33854 0.65625,0.50521 1.197916,0.50521 0.463543,0 0.854167,-0.10938 1.171876,-0.34375 0.317708,-0.22917 0.567708,-0.45313 0.75,-0.68229 v -7.29167 h 1.604166 z m 68.114578,-26.53645 c 0,-0.6875 -0.16666,-1.17709 -0.48958,-1.46354 -0.31771,-0.29167 -0.70312,-0.4375 -1.13542,-0.4375 -0.46354,0 -0.85937,0.14583 -1.18749,0.4375 -0.32813,0.28645 -0.5,0.77604 -0.5,1.46354 0,0.6875 0.17187,1.17708 0.5,1.46875 0.32812,0.28646 0.71353,0.43229 1.14583,0.43229 0.46354,0 0.85937,-0.14583 1.17708,-0.43229 0.32292,-0.29167 0.48958,-0.78125 0.48958,-1.46875 z m -2.11978,6.26041 c -0.27604,0 -0.52084,-0.0208 -0.73438,-0.0573 -0.11973,0.0677 -0.23438,0.14063 -0.34376,0.23438 -0.11453,0.0937 -0.21874,0.20833 -0.31249,0.33854 -0.0885,0.13021 -0.16667,0.28646 -0.22396,0.46354 -0.0625,0.17708 -0.0885,0.39062 -0.0885,0.625 0,1.02083 0.5625,1.52604 1.68229,1.52604 0.96355,0 1.67708,-0.1875 2.14063,-0.5625 0.46354,-0.375 0.6927,-0.8125 0.6927,-1.29687 0,-0.46355 -0.14582,-0.79167 -0.43749,-0.98438 -0.29167,-0.1875 -0.67709,-0.28646 -1.16667,-0.28646 z m 4.41666,-7.96354 h -1.1875 c 0.30208,0.50521 0.45312,1.06771 0.45312,1.70313 0,0.50521 -0.0781,0.95833 -0.24479,1.35937 -0.16667,0.40104 -0.39583,0.73959 -0.69271,1.02084 -0.30208,0.27604 -0.65104,0.48958 -1.05208,0.6302 -0.40104,0.14584 -0.83854,0.21876 -1.29688,0.21876 -0.0937,0 -0.18229,0 -0.26041,0 -0.0781,0 -0.16145,-0.005 -0.25521,-0.0208 -0.15624,0.0677 -0.32291,0.17187 -0.5,0.3177 -0.16667,0.14584 -0.25,0.33855 -0.25,0.57813 0,0.19792 0.0729,0.35937 0.22396,0.48437 0.15104,0.125 0.40104,0.1875 0.7448,0.1875 h 1.20833 c 0.44791,0 0.85937,0.0469 1.24999,0.13542 0.38021,0.0937 0.71354,0.24479 0.9948,0.44792 0.28645,0.20312 0.51041,0.46354 0.66666,0.78125 0.15626,0.3177 0.23959,0.69791 0.23959,1.15104 0,0.51562 -0.10933,0.98437 -0.32813,1.40625 -0.21875,0.42187 -0.52604,0.78646 -0.92187,1.08854 -0.39584,0.30729 -0.88021,0.54167 -1.44792,0.71354 -0.56771,0.17188 -1.20312,0.26042 -1.90104,0.26042 -1.01563,0 -1.79167,-0.22396 -2.31771,-0.66667 -0.52604,-0.44271 -0.79166,-1.07812 -0.79166,-1.91146 0,-0.35416 0.0625,-0.66145 0.18749,-0.92187 0.12493,-0.25521 0.27604,-0.47917 0.44792,-0.67188 0.17188,-0.1927 0.34375,-0.34375 0.52083,-0.45833 0.18229,-0.10937 0.32292,-0.19792 0.42709,-0.26562 v -0.0417 c -0.41147,-0.30208 -0.61459,-0.74479 -0.61459,-1.32813 0,-0.25 0.0521,-0.46354 0.15104,-0.65104 0.0989,-0.1875 0.20834,-0.33333 0.33334,-0.45312 0.12493,-0.11979 0.25521,-0.21875 0.38021,-0.29167 0.12493,-0.0677 0.21875,-0.11979 0.28645,-0.14583 v -0.0417 c -0.48958,-0.22396 -0.88541,-0.57812 -1.17708,-1.05729 -0.29688,-0.48438 -0.44792,-1.09896 -0.44792,-1.85417 0,-0.52604 0.0885,-0.99479 0.25522,-1.39583 0.17186,-0.40104 0.40624,-0.73438 0.6927,-1 0.29687,-0.26563 0.6302,-0.46354 1.02604,-0.59375 0.38542,-0.13021 0.8073,-0.19792 1.25522,-0.19792 0.4479,0 0.875,0.0781 1.26561,0.23959 h 2.89584 z m -10.8177,8.26042 v -6.11979 c 0,-0.80729 -0.13543,-1.38542 -0.40626,-1.73438 -0.27084,-0.34895 -0.68229,-0.52604 -1.23437,-0.52604 -0.47917,0 -0.875,0.11979 -1.18751,0.35938 -0.32292,0.23437 -0.57292,0.46875 -0.7552,0.69271 v 7.32812 h -1.60417 v -9.50521 h 1.46355 v 1.06771 h 0.0416 c 0.0364,-0.0781 0.12493,-0.19792 0.2552,-0.34896 0.13026,-0.15104 0.30209,-0.29687 0.51562,-0.4375 0.20834,-0.13542 0.46355,-0.26042 0.75522,-0.36458 0.28645,-0.10418 0.61978,-0.15625 0.98958,-0.15625 0.42187,0 0.80208,0.0625 1.15104,0.1875 0.33854,0.125 0.6302,0.32291 0.86458,0.60417 0.2448,0.27604 0.42709,0.63541 0.55729,1.07812 0.13027,0.44271 0.19792,0.98958 0.19792,1.63542 v 6.23958 z m -7.64584,0 h -1.46875 v -1.06771 h -0.0364 c -0.0416,0.0781 -0.13027,0.19271 -0.26041,0.34375 -0.13027,0.15104 -0.30208,0.29688 -0.5052,0.4375 -0.20314,0.13542 -0.45314,0.26042 -0.7448,0.36458 -0.28646,0.10938 -0.60938,0.16146 -0.96875,0.16146 -0.42188,0 -0.79688,-0.0625 -1.13541,-0.19271 -0.33855,-0.11978 -0.625,-0.32291 -0.86459,-0.59895 -0.23959,-0.28125 -0.41667,-0.64063 -0.54167,-1.08334 -0.12493,-0.4427 -0.1875,-0.98437 -0.1875,-1.63021 v -6.23958 h 1.60417 v 6.11979 c 0,0.79167 0.12493,1.35417 0.38541,1.69271 0.25522,0.33854 0.65104,0.50521 1.19792,0.50521 0.46355,0 0.84896,-0.11459 1.16667,-0.34896 0.31771,-0.22917 0.57292,-0.45312 0.75521,-0.68229 v -7.28646 h 1.6041 z m -12.5,-1.1875 c 0.25,0 0.47396,-0.0365 0.67188,-0.099 0.1979,-0.0625 0.36978,-0.15104 0.51562,-0.25 0.14583,-0.099 0.26562,-0.19792 0.36458,-0.30729 0.10413,-0.10418 0.17709,-0.19792 0.22917,-0.27604 v -5.86459 c -0.14063,-0.0885 -0.31251,-0.17187 -0.50521,-0.23958 -0.1875,-0.0625 -0.4323,-0.0937 -0.72396,-0.0937 -0.36979,0 -0.71354,0.0625 -1.03646,0.1875 -0.32812,0.125 -0.60417,0.33334 -0.84374,0.625 -0.23959,0.28646 -0.4271,0.66667 -0.56251,1.125 -0.14063,0.46355 -0.20833,1.03125 -0.20833,1.70313 0,0.66146 0.0521,1.21354 0.16666,1.65625 0.10934,0.44271 0.26563,0.79687 0.46355,1.06771 0.20312,0.27604 0.42708,0.46875 0.67187,0.58854 0.25521,0.11979 0.51562,0.17708 0.79688,0.17708 z m -3.76563,-3.42708 c 0,-0.96354 0.12493,-1.77084 0.375,-2.41667 0.25,-0.64583 0.57813,-1.17187 0.97396,-1.56771 0.39063,-0.39583 0.84375,-0.67708 1.34375,-0.83854 0.50521,-0.16667 1.00521,-0.25 1.50521,-0.25 0.30729,0 0.57292,0.026 0.79688,0.0677 0.22395,0.0469 0.41145,0.10416 0.55208,0.17187 v -4.55729 l 1.60416,-0.17709 v 14.1823 h -1.46353 v -1.01042 h -0.0416 c -0.0364,0.0833 -0.10934,0.1875 -0.21876,0.32812 -0.10414,0.14063 -0.25,0.27605 -0.43228,0.41667 -0.18751,0.13542 -0.41667,0.25521 -0.69792,0.35938 -0.27604,0.0937 -0.59896,0.14583 -0.96875,0.14583 -0.44792,0 -0.875,-0.0885 -1.27605,-0.26563 -0.40624,-0.18229 -0.76042,-0.46354 -1.0625,-0.85416 -0.30208,-0.39063 -0.54166,-0.89063 -0.71874,-1.50521 -0.1823,-0.61458 -0.27084,-1.35937 -0.27084,-2.22917 z m -2.49479,2.39583 c 0,0.39583 0.0573,0.67708 0.16667,0.83333 0.10933,0.15625 0.30729,0.23438 0.58333,0.23438 0.14583,0 0.27083,-0.0104 0.36979,-0.0365 0.0989,-0.026 0.17188,-0.0521 0.22396,-0.0781 l 0.14063,1.18751 c -0.0781,0.0365 -0.22396,0.0937 -0.4323,0.15624 -0.21354,0.0677 -0.5,0.10418 -0.85416,0.10418 -0.54166,0 -0.97917,-0.16667 -1.30729,-0.5 -0.33333,-0.32813 -0.4948,-0.91667 -0.4948,-1.76042 v -11.92708 l 1.60417,-0.17709 z m -4.83333,-9.58854 c -0.33333,0 -0.59375,-0.10416 -0.79167,-0.31771 -0.20312,-0.20833 -0.30208,-0.48958 -0.30208,-0.83333 0,-0.32813 0.099,-0.59896 0.30208,-0.8125 0.19792,-0.20834 0.45834,-0.3125 0.79167,-0.3125 0.3125,0 0.57291,0.10417 0.77083,0.3125 0.19792,0.21354 0.29688,0.48437 0.29688,0.8125 0,0.34375 -0.099,0.625 -0.29688,0.83333 -0.19792,0.21354 -0.45833,0.31771 -0.77083,0.31771 z m 0.79167,11.80729 h -1.60417 v -9.50521 h 1.60417 z m -5.56771,-3.82292 c 0,-0.73958 -0.23959,-1.32291 -0.72396,-1.75 -0.47917,-0.43229 -1.17188,-0.64583 -2.06771,-0.64583 h -1.17187 v 4.79167 h 1.07291 c 1.01563,0 1.75,-0.19792 2.20834,-0.60417 0.45312,-0.40104 0.68229,-1 0.68229,-1.79167 z m -0.26042,-6.30208 c 0,-0.63021 -0.22396,-1.15104 -0.67187,-1.5625 -0.44792,-0.41146 -1.15626,-0.61458 -2.1198,-0.61458 h -0.91145 v 4.71875 h 0.89583 c 0.92187,0 1.61979,-0.22917 2.09896,-0.67709 0.47395,-0.44791 0.70833,-1.0677 0.70833,-1.86458 z m 1.74479,-0.0573 c 0,0.47395 -0.0573,0.89062 -0.17708,1.25 -0.11979,0.35416 -0.28125,0.66145 -0.48438,0.92187 -0.20833,0.25521 -0.44271,0.46354 -0.71354,0.61979 -0.27083,0.16146 -0.55208,0.28125 -0.84375,0.35938 v 0.0417 c 0.35938,0.0625 0.69271,0.1875 1,0.375 0.3125,0.18229 0.58333,0.41666 0.8125,0.6927 0.23438,0.27604 0.41667,0.60417 0.55729,0.98438 0.13542,0.375 0.20834,0.78646 0.20834,1.23437 0,0.54167 -0.0937,1.03646 -0.27604,1.48438 -0.18751,0.45312 -0.47396,0.83854 -0.86459,1.16666 -0.39062,0.33334 -0.88021,0.58855 -1.47396,0.77605 -0.59375,0.1875 -1.30208,0.27604 -2.11979,0.27604 h -2.79687 v -13.66667 h 2.63541 c 0.80729,0 1.4948,0.0781 2.07292,0.24479 0.57292,0.16667 1.04688,0.40104 1.41667,0.70313 0.36458,0.30208 0.63541,0.67187 0.80208,1.09896 0.16146,0.43229 0.24479,0.91145 0.24479,1.4375 z m -12.83854,2.08333 c -0.0365,-0.0312 -0.125,-0.0625 -0.25521,-0.10416 -0.13021,-0.0365 -0.3125,-0.0573 -0.53646,-0.0573 -0.5,0 -0.89583,0.13541 -1.17708,0.40625 -0.28646,0.27083 -0.48437,0.5625 -0.60417,0.8802 v 6.97396 h -1.60416 v -9.50521 h 1.46354 v 1.28125 h 0.0417 c 0.0625,-0.18229 0.15104,-0.36458 0.2552,-0.54166 0.10938,-0.17709 0.23959,-0.33854 0.39584,-0.47396 0.16146,-0.14063 0.34896,-0.25 0.56771,-0.32813 0.21875,-0.0781 0.47916,-0.11978 0.78125,-0.11978 0.22395,0 0.40624,0.0208 0.54687,0.0573 0.13542,0.0417 0.24479,0.0729 0.32292,0.099 z m -7.526041,-4.14062 c 0,0.30208 -0.09375,0.54687 -0.276042,0.72916 -0.1875,0.1875 -0.411458,0.28125 -0.677084,0.28125 -0.260416,0 -0.484374,-0.0937 -0.671874,-0.28125 -0.182292,-0.18229 -0.276042,-0.42708 -0.276042,-0.72916 0,-0.3073 0.09375,-0.55209 0.276042,-0.73438 0.1875,-0.1875 0.411458,-0.27604 0.671874,-0.27604 0.265626,0 0.489584,0.0885 0.677084,0.27604 0.182292,0.18229 0.276042,0.42708 0.276042,0.73438 z m -3.052083,0 c 0,0.30208 -0.09375,0.54687 -0.276043,0.72916 -0.1875,0.1875 -0.411458,0.28125 -0.677082,0.28125 -0.260418,0 -0.484376,-0.0937 -0.671875,-0.28125 -0.182292,-0.18229 -0.276042,-0.42708 -0.276042,-0.72916 0,-0.3073 0.09375,-0.55209 0.276042,-0.73438 0.187499,-0.1875 0.411457,-0.27604 0.671875,-0.27604 0.265624,0 0.489582,0.0885 0.677082,0.27604 0.182292,0.18229 0.276043,0.42708 0.276043,0.73438 z m 3.942708,12.23958 h -1.463543 v -1.06771 h -0.04167 c -0.04167,0.0781 -0.125,0.19271 -0.260416,0.34375 -0.130214,0.15104 -0.296875,0.29688 -0.505208,0.4375 -0.203126,0.13542 -0.447918,0.26042 -0.739584,0.36458 -0.291667,0.10938 -0.614583,0.16146 -0.973958,0.16146 -0.421876,0 -0.802084,-0.0625 -1.135417,-0.19271 -0.338541,-0.11978 -0.625,-0.32291 -0.864582,-0.59895 -0.234376,-0.28125 -0.416667,-0.64063 -0.541667,-1.08334 -0.125,-0.4427 -0.187501,-0.98437 -0.187501,-1.63021 v -6.23958 h 1.604167 v 6.11979 c 0,0.79167 0.125,1.35417 0.385416,1.69271 0.255208,0.33854 0.656251,0.50521 1.197918,0.50521 0.463541,0 0.854165,-0.11459 1.166666,-0.34896 0.317708,-0.22917 0.572916,-0.45312 0.755208,-0.68229 v -7.28646 h 1.604167 z m -8.239584,-8.20312 h -1.942708 v 8.20312 h -1.604166 v -8.20312 h -1.151042 v -1.06771 l 1.151042,-0.21875 v -1.90105 c 0,-0.51562 0.07292,-0.95833 0.21875,-1.32812 0.140624,-0.36979 0.333334,-0.67188 0.572916,-0.91146 0.239583,-0.23958 0.515626,-0.41146 0.833334,-0.51562 0.317708,-0.10418 0.651041,-0.15625 1.010417,-0.15625 0.343749,0 0.630208,0.0469 0.869791,0.14062 0.239584,0.0885 0.395833,0.16146 0.473958,0.21354 l -0.333333,1.32813 c -0.08333,-0.0521 -0.192708,-0.10937 -0.338541,-0.16667 -0.145834,-0.0573 -0.322918,-0.0885 -0.536459,-0.0885 -0.380208,0 -0.671875,0.11978 -0.869792,0.35416 -0.197916,0.23959 -0.296875,0.67709 -0.296875,1.30729 v 1.70834 h 2.140626 z m 124.79166,-11.77605 v -6.11979 c 0,-0.78125 -0.11453,-1.33854 -0.33854,-1.68229 -0.22395,-0.34375 -0.58854,-0.51562 -1.08854,-0.51562 -0.26562,0 -0.5,0.0312 -0.70833,0.099 -0.20313,0.0677 -0.38021,0.14583 -0.54167,0.24479 -0.16146,0.099 -0.29688,0.20833 -0.41666,0.32812 -0.11454,0.11979 -0.21355,0.22396 -0.29688,0.31771 v 7.32812 h -1.60416 v -9.51041 h 1.46353 v 1.07291 h 0.0416 c 0.0677,-0.10417 0.16667,-0.23437 0.29688,-0.38541 0.13541,-0.15104 0.29688,-0.29688 0.49479,-0.4375 0.19792,-0.14063 0.43229,-0.25521 0.6927,-0.34896 0.26563,-0.0886 0.56251,-0.13542 0.89584,-0.13542 1.08334,0 1.84896,0.42188 2.29688,1.26563 0.0885,-0.13022 0.21875,-0.27084 0.3802,-0.42708 0.15104,-0.15105 0.33855,-0.28646 0.54688,-0.41146 0.21354,-0.125 0.45312,-0.22917 0.71875,-0.3073 0.26041,-0.0833 0.55208,-0.11978 0.86979,-0.11978 1.92709,0 2.89584,1.11979 2.89584,3.36979 v 6.375 h -1.60938 v -6.11979 c 0,-0.78125 -0.13541,-1.33854 -0.41146,-1.68229 -0.28124,-0.34375 -0.6875,-0.51563 -1.23438,-0.51563 -0.4479,0 -0.8177,0.10938 -1.11457,0.32292 -0.30209,0.21875 -0.53647,0.42708 -0.70313,0.625 0.026,0.15104 0.0469,0.30208 0.0573,0.46875 0.0156,0.16666 0.0208,0.33854 0.0208,0.52604 v 6.375 z m -7.44792,0 h -1.46874 v -1.06771 h -0.0416 c -0.0364,0.0781 -0.12494,0.19271 -0.25522,0.34376 -0.13026,0.15624 -0.30208,0.30208 -0.5052,0.43749 -0.20313,0.14063 -0.45313,0.26042 -0.7448,0.3698 -0.29166,0.10417 -0.61457,0.15625 -0.96874,0.15625 -0.42187,0 -0.80208,-0.0625 -1.14063,-0.1875 -0.33853,-0.125 -0.625,-0.32813 -0.86457,-0.60417 -0.23439,-0.28125 -0.41667,-0.63542 -0.54167,-1.07813 -0.12493,-0.4427 -0.18751,-0.98958 -0.18751,-1.63541 v -6.24479 h 1.60418 v 6.125 c 0,0.79166 0.13026,1.35937 0.38541,1.6927 0.26041,0.33855 0.65625,0.50521 1.19792,0.50521 0.46353,0 0.85416,-0.11458 1.17187,-0.34375 0.3177,-0.23437 0.5677,-0.46354 0.75,-0.6875 v -7.29166 h 1.60937 z m -9.90624,-11.80729 c -0.33333,0 -0.59376,-0.10417 -0.79688,-0.31771 -0.19792,-0.20833 -0.29688,-0.48437 -0.29688,-0.82812 0,-0.33334 0.0989,-0.60417 0.29688,-0.8125 0.20312,-0.21354 0.46355,-0.31771 0.79688,-0.31771 0.3125,0 0.57291,0.10417 0.77083,0.31771 0.19792,0.20833 0.29688,0.47916 0.29688,0.8125 0,0.34375 -0.0989,0.61979 -0.29688,0.82812 -0.19792,0.21354 -0.45833,0.31771 -0.77083,0.31771 z m 0.79167,11.80729 h -1.60939 v -9.51041 h 1.60939 z m -3.19272,-8.09895 c -0.0364,-0.026 -0.12493,-0.0625 -0.2552,-0.099 -0.13541,-0.0417 -0.31251,-0.0625 -0.53647,-0.0625 -0.5,0 -0.89582,0.13542 -1.17708,0.40625 -0.28645,0.27083 -0.48437,0.56771 -0.60416,0.88021 v 6.97396 h -1.60417 v -9.51042 h 1.46355 v 1.29167 h 0.0364 c 0.0729,-0.1875 0.15625,-0.36979 0.26041,-0.54688 0.10413,-0.17708 0.23959,-0.33333 0.39584,-0.47395 0.16145,-0.13542 0.34896,-0.2448 0.56771,-0.32813 0.21874,-0.0781 0.47917,-0.11979 0.78125,-0.11979 0.22396,0 0.40625,0.0208 0.54687,0.0625 0.13542,0.0365 0.2448,0.0729 0.32292,0.099 z m -9.32812,-0.33855 c -0.56771,0 -1.02604,0.23959 -1.36459,0.71355 -0.34896,0.47395 -0.54686,1.16145 -0.59896,2.05729 h 3.46876 c 0.0107,-0.0625 0.026,-0.16146 0.0312,-0.28646 0.005,-0.125 0.0107,-0.25521 0.0107,-0.40625 0,-0.66146 -0.13543,-1.17188 -0.40104,-1.53646 -0.26563,-0.35937 -0.64584,-0.54167 -1.14584,-0.54167 z m 3.01041,2.14063 c 0,0.41146 -0.0156,0.76041 -0.0416,1.05729 -0.026,0.29687 -0.0521,0.55729 -0.0781,0.78125 h -4.85417 c 0.0521,1.125 0.29166,1.95312 0.72396,2.47917 0.43229,0.52604 1.04688,0.79166 1.85417,0.79166 0.27604,0 0.52604,-0.0312 0.75,-0.099 0.22396,-0.0625 0.41667,-0.14583 0.58333,-0.23437 0.16667,-0.0937 0.3073,-0.1875 0.41667,-0.28125 0.11453,-0.0885 0.19792,-0.16667 0.25,-0.21875 l 0.59375,1.13021 c -0.0677,0.0677 -0.16667,0.16145 -0.29688,0.29166 -0.13027,0.11979 -0.3125,0.24479 -0.53646,0.375 -0.22396,0.125 -0.5,0.23438 -0.82812,0.32292 -0.33333,0.0937 -0.72396,0.14063 -1.17188,0.14063 -0.59374,0 -1.13021,-0.099 -1.61458,-0.29688 -0.47916,-0.19792 -0.89063,-0.50521 -1.22916,-0.92188 -0.33334,-0.41666 -0.59896,-0.9427 -0.78126,-1.58333 -0.18749,-0.64062 -0.27604,-1.41146 -0.27604,-2.30729 0,-0.84896 0.0937,-1.57812 0.28646,-2.19271 0.1927,-0.60937 0.45313,-1.11979 0.78125,-1.51041 0.33333,-0.40105 0.71355,-0.69271 1.15104,-0.88542 0.43229,-0.19271 0.90625,-0.28646 1.40625,-0.28646 0.91146,0 1.625,0.28646 2.14063,0.85938 0.51563,0.57812 0.77083,1.4375 0.77083,2.58854 z m -7.78645,-1.90104 h -2.07812 v 5.27083 c 0,0.67187 0.0833,1.13021 0.2552,1.375 0.17188,0.24479 0.46355,0.36458 0.8698,0.36458 0.23957,0 0.44791,-0.0312 0.61457,-0.099 0.17188,-0.0625 0.29688,-0.125 0.38022,-0.17708 l 0.21354,1.28646 c -0.0625,0.0521 -0.22396,0.13541 -0.47396,0.25 -0.25,0.10937 -0.58854,0.16667 -1.01042,0.16667 -0.81771,0 -1.43228,-0.22917 -1.84375,-0.6823 -0.40625,-0.45833 -0.61459,-1.21354 -0.61459,-2.26562 v -5.48958 h -1.14582 v -1.07292 l 1.14582,-0.23958 0.1823,-2.65105 h 1.42709 v 2.65105 h 2.27604 z m -6.89584,0.61458 c -0.10413,-0.11979 -0.29167,-0.28125 -0.57291,-0.48958 -0.27604,-0.20313 -0.64062,-0.30729 -1.08854,-0.30729 -0.42188,0 -0.74479,0.099 -0.97396,0.30208 -0.22396,0.19271 -0.33334,0.43229 -0.33334,0.70833 0,0.35938 0.0989,0.65104 0.3073,0.88542 0.20312,0.22916 0.51562,0.47396 0.9375,0.73958 l 0.59895,0.35938 c 0.64584,0.3802 1.15105,0.79687 1.52084,1.23958 0.36979,0.44271 0.55729,1.01042 0.55729,1.71354 0,0.75 -0.26041,1.38542 -0.78646,1.90104 -0.52083,0.51563 -1.26562,0.77084 -2.24479,0.77084 -0.38541,0 -0.71875,-0.0417 -1.01041,-0.11979 -0.29167,-0.0781 -0.54688,-0.17187 -0.76042,-0.27604 -0.21876,-0.10417 -0.40105,-0.21875 -0.54688,-0.34375 -0.14584,-0.13022 -0.26562,-0.24479 -0.35937,-0.34896 l 0.77604,-1.27083 c 0.0781,0.0833 0.17708,0.17187 0.28645,0.28125 0.11454,0.10417 0.2448,0.20833 0.40626,0.30729 0.15625,0.099 0.33854,0.18229 0.53645,0.24479 0.19272,0.0677 0.42709,0.099 0.69272,0.099 0.47395,0 0.83853,-0.10417 1.08853,-0.31771 0.25,-0.20833 0.375,-0.46875 0.375,-0.77083 0,-0.22396 -0.026,-0.41667 -0.0885,-0.58334 -0.0625,-0.16666 -0.14584,-0.3177 -0.26563,-0.44791 -0.11973,-0.13021 -0.26562,-0.25521 -0.4375,-0.375 -0.17187,-0.11979 -0.36979,-0.25 -0.59375,-0.39584 l -0.59375,-0.3802 c -0.59376,-0.38021 -1.0625,-0.78125 -1.40104,-1.20834 -0.33333,-0.42187 -0.5,-0.96354 -0.5,-1.61979 0,-0.35937 0.0677,-0.6875 0.20312,-0.98437 0.14063,-0.29688 0.33334,-0.55209 0.58855,-0.77084 0.25,-0.21875 0.54687,-0.39062 0.8802,-0.51562 0.33855,-0.125 0.69792,-0.1875 1.07813,-0.1875 0.375,0 0.6875,0.0365 0.95312,0.10937 0.26563,0.0729 0.49479,0.16667 0.6875,0.27604 0.1875,0.11459 0.34376,0.22396 0.46876,0.33854 0.12493,0.10938 0.23437,0.20834 0.30729,0.28646 z m -7.34895,-4.22396 c -0.32813,0 -0.59376,-0.10417 -0.79166,-0.31771 -0.19792,-0.20833 -0.29688,-0.48437 -0.29688,-0.82812 0,-0.33334 0.0989,-0.60417 0.29688,-0.8125 0.1979,-0.21354 0.46353,-0.31771 0.79166,-0.31771 0.31771,0 0.57291,0.10417 0.77604,0.31771 0.19791,0.20833 0.29167,0.47916 0.29167,0.8125 0,0.34375 -0.0937,0.61979 -0.29167,0.82812 -0.20313,0.21354 -0.45833,0.31771 -0.77604,0.31771 z m 0.79687,11.80729 h -1.60937 v -9.51041 h 1.60937 z m -5.60937,0 v -6.11979 c 0,-0.80729 -0.13542,-1.38542 -0.40626,-1.73437 -0.27082,-0.34896 -0.68229,-0.52604 -1.23957,-0.52604 -0.47396,0 -0.8698,0.11978 -1.18751,0.35937 -0.3177,0.23437 -0.5677,0.46875 -0.7552,0.69271 v 7.32812 h -1.60417 v -9.51041 h 1.46875 v 1.07291 h 0.0364 c 0.0416,-0.0833 0.13026,-0.1927 0.2552,-0.34896 0.13542,-0.15104 0.30729,-0.29687 0.52084,-0.43229 0.20833,-0.14062 0.45833,-0.26041 0.75,-0.36979 0.29166,-0.10417 0.625,-0.15625 0.98958,-0.15625 0.42708,0 0.80728,0.0625 1.15104,0.1875 0.34375,0.125 0.6302,0.32813 0.86979,0.60417 0.23959,0.27604 0.42708,0.63542 0.55729,1.07812 0.13027,0.44271 0.19792,0.98959 0.19792,1.63542 v 6.23958 z m -8.44271,-11.80729 c -0.32812,0 -0.59375,-0.10417 -0.79167,-0.31771 -0.19792,-0.20833 -0.29688,-0.48437 -0.29688,-0.82812 0,-0.33334 0.0989,-0.60417 0.29688,-0.8125 0.19792,-0.21354 0.46355,-0.31771 0.79167,-0.31771 0.31771,0 0.57812,0.10417 0.77604,0.31771 0.19792,0.20833 0.29688,0.47916 0.29688,0.8125 0,0.34375 -0.0989,0.61979 -0.29688,0.82812 -0.19792,0.21354 -0.45833,0.31771 -0.77604,0.31771 z m 0.79688,11.80729 h -1.60417 v -9.51041 h 1.60417 z m -10.59896,0 v -6.11979 c 0,-0.78125 -0.11453,-1.33854 -0.33855,-1.68229 -0.22396,-0.34375 -0.58853,-0.51562 -1.09374,-0.51562 -0.26042,0 -0.49479,0.0312 -0.69792,0.099 -0.20834,0.0677 -0.39063,0.14583 -0.54687,0.24479 -0.15625,0.099 -0.29688,0.20833 -0.41667,0.32812 -0.11973,0.11979 -0.21876,0.22396 -0.29688,0.31771 v 7.32812 h -1.60417 v -9.51041 h 1.46355 v 1.07291 h 0.0416 c 0.0677,-0.10417 0.16145,-0.23437 0.29688,-0.38541 0.13541,-0.15104 0.29686,-0.29688 0.49478,-0.4375 0.19792,-0.14063 0.42708,-0.25521 0.69792,-0.34896 0.26042,-0.0886 0.5573,-0.13542 0.88542,-0.13542 1.08333,0 1.84896,0.42188 2.30208,1.26563 0.0885,-0.13022 0.21876,-0.27084 0.375,-0.42709 0.15625,-0.15104 0.33854,-0.28645 0.55729,-0.41145 0.20833,-0.125 0.44271,-0.22917 0.70833,-0.3073 0.26563,-0.0833 0.5573,-0.11978 0.875,-0.11978 1.92708,0 2.89063,1.11979 2.89063,3.36979 v 6.375 h -1.60416 v -6.11979 c 0,-0.78125 -0.14063,-1.33855 -0.41667,-1.68229 -0.27605,-0.34375 -0.6875,-0.51563 -1.22917,-0.51563 -0.44792,0 -0.81771,0.10937 -1.11979,0.32292 -0.29688,0.21875 -0.53125,0.42708 -0.70313,0.625 0.026,0.15104 0.0469,0.30208 0.0625,0.46875 0.0107,0.16666 0.0208,0.33854 0.0208,0.52604 v 6.375 z m -7.82813,-7.58333 c -0.10414,-0.11979 -0.29687,-0.28125 -0.57291,-0.48958 -0.28125,-0.20313 -0.64063,-0.30729 -1.09376,-0.30729 -0.41667,0 -0.74479,0.099 -0.96875,0.30208 -0.22396,0.19271 -0.33333,0.43229 -0.33333,0.70833 0,0.35938 0.0989,0.65104 0.30729,0.88542 0.20312,0.22916 0.51563,0.47396 0.93751,0.73958 l 0.59375,0.35938 c 0.65104,0.3802 1.15625,0.79687 1.52604,1.23958 0.36978,0.44271 0.55729,1.01042 0.55729,1.71354 0,0.75 -0.26041,1.38542 -0.78125,1.90104 -0.52604,0.51563 -1.27604,0.77084 -2.25,0.77084 -0.38542,0 -0.71875,-0.0417 -1.01042,-0.11979 -0.29166,-0.0781 -0.54688,-0.17187 -0.76562,-0.27604 -0.21875,-0.10417 -0.40104,-0.21875 -0.54167,-0.34375 -0.14584,-0.13022 -0.26563,-0.24479 -0.35937,-0.34896 l 0.77082,-1.27083 c 0.0833,0.0833 0.1771,0.17187 0.29167,0.28125 0.11453,0.10417 0.2448,0.20833 0.40625,0.30729 0.15626,0.099 0.33334,0.18229 0.53126,0.24479 0.20312,0.0677 0.43229,0.099 0.69792,0.099 0.47394,0 0.83853,-0.10417 1.08333,-0.31771 0.2552,-0.20833 0.3802,-0.46875 0.3802,-0.77083 0,-0.22396 -0.0312,-0.41667 -0.0885,-0.58334 -0.0625,-0.16666 -0.15106,-0.3177 -0.27084,-0.44791 -0.11974,-0.13021 -0.26042,-0.25521 -0.4323,-0.375 -0.17186,-0.11979 -0.36978,-0.25 -0.59374,-0.39584 l -0.59375,-0.3802 c -0.59896,-0.38021 -1.06251,-0.78125 -1.39584,-1.20834 -0.33853,-0.42187 -0.51041,-0.96354 -0.51041,-1.61979 0,-0.35937 0.0729,-0.6875 0.20833,-0.98437 0.14063,-0.29688 0.33333,-0.55209 0.58855,-0.77084 0.25,-0.21875 0.54166,-0.39062 0.8802,-0.51562 0.33854,-0.125 0.69792,-0.1875 1.07813,-0.1875 0.36979,0 0.68749,0.0365 0.95312,0.10937 0.26041,0.0729 0.48959,0.16667 0.68229,0.27604 0.19271,0.11459 0.34896,0.22396 0.47396,0.33854 0.12494,0.10938 0.22916,0.20834 0.3073,0.28646 z m -9.25,-0.85417 c -0.56771,0 -1.02604,0.23959 -1.36979,0.71355 -0.34375,0.47395 -0.54167,1.16145 -0.59375,2.05729 h 3.46875 c 0.0156,-0.0625 0.0208,-0.16146 0.026,-0.28646 0.0107,-0.125 0.0107,-0.25521 0.0107,-0.40625 0,-0.66146 -0.13027,-1.17188 -0.39583,-1.53646 -0.26041,-0.35937 -0.64584,-0.54167 -1.14584,-0.54167 z m 3.01042,2.14063 c 0,0.41146 -0.0156,0.76041 -0.0416,1.05729 -0.026,0.29687 -0.0521,0.55729 -0.0781,0.78125 h -4.85416 c 0.0521,1.125 0.29687,1.95312 0.72396,2.47917 0.42708,0.52604 1.04687,0.79166 1.85416,0.79166 0.27604,0 0.52604,-0.0312 0.75,-0.099 0.22396,-0.0625 0.42188,-0.14583 0.58333,-0.23437 0.16667,-0.0937 0.3073,-0.1875 0.42188,-0.28125 0.10934,-0.0885 0.19271,-0.16667 0.24479,-0.21875 l 0.59375,1.13021 c -0.0677,0.0677 -0.16667,0.16145 -0.29687,0.29166 -0.13027,0.11979 -0.31251,0.24479 -0.53647,0.375 -0.22394,0.125 -0.5,0.23438 -0.83333,0.32292 -0.32812,0.0937 -0.71875,0.14063 -1.16667,0.14063 -0.59374,0 -1.13541,-0.099 -1.61457,-0.29688 -0.48437,-0.19792 -0.89063,-0.50521 -1.22917,-0.92188 -0.33334,-0.41666 -0.59896,-0.9427 -0.78125,-1.58333 -0.1875,-0.64062 -0.27604,-1.41146 -0.27604,-2.30729 0,-0.84896 0.0937,-1.57812 0.28646,-2.19271 0.19271,-0.60937 0.44791,-1.11979 0.78124,-1.51041 0.32813,-0.40105 0.71355,-0.69271 1.15105,-0.88542 0.43228,-0.19271 0.90104,-0.28646 1.40624,-0.28646 0.91147,0 1.625,0.28646 2.14063,0.85938 0.51041,0.57812 0.77084,1.4375 0.77084,2.58854 z m -11.94792,5.10937 c 0.25,0 0.47396,-0.0312 0.67188,-0.099 0.20312,-0.0625 0.375,-0.14583 0.52083,-0.24479 0.14063,-0.099 0.26563,-0.20312 0.36459,-0.30729 0.099,-0.10937 0.17187,-0.19792 0.22395,-0.28125 v -5.85937 c -0.14062,-0.0937 -0.3125,-0.17188 -0.50521,-0.23959 -0.1875,-0.0677 -0.43229,-0.099 -0.71874,-0.099 -0.3698,0 -0.71876,0.0625 -1.04167,0.1875 -0.32292,0.125 -0.60417,0.33334 -0.84375,0.61979 -0.23438,0.29688 -0.42188,0.67188 -0.5625,1.13542 -0.14063,0.45833 -0.20834,1.02604 -0.20834,1.70313 0,0.65625 0.0573,1.20833 0.16667,1.65104 0.11459,0.4427 0.27083,0.80208 0.46354,1.07291 0.20313,0.27084 0.42709,0.46355 0.67709,0.58334 0.25,0.11978 0.51562,0.17708 0.79166,0.17708 z m -3.76041,-3.42708 c 0,-0.96354 0.11978,-1.77083 0.375,-2.41667 0.25,-0.64583 0.57291,-1.16666 0.96875,-1.5625 0.39583,-0.40104 0.84896,-0.67708 1.34896,-0.84375 0.5,-0.16666 1.0052,-0.25 1.5052,-0.25 0.30209,0 0.56771,0.026 0.79167,0.0729 0.22396,0.0417 0.41146,0.099 0.55208,0.16667 v -4.55729 l 1.60938,-0.17709 v 14.18229 h -1.46875 v -1.01041 h -0.0365 c -0.0417,0.0833 -0.11458,0.1875 -0.21874,0.32812 -0.10938,0.14063 -0.25,0.27604 -0.4375,0.41667 -0.1823,0.13541 -0.41667,0.26041 -0.69271,0.35937 -0.27605,0.0937 -0.59896,0.14584 -0.97396,0.14584 -0.44792,0 -0.86979,-0.0885 -1.27604,-0.26563 -0.40105,-0.17708 -0.75522,-0.46354 -1.06251,-0.85417 -0.30208,-0.39062 -0.54166,-0.89062 -0.71875,-1.5052 -0.17708,-0.61459 -0.26562,-1.35417 -0.26562,-2.22917 z m -3.56771,4.61458 v -6.11979 c 0,-0.80729 -0.13542,-1.38542 -0.40625,-1.73437 -0.27084,-0.34896 -0.68229,-0.52604 -1.23958,-0.52604 -0.47396,0 -0.8698,0.11978 -1.1875,0.35937 -0.31771,0.23437 -0.56771,0.46875 -0.75521,0.69271 v 7.32812 h -1.60417 v -9.51041 h 1.46875 v 1.07291 h 0.0365 c 0.0417,-0.0833 0.125,-0.1927 0.26041,-0.34896 0.13022,-0.15104 0.30209,-0.29687 0.51563,-0.43229 0.20833,-0.14062 0.45833,-0.26041 0.75,-0.36979 0.29167,-0.10417 0.61979,-0.15625 0.98958,-0.15625 0.42709,0 0.8073,0.0625 1.15105,0.1875 0.34374,0.125 0.63541,0.32813 0.86979,0.60417 0.23958,0.27604 0.42187,0.63542 0.55729,1.07812 0.13021,0.44271 0.19792,0.98959 0.19792,1.63542 v 6.23958 z m -7.64583,0 h -1.46875 v -1.06771 h -0.0365 c -0.0417,0.0781 -0.13021,0.19271 -0.26041,0.34376 -0.13022,0.15624 -0.29688,0.30208 -0.50521,0.43749 -0.20313,0.14063 -0.45313,0.26042 -0.74479,0.3698 -0.28646,0.10417 -0.614587,0.15625 -0.968754,0.15625 -0.421876,0 -0.802084,-0.0625 -1.140625,-0.1875 -0.338542,-0.125 -0.625,-0.32813 -0.859375,-0.60417 -0.239584,-0.28125 -0.421876,-0.63542 -0.546876,-1.07813 -0.125,-0.4427 -0.187499,-0.98958 -0.187499,-1.63541 v -6.24479 h 1.604166 v 6.125 c 0,0.79166 0.130213,1.35937 0.385417,1.6927 0.260417,0.33855 0.656249,0.50521 1.197916,0.50521 0.46354,0 0.85417,-0.11458 1.17188,-0.34375 0.3177,-0.23437 0.5677,-0.46354 0.7552,-0.6875 v -7.29166 h 1.60417 z m -10.619796,-3.82291 c 0,-0.73959 -0.244792,-1.32292 -0.723958,-1.75 -0.484376,-0.4323 -1.171876,-0.64584 -2.072917,-0.64584 h -1.166667 v 4.79688 h 1.067708 c 1.020834,0 1.75521,-0.20313 2.208334,-0.60417 0.458333,-0.40625 0.6875,-1.00521 0.6875,-1.79687 z m -0.260416,-6.30209 c 0,-0.6302 -0.223959,-1.15104 -0.671875,-1.5625 -0.447917,-0.40625 -1.156251,-0.61458 -2.119792,-0.61458 h -0.911459 v 4.71875 h 0.890626 c 0.927082,0 1.625,-0.22396 2.098958,-0.67708 0.479166,-0.44792 0.713542,-1.06771 0.713542,-1.86459 z m 1.744791,-0.0573 c 0,0.47396 -0.05729,0.89062 -0.177084,1.25 -0.119786,0.35937 -0.281249,0.66146 -0.484374,0.92187 -0.208333,0.25521 -0.442709,0.46355 -0.713541,0.625 -0.270835,0.15625 -0.552084,0.27605 -0.843751,0.35417 v 0.0365 c 0.354167,0.0677 0.6875,0.19271 1,0.38021 0.3125,0.1875 0.583333,0.41667 0.8125,0.69271 0.229166,0.27604 0.416666,0.60417 0.552082,0.97917 0.140626,0.38021 0.208334,0.79166 0.208334,1.23958 0,0.54167 -0.08855,1.03646 -0.276042,1.48438 -0.182292,0.45312 -0.468749,0.84375 -0.859374,1.17187 -0.390625,0.32813 -0.880208,0.58854 -1.479167,0.77083 -0.59375,0.1875 -1.302084,0.27605 -2.119792,0.27605 h -2.791666 v -13.66667 h 2.635417 c 0.807291,0 1.494792,0.0833 2.072916,0.24479 0.572917,0.16667 1.041667,0.40104 1.411459,0.70313 0.369791,0.30729 0.640625,0.67187 0.802083,1.09895 0.166667,0.4323 0.25,0.91146 0.25,1.43751"
       id="path1855" /><path
       inkscape:connector-curvature="0"
       style="fill:#f0cf02;fill-opacity:1;fill-rule:nonzero;stroke:none;stroke-width:1.33333325"
       d="m 72.195698,-98.636306 h 2.5 v 33.296869 h -5.828125 v -33.296869 h 3.328125"
       id="path1857" /><path
       inkscape:connector-curvature="0"
       style="fill:#eb1923;fill-opacity:1;fill-rule:nonzero;stroke:none;stroke-width:1.33333325"
       d="m 72.195698,-132.09464 h 2.5 v 33.458334 h -5.828125 v -33.458334 h 3.328125"
       id="path1859" /><path
       inkscape:connector-curvature="0"
       style="fill:#211e1e;fill-opacity:1;fill-rule:nonzero;stroke:none;stroke-width:1.33333325"
       d="m 43.351948,-153.0113 c 0.04167,-0.3698 0.06771,-0.75521 0.06771,-1.15105 0,-0.21354 0.0052,-0.46354 -0.02084,-0.74479 3.317709,-0.0469 6.229168,-2.4375 6.229168,-5.1875 0,-1.40104 -0.916667,-2.45312 -1.427084,-3.08333 0.114586,-0.026 0.229166,-0.0521 0.348958,-0.0833 0.484375,0.42187 1.864583,1.92708 1.864583,3.82291 0,3.29688 -3.296875,6.35938 -7.0625,6.42709 z m -3.343749,-11.48438 c -0.06249,-0.36979 -0.203125,-0.70313 -0.416667,-0.98958 0.0104,-0.33334 0.151042,-0.65625 0.692708,-0.39063 -0.296874,0.29688 -0.06771,0.82813 -0.06771,0.82813 0,0 0.598958,-0.27605 0.473958,-0.67188 0.890625,0.21354 0.25,1.40625 -0.682292,1.22396 z m -0.770833,1.69271 c -0.119787,-0.49479 -0.369792,-1 -0.692708,-1.38021 -0.296876,-0.34375 -0.781251,-0.75521 -1.427084,-0.75521 -0.302084,0 -0.802084,0.13542 -1.119792,0.27084 -0.119787,-0.21355 -0.348959,-0.73959 -0.348959,-0.97396 0,-0.23959 0.406251,-0.48438 1.187501,-0.48438 1.71875,0 2.744791,0.77604 2.744791,2.07813 0,0.45833 -0.182292,0.875 -0.343749,1.24479 z m 4.411457,22.14062 c 0.197917,0 0.296876,0.0313 0.411458,0.0781 0.494792,1.34375 2.401043,3.88021 2.479167,3.98959 l 0.02084,0.0208 0.02604,-0.005 c 0.468749,-0.0729 1.661457,-0.2552 2.661457,-0.2552 h 0.02604 c 0.104174,0 0.229168,0 0.307292,0.0781 0.06249,0.0677 0.09375,0.17708 0.09375,0.33854 0,0.25 -0.104173,0.67708 -0.229167,0.85416 -0.348958,-0.3802 -0.916666,-0.55208 -1.828125,-0.55208 -0.270833,0 -0.593751,0.0833 -0.770833,0.13021 l -0.06771,0.0156 -0.08333,0.0208 0.526041,0.52604 c 0.807292,0.80729 1.505208,1.50521 1.505208,1.96875 0,0.28125 -0.270833,0.64062 -0.520833,0.80729 -0.05729,-0.85417 -0.916667,-1.98958 -1.75,-2.625 l -0.07292,-0.0573 -0.01563,0.29687 c -0.0104,0.20313 -0.03125,0.51042 -0.03125,0.83854 0,1.61979 -0.161459,1.86459 -0.723959,1.86459 -0.08333,0 -0.218751,-0.026 -0.302084,-0.0573 0.317709,-0.39062 0.442709,-0.90625 0.442709,-1.8125 l -0.0052,-0.41666 -0.0052,-0.33334 c 0,-0.375 0.04167,-0.64583 0.06771,-0.86979 l 0.02084,-0.125 -0.08855,-0.0104 c -0.265625,-0.0365 -0.75,-0.10417 -1.125,-0.10417 -0.802084,0 -1.34375,0.0729 -1.739582,0.44271 -0.25521,-0.20834 -0.520835,-0.56771 -0.520835,-0.79688 0,-0.33854 0.208333,-0.36458 0.484376,-0.36458 0.140624,0 0.270833,0.0208 0.447916,0.0417 0.343751,0.0521 0.864584,0.125 1.932292,0.125 h 0.06249 l -0.01563,-0.0625 c -0.276042,-0.77604 -1.015624,-1.90104 -2.208334,-3.34896 0.109374,-0.38541 0.213542,-0.64062 0.588542,-0.64062 z m -10.281249,3.98959 -0.02084,0.0625 h 0.06771 c 1.067708,0 1.583334,-0.0729 1.927084,-0.125 0.182291,-0.0208 0.3125,-0.0417 0.453126,-0.0417 0.276041,0 0.484374,0.026 0.484374,0.36459 0,0.22916 -0.265625,0.58854 -0.526041,0.79687 -0.390625,-0.36979 -0.937501,-0.44271 -1.734376,-0.44271 -0.375,0 -0.864583,0.0677 -1.125,0.10418 l -0.04167,0.005 -0.04688,0.005 0.01563,0.125 c 0.03125,0.22395 0.06771,0.49479 0.06771,0.86979 l -0.0052,0.33333 v 0.41667 c 0,0.90625 0.119786,1.42187 0.4375,1.8125 -0.07812,0.0312 -0.213543,0.0573 -0.296876,0.0573 -0.562499,0 -0.729166,-0.24479 -0.729166,-1.86458 0,-0.32813 -0.01563,-0.63542 -0.02604,-0.83854 l -0.01562,-0.29686 -0.07292,0.0573 c -0.833334,0.63542 -1.697918,1.77083 -1.75,2.625 -0.25,-0.16667 -0.520834,-0.52604 -0.520834,-0.80729 0,-0.46355 0.697916,-1.16146 1.505208,-1.96875 l 0.526042,-0.52605 -0.15625,-0.0365 c -0.171874,-0.0469 -0.494792,-0.13021 -0.770833,-0.13021 -0.906251,0 -1.473959,0.17187 -1.822917,0.55208 -0.125,-0.17708 -0.234375,-0.60417 -0.234375,-0.85417 0,-0.16145 0.03645,-0.27083 0.09896,-0.33854 0.07812,-0.0781 0.203125,-0.0781 0.307292,-0.0781 h 0.02604 c 1,0 2.192708,0.1823 2.661459,0.25521 l 0.02604,0.005 0.01563,-0.0208 c 0.08333,-0.10937 1.989583,-2.64583 2.484375,-3.98958 0.114587,-0.0469 0.213541,-0.0781 0.411459,-0.0781 0.375,0 0.479166,0.25521 0.588541,0.64063 -1.192708,1.44791 -1.9375,2.57291 -2.208333,3.34895 z m -5.145834,-22.76563 c 0,-1.89583 1.380208,-3.40104 1.864584,-3.82291 0.119787,0.0312 0.234375,0.0573 0.348958,0.0833 -0.515624,0.63021 -1.427083,1.68229 -1.427083,3.08333 0,2.77604 2.968749,5.1875 6.328125,5.1875 -0.02084,0.23958 -0.03125,0.48958 -0.03125,0.74479 0,0.41146 0.02084,0.79167 0.06249,1.15105 -3.802084,-0.0208 -7.145833,-3.10417 -7.145833,-6.42709 z m 25.484374,5.84896 c 1.703126,2.69271 3.036459,2.65104 5.052084,2.65104 -1.666666,-1.27604 -2.770833,-2.91667 -3.296874,-3.75 l -3.109376,-4.98437 c -0.307291,-1.53646 -1.104167,-2.97396 -2.296875,-4.04167 0.401042,-0.15625 0.734375,-0.3125 0.9375,-0.46354 -2.031249,0 -4.046874,-1.03125 -5.156249,-1.03125 -0.713543,0 -1.171876,0.42187 -1.171876,0.98437 0.04688,0.63021 0.692708,1.27084 1.885417,1.27084 0.270834,0 0.614583,-0.0365 0.994792,-0.099 0.645832,0.89583 1.166667,1.71354 1.166667,2.875 0,2.17708 -2.604168,3.8802 -5.239584,3.8802 -0.145833,0 -0.286459,-0.005 -0.4375,-0.0208 -0.239583,-0.53645 -1.031249,-1.44791 -1.031249,-2.47916 0,-1.72917 1.130208,-3.14584 1.130208,-4.86459 0,-1.0677 -0.520834,-1.72395 -0.723959,-2 0.328125,-0.30208 0.677084,-0.67187 0.765625,-0.92187 -0.192709,0.0833 -0.411458,0.0937 -0.739584,0.0937 -1.260416,0 -2.291666,-0.32813 -3.291666,-0.32813 -0.572916,0 -0.729167,0.17188 -0.729167,0.34375 0,0.0625 0.0104,0.125 0.03125,0.15625 -0.218754,-0.0885 -0.41667,-0.14061 -0.656254,-0.18228 -0.291666,-0.0573 -0.614582,-0.0885 -0.953124,-0.0885 -1.21875,0 -1.651042,0.51041 -1.651042,0.94791 0,0.375 0.291666,1.04688 0.619792,1.5625 0.479166,-0.23958 1.046874,-0.40104 1.3125,-0.40104 0.640625,0 1.21875,0.61458 1.526041,1.34896 -0.4375,0.0521 -0.520833,0.0729 -0.963541,0.0729 -1.182292,0 -1.989584,-0.42708 -2.156251,-0.42708 -0.01563,0 -0.04688,0.005 -0.04688,0.0365 0,0.16667 0.333333,0.60417 0.994792,0.84896 0.875,0.31771 2.1875,0.44792 2.406251,0.48437 0,0.0365 -0.223959,0.45313 -0.473959,0.53125 -0.05208,0.0208 -0.09375,0.0208 -0.151041,0.005 -0.916667,-0.18229 -1.166667,-0.2552 -2.328126,-0.6927 -0.03125,-0.0156 -0.05208,0.005 -0.05208,0.0417 0,0.45834 1.182292,1.46875 2.244792,1.85417 -0.885417,1.13541 -1.994792,2.29166 -2.515625,4.05729 -0.151041,0.0156 -0.291667,0.0208 -0.442708,0.0208 -2.630208,0 -5.239583,-1.70313 -5.239583,-3.88021 0,-1.16146 0.520832,-1.97917 1.171875,-2.875 0.380208,0.0625 0.723957,0.099 0.989583,0.099 1.197917,0 1.84375,-0.64062 1.890625,-1.27083 0,-0.5625 -0.458333,-0.98438 -1.171875,-0.98438 -1.109376,0 -3.125,1.03126 -5.15625,1.03126 0.197917,0.15104 0.53125,0.30729 0.932292,0.46354 -1.192708,1.0677 -1.984375,2.5052 -2.291667,4.04166 l -3.109374,4.98438 c -0.526043,0.83333 -1.630208,2.47396 -3.296875,3.75 2.010416,0 3.348957,0.0417 5.052083,-2.65104 l 1.598958,-2.5573 c 0.114587,0.33334 0.260416,0.65625 0.432292,0.97396 l -3.177084,5.07813 c -0.526041,0.84375 -1.619792,2.46354 -3.291666,3.75 2.010417,0 3.348958,0.0469 5.052084,-2.64584 l 2.734374,-4.375 c 0.203124,0.21355 0.416667,0.4323 0.645833,0.63021 l -3.859375,6.17709 c -0.526042,0.84375 -1.614583,2.45833 -3.296875,3.74479 2.015625,0 3.354167,0.0469 5.057292,-2.64584 l 3.760417,-6.02083 c 0.244791,0.15625 0.5,0.3125 0.760416,0.45313 l -4.588541,7.34375 c -0.531251,0.84375 -1.619792,2.45833 -3.291667,3.74479 2.010416,0 3.348958,0.0469 5.052083,-2.64584 l 4.723958,-7.5677 c 0.28125,0.10937 0.5625,0.21354 0.848959,0.30729 l -5.338541,8.54166 c -0.520835,0.83334 -1.63021,2.47396 -3.291667,3.7448 2.015624,0 3.348957,0.0469 5.052083,-2.64584 l 5.692708,-9.10416 c 0.05729,0.005 0.114586,0.0156 0.171876,0.026 0.156249,0.49479 0.260416,0.95312 0.260416,1.41145 0,2.86459 -1.875,5.39063 -4.130208,7.34375 0.140624,0.0625 0.395833,0.0833 0.630208,0.0833 0.463541,0 0.765625,-0.026 0.973958,-0.0625 -0.526041,1.1823 -1.645833,2.71875 -2.213542,3.51042 -0.734374,-0.13021 -1.80729,-0.23438 -2.510415,-0.23438 -0.734375,0 -0.822917,0.4323 -0.822917,0.8125 0,0.67188 0.312501,1.20313 0.677084,1.5 0.140625,-0.34374 0.411458,-0.80208 1.770833,-0.80208 0.02604,0 0.07292,0.005 0.135416,0.0104 -0.395832,0.44271 -1.640624,1.44792 -1.640624,2.25521 0,0.53646 0.588541,1.33854 1.364583,1.33854 -0.04688,-0.17187 -0.04167,-0.32812 -0.04167,-0.44792 0,-0.65624 0.583333,-1.42708 1.072917,-1.95833 -0.01563,0.15625 -0.0052,0.14063 -0.0052,0.32813 0,1.54687 0.140626,2.26041 1.125,2.26041 0.479168,0 0.812502,-0.26041 0.927084,-0.34375 -0.640625,-0.58854 -0.671874,-1.05208 -0.671874,-1.92187 0.0052,-0.22396 0.0052,-0.44271 0.0052,-0.75 0.0052,-0.19792 0,-0.46354 -0.03125,-0.65104 0.354166,-0.0521 0.494791,-0.0521 0.765624,-0.0521 0,0 1.395834,-0.10938 1.734376,0.61458 0.380208,-0.34375 0.932291,-0.83333 0.932291,-1.375 0,-0.35938 -0.171875,-0.76562 -0.890624,-0.76562 -0.276043,0 -1.130209,0.16666 -1.848959,0.16666 0.192708,-0.42708 1.052083,-1.68229 1.796875,-2.59375 0.109373,0.35417 0.286459,0.73438 0.677084,1.04688 0.05208,-0.58334 0.395832,-2.4375 1.312499,-3.52084 0.104173,0.73438 0.25,1.48438 0.25,3.06771 0,3.84896 -0.927083,6.69271 -2.890624,7.23958 0.255208,0.44271 0.796874,0.84375 1.359374,0.84375 0.713542,0 1.109375,-0.8125 1.505208,-1.57812 0.208334,0.5625 0.786459,1.95312 1.359375,1.95312 0.578125,0 1.151042,-1.39062 1.359376,-1.95312 0.401041,0.76562 0.791666,1.57812 1.510416,1.57812 0.5625,0 1.104166,-0.40104 1.359376,-0.84375 -1.963543,-0.54687 -2.895835,-3.39062 -2.895835,-7.23958 0,-1.58333 0.145835,-2.33333 0.25,-3.06771 0.921876,1.08334 1.265625,2.9375 1.317709,3.52084 0.390624,-0.3125 0.5625,-0.69271 0.677083,-1.04688 0.744792,0.91146 1.598959,2.16667 1.796875,2.59375 -0.71875,0 -1.578124,-0.16666 -1.848958,-0.16666 -0.71875,0 -0.890625,0.40624 -0.890625,0.76562 0,0.54167 0.552084,1.03125 0.932292,1.375 0.333333,-0.72396 1.734375,-0.61458 1.734375,-0.61458 0.270833,0 0.411458,0 0.765625,0.0521 -0.03125,0.1875 -0.03645,0.45312 -0.03125,0.65104 0,0.30729 0,0.52604 0,0.75 0,0.86979 -0.03125,1.33333 -0.671875,1.92187 0.119787,0.0833 0.453125,0.34375 0.932292,0.34375 0.984375,0 1.125,-0.71354 1.125,-2.26041 0,-0.1875 0.0052,-0.17188 -0.0052,-0.32813 0.489584,0.53125 1.067709,1.30209 1.067709,1.95833 0,0.11979 0.0104,0.27605 -0.04167,0.44792 0.781249,0 1.369792,-0.80208 1.369792,-1.33854 0,-0.80729 -1.244792,-1.8125 -1.645835,-2.25521 0.06771,-0.005 0.109373,-0.0104 0.135417,-0.0104 1.359375,0 1.635418,0.45834 1.770834,0.80208 0.364584,-0.29687 0.677082,-0.82812 0.677082,-1.5 0,-0.3802 -0.08333,-0.8125 -0.817708,-0.8125 -0.703124,0 -1.776041,0.10418 -2.515625,0.23438 -0.567708,-0.79167 -1.687499,-2.32813 -2.208333,-3.51042 0.208333,0.0365 0.510417,0.0625 0.973958,0.0625 0.234375,0 0.484375,-0.0208 0.63021,-0.0833 -2.25521,-1.95312 -4.135418,-4.47916 -4.135418,-7.34375 0,-0.45833 0.109374,-0.91666 0.265626,-1.41146 0.05729,-0.0104 0.114586,-0.0208 0.171874,-0.026 l 5.692708,9.10417 c 1.703126,2.69271 3.036459,2.64583 5.052084,2.64583 -1.661462,-1.27082 -2.776046,-2.91145 -3.29167,-3.74478 l -5.343751,-8.54167 c 0.291667,-0.0937 0.572917,-0.19792 0.854167,-0.30729 l 4.723958,7.56771 c 1.703126,2.69271 3.036459,2.64583 5.052084,2.64583 -1.677084,-1.28646 -2.765625,-2.90104 -3.291666,-3.74479 l -4.588543,-7.34375 c 0.260417,-0.14063 0.515625,-0.29688 0.760417,-0.45313 l 3.760416,6.02084 c 1.703126,2.69271 3.036459,2.64583 5.052084,2.64583 -1.677084,-1.28646 -2.765625,-2.90104 -3.296876,-3.74479 l -3.854165,-6.17708 c 0.229165,-0.19792 0.442708,-0.41667 0.645832,-0.63021 l 2.734376,4.375 c 1.703125,2.69271 3.036458,2.64583 5.052082,2.64583 -1.671874,-1.28646 -2.765624,-2.90625 -3.296874,-3.75 l -3.171875,-5.07812 c 0.166667,-0.31771 0.317708,-0.64063 0.432291,-0.97396 l 1.598958,2.55729"
       id="path1861" /><path
       inkscape:connector-curvature="0"
       style="fill:#211e1e;fill-opacity:1;fill-rule:nonzero;stroke:none;stroke-width:1.33333325"
       d="m 74.695698,-165.22485 v 33.29167 h -5.828125 v -33.29167 h 5.828125"
       id="path1863" /><path
       inkscape:connector-curvature="0"
       style="fill:#211e1e;fill-opacity:1;fill-rule:nonzero;stroke:none;stroke-width:1.33333325"
       d="m 90.914447,-204.77172 c 0,-0.98958 -0.406249,-1.53125 -1.494791,-1.53125 -0.338542,0 -1.546876,0.0625 -1.546876,1.82292 v 2.84895 c 0,1.84375 0.531251,2.3073 1.546876,2.3073 0.770832,0 1.286458,-0.20834 1.505208,-0.375 v -2.51563 H 89.37278 v -0.9375 h 2.625 v 4.09896 c -0.6875,0.375 -1.489582,0.625 -2.578124,0.625 -1.78125,0 -2.645834,-0.91667 -2.645834,-3.25 v -2.76563 c 0,-1.68229 0.864584,-2.7552 2.645834,-2.7552 1.822916,0 2.687499,0.66666 2.614583,2.42708 h -1.119792"
       id="path1865" /><path
       inkscape:connector-curvature="0"
       style="fill:#211e1e;fill-opacity:1;fill-rule:nonzero;stroke:none;stroke-width:1.33333325"
       d="m 94.008197,-198.59985 v -8.42187 h 4.338542 v 0.93229 h -3.265626 v 2.70833 h 3.031251 v 0.9323 h -3.031251 v 2.91666 h 3.333334 v 0.93229 h -4.40625"
       id="path1867" /><path
       inkscape:connector-curvature="0"
       style="fill:#211e1e;fill-opacity:1;fill-rule:nonzero;stroke:none;stroke-width:1.33333325"
       d="m 99.758197,-198.59985 v -8.42187 h 4.177083 v 0.93229 h -3.10417 v 2.70833 h 2.94271 v 0.9323 h -2.94271 v 3.84895 h -1.072913"
       id="path1869" /><path
       inkscape:connector-curvature="0"
       style="fill:#211e1e;fill-opacity:1;fill-rule:nonzero;stroke:none;stroke-width:1.33333325"
       d="m 109.22174,-208.01651 h -1.09896 v -1.20834 h 1.09896 z m -0.0365,6.38541 v -2.84895 c 0,-1.76042 -1.21355,-1.82292 -1.55209,-1.82292 -0.33854,0 -1.55208,0.0625 -1.55208,1.82292 v 2.84895 c 0,1.84375 0.53646,2.3073 1.55208,2.3073 1.01563,0 1.55209,-0.46355 1.55209,-2.3073 z m -2.02084,-6.38541 h -1.09375 v -1.20834 h 1.09375 z m -2.18229,6.33854 v -2.76563 c 0,-1.68229 0.86458,-2.7552 2.65104,-2.7552 1.78646,0 2.64584,1.07291 2.64584,2.7552 v 2.76563 c 0,2.33333 -0.85938,3.25 -2.64584,3.25 -1.78646,0 -2.65104,-0.91667 -2.65104,-3.25"
       id="path1871" /><path
       inkscape:connector-curvature="0"
       style="fill:#211e1e;fill-opacity:1;fill-rule:nonzero;stroke:none;stroke-width:1.33333325"
       d="m 113.1957,-203.40714 h 1.61458 c 0.76562,0 1.14062,-0.66666 1.14062,-1.40104 0,-0.60417 -0.30208,-1.28125 -1.1302,-1.28125 h -1.625 z m 0,0.93229 v 3.875 h -1.07292 v -8.42187 h 2.90625 c 1.49479,0 2.02083,1.04687 2.02083,2.09896 0,0.98958 -0.55208,1.75 -1.54166,1.92708 v 0.0208 c 0.96875,0.15104 1.3177,0.47917 1.375,2.16667 0.0104,0.36458 0.13021,1.68229 0.29166,2.20833 h -1.11979 c -0.30208,-0.58333 -0.23437,-1.67708 -0.32292,-2.80208 -0.0833,-1.02604 -0.91145,-1.07292 -1.27604,-1.07292 h -1.26041"
       id="path1873" /><path
       inkscape:connector-curvature="0"
       style="fill:#211e1e;fill-opacity:1;fill-rule:nonzero;stroke:none;stroke-width:1.33333325"
       d="m 119.73215,-199.53214 h 1.01563 c 1.48958,0 2.04167,-0.5625 2.04167,-2.52083 v -1.70313 c 0,-1.70312 -0.52605,-2.33333 -1.64584,-2.33333 h -1.41146 z m -1.07291,-7.48958 h 2.58854 c 1.07292,0 1.84375,0.38542 2.26562,1.28125 0.33855,0.71354 0.3698,2.39062 0.3698,2.66146 0,1.79687 -0.16146,2.83333 -0.51042,3.39583 -0.45833,0.71875 -1.30729,1.08333 -2.77604,1.08333 h -1.9375 v -8.42187"
       id="path1875" /><path
       inkscape:connector-curvature="0"
       style="fill:#211e1e;fill-opacity:1;fill-rule:nonzero;stroke:none;stroke-width:1.33333325"
       d="m 125.7634,-198.59985 v -8.42187 h 4.33855 v 0.93229 h -3.26563 v 2.70833 h 3.03126 v 0.9323 h -3.03126 v 2.91666 h 3.33854 v 0.93229 h -4.41146"
       id="path1877" /><path
       inkscape:connector-curvature="0"
       style="fill:#211e1e;fill-opacity:1;fill-rule:nonzero;stroke:none;stroke-width:1.33333325"
       d="m 132.64882,-203.40714 h 1.60417 c 0.77083,0 1.14583,-0.66666 1.14583,-1.40104 0,-0.60417 -0.30208,-1.28125 -1.13542,-1.28125 h -1.61458 z m 0,0.93229 v 3.875 h -1.07812 v -8.42187 h 2.90625 c 1.49479,0 2.01563,1.04687 2.01563,2.09896 0,0.98958 -0.54688,1.75 -1.53647,1.92708 v 0.0208 c 0.96355,0.15104 1.31771,0.47917 1.375,2.16667 0.0107,0.36458 0.13027,1.68229 0.29167,2.20833 h -1.11979 c -0.30208,-0.58333 -0.23437,-1.67708 -0.32813,-2.80208 -0.0781,-1.02604 -0.91146,-1.07292 -1.27083,-1.07292 h -1.25521"
       id="path1879" /><path
       inkscape:connector-curvature="0"
       style="fill:#211e1e;fill-opacity:1;fill-rule:nonzero;stroke:none;stroke-width:1.33333325"
       d="m 142.80507,-207.02172 v 0.93229 h -2.21355 v 7.48958 h -1.0729 v -7.48958 h -2.21876 v -0.93229 h 5.50521"
       id="path1881" /><path
       inkscape:connector-curvature="0"
       style="fill:#211e1e;fill-opacity:1;fill-rule:nonzero;stroke:none;stroke-width:1.33333325"
       d="m 149.43528,-198.59985 h -1.28646 l -2.4375,-8.42187 h 1.16667 l 1.92708,7.40625 h 0.0208 l 1.96875,-7.40625 h 1.09896 l -2.45834,8.42187"
       id="path1883" /><path
       inkscape:connector-curvature="0"
       style="fill:#211e1e;fill-opacity:1;fill-rule:nonzero;stroke:none;stroke-width:1.33333325"
       d="m 157.15403,-201.6311 v -2.84895 c 0,-1.76042 -1.20833,-1.82292 -1.54688,-1.82292 -0.33853,0 -1.55208,0.0625 -1.55208,1.82292 v 2.84895 c 0,1.84375 0.53645,2.3073 1.55208,2.3073 1.01043,0 1.54688,-0.46355 1.54688,-2.3073 z m -4.19792,-0.0469 v -2.76562 c 0,-1.68229 0.86459,-2.75521 2.65104,-2.75521 1.78125,0 2.64584,1.07292 2.64584,2.75521 v 2.76562 c 0,2.33334 -0.86459,3.25 -2.64584,3.25 -1.78645,0 -2.65104,-0.91666 -2.65104,-3.25"
       id="path1885" /><path
       inkscape:connector-curvature="0"
       style="fill:#211e1e;fill-opacity:1;fill-rule:nonzero;stroke:none;stroke-width:1.33333325"
       d="m 161.13319,-198.59985 h -1 v -8.42187 h 1.73437 l 2.125,7.06771 h 0.026 l 2.14583,-7.06771 h 1.77084 v 8.42187 h -1.07292 v -7.48958 h -0.026 l -2.35417,7.48958 h -1.01563 l -2.30728,-7.48958 h -0.026 v 7.48958"
       id="path1887" /></g></g></svg>