<?xml version="1.0" encoding="UTF-8" standalone="no"?>
<!-- Generator: Adobe Illustrator 20.1.0, SVG Export Plug-In . SVG Version: 6.00 Build 0)  -->

<svg
   xmlns:dc="http://purl.org/dc/elements/1.1/"
   xmlns:cc="http://creativecommons.org/ns#"
   xmlns:rdf="http://www.w3.org/1999/02/22-rdf-syntax-ns#"
   xmlns:svg="http://www.w3.org/2000/svg"
   xmlns="http://www.w3.org/2000/svg"
   xmlns:sodipodi="http://sodipodi.sourceforge.net/DTD/sodipodi-0.dtd"
   xmlns:inkscape="http://www.inkscape.org/namespaces/inkscape"
   version="1.1"
   x="0px"
   y="0px"
   viewBox="0 0 540.02875 215.62503"
   xml:space="preserve"
   id="svg1329"
   sodipodi:docname="credits-all-en-2text_as_paths.svg"
   inkscape:export-filename="/home/matthias/Projects/Real_MHD_App/ProjectMgm.06-SupportAttribution/Logo.All.v2.1024x290.png"
   inkscape:export-xdpi="128.59"
   inkscape:export-ydpi="128.59"
   inkscape:version="0.92.4 (5da689c313, 2019-01-14)"
   width="142.88261mm"
   height="57.050789mm"><metadata
   id="metadata1335"><rdf:RDF><cc:Work
       rdf:about=""><dc:format>image/svg+xml</dc:format><dc:type
         rdf:resource="http://purl.org/dc/dcmitype/StillImage" /><dc:title></dc:title></cc:Work></rdf:RDF></metadata><defs
   id="defs1333"><clipPath
   id="clip1"><path
     id="path1846"
     d="M 0,0 H 226.76953 V 155.89844 H 0 Z m 0,0"
     inkscape:connector-curvature="0" /></clipPath>
	
	
<clipPath
   id="clip1-5"><path
     inkscape:connector-curvature="0"
     d="M 0,0 H 226.76953 V 155.89844 H 0 Z m 0,0"
     id="path1846-3" /></clipPath></defs><sodipodi:namedview
   pagecolor="#ffffff"
   bordercolor="#666666"
   borderopacity="1"
   objecttolerance="10"
   gridtolerance="10"
   guidetolerance="10"
   inkscape:pageopacity="1"
   inkscape:pageshadow="2"
   inkscape:window-width="1280"
   inkscape:window-height="1000"
   id="namedview1331"
   showgrid="false"
   inkscape:zoom="0.62136325"
   inkscape:cx="288.06487"
   inkscape:cy="81.901477"
   inkscape:window-x="0"
   inkscape:window-y="0"
   inkscape:window-maximized="1"
   inkscape:current-layer="svg1329"
   inkscape:snap-intersection-paths="true"
   inkscape:snap-others="true"
   inkscape:object-nodes="true"
   inkscape:snap-nodes="true"
   inkscape:snap-object-midpoints="true"
   inkscape:snap-grids="true"
   inkscape:snap-to-guides="true"
   inkscape:snap-global="false"
   inkscape:snap-bbox="true"
   inkscape:snap-bbox-midpoints="true"
   fit-margin-top="9.595"
   fit-margin-left="10.287"
   fit-margin-right="10.287"
   fit-margin-bottom="9.595"
   borderlayer="true"
   showguides="true"
   inkscape:guide-bbox="true"
   inkscape:bbox-paths="true"
   inkscape:bbox-nodes="true"
   inkscape:snap-page="true"
   inkscape:document-units="mm"
   inkscape:snap-bbox-edge-midpoints="true"
   inkscape:object-paths="true"
   inkscape:snap-smooth-nodes="true"
   inkscape:snap-midpoints="true"
   inkscape:snap-center="true"
   inkscape:snap-text-baseline="true"
   units="mm"><sodipodi:guide
     position="101.50161,136.90443"
     orientation="0,1"
     id="guide6646"
     inkscape:locked="false" /><sodipodi:guide
     position="202.0869,170.29874"
     orientation="0,1"
     id="guide6648"
     inkscape:locked="false" /><sodipodi:guide
     position="388.16967,52.613939"
     orientation="1,0"
     id="guide6752"
     inkscape:locked="false"
     inkscape:label=""
     inkscape:color="rgb(0,0,255)" /><sodipodi:guide
     position="241.23394,300.00398"
     orientation="1,0"
     id="guide1514"
     inkscape:locked="false" /><sodipodi:guide
     position="286.47183,290.90004"
     orientation="1,0"
     id="guide1516"
     inkscape:locked="false"
     inkscape:label=""
     inkscape:color="rgb(0,0,255)" /><sodipodi:guide
     position="433.8734,200.99863"
     orientation="1,0"
     id="guide1518"
     inkscape:locked="false"
     inkscape:label=""
     inkscape:color="rgb(0,0,255)" /><sodipodi:guide
     position="397.62469,65.488857"
     orientation="0,1"
     id="guide1539"
     inkscape:locked="false" /></sodipodi:namedview>
<style
   type="text/css"
   id="style1095">
	.st0{fill:#1D1D1B;}
	.st1{fill:#099ACF;}
	.st2{fill:#010101;}
	.st3{fill:#231F20;}
	.st4{fill:#F5CE00;}
	.st5{fill:#ED1C24;}
</style>









<style
   id="style1095-1"
   type="text/css">
	.st0{fill:#1D1D1B;}
	.st1{fill:#099ACF;}
	.st2{fill:#010101;}
	.st3{fill:#231F20;}
	.st4{fill:#F5CE00;}
	.st5{fill:#ED1C24;}
</style><g
   aria-label="DEVELOPED BY"
   style="font-style:normal;font-variant:normal;font-weight:bold;font-stretch:normal;font-size:12.48223591px;line-height:1.25;font-family:Calibri;-inkscape-font-specification:'Calibri Bold';font-variant-ligatures:normal;font-variant-caps:normal;font-variant-numeric:normal;font-feature-settings:normal;text-align:start;letter-spacing:0px;word-spacing:0px;writing-mode:lr-tb;text-anchor:start;fill:#211e1e;fill-opacity:1;stroke:none;stroke-width:0.62411183"
   id="text6750-2"
   transform="translate(9.4435859e-7,-1.1804539e-6)"><path
     d="m 287.68194,44.441989 v -7.036093 h 0.25561 c 1.76239,0 3.0001,1.13008 3.0001,3.484413 0,2.2198 -0.9821,3.55168 -2.90592,3.55168 z m -1.06281,0.96864 h 1.26461 c 3.2288,0 4.11672,-2.394693 4.11672,-4.493413 0,-3.06736 -1.70857,-4.47996 -4.35888,-4.47996 h -1.02245 z"
     style="font-style:normal;font-variant:normal;font-weight:normal;font-stretch:condensed;font-size:13.4533329px;font-family:'Kristall Now Pro';-inkscape-font-specification:'Kristall Now Pro Condensed';fill:#211e1e;fill-opacity:1;stroke-width:0.62411183"
     id="path904"
     inkscape:connector-curvature="0" /><path
     d="m 293.47717,45.410629 h 3.94183 v -0.941733 h -2.87901 v -2.94628 h 2.79829 v -0.941733 h -2.79829 V 37.37899 h 2.75793 v -0.941734 h -3.82075 z"
     style="font-style:normal;font-variant:normal;font-weight:normal;font-stretch:condensed;font-size:13.4533329px;font-family:'Kristall Now Pro';-inkscape-font-specification:'Kristall Now Pro Condensed';fill:#211e1e;fill-opacity:1;stroke-width:0.62411183"
     id="path906"
     inkscape:connector-curvature="0" /><path
     d="m 300.71843,45.410629 h 1.08972 l 2.46196,-8.973373 h -1.06281 l -1.17044,4.345427 c -0.25562,0.901373 -0.41706,1.69512 -0.56504,2.287066 -0.0807,0.349787 -0.14799,0.672667 -0.2018,0.96864 l -0.2018,-0.955186 -0.56504,-2.287067 -1.14354,-4.35888 h -1.08972 z"
     style="font-style:normal;font-variant:normal;font-weight:normal;font-stretch:condensed;font-size:13.4533329px;font-family:'Kristall Now Pro';-inkscape-font-specification:'Kristall Now Pro Condensed';fill:#211e1e;fill-opacity:1;stroke-width:0.62411183"
     id="path908"
     inkscape:connector-curvature="0" /><path
     d="m 305.35394,45.410629 h 3.94183 v -0.941733 h -2.87901 v -2.94628 h 2.79829 v -0.941733 h -2.79829 V 37.37899 h 2.75793 v -0.941734 h -3.82075 z"
     style="font-style:normal;font-variant:normal;font-weight:normal;font-stretch:condensed;font-size:13.4533329px;font-family:'Kristall Now Pro';-inkscape-font-specification:'Kristall Now Pro Condensed';fill:#211e1e;fill-opacity:1;stroke-width:0.62411183"
     id="path910"
     inkscape:connector-curvature="0" /><path
     d="m 310.81936,45.410629 h 3.80729 v -0.96864 h -2.74448 v -8.004733 h -1.06281 z"
     style="font-style:normal;font-variant:normal;font-weight:normal;font-stretch:condensed;font-size:13.4533329px;font-family:'Kristall Now Pro';-inkscape-font-specification:'Kristall Now Pro Condensed';fill:#211e1e;fill-opacity:1;stroke-width:0.62411183"
     id="path912"
     inkscape:connector-curvature="0" /><path
     d="m 315.55556,40.997936 c 0,3.282613 1.34534,4.547227 3.13463,4.547227 1.76239,0 3.20189,-1.49332 3.20189,-4.68176 0,-3.242253 -1.34533,-4.56068 -3.12117,-4.56068 -1.76239,0 -3.21535,1.506773 -3.21535,4.695213 z m 1.07627,-0.06727 c 0,-2.58304 0.91483,-3.659306 2.09872,-3.659306 1.18389,0 2.09872,1.076266 2.09872,3.659306 0,2.569587 -0.91483,3.645854 -2.09872,3.645854 -1.18389,0 -2.09872,-1.076267 -2.09872,-3.645854 z"
     style="font-style:normal;font-variant:normal;font-weight:normal;font-stretch:condensed;font-size:13.4533329px;font-family:'Kristall Now Pro';-inkscape-font-specification:'Kristall Now Pro Condensed';fill:#211e1e;fill-opacity:1;stroke-width:0.62411183"
     id="path914"
     inkscape:connector-curvature="0" /><path
     d="m 324.65801,37.37899 c 1.4126,0 2.13908,0.699573 2.13908,2.219799 0,1.762387 -1.02246,2.354334 -2.09872,2.354334 h -0.28252 V 37.37899 Z m -1.30498,8.031639 h 1.06282 v -2.515773 h 0.26906 c 2.13908,0 3.17499,-1.399147 3.17499,-3.39024 0,-2.112173 -1.30497,-3.06736 -3.29607,-3.06736 h -1.2108 z"
     style="font-style:normal;font-variant:normal;font-weight:normal;font-stretch:condensed;font-size:13.4533329px;font-family:'Kristall Now Pro';-inkscape-font-specification:'Kristall Now Pro Condensed';fill:#211e1e;fill-opacity:1;stroke-width:0.62411183"
     id="path916"
     inkscape:connector-curvature="0" /><path
     d="m 329.18631,45.410629 h 3.94183 v -0.941733 h -2.87902 v -2.94628 h 2.7983 v -0.941733 h -2.7983 V 37.37899 h 2.75794 v -0.941734 h -3.82075 z"
     style="font-style:normal;font-variant:normal;font-weight:normal;font-stretch:condensed;font-size:13.4533329px;font-family:'Kristall Now Pro';-inkscape-font-specification:'Kristall Now Pro Condensed';fill:#211e1e;fill-opacity:1;stroke-width:0.62411183"
     id="path918"
     inkscape:connector-curvature="0" /><path
     d="m 335.71454,44.441989 v -7.036093 h 0.25562 c 1.76238,0 3.00009,1.13008 3.00009,3.484413 0,2.2198 -0.98209,3.55168 -2.90592,3.55168 z m -1.06281,0.96864 h 1.26461 c 3.2288,0 4.11672,-2.394693 4.11672,-4.493413 0,-3.06736 -1.70857,-4.47996 -4.35888,-4.47996 h -1.02245 z"
     style="font-style:normal;font-variant:normal;font-weight:normal;font-stretch:condensed;font-size:13.4533329px;font-family:'Kristall Now Pro';-inkscape-font-specification:'Kristall Now Pro Condensed';fill:#211e1e;fill-opacity:1;stroke-width:0.62411183"
     id="path920"
     inkscape:connector-curvature="0" /><path
     d="m 345.12137,37.37899 h 0.21525 c 1.25116,0 1.92383,0.376693 1.92383,1.547133 0,1.009 -0.41706,1.681666 -1.77584,1.681666 h -0.36324 z m 0,4.103266 h 0.61885 c 1.35879,0 1.88347,0.632307 1.88347,1.53368 0,1.237707 -0.9821,1.45296 -1.85656,1.45296 h -0.64576 z m -1.06282,3.928373 h 1.53368 c 2.36779,0 3.10772,-0.982093 3.10772,-2.4216 0,-0.901373 -0.39014,-1.4126 -0.8072,-1.69512 -0.2287,-0.16144 -0.49777,-0.28252 -0.79374,-0.349786 0.2287,-0.09417 0.44396,-0.228707 0.61885,-0.4036 0.30943,-0.309427 0.61885,-0.793747 0.61885,-1.641307 0,-1.789293 -1.27806,-2.46196 -2.98664,-2.46196 h -1.29152 z"
     style="font-style:normal;font-variant:normal;font-weight:normal;font-stretch:condensed;font-size:13.4533329px;font-family:'Kristall Now Pro';-inkscape-font-specification:'Kristall Now Pro Condensed';fill:#211e1e;fill-opacity:1;stroke-width:0.62411183"
     id="path922"
     inkscape:connector-curvature="0" /><path
     d="m 351.49278,41.805136 v 3.605493 h 1.07626 v -3.605493 l 2.23326,-5.36788 h -1.11663 l -0.99555,2.475413 c -0.2018,0.470867 -0.34978,0.914827 -0.47086,1.237707 l -0.18835,0.52468 -0.2018,-0.52468 c -0.12108,-0.32288 -0.28252,-0.753387 -0.48432,-1.224253 l -1.04936,-2.488867 h -1.14353 z"
     style="font-style:normal;font-variant:normal;font-weight:normal;font-stretch:condensed;font-size:13.4533329px;font-family:'Kristall Now Pro';-inkscape-font-specification:'Kristall Now Pro Condensed';fill:#211e1e;fill-opacity:1;stroke-width:0.62411183"
     id="path924"
     inkscape:connector-curvature="0" /></g>

<g
   transform="matrix(0.18164924,0,0,0.18164924,286.45316,78.748244)"
   id="g824"><path
     d="M 560.96136,-6.9383998e-7 H 0.11255025 V 394 H 560.96136"
     style="fill:#4c4740;fill-opacity:1;fill-rule:evenodd;stroke:none"
     id="path3290"
     inkscape:connector-curvature="0" /><path
     d="m 461.09381,210.70158 -44.46303,28.09051 -46.40153,23.88644 -87.19612,36.59189 4.5216,-28.75092 86.5501,-90.17307"
     style="fill:#99b085;fill-opacity:1;fill-rule:evenodd;stroke:none"
     id="path3292"
     inkscape:connector-curvature="0" /><path
     d="m 0.03119107,193.17999 c 3.40680003,2.72122 77.59761993,-1.35204 88.41483993,4.7397 12.376659,6.96878 22.767319,11.94022 34.723209,19.13041 0.0287,-0.39523 32.946,21.97494 47.3673,28.08304 5.29202,2.24279 15.18689,7.64001 27.66507,15.22422 6.26792,3.80883 14.72825,7.73352 14.72825,7.73352 l 23.70728,11.98855 c 9.03497,3.22124 21.55825,13.1348 19.21367,14.12962 7.02533,2.75728 36.90382,17.17876 60.25615,22.31777 16.43454,3.61529 28.19149,-13.51443 22.17966,-22.13577 -4.19967,-6.02156 -20.52619,-9.64911 -30.49147,-14.84053 -8.79094,-4.58029 -15.52376,-8.88652 -15.8792,-7.26737 0,0 -3.40753,-3.30635 2.45383,-0.50076 22.90959,10.97305 51.60047,21.40924 75.96268,30.14575 17.23271,6.18095 35.67666,-19.97399 27.90959,-25.48252 -8.71378,-6.17878 -63.79484,-32.02119 -70.36779,-38.97699 -0.38968,-0.41374 0.85363,-1.82303 0.78466,-1.94421 -0.0696,-0.12059 13.7338,8.19535 25.40393,14.64483 16.71861,9.24162 43.44591,19.36697 44.58119,19.97617 16.18086,8.6656 54.59782,-6.40114 40.68027,-24.83099 -2.28911,-3.03183 -13.94478,-7.64409 -17.01327,-9.22647 -6.26333,-3.23233 -21.61492,-10.5617 -29.5708,-15.06484 -10.22981,-5.78787 -13.40682,-6.69206 -20.75357,-11.2839 -2.23946,-1.39918 -6.03859,-3.99681 -7.49095,-5.17988 -2.41984,-1.97015 0.29249,-2.4166 0.20085,-2.56591 0,0 9.41935,6.12854 22.7408,13.14925 9.72534,5.1234 22.01954,10.53501 31.84281,15.3353 5.37401,2.62647 11.51555,4.17063 15.388,6.01529 6.73066,3.20588 3.4396,2.95561 10.78419,4.46515 6.95636,1.43116 33.72392,-5.75109 33.3316,-28.70451 -0.0588,-3.50422 -4.7801,-8.19343 -5.83677,-8.79109 -7.0803,-4.00835 -14.39065,-7.5032 -16.45503,-8.71414 -14.16231,-3.20563 -61.71624,-64.00562 -61.71624,-64.00562 -5.03424,-11.55053 -93.83609,-87.530504 -100.66587,-90.736135 -11.1459,-5.234463 -45.53632,-19.523719 -57.71213,-19.732165 -9.69955,-0.164825 -91.92218,19.300138 -101.07676,22.251665 0,0 -28.78735,6.5216 -43.919019,1.433076 C 89.459541,43.307278 -0.19233893,39.717952 3.2107389e-4,41.161375 0.10835107,41.964827 0.03122107,193.17999 0.03122107,193.17999 Z M 160.31275,252.76161 c 0.646,0.43008 1.29202,0.85801 1.92837,1.28402 l -0.72123,-1.52251 c 0,0 -0.43527,0.0925 -1.20714,0.23849 z m 40.36801,26.47542 c 0.47721,0.52746 4.87364,2.21681 5.26598,2.70558 0,0 -1.86328,0.39306 -1.67182,0.49813 0.002,-0.0464 -1.14637,-0.93449 -1.14444,-0.97247 0.0392,-0.73133 -1.38533,-1.88361 -2.44972,-2.23124"
     style="fill:#b8db7d;fill-opacity:1;fill-rule:evenodd;stroke:none"
     id="path3294"
     inkscape:connector-curvature="0" /><path
     d="m 322.76816,29.017521 c 0,0 -86.68539,29.82555 -92.49489,40.543041 -2.14205,3.952576 -9.23126,18.474088 -17.07405,34.695528 -1.90981,3.95258 1.02121,6.64783 -0.91681,10.67037 -7.52834,15.6346 -12.048,23.68426 -14.35907,27.65511 -1.47311,2.5296 0.68483,4.99742 1.75934,5.39746 38.88623,14.45755 60.14017,-14.69628 70.36177,-31.65145 0,0 44.10421,19.17487 65.79776,-3.7004 0,0 -2.91055,7.00915 -0.11884,8.62423 28.66509,16.60081 37.21271,15.7904 50.94024,36.09785 0,0 44.04055,26.61173 47.42831,28.33861 10.82856,5.52197 13.31132,4.87311 22.11191,8.99205 0.3629,0.16829 7.85725,4.06294 10.35905,4.96326 2.86617,1.03113 7.52641,-2.63128 11.23609,-5.19694 0.48928,-0.33874 82.48428,0.85852 83.15898,-1.56122 0.12636,-0.45053 -0.0696,-151.703219 -0.0965,-151.705373 C 546.46,39.168124 471.73868,49.80124 458.64463,41.1758 448.72661,34.641198 398.94816,25.975619 355.59318,20.704383 c -13.59224,-1.651388 -22.9477,3.662161 -32.82496,8.313388"
     style="fill:#99b085;fill-opacity:1;fill-rule:evenodd;stroke:none"
     id="path3296"
     inkscape:connector-curvature="0" /><path
     d="M 20.799813,376.46543 V 337.9368 h 43.1042 v 5.56623 H 37.336832 v 10.10563 h 19.147353 v 5.56646 H 37.336832 v 17.29031 z m 40.445177,0 17.653259,-38.52863 h 21.602621 l 17.57585,38.52863 H 101.08466 L 97.764665,368.1256 H 81.051364 l -3.572224,8.33983 z m 21.883791,-13.80651 h 12.60984 L 90.116489,346.56778 H 89.076932 Z M 127.5766,376.46543 V 337.9368 h 16.8404 v 38.52863 z m 49.84331,-32.9624 v 11.19758 h 6.53269 c 3.82565,0 6.45792,-0.40966 7.95226,-1.23764 1.49552,-0.82724 2.22955,-2.36467 2.22955,-4.60216 0,-2.02787 -0.78467,-3.42969 -2.33011,-4.20262 -1.57005,-0.77268 -4.38149,-1.15516 -8.43284,-1.15516 z m 0,16.76307 v 16.19933 H 160.88216 V 337.9368 h 24.26045 c 9.11696,0 15.67905,0.88326 19.75573,2.6373 4.05257,1.7562 6.07862,4.59376 6.07862,8.50548 0,2.41036 -0.80998,4.3656 -2.45792,5.85736 -1.61996,1.49174 -4.30432,2.70148 -8.0017,3.62946 l 12.15627,17.89903 H 195.55352 L 185.29429,360.2661 Z m 63.36706,10.52397 h 8.38077 c 2.91344,0 5.09043,-0.32624 6.48421,-0.98256 1.41909,-0.66376 2.12926,-1.68191 2.12926,-3.06523 v -18.54452 c 0,-1.58359 -1.06439,-2.73876 -3.19293,-3.47489 -2.12707,-0.73662 -5.46902,-1.1107 -10.02821,-1.1107 h -3.7731 z m -16.38655,5.67536 V 337.9368 h 23.50279 c 9.11648,0 15.85219,0.86403 20.23441,2.58273 4.38341,1.7283 6.56041,4.39349 6.56041,7.9958 v 17.20953 c 0,3.74655 -2.07717,6.47521 -6.23175,8.18574 -4.1524,1.6997 -10.76297,2.55483 -19.80493,2.55483 z m 65.36779,0 V 337.9368 h 16.83966 v 38.52863 z m 49.84257,-32.9624 v 11.19758 h 6.53244 c 3.82664,0 6.4589,-0.40966 7.953,-1.23764 1.49577,-0.82724 2.22835,-2.36467 2.22835,-4.60216 0,-2.02787 -0.78393,-3.42969 -2.3294,-4.20262 -1.57077,-0.77268 -4.38075,-1.15516 -8.43357,-1.15516 z m 0,16.76307 v 16.19933 H 323.07376 V 337.9368 h 24.25949 c 9.11793,0 15.67857,0.88326 19.75647,2.6373 4.0528,1.7562 6.07885,4.59376 6.07885,8.50548 0,2.41036 -0.81071,4.3656 -2.45817,5.85736 -1.61997,1.49174 -4.3048,2.70148 -8.00145,3.62946 l 12.15604,17.89903 h -17.12131 l -10.2578,-16.19933 z m 46.98051,16.19933 V 337.9368 h 43.18139 v 5.56623 h -26.64386 v 10.10563 h 19.19725 v 5.56646 h -19.19725 v 11.50604 h 26.64386 v 5.78427 z m 53.94436,-9.88542 v -19.74707 c 0,-3.03806 2.30625,-5.41308 6.89004,-7.14067 4.60985,-1.71941 10.96552,-2.58271 19.09551,-2.58271 7.64891,0 13.72608,0.88182 18.21101,2.64618 4.4806,1.77375 6.71016,4.1841 6.71016,7.24068 v 3.70184 h -16.99495 v -4.23963 c 0,-1.32683 -0.70943,-2.3279 -2.15168,-2.99167 -1.44562,-0.66378 -3.5715,-0.99962 -6.38149,-0.99962 -2.81287,0 -4.93875,0.33584 -6.38438,0.99962 -1.44224,0.66377 -2.15167,1.66484 -2.15167,2.99167 v 21.50349 c 0,1.33693 0.70943,2.33679 2.15167,3.01955 1.44563,0.67196 3.57151,1.00924 6.38438,1.00924 2.80999,0 4.93587,-0.33728 6.38149,-1.00924 1.44225,-0.68276 2.15168,-1.68262 2.15168,-3.01955 v -5.24887 h 16.99495 v 4.02903 c 0,3.37465 -2.20304,5.97708 -6.63638,7.80564 -4.43212,1.82689 -10.73982,2.74573 -18.89174,2.74573 -8.35834,0 -14.69135,-0.91067 -18.96914,-2.71929 -4.28094,-1.81052 -6.40946,-4.47451 -6.40946,-7.99435 z m 55.64291,-23.07698 v -5.56623 h 50.90625 v 5.56623 h -17.2233 v 32.9624 h -16.53752 v -32.9624"
     style="fill:#ffffff;fill-opacity:1;fill-rule:evenodd;stroke:none"
     id="path3298"
     inkscape:connector-curvature="0" /><path
     d="m 236.86551,273.74221 c 0,5.93717 -2.84302,13.42378 -2.84302,20.91064 7.23679,7.22842 17.05716,10.58382 28.94528,10.58382 17.57392,-17.81248 32.82158,-40.27184 22.48446,-66.8617 -9.04533,-24.26605 -42.90116,30.20371 -48.58672,35.36724 z M 221.35934,189.3255 c -11.88812,1.54898 -29.97954,14.45684 -39.02487,23.23445 -5.68556,5.67947 -33.33834,10.84227 -32.04658,21.16789 -4.39305,25.04089 26.36102,32.26954 37.73237,22.20189 10.85461,-9.29403 30.75456,-27.88061 46.51898,-33.30234 8.01183,-2.58155 11.88837,-10.84228 11.88837,-21.16813 -2.84302,-13.42451 -10.33737,-16.26423 -25.06827,-12.13376 z m -33.08081,79.25318 c 6.9783,15.48938 31.01304,23.75013 36.6986,15.74758 6.71933,-6.71177 2.32628,-1.03232 13.69763,-12.39122 5.68581,-5.67944 16.79795,-22.97528 26.87753,-31.75291 17.83219,-16.00579 2.58453,-19.36144 -8.78685,-25.04089 -12.92235,-2.58129 -77.53226,34.59264 -68.48691,53.43744 z m -13.17991,-50.59771 c 21.19173,-24.00833 6.20233,-30.46191 -10.85483,-31.75266 -17.31544,2.58127 -37.99039,10.84225 -50.6545,23.49191 l -2.3253,11.35891 c 9.5621,14.97275 8.52858,29.17115 38.24889,13.682 0.51676,-0.51666 0,-11.35891 25.58574,-16.78016"
     style="fill:#99b085;fill-opacity:1;fill-rule:evenodd;stroke:none"
     id="path3300"
     inkscape:connector-curvature="0" /></g><g
   transform="matrix(1.266202,0,0,1.266202,186.9677,31.375509)"
   id="g1132"><g
     id="Ebene_2_1_"><g
       id="g1127"><g
         id="g1115"><path
           class="st0"
           d="m 195.4,98.4 h 2 c 1.6,0 2.9,0.8 2.9,2.4 0,1.7 -1.4,2.4 -3,2.4 h -0.8 v 2.9 h -1.1 z m 1.1,3.9 h 0.8 c 0.7,0 1.9,-0.3 1.9,-1.5 0,-1.2 -1.2,-1.5 -1.8,-1.5 h -1 v 3 z"
           id="path1097"
           inkscape:connector-curvature="0"
           style="fill:#1d1d1b" /><path
           class="st0"
           d="m 201.2,102.1 c 0,-0.5 0,-0.9 -0.1,-1.4 h 1 l 0.1,1.4 h 0.1 c 0.2,-0.7 0.8,-1.5 1.6,-1.5 0.3,0 0.5,0.1 0.7,0.2 v 0.9 c -0.2,-0.1 -0.4,-0.1 -0.6,-0.1 -1,0 -1.6,1 -1.7,2.1 v 2.4 h -1 v -4 z"
           id="path1099"
           inkscape:connector-curvature="0"
           style="fill:#1d1d1b" /><path
           class="st0"
           d="m 207.5,100.6 c 1.8,0 2.6,1.6 2.6,2.8 0,1.4 -0.9,2.9 -2.6,2.9 -1.7,0 -2.7,-1.4 -2.7,-2.9 0,-1.2 0.8,-2.8 2.7,-2.8 z m 0,4.9 c 0.8,0 1.6,-0.7 1.6,-2.1 0,-1.4 -0.7,-2.1 -1.6,-2.1 -0.7,0 -1.6,0.4 -1.6,2.1 -0.1,1.1 0.4,2.1 1.6,2.1 z"
           id="path1101"
           inkscape:connector-curvature="0"
           style="fill:#1d1d1b" /><path
           class="st0"
           d="m 210.6,100.7 h 0.9 l 0.2,-1.6 h 0.8 v 1.6 h 1.5 v 0.8 h -1.5 v 3 c 0,0.5 0.2,0.8 0.7,0.8 0.3,0 0.6,-0.1 0.8,-0.2 v 0.8 c -0.2,0.1 -0.5,0.3 -0.9,0.3 -1,0 -1.6,-0.6 -1.6,-1.7 v -3 h -0.9 z"
           id="path1103"
           inkscape:connector-curvature="0"
           style="fill:#1d1d1b" /><path
           class="st0"
           d="m 217.2,100.6 c 1.8,0 2.6,1.6 2.6,2.8 0,1.4 -0.9,2.9 -2.6,2.9 -1.7,0 -2.7,-1.4 -2.7,-2.9 0,-1.2 0.8,-2.8 2.7,-2.8 z m 0,4.9 c 0.8,0 1.6,-0.7 1.6,-2.1 0,-1.4 -0.7,-2.1 -1.6,-2.1 -0.7,0 -1.6,0.4 -1.6,2.1 0,1.1 0.5,2.1 1.6,2.1 z"
           id="path1105"
           inkscape:connector-curvature="0"
           style="fill:#1d1d1b" /><path
           class="st0"
           d="m 220.3,100.7 h 0.9 l 0.2,-1.6 h 0.8 v 1.6 h 1.5 v 0.8 h -1.5 v 3 c 0,0.5 0.2,0.8 0.7,0.8 0.3,0 0.6,-0.1 0.8,-0.2 v 0.8 c -0.2,0.1 -0.5,0.3 -0.9,0.3 -1,0 -1.6,-0.6 -1.6,-1.7 v -3 h -0.9 z"
           id="path1107"
           inkscape:connector-curvature="0"
           style="fill:#1d1d1b" /><path
           class="st0"
           d="m 227,107.2 c -0.3,0.8 -0.9,1.1 -1.5,1.1 -0.2,0 -0.5,0 -0.7,-0.1 v -0.9 c 0.2,0.1 0.4,0.1 0.6,0.1 0.3,0 0.6,-0.1 0.7,-0.4 0.1,-0.2 0.3,-0.7 0.3,-0.9 0.1,-0.2 -0.1,-0.4 -0.3,-0.4 l -1.9,-5 h 1.1 l 1.5,4.3 h 0.1 l 1.3,-4.3 h 1.1 c -1.9,5.4 -2.1,5.8 -2.3,6.5 z"
           id="path1109"
           inkscape:connector-curvature="0"
           style="fill:#1d1d1b" /><path
           class="st0"
           d="m 230.9,108.2 h -1 v -6.6 c 0,-0.2 0,-0.6 0,-0.8 h 0.9 c 0,0.2 0,0.6 0,0.8 h 0.1 c 0.4,-0.6 0.9,-0.9 1.6,-0.9 1.5,0 2.3,1.3 2.3,2.8 0,1.6 -0.8,2.8 -2.2,2.8 -1,0 -1.4,-0.6 -1.6,-0.9 h -0.1 c 0,0 0,0.4 0,0.7 z m 1.3,-6.8 c -0.7,0 -1.3,0.8 -1.4,1.3 v 1.3 c 0,0.6 0.6,1.4 1.4,1.4 1,0 1.4,-0.9 1.4,-2 0.1,-1.2 -0.4,-2 -1.4,-2 z"
           id="path1111"
           inkscape:connector-curvature="0"
           style="fill:#1d1d1b" /><path
           class="st0"
           d="m 236.2,103.6 c 0,1.1 0.6,1.9 1.6,1.9 0.7,0 1.2,-0.4 1.3,-1 h 1 c -0.1,0.9 -0.9,1.8 -2.3,1.8 -1.5,0 -2.5,-1.1 -2.5,-2.9 0,-1.5 0.9,-2.8 2.5,-2.8 2,0 2.5,1.7 2.4,3 z m 2.8,-0.8 c 0,-0.5 -0.3,-1.5 -1.4,-1.5 -0.7,0 -1.3,0.5 -1.4,1.5 z"
           id="path1113"
           inkscape:connector-curvature="0"
           style="fill:#1d1d1b" /></g><g
         id="g1125"><path
           class="st0"
           d="m 195.4,108.5 h 4.3 v 0.9 h -3.2 v 2.6 h 3 v 0.9 h -3 v 3.4 h -1.1 z"
           id="path1117"
           inkscape:connector-curvature="0"
           style="fill:#1d1d1b" /><path
           class="st0"
           d="m 205.2,110.8 v 4.5 c 0,0.3 0,0.6 0.1,0.9 h -1 c 0,-0.2 0,-0.6 0,-0.9 h -0.1 c -0.1,0.2 -0.7,1 -1.7,1 -0.7,0 -1.8,-0.4 -1.8,-2 v -3.4 h 1 v 3.4 c 0,0.7 0.3,1.2 1,1.2 0.7,0 1.4,-0.6 1.5,-1.6 v -3.1 z"
           id="path1119"
           inkscape:connector-curvature="0"
           style="fill:#1d1d1b" /><path
           class="st0"
           d="m 206.2,111.8 c 0,-0.3 0,-0.6 -0.1,-0.9 h 1 v 0.9 h 0.1 c 0.1,-0.2 0.7,-1 1.7,-1 0.6,0 1.8,0.3 1.8,2 v 3.5 h -1 v -3.5 c 0,-0.7 -0.3,-1.2 -0.9,-1.2 -0.7,0 -1.4,0.7 -1.6,1.6 v 3.1 h -1 z"
           id="path1121"
           inkscape:connector-curvature="0"
           style="fill:#1d1d1b" /><path
           class="st0"
           d="m 215.3,108.5 h 1 v 6.9 c 0,0.2 0,0.6 0,0.8 h -0.9 c 0,-0.2 0,-0.6 0,-0.8 h -0.1 c -0.4,0.6 -0.9,0.9 -1.6,0.9 -1.5,0 -2.3,-1.3 -2.3,-2.8 0,-1.6 0.8,-2.8 2.2,-2.8 1,0 1.4,0.6 1.6,0.9 h 0.1 c 0,0 0,-0.4 0,-0.7 z m -1.4,7 c 0.7,0 1.3,-0.8 1.3,-1.3 v -1.3 c 0,-0.6 -0.6,-1.4 -1.4,-1.4 -1,0 -1.4,0.9 -1.4,2 0,1.2 0.5,2 1.5,2 z"
           id="path1123"
           inkscape:connector-curvature="0"
           style="fill:#1d1d1b" /></g></g><path
       id="XMLID_19_"
       class="st1"
       d="m 225.5,37.6 6.6,0.8 7.8,15 -7.8,12.6 c 0,0 -8.9,2.3 -12.3,3.2 H 212 v 20.3 l 6.3,2.2 -0.2,2.2 -11.2,-0.2 -11.2,0.2 -0.2,-2.2 6.3,-2.2 V 41.9 l -6.3,-2.2 0.2,-2.2 z m -13.5,27.3 6.5,1.2 10,-7 3.1,-5.7 -3.1,-5.7 -10,-6.6 -6.5,0.9 z"
       inkscape:connector-curvature="0"
       style="fill:#099acf" /></g><g
     id="Ebene_1" /></g><g
   aria-label="SUPPORTED BY"
   style="font-style:normal;font-variant:normal;font-weight:bold;font-stretch:normal;font-size:13.45984745px;line-height:1.25;font-family:Calibri;-inkscape-font-specification:'Calibri Bold';font-variant-ligatures:normal;font-variant-caps:normal;font-variant-numeric:normal;font-feature-settings:normal;text-align:start;letter-spacing:0px;word-spacing:0px;writing-mode:lr-tb;text-anchor:start;fill:#211e1e;fill-opacity:1;stroke:none;stroke-width:0.67299241"
   id="text6750-0"
   transform="translate(9.4435859e-7,-1.1804539e-6)"><path
     d="m 435.7051,45.511483 c 1.48059,0 2.16704,-0.942189 2.16704,-2.167036 0,-1.171006 -0.75375,-1.924758 -1.49405,-2.665049 l -0.45763,-0.457635 c -0.57877,-0.578774 -1.07679,-1.130627 -1.07679,-1.870919 0,-0.713372 0.41726,-1.117167 1.10371,-1.117167 0.41725,0 0.72683,0.161518 0.94219,0.309576 0.12114,0.09422 0.21536,0.188438 0.30957,0.296117 l 0.56532,-0.794131 c -0.12114,-0.148058 -0.2692,-0.269197 -0.44418,-0.390336 -0.30957,-0.201897 -0.76721,-0.390335 -1.41328,-0.390335 -1.13063,0 -2.14012,0.686452 -2.14012,2.153575 0,1.090248 0.61916,1.79016 1.26523,2.436233 l 0.55185,0.551853 c 0.71338,0.713372 1.19793,1.171007 1.19793,1.965138 0,0.86143 -0.41726,1.197927 -1.10371,1.197927 -0.65953,0 -1.25176,-0.430716 -1.46712,-0.646073 l -0.12114,-0.121139 -0.56531,0.834511 c 0.14805,0.174978 0.33649,0.309576 0.55185,0.430715 0.36342,0.228817 0.91527,0.444175 1.62864,0.444175 z"
     style="font-style:normal;font-variant:normal;font-weight:normal;font-stretch:condensed;font-family:'Kristall Now Pro';-inkscape-font-specification:'Kristall Now Pro Condensed';fill:#211e1e;fill-opacity:1;stroke-width:0.67299241"
     id="path881"
     inkscape:connector-curvature="0" /><path
     d="m 439.14893,42.536857 c 0,2.045896 0.88835,2.974626 2.55737,2.974626 1.66902,0 2.55737,-0.969109 2.55737,-3.001546 v -6.110771 h -1.07679 V 42.2542 c 0,1.238306 -0.10767,2.315094 -1.45366,2.315094 -1.3729,0 -1.5075,-1.076788 -1.5075,-2.328554 v -5.841574 h -1.07679 z"
     style="font-style:normal;font-variant:normal;font-weight:normal;font-stretch:condensed;font-family:'Kristall Now Pro';-inkscape-font-specification:'Kristall Now Pro Condensed';fill:#211e1e;fill-opacity:1;stroke-width:0.67299241"
     id="path883"
     inkscape:connector-curvature="0" /><path
     d="m 447.27742,37.341356 c 1.41328,0 2.14011,0.699912 2.14011,2.220874 0,1.76324 -1.02295,2.355474 -2.09974,2.355474 h -0.28265 v -4.576348 z m -1.30561,8.035528 h 1.06333 v -2.516991 h 0.26919 c 2.14012,0 3.17653,-1.399824 3.17653,-3.391882 0,-2.113196 -1.30561,-3.068845 -3.29766,-3.068845 h -1.21139 z"
     style="font-style:normal;font-variant:normal;font-weight:normal;font-stretch:condensed;font-family:'Kristall Now Pro';-inkscape-font-specification:'Kristall Now Pro Condensed';fill:#211e1e;fill-opacity:1;stroke-width:0.67299241"
     id="path885"
     inkscape:connector-curvature="0" /><path
     d="m 453.11352,37.341356 c 1.41328,0 2.14012,0.699912 2.14012,2.220874 0,1.76324 -1.02295,2.355474 -2.09974,2.355474 h -0.28266 v -4.576348 z m -1.3056,8.035528 h 1.06332 v -2.516991 h 0.2692 c 2.14012,0 3.17652,-1.399824 3.17652,-3.391882 0,-2.113196 -1.3056,-3.068845 -3.29766,-3.068845 h -1.21138 z"
     style="font-style:normal;font-variant:normal;font-weight:normal;font-stretch:condensed;font-family:'Kristall Now Pro';-inkscape-font-specification:'Kristall Now Pro Condensed';fill:#211e1e;fill-opacity:1;stroke-width:0.67299241"
     id="path887"
     inkscape:connector-curvature="0" /><path
     d="m 457.36137,40.962054 c 0,3.284203 1.34598,4.549429 3.13614,4.549429 1.76324,0 3.20344,-1.494043 3.20344,-4.684027 0,-3.243823 -1.34598,-4.562888 -3.12268,-4.562888 -1.76324,0 -3.2169,1.507503 -3.2169,4.697486 z m 1.07678,-0.0673 c 0,-2.58429 0.91527,-3.661078 2.09974,-3.661078 1.18447,0 2.09974,1.076788 2.09974,3.661078 0,2.570831 -0.91527,3.647619 -2.09974,3.647619 -1.18447,0 -2.09974,-1.076788 -2.09974,-3.647619 z"
     style="font-style:normal;font-variant:normal;font-weight:normal;font-stretch:condensed;font-family:'Kristall Now Pro';-inkscape-font-specification:'Kristall Now Pro Condensed';fill:#211e1e;fill-opacity:1;stroke-width:0.67299241"
     id="path889"
     inkscape:connector-curvature="0" /><path
     d="m 466.40092,37.341356 c 1.41328,0 2.07281,0.632612 2.07281,2.045896 0,1.709401 -0.88835,2.234335 -2.03243,2.234335 h -0.22882 v -4.280231 z m 1.84399,8.035528 h 1.29215 l -1.7767,-3.082305 c 1.19793,-0.363415 1.76324,-1.413284 1.76324,-3.028465 0,-2.018977 -1.23831,-2.866948 -3.0823,-2.866948 h -1.27869 v 8.977718 h 1.04987 v -2.853487 l 0.44417,-0.02692 z"
     style="font-style:normal;font-variant:normal;font-weight:normal;font-stretch:condensed;font-family:'Kristall Now Pro';-inkscape-font-specification:'Kristall Now Pro Condensed';fill:#211e1e;fill-opacity:1;stroke-width:0.67299241"
     id="path891"
     inkscape:connector-curvature="0" /><path
     d="m 469.88723,37.368275 h 1.844 v 8.008609 h 1.06332 v -8.008609 h 1.844 v -0.969109 h -4.75132 z"
     style="font-style:normal;font-variant:normal;font-weight:normal;font-stretch:condensed;font-family:'Kristall Now Pro';-inkscape-font-specification:'Kristall Now Pro Condensed';fill:#211e1e;fill-opacity:1;stroke-width:0.67299241"
     id="path893"
     inkscape:connector-curvature="0" /><path
     d="m 475.52038,45.376884 h 3.94374 v -0.942189 h -2.88041 v -2.947706 h 2.79965 v -0.94219 h -2.79965 v -3.203443 h 2.75927 v -0.94219 h -3.8226 z"
     style="font-style:normal;font-variant:normal;font-weight:normal;font-stretch:condensed;font-family:'Kristall Now Pro';-inkscape-font-specification:'Kristall Now Pro Condensed';fill:#211e1e;fill-opacity:1;stroke-width:0.67299241"
     id="path895"
     inkscape:connector-curvature="0" /><path
     d="m 482.05177,44.407775 v -7.0395 h 0.25574 c 1.76324,0 3.00155,1.130627 3.00155,3.486101 0,2.220875 -0.98257,3.553399 -2.90733,3.553399 z m -1.06332,0.969109 h 1.26522 c 3.23037,0 4.11871,-2.395852 4.11871,-4.495589 0,-3.068845 -1.7094,-4.482129 -4.36099,-4.482129 h -1.02294 z"
     style="font-style:normal;font-variant:normal;font-weight:normal;font-stretch:condensed;font-family:'Kristall Now Pro';-inkscape-font-specification:'Kristall Now Pro Condensed';fill:#211e1e;fill-opacity:1;stroke-width:0.67299241"
     id="path897"
     inkscape:connector-curvature="0" /><path
     d="m 491.46315,37.341356 h 0.21536 c 1.25176,0 1.92476,0.376875 1.92476,1.547882 0,1.009489 -0.41726,1.682481 -1.7767,1.682481 h -0.36342 z m 0,4.105253 h 0.61915 c 1.35945,0 1.88438,0.632613 1.88438,1.534423 0,1.238306 -0.98257,1.453663 -1.85746,1.453663 h -0.64607 z m -1.06333,3.930275 h 1.53443 c 2.36893,0 3.10922,-0.982568 3.10922,-2.422772 0,-0.90181 -0.39034,-1.413284 -0.80759,-1.695941 -0.22882,-0.161518 -0.49801,-0.282657 -0.79413,-0.349956 0.22882,-0.09422 0.44417,-0.228817 0.61915,-0.403795 0.30958,-0.309577 0.61915,-0.794131 0.61915,-1.642102 0,-1.790159 -1.27868,-2.463152 -2.98808,-2.463152 h -1.29215 z"
     style="font-style:normal;font-variant:normal;font-weight:normal;font-stretch:condensed;font-family:'Kristall Now Pro';-inkscape-font-specification:'Kristall Now Pro Condensed';fill:#211e1e;fill-opacity:1;stroke-width:0.67299241"
     id="path899"
     inkscape:connector-curvature="0" /><path
     d="m 497.83765,41.769645 v 3.607239 h 1.07679 v -3.607239 l 2.23433,-5.370479 h -1.11716 l -0.99603,2.476612 c -0.2019,0.471095 -0.34996,0.91527 -0.4711,1.238306 l -0.18844,0.524934 -0.20189,-0.524934 c -0.12114,-0.323036 -0.28266,-0.753751 -0.48456,-1.224846 l -1.04987,-2.490072 h -1.14408 z"
     style="font-style:normal;font-variant:normal;font-weight:normal;font-stretch:condensed;font-family:'Kristall Now Pro';-inkscape-font-specification:'Kristall Now Pro Condensed';fill:#211e1e;fill-opacity:1;stroke-width:0.67299241"
     id="path901"
     inkscape:connector-curvature="0" /></g>

<g
   transform="translate(29.911703,273.55089)"
   id="g3940"><g
     transform="matrix(0.13333333,0,0,-0.13333333,-20.172369,-49.211755)"
     id="g12"><path
       inkscape:connector-curvature="0"
       id="path16"
       style="fill:#231f20;fill-opacity:1;fill-rule:nonzero;stroke:none"
       d="m 1398.1,688.891 v 46.179 c 0,6.067 -1.05,10.43 -3.07,13.059 -2.03,2.644 -5.11,3.973 -9.31,3.973 -3.56,0 -6.53,-0.907 -8.91,-2.696 -2.38,-1.797 -4.26,-3.535 -5.66,-5.234 v -55.281 h -12.03 v 105.625 l 12.03,1.355 v -42.59 h 0.29 c 0.41,0.586 1.04,1.41 1.89,2.395 0.83,0.996 2.02,1.992 3.48,2.988 1.51,0.996 3.3,1.875 5.43,2.617 2.13,0.75 4.65,1.121 7.52,1.121 6.25,0 11.21,-2.039 14.86,-6.14 3.68,-4.063 5.51,-10.852 5.51,-20.301 v -47.07 z m -56.7,57.82 c -0.31,0.305 -0.78,0.754 -1.42,1.348 -0.67,0.593 -1.47,1.203 -2.45,1.789 -0.97,0.593 -2.18,1.121 -3.59,1.558 -1.37,0.473 -2.97,0.696 -4.75,0.696 -2.59,0 -4.98,-0.489 -7.22,-1.426 -2.23,-0.946 -4.16,-2.473 -5.78,-4.563 -1.66,-2.097 -2.93,-4.8 -3.91,-8.14 -0.92,-3.332 -1.37,-7.395 -1.37,-12.18 0,-5.281 0.41,-9.707 1.23,-13.301 0.86,-3.574 2.03,-6.433 3.54,-8.586 1.44,-2.144 3.28,-3.679 5.41,-4.636 2.11,-0.95 4.49,-1.415 7.05,-1.415 3.69,0 6.48,0.653 8.44,1.954 1.91,1.289 3.28,2.332 4.06,3.132 l 4.92,-8.371 c -0.51,-0.613 -1.23,-1.328 -2.15,-2.168 -0.97,-0.847 -2.18,-1.687 -3.65,-2.468 -1.48,-0.789 -3.32,-1.485 -5.43,-2.024 -2.13,-0.547 -4.59,-0.808 -7.36,-0.808 -3.99,0 -7.7,0.644 -11.15,1.945 -3.52,1.289 -6.51,3.426 -9.11,6.414 -2.57,2.988 -4.59,6.875 -6.09,11.66 -1.5,4.777 -2.23,10.703 -2.23,17.774 0,6.875 0.88,12.707 2.66,17.48 1.82,4.785 4.14,8.645 7.03,11.57 2.87,2.953 6.08,5.082 9.57,6.45 3.54,1.335 7.07,2.007 10.63,2.007 2.69,0 5.05,-0.25 7.09,-0.742 2.03,-0.508 3.75,-1.121 5.21,-1.883 1.43,-0.75 2.64,-1.535 3.56,-2.39 0.93,-0.852 1.71,-1.555 2.32,-2.149 z m -49.86,3.293 c -0.29,0.191 -0.94,0.437 -1.94,0.75 -0.97,0.293 -2.32,0.441 -4,0.441 -3.79,0 -6.72,-1.027 -8.87,-3.066 -2.11,-2.031 -3.63,-4.25 -4.53,-6.641 v -52.597 h -12.05 v 71.726 h 11.02 v -9.726 h 0.29 c 0.49,1.406 1.15,2.761 1.93,4.113 0.8,1.348 1.78,2.547 2.97,3.594 1.21,1.043 2.62,1.863 4.24,2.461 1.64,0.601 3.61,0.894 5.88,0.894 1.68,0 3.05,-0.152 4.1,-0.457 1.06,-0.293 1.86,-0.535 2.44,-0.73 z m -73.32,-52.578 c 1.66,0 3.16,0.23 4.47,0.73 1.25,0.489 2.36,1.094 3.32,1.789 0.94,0.703 1.74,1.473 2.36,2.325 0.65,0.839 1.23,1.57 1.72,2.156 v 15.84 l -3.86,-0.149 c -5.75,-0.203 -10.12,-1.199 -13.07,-2.984 -3.01,-1.797 -4.49,-4.688 -4.49,-8.672 0,-3.676 0.84,-6.445 2.52,-8.293 1.7,-1.848 4.04,-2.742 7.03,-2.742 z m -21.6,9.695 c 0,4.18 0.8,7.664 2.38,10.449 1.6,2.793 3.73,5.047 6.41,6.797 2.65,1.758 5.82,2.996 9.43,3.742 3.63,0.75 7.46,1.121 11.54,1.121 h 3.71 v 6.875 c 0,6.075 -1.07,10.262 -3.2,12.547 -2.13,2.297 -5.12,3.45 -8.97,3.45 -3.61,0 -6.58,-0.782 -8.96,-2.325 -2.36,-1.55 -4.26,-2.91 -5.66,-4.109 l -5.06,8.066 c 0.82,0.797 1.81,1.7 3.06,2.684 1.25,1.008 2.78,1.953 4.53,2.852 1.8,0.878 3.81,1.64 6.12,2.226 2.26,0.606 4.86,0.906 7.73,0.906 7.35,0 12.91,-2.039 16.68,-6.14 3.75,-4.063 5.65,-10.645 5.65,-19.715 V 703.84 c 0,-3.098 0.09,-6.102 0.29,-9.043 0.21,-2.938 0.41,-4.91 0.59,-5.906 h -11.45 l -0.45,7.91 h -0.29 c -0.41,-0.891 -1,-1.906 -1.8,-3.059 -0.8,-1.14 -1.78,-2.187 -2.97,-3.144 -1.19,-0.946 -2.61,-1.746 -4.31,-2.461 -1.68,-0.692 -3.66,-1.035 -5.96,-1.035 -2.68,0 -5.18,0.488 -7.52,1.496 -2.32,0.996 -4.36,2.39 -6.07,4.179 -1.74,1.793 -3.09,3.907 -4.05,6.348 -0.92,2.441 -1.4,5.105 -1.4,7.996 z m -34.52,45.41 c -4.27,0 -7.69,-1.777 -10.29,-5.371 -2.56,-3.574 -4.04,-8.758 -4.43,-15.535 h 26.03 c 0.1,0.508 0.18,1.211 0.22,2.168 0.06,0.945 0.08,1.973 0.08,3.055 0,4.992 -1,8.847 -2.99,11.582 -1.97,2.734 -4.85,4.101 -8.62,4.101 z m 22.62,-16.125 c 0,-3.093 -0.1,-5.75 -0.29,-7.996 -0.2,-2.226 -0.41,-4.211 -0.61,-5.906 h -36.44 c 0.39,-8.469 2.2,-14.699 5.41,-18.664 3.24,-3.992 7.89,-5.985 13.92,-5.985 2.07,0 3.97,0.235 5.67,0.75 1.66,0.489 3.14,1.086 4.39,1.79 1.23,0.703 2.25,1.382 3.13,2.089 0.82,0.704 1.44,1.258 1.83,1.649 l 4.48,-8.524 c -0.51,-0.492 -1.25,-1.211 -2.25,-2.16 -0.96,-0.945 -2.32,-1.894 -3.98,-2.851 -1.7,-0.946 -3.79,-1.746 -6.27,-2.461 -2.5,-0.692 -5.39,-1.035 -8.77,-1.035 -4.48,0 -8.52,0.742 -12.15,2.238 -3.62,1.473 -6.68,3.808 -9.24,6.941 -2.5,3.137 -4.49,7.129 -5.84,11.953 -1.39,4.825 -2.11,10.633 -2.11,17.403 0,6.394 0.74,11.894 2.17,16.523 1.4,4.629 3.4,8.438 5.86,11.426 2.5,2.98 5.37,5.207 8.65,6.652 3.28,1.446 6.8,2.164 10.55,2.164 6.85,0 12.22,-2.164 16.07,-6.492 3.89,-4.355 5.82,-10.84 5.82,-19.504 z m -67.11,9.707 c -0.82,0.903 -2.22,2.114 -4.33,3.664 -2.07,1.543 -4.81,2.325 -8.19,2.325 -3.16,0 -5.58,-0.762 -7.26,-2.254 -1.7,-1.485 -2.56,-3.282 -2.56,-5.371 0,-2.688 0.78,-4.907 2.32,-6.653 1.53,-1.75 3.91,-3.613 7.07,-5.594 l 4.48,-2.687 c 4.84,-2.91 8.67,-6.008 11.44,-9.348 2.77,-3.347 4.14,-7.644 4.14,-12.918 0,-5.691 -1.93,-10.476 -5.84,-14.355 -3.92,-3.875 -9.55,-5.82 -16.89,-5.82 -2.89,0 -5.41,0.293 -7.58,0.886 -2.21,0.61 -4.1,1.289 -5.74,2.09 -1.64,0.805 -3.01,1.684 -4.1,2.617 -1.08,0.95 -2,1.821 -2.68,2.621 l 5.8,9.559 c 0.61,-0.605 1.31,-1.277 2.17,-2.09 0.84,-0.808 1.85,-1.57 3.06,-2.324 1.18,-0.731 2.5,-1.367 4.01,-1.856 1.46,-0.515 3.2,-0.75 5.19,-0.75 3.58,0 6.29,0.79 8.19,2.391 1.89,1.594 2.83,3.535 2.83,5.84 0,1.68 -0.22,3.144 -0.66,4.387 -0.45,1.25 -1.14,2.371 -2,3.355 -0.91,1.008 -2.01,1.965 -3.28,2.844 -1.31,0.898 -2.77,1.902 -4.47,2.988 l -4.47,2.844 c -4.46,2.891 -7.95,5.926 -10.49,9.121 -2.52,3.191 -3.79,7.266 -3.79,12.254 0,2.687 0.51,5.156 1.56,7.383 1.06,2.246 2.52,4.199 4.4,5.832 1.87,1.648 4.08,2.937 6.62,3.894 2.52,0.938 5.23,1.414 8.1,1.414 2.8,0 5.14,-0.269 7.13,-0.828 1.99,-0.547 3.71,-1.23 5.14,-2.09 1.42,-0.847 2.62,-1.699 3.59,-2.539 0.92,-0.84 1.72,-1.562 2.29,-2.16 z m -69.49,6.418 c -4.26,0 -7.7,-1.777 -10.27,-5.371 -2.58,-3.574 -4.05,-8.758 -4.46,-15.535 h 26.04 c 0.1,0.508 0.17,1.211 0.21,2.168 0.06,0.945 0.08,1.973 0.08,3.055 0,4.992 -0.97,8.847 -2.97,11.582 -1.99,2.734 -4.84,4.101 -8.63,4.101 z m 22.62,-16.125 c 0,-3.093 -0.1,-5.75 -0.3,-7.996 -0.21,-2.226 -0.39,-4.211 -0.58,-5.906 h -36.47 c 0.41,-8.469 2.21,-14.699 5.41,-18.664 3.25,-3.992 7.89,-5.985 13.93,-5.985 2.07,0 3.96,0.235 5.66,0.75 1.68,0.489 3.15,1.086 4.4,1.79 1.23,0.703 2.26,1.382 3.12,2.089 0.84,0.704 1.45,1.258 1.84,1.649 l 4.49,-8.524 c -0.51,-0.492 -1.27,-1.211 -2.24,-2.16 -0.98,-0.945 -2.35,-1.894 -4.01,-2.851 -1.7,-0.946 -3.79,-1.746 -6.27,-2.461 -2.48,-0.692 -5.41,-1.035 -8.77,-1.035 -4.47,0 -8.49,0.742 -12.15,2.238 -3.59,1.473 -6.68,3.808 -9.2,6.941 -2.53,3.137 -4.51,7.129 -5.89,11.953 -1.37,4.825 -2.07,10.633 -2.07,17.403 0,6.394 0.74,11.894 2.16,16.523 1.41,4.629 3.38,8.438 5.86,11.426 2.48,2.98 5.35,5.207 8.64,6.652 3.26,1.446 6.79,2.164 10.56,2.164 6.86,0 12.21,-2.164 16.08,-6.492 3.86,-4.355 5.8,-10.84 5.8,-19.504 z m -76.935,25.996 c 0,6.567 -1.813,11.418 -5.43,14.563 -3.625,3.137 -9.297,4.707 -17.043,4.707 h -6.254 v -40.477 h 5.652 c 7.844,0 13.657,1.844 17.418,5.516 3.782,3.684 5.657,8.926 5.657,15.691 z m 5.218,-73.511 -21.293,42.285 c -1.082,-0.102 -2.234,-0.176 -3.414,-0.215 -1.203,-0.059 -2.382,-0.078 -3.586,-0.078 h -5.652 v -41.992 h -12.933 v 103.093 h 19.187 c 12.406,0 21.555,-2.414 27.457,-7.254 5.911,-4.828 8.861,-12.035 8.861,-21.582 0,-6.886 -1.42,-12.753 -4.32,-17.628 -2.88,-4.872 -7.295,-8.614 -13.252,-11.211 l 24.112,-45.418 z m -124.843,8.964 c 1.879,0 3.562,0.235 5.05,0.75 1.489,0.489 2.778,1.125 3.872,1.856 1.097,0.754 2.003,1.516 2.75,2.324 0.75,0.813 1.316,1.485 1.711,2.09 v 44.23 c -1.094,0.704 -2.36,1.29 -3.79,1.786 -1.437,0.488 -3.253,0.742 -5.437,0.742 -2.773,0 -5.371,-0.469 -7.805,-1.414 -2.429,-0.942 -4.547,-2.512 -6.328,-4.699 -1.781,-2.188 -3.195,-5.04 -4.238,-8.516 -1.039,-3.484 -1.567,-7.774 -1.567,-12.859 0,-4.985 0.426,-9.133 1.27,-12.461 0.84,-3.352 2.012,-6.036 3.496,-8.059 1.484,-2.059 3.176,-3.523 5.059,-4.434 1.89,-0.886 3.867,-1.336 5.957,-1.336 z m -28.278,25.84 c 0,7.285 0.946,13.36 2.828,18.243 1.883,4.882 4.313,8.816 7.29,11.796 2.98,2.989 6.351,5.106 10.125,6.344 3.765,1.25 7.531,1.875 11.304,1.875 2.278,0 4.262,-0.176 5.949,-0.535 1.684,-0.332 3.071,-0.762 4.165,-1.27 v 34.368 l 12.05,1.355 v -106.98 h -11.004 v 7.617 h -0.304 c -0.297,-0.598 -0.84,-1.418 -1.629,-2.473 -0.801,-1.047 -1.891,-2.082 -3.278,-3.125 -1.39,-1.055 -3.125,-1.941 -5.21,-2.707 -2.075,-0.738 -4.512,-1.101 -7.29,-1.101 -3.371,0 -6.574,0.675 -9.589,2.011 -3.032,1.348 -5.672,3.489 -7.965,6.426 -2.285,2.949 -4.086,6.731 -5.434,11.359 -1.332,4.629 -2.008,10.235 -2.008,16.797 z m -26.781,-34.804 v 46.179 c 0,6.067 -1.016,10.43 -3.047,13.059 -2.035,2.644 -5.136,3.973 -9.297,3.973 -3.574,0 -6.55,-0.907 -8.929,-2.696 -2.395,-1.797 -4.274,-3.535 -5.66,-5.234 v -55.281 h -12.051 v 71.726 h 11.015 v -8.086 h 0.289 c 0.297,0.617 0.942,1.477 1.934,2.625 0.996,1.145 2.285,2.231 3.871,3.285 1.594,1.043 3.477,1.981 5.664,2.762 2.18,0.801 4.656,1.199 7.434,1.199 3.176,0 6.051,-0.476 8.633,-1.414 2.578,-0.957 4.757,-2.468 6.543,-4.57 1.789,-2.09 3.171,-4.805 4.168,-8.137 0.988,-3.336 1.484,-7.437 1.484,-12.32 v -47.07 z m -80.945,8.535 c 1.691,0 3.176,0.23 4.465,0.73 1.289,0.489 2.41,1.094 3.351,1.789 0.938,0.703 1.735,1.473 2.375,2.325 0.641,0.839 1.219,1.57 1.711,2.156 v 15.84 l -3.867,-0.149 c -5.75,-0.203 -10.117,-1.199 -13.09,-2.984 -2.98,-1.797 -4.465,-4.688 -4.465,-8.672 0,-3.676 0.84,-6.445 2.532,-8.293 1.679,-1.848 4.015,-2.742 6.988,-2.742 z m -21.571,9.695 c 0,4.18 0.793,7.664 2.383,10.449 1.582,2.793 3.715,5.047 6.399,6.797 2.676,1.758 5.824,2.996 9.449,3.742 3.609,0.75 7.461,1.121 11.527,1.121 h 3.715 v 6.875 c 0,6.075 -1.07,10.262 -3.199,12.547 -2.129,2.297 -5.133,3.45 -8.996,3.45 -3.57,0 -6.551,-0.782 -8.938,-2.325 -2.379,-1.55 -4.257,-2.91 -5.648,-4.109 l -5.055,8.066 c 0.797,0.797 1.813,1.7 3.047,2.684 1.238,1.008 2.75,1.953 4.539,2.852 1.789,0.878 3.817,1.64 6.102,2.226 2.285,0.606 4.855,0.906 7.734,0.906 7.344,0 12.895,-2.039 16.668,-6.14 3.766,-4.063 5.648,-10.645 5.648,-19.715 V 703.84 c 0,-3.098 0.106,-6.102 0.305,-9.043 0.195,-2.938 0.403,-4.91 0.59,-5.906 H 751.41 l -0.437,7.91 h -0.297 c -0.395,-0.891 -0.988,-1.906 -1.785,-3.059 -0.793,-1.14 -1.786,-2.187 -2.977,-3.144 -1.187,-0.946 -2.633,-1.746 -4.312,-2.461 -1.684,-0.692 -3.672,-1.035 -5.957,-1.035 -2.676,0 -5.184,0.488 -7.516,1.496 -2.324,0.996 -4.356,2.39 -6.098,4.179 -1.726,1.793 -3.078,3.907 -4.019,6.348 -0.938,2.441 -1.407,5.105 -1.407,7.996 z m 648.015,132.434 v 46.164 c 0,6.074 -1.03,10.433 -3.04,13.078 -2.03,2.633 -5.14,3.949 -9.32,3.949 -3.57,0 -6.56,-0.894 -8.93,-2.683 -2.4,-1.793 -4.27,-3.532 -5.68,-5.231 v -55.277 h -12.03 v 71.711 h 11.04 v -8.067 h 0.29 c 0.29,0.602 0.92,1.473 1.91,2.617 1,1.145 2.27,2.239 3.87,3.282 1.58,1.047 3.48,1.968 5.68,2.769 2.17,0.797 4.65,1.196 7.42,1.196 3.19,0 6.06,-0.485 8.64,-1.426 2.58,-0.942 4.74,-2.465 6.54,-4.555 1.8,-2.086 3.16,-4.805 4.18,-8.141 0.98,-3.343 1.48,-7.445 1.48,-12.328 v -47.058 z m -66.7,35.851 c 0,9.567 -1.36,16.512 -4.14,20.848 -2.77,4.328 -6.64,6.492 -11.6,6.492 -4.94,0 -8.81,-2.164 -11.54,-6.492 -2.72,-4.336 -4.1,-11.281 -4.1,-20.848 0,-9.558 1.4,-16.433 4.16,-20.613 2.79,-4.184 6.68,-6.273 11.62,-6.273 4.96,0 8.81,2.089 11.54,6.273 2.72,4.18 4.06,11.055 4.06,20.613 z m -43.86,0 c 0,6.574 0.76,12.258 2.32,17.032 1.51,4.785 3.6,8.691 6.21,11.722 2.64,3.051 5.67,5.289 9.08,6.731 3.44,1.445 7.09,2.172 10.94,2.172 3.97,0 7.66,-0.727 11.04,-2.172 3.36,-1.442 6.29,-3.68 8.77,-6.731 2.48,-3.031 4.43,-6.937 5.88,-11.722 1.42,-4.774 2.12,-10.458 2.12,-17.032 0,-6.664 -0.72,-12.394 -2.2,-17.179 -1.51,-4.778 -3.54,-8.688 -6.17,-11.731 -2.64,-3.031 -5.69,-5.25 -9.18,-6.641 -3.46,-1.394 -7.11,-2.097 -11,-2.097 -3.95,0 -7.64,0.703 -11,2.097 -3.39,1.391 -6.29,3.61 -8.79,6.641 -2.46,3.043 -4.45,6.926 -5.87,11.656 -1.43,4.735 -2.15,10.489 -2.15,17.254 z m -21.14,53.196 c -2.5,0 -4.47,0.796 -5.95,2.39 -1.51,1.594 -2.23,3.684 -2.23,6.278 0,2.488 0.72,4.531 2.23,6.125 1.48,1.593 3.45,2.382 5.95,2.382 2.37,0 4.34,-0.789 5.81,-2.382 1.48,-1.594 2.22,-3.637 2.22,-6.125 0,-2.594 -0.74,-4.684 -2.22,-6.278 -1.47,-1.594 -3.44,-2.39 -5.81,-2.39 z m 5.96,-89.047 h -12.05 v 71.711 h 12.05 z m -25.72,61.851 h -15.65 v -39.738 c 0,-5.09 0.63,-8.539 1.94,-10.391 1.29,-1.836 3.46,-2.757 6.54,-2.757 1.78,0 3.32,0.246 4.61,0.746 1.29,0.492 2.23,0.953 2.83,1.343 l 1.64,-9.714 c -0.5,-0.399 -1.68,-1.016 -3.57,-1.864 -1.9,-0.851 -4.4,-1.273 -7.6,-1.273 -6.13,0 -10.74,1.722 -13.83,5.152 -3.08,3.442 -4.61,9.145 -4.61,17.117 v 41.379 h -8.61 v 8.071 l 8.61,1.789 1.33,20.027 h 10.72 v -20.027 h 17.11 z m -72.5,-53.336 c 1.68,0 3.16,0.246 4.47,0.746 1.29,0.497 2.42,1.102 3.34,1.793 0.94,0.696 1.74,1.469 2.4,2.317 0.63,0.84 1.18,1.566 1.7,2.168 v 15.836 l -3.88,-0.153 c -5.75,-0.199 -10.12,-1.195 -13.09,-2.988 -2.99,-1.785 -4.45,-4.68 -4.45,-8.66 0,-3.688 0.84,-6.457 2.54,-8.297 1.66,-1.844 4.02,-2.762 6.97,-2.762 z m -21.56,9.707 c 0,4.188 0.78,7.668 2.36,10.457 1.6,2.793 3.73,5.059 6.39,6.801 2.69,1.742 5.86,2.988 9.47,3.742 3.63,0.739 7.48,1.114 11.52,1.114 h 3.73 v 6.871 c 0,6.074 -1.07,10.261 -3.2,12.547 -2.13,2.296 -5.14,3.437 -9,3.437 -3.56,0 -6.55,-0.766 -8.91,-2.312 -2.4,-1.543 -4.28,-2.907 -5.68,-4.11 l -5.04,8.074 c 0.78,0.79 1.81,1.688 3.04,2.684 1.23,0.992 2.76,1.945 4.54,2.836 1.79,0.898 3.82,1.648 6.09,2.242 2.3,0.598 4.86,0.903 7.73,0.903 7.37,0 12.91,-2.043 16.7,-6.133 3.75,-4.086 5.65,-10.653 5.65,-19.715 v -32.723 c 0,-3.078 0.09,-6.101 0.29,-9.043 0.22,-2.937 0.41,-4.906 0.61,-5.894 h -11.47 l -0.45,7.922 h -0.31 c -0.39,-0.907 -0.98,-1.918 -1.78,-3.067 -0.78,-1.144 -1.78,-2.191 -2.99,-3.137 -1.19,-0.949 -2.61,-1.769 -4.29,-2.468 -1.7,-0.703 -3.69,-1.047 -5.96,-1.047 -2.7,0 -5.18,0.5 -7.52,1.492 -2.32,1 -4.37,2.395 -6.11,4.191 -1.72,1.786 -3.07,3.899 -3.99,6.344 -0.97,2.438 -1.42,5.106 -1.42,7.992 z m -13.56,39.598 c -0.29,0.293 -0.76,0.742 -1.38,1.344 -0.67,0.59 -1.47,1.191 -2.47,1.785 -1.01,0.601 -2.18,1.125 -3.59,1.574 -1.37,0.453 -2.97,0.668 -4.75,0.668 -2.57,0 -4.98,-0.469 -7.22,-1.41 -2.23,-0.953 -4.16,-2.473 -5.78,-4.566 -1.64,-2.086 -2.93,-4.801 -3.89,-8.133 -0.94,-3.34 -1.43,-7.399 -1.43,-12.176 0,-5.285 0.45,-9.715 1.27,-13.301 0.86,-3.59 2.03,-6.449 3.5,-8.594 1.48,-2.136 3.3,-3.683 5.45,-4.621 2.11,-0.957 4.49,-1.425 7.05,-1.425 3.65,0 6.48,0.64 8.4,1.937 1.95,1.297 3.34,2.344 4.12,3.145 l 4.88,-8.375 c -0.47,-0.59 -1.21,-1.321 -2.13,-2.157 -0.95,-0.851 -2.18,-1.672 -3.65,-2.468 -1.48,-0.793 -3.32,-1.473 -5.45,-2.028 -2.11,-0.547 -4.57,-0.816 -7.36,-0.816 -3.97,0 -7.68,0.652 -11.13,1.941 -3.48,1.301 -6.53,3.442 -9.11,6.43 -2.57,2.984 -4.61,6.871 -6.09,11.648 -1.46,4.778 -2.23,10.715 -2.23,17.778 0,6.879 0.9,12.703 2.68,17.484 1.78,4.781 4.12,8.637 7.01,11.582 2.87,2.942 6.04,5.074 9.57,6.422 3.54,1.348 7.07,2.02 10.63,2.02 2.69,0 5.04,-0.258 7.09,-0.75 2.03,-0.5 3.77,-1.118 5.21,-1.872 1.45,-0.746 2.64,-1.543 3.56,-2.386 0.95,-0.844 1.71,-1.575 2.32,-2.164 z m -58.16,-57.82 h -11.02 v 8.062 h -0.27 c -0.31,-0.59 -0.96,-1.469 -1.95,-2.605 -0.98,-1.149 -2.25,-2.246 -3.79,-3.297 -1.55,-1.039 -3.42,-1.957 -5.59,-2.762 -2.17,-0.801 -4.61,-1.195 -7.28,-1.195 -3.19,0 -6.04,0.472 -8.56,1.418 -2.52,0.949 -4.69,2.469 -6.47,4.558 -1.79,2.098 -3.165,4.809 -4.091,8.149 -0.957,3.328 -1.425,7.441 -1.425,12.324 v 47.059 H 1009 v -46.172 c 0,-5.965 0.96,-10.223 2.89,-12.762 1.93,-2.547 4.92,-3.812 9,-3.812 3.46,0 6.39,0.867 8.77,2.617 2.39,1.738 4.28,3.457 5.67,5.156 v 54.973 h 12.05 z m -93.896,8.965 c 1.883,0 3.567,0.246 5.055,0.746 1.484,0.492 2.785,1.117 3.879,1.871 1.078,0.746 1.992,1.508 2.738,2.312 0.75,0.801 1.324,1.489 1.715,2.09 v 44.223 c -1.094,0.695 -2.355,1.297 -3.785,1.793 -1.445,0.5 -3.246,0.746 -5.445,0.746 -2.758,0 -5.375,-0.473 -7.805,-1.418 -2.43,-0.949 -4.539,-2.516 -6.328,-4.703 -1.778,-2.2 -3.195,-5.035 -4.235,-8.516 -1.035,-3.492 -1.57,-7.773 -1.57,-12.848 0,-4.984 0.438,-9.14 1.274,-12.476 0.847,-3.344 2.003,-6.027 3.5,-8.067 1.484,-2.05 3.168,-3.515 5.046,-4.402 1.895,-0.91 3.872,-1.351 5.961,-1.351 z m -28.257,25.843 c 0,7.27 0.933,13.348 2.808,18.223 1.883,4.887 4.309,8.82 7.285,11.812 2.985,2.989 6.36,5.102 10.129,6.344 3.77,1.246 7.535,1.871 11.309,1.871 2.285,0 4.262,-0.175 5.945,-0.527 1.688,-0.352 3.074,-0.77 4.168,-1.27 v 34.368 l 12.059,1.351 v -106.98 h -11.016 v 7.621 h -0.309 c -0.281,-0.606 -0.832,-1.418 -1.628,-2.465 -0.801,-1.051 -1.879,-2.086 -3.274,-3.141 -1.379,-1.047 -3.125,-1.945 -5.199,-2.695 -2.09,-0.742 -4.52,-1.117 -7.301,-1.117 -3.355,0 -6.574,0.672 -9.582,2.019 -3.031,1.344 -5.676,3.489 -7.961,6.43 -2.293,2.93 -4.097,6.719 -5.437,11.348 -1.34,4.629 -1.996,10.234 -1.996,16.808 z m -14.149,57.977 h -36.609 v -35.57 h 33.629 v -10.301 h -33.629 v -36.16 h 40.336 l -0.746,-10.754 h -52.532 v 103.09 h 50.45 z m -92.851,-30.934 h -14.575 v -61.851 h -12.054 v 61.851 h -8.637 v 8.071 l 8.637,1.636 v 14.348 c 0,3.887 0.543,7.223 1.629,10.016 1.093,2.781 2.531,5.078 4.328,6.871 1.781,1.797 3.855,3.09 6.246,3.886 2.383,0.789 4.906,1.196 7.586,1.196 2.578,0 4.761,-0.352 6.543,-1.051 1.793,-0.691 2.984,-1.246 3.574,-1.641 l -2.527,-10.008 c -0.598,0.395 -1.442,0.825 -2.532,1.274 -1.09,0.441 -2.429,0.668 -4.011,0.668 -2.887,0 -5.067,-0.902 -6.555,-2.692 -1.484,-1.796 -2.227,-5.082 -2.227,-9.871 v -12.843 h 16.071 z m -56.84,-26 c 0,9.567 -1.387,16.512 -4.164,20.848 -2.782,4.328 -6.653,6.492 -11.61,6.492 -4.953,0 -8.8,-2.164 -11.531,-6.492 -2.727,-4.336 -4.086,-11.281 -4.086,-20.848 0,-9.558 1.391,-16.433 4.164,-20.613 2.774,-4.184 6.645,-6.273 11.602,-6.273 4.961,0 8.804,2.089 11.535,6.273 2.726,4.18 4.09,11.055 4.09,20.613 z m -43.887,0 c 0,6.574 0.766,12.258 2.305,17.032 1.535,4.785 3.617,8.691 6.246,11.722 2.633,3.051 5.648,5.289 9.078,6.731 3.422,1.445 7.062,2.172 10.934,2.172 3.964,0 7.636,-0.727 11.007,-2.172 3.375,-1.442 6.305,-3.68 8.782,-6.731 2.484,-3.031 4.445,-6.937 5.871,-11.722 1.441,-4.774 2.168,-10.458 2.168,-17.032 0,-6.664 -0.75,-12.394 -2.243,-17.179 -1.48,-4.778 -3.543,-8.688 -6.168,-11.731 -2.628,-3.031 -5.679,-5.25 -9.148,-6.641 -3.477,-1.394 -7.144,-2.097 -11.019,-2.097 -3.961,0 -7.633,0.703 -11,2.097 -3.379,1.391 -6.301,3.61 -8.782,6.641 -2.48,3.043 -4.441,6.926 -5.879,11.656 -1.433,4.735 -2.152,10.489 -2.152,17.254 z m 854.98,186.524 -22.33,-75.895 c -2.58,-8.765 -5.74,-15.387 -9.45,-19.875 -3.71,-4.476 -9.1,-6.719 -16.15,-6.719 -1.47,0 -2.72,0.176 -3.73,0.516 -0.96,0.359 -1.66,0.625 -2.06,0.832 v 10.449 c 0.51,-0.195 1.14,-0.418 1.92,-0.668 0.82,-0.246 1.85,-0.379 3.12,-0.379 4.28,0 7.52,1.348 9.75,4.036 2.25,2.695 4.14,6.82 5.74,12.402 l 1.04,3.734 -23.07,71.567 h 12.95 l 11.15,-39.74 c 1.1,-4.09 2.11,-7.9 2.99,-11.43 0.9,-3.54 1.43,-6.7 1.64,-9.49 h 0.29 c 0.22,2.79 0.69,5.93 1.41,9.42 0.76,3.48 1.66,7.27 2.75,11.35 l 10.14,39.89 z m -59.52,-10.6 c -0.31,0.19 -0.95,0.44 -1.97,0.75 -0.96,0.29 -2.32,0.45 -3.98,0.45 -3.79,0 -6.72,-1.03 -8.87,-3.07 -2.13,-2.04 -3.65,-4.25 -4.51,-6.64 v -52.609 h -12.07 v 71.719 h 11.01 v -9.71 h 0.3 c 0.48,1.4 1.13,2.77 1.91,4.12 0.82,1.34 1.8,2.54 3.01,3.58 1.17,1.04 2.6,1.87 4.24,2.47 1.64,0.59 3.59,0.89 5.86,0.89 1.68,0 3.04,-0.15 4.1,-0.45 1.03,-0.29 1.85,-0.55 2.44,-0.74 z m -45.09,0.75 h -15.61 v -39.75 c 0,-5.08 0.63,-8.54 1.91,-10.38 1.31,-1.85 3.48,-2.766 6.57,-2.766 1.77,0 3.3,0.246 4.61,0.742 1.29,0.504 2.2,0.954 2.83,1.344 l 1.62,-9.715 c -0.51,-0.391 -1.66,-1.012 -3.57,-1.86 -1.88,-0.84 -4.4,-1.269 -7.58,-1.269 -6.15,0 -10.76,1.715 -13.85,5.148 -3.07,3.442 -4.61,9.136 -4.61,17.116 v 41.39 h -8.63 v 8.06 l 8.63,1.79 1.35,20.02 h 10.72 v -20.02 h 17.09 z m -51.78,-4.63 c -0.78,0.89 -2.23,2.11 -4.32,3.65 -2.09,1.55 -4.82,2.31 -8.18,2.31 -3.18,0 -5.59,-0.74 -7.29,-2.23 -1.7,-1.5 -2.52,-3.29 -2.52,-5.38 0,-2.69 0.79,-4.91 2.31,-6.64 1.54,-1.76 3.89,-3.62 7.07,-5.61 l 4.47,-2.69 c 4.85,-2.88 8.65,-6 11.45,-9.34 2.77,-3.34 4.16,-7.65 4.16,-12.92 0,-5.68 -1.96,-10.463 -5.88,-14.35 -3.91,-3.887 -9.53,-5.824 -16.9,-5.824 -2.85,0 -5.39,0.293 -7.57,0.898 -2.21,0.594 -4.09,1.293 -5.75,2.082 -1.64,0.805 -2.98,1.672 -4.08,2.614 -1.09,0.957 -2.01,1.824 -2.67,2.617 l 5.82,9.573 c 0.58,-0.61 1.29,-1.3 2.12,-2.1 0.84,-0.8 1.88,-1.57 3.07,-2.31 1.17,-0.75 2.52,-1.37 4.01,-1.874 1.48,-0.496 3.22,-0.742 5.23,-0.742 3.55,0 6.27,0.789 8.16,2.386 1.88,1.6 2.82,3.54 2.82,5.83 0,1.69 -0.22,3.16 -0.65,4.41 -0.47,1.24 -1.13,2.36 -2.01,3.35 -0.9,1 -2.01,1.95 -3.26,2.84 -1.31,0.89 -2.79,1.9 -4.49,2.99 l -4.48,2.85 c -4.45,2.88 -7.93,5.92 -10.45,9.11 -2.53,3.19 -3.82,7.27 -3.82,12.26 0,2.68 0.52,5.15 1.58,7.39 1.03,2.23 2.5,4.18 4.37,5.83 1.9,1.64 4.09,2.93 6.62,3.88 2.54,0.94 5.24,1.42 8.13,1.42 2.77,0 5.14,-0.28 7.13,-0.82 1.99,-0.55 3.71,-1.24 5.13,-2.1 1.45,-0.84 2.62,-1.7 3.58,-2.54 0.96,-0.84 1.7,-1.56 2.3,-2.16 z m -55.2,31.82 c -2.5,0 -4.45,0.79 -5.95,2.39 -1.51,1.58 -2.23,3.68 -2.23,6.28 0,2.48 0.72,4.52 2.23,6.12 1.5,1.59 3.45,2.39 5.95,2.39 2.37,0 4.32,-0.8 5.78,-2.39 1.51,-1.6 2.25,-3.64 2.25,-6.12 0,-2.6 -0.74,-4.7 -2.25,-6.28 -1.46,-1.6 -3.41,-2.39 -5.78,-2.39 z m 5.94,-89.059 h -12.03 v 71.719 h 12.03 z m -42.11,0 v 46.179 c 0,6.08 -1.01,10.43 -3.05,13.07 -2.03,2.64 -5.13,3.95 -9.31,3.95 -3.56,0 -6.54,-0.88 -8.91,-2.68 -2.4,-1.79 -4.28,-3.53 -5.66,-5.23 v -55.289 h -12.03 v 71.719 h 10.99 v -8.06 h 0.32 c 0.29,0.59 0.93,1.47 1.91,2.62 1.02,1.14 2.28,2.23 3.89,3.28 1.6,1.04 3.45,1.96 5.64,2.77 2.17,0.79 4.67,1.19 7.44,1.19 3.19,0 6.04,-0.48 8.63,-1.42 2.58,-0.95 4.77,-2.46 6.53,-4.55 1.8,-2.1 3.2,-4.82 4.2,-8.15 0.95,-3.33 1.48,-7.45 1.48,-12.33 v -47.069 z m -63.36,89.059 c -2.5,0 -4.47,0.79 -5.97,2.39 -1.49,1.58 -2.23,3.68 -2.23,6.28 0,2.48 0.74,4.52 2.23,6.12 1.5,1.59 3.47,2.39 5.97,2.39 2.37,0 4.28,-0.8 5.76,-2.39 1.51,-1.6 2.25,-3.64 2.25,-6.12 0,-2.6 -0.74,-4.7 -2.25,-6.28 -1.48,-1.6 -3.39,-2.39 -5.76,-2.39 z m 5.94,-89.059 h -12.05 v 71.719 h 12.05 z m -33.03,103.099 V 990.211 h -12.5 v 49.019 c 0,3.08 0,6.12 0,9.11 0,2.99 0.02,5.78 0.06,8.37 0.06,2.59 0.14,4.88 0.24,6.87 0.09,1.99 0.19,3.53 0.29,4.63 h -0.45 c -0.49,-2.3 -1.5,-6 -3.05,-11.13 -1.54,-5.13 -3.3,-10.63 -5.27,-16.51 l -16.97,-50.359 h -10.26 l -16.97,50.359 c -1.97,5.88 -3.73,11.38 -5.27,16.51 -1.55,5.13 -2.56,8.83 -3.05,11.13 h -0.43 c 0.08,-1.19 0.18,-2.78 0.27,-4.78 0.1,-1.99 0.18,-4.26 0.24,-6.8 0.04,-2.54 0.06,-5.3 0.06,-8.29 0,-2.99 0,-6.03 0,-9.11 v -49.019 h -12.52 v 103.099 h 14.45 l 24.26,-71.12 c 1.09,-3.3 2.07,-6.5 2.89,-9.64 0.86,-3.13 1.37,-5.85 1.56,-8.14 h 0.29 c 0.12,2.29 0.59,4.98 1.43,8.07 0.84,3.08 1.8,6.27 2.89,9.56 l 24.26,71.27 z m -141.66,-86.36 c 0,-2.99 0.43,-5.08 1.25,-6.27 0.86,-1.2 2.31,-1.797 4.4,-1.797 1.11,0 2.01,0.097 2.75,0.301 0.74,0.199 1.31,0.394 1.72,0.597 l 1.03,-8.968 c -0.6,-0.293 -1.68,-0.7 -3.28,-1.192 -1.58,-0.504 -3.71,-0.746 -6.38,-0.746 -4.05,0 -7.35,1.238 -9.83,3.73 -2.48,2.489 -3.71,6.922 -3.71,13.305 v 89.94 l 12.05,1.35 z m -53.86,-8.223 c 1.67,0 3.18,0.253 4.47,0.753 1.29,0.493 2.4,1.1 3.34,1.79 0.95,0.7 1.74,1.47 2.38,2.32 0.66,0.84 1.21,1.56 1.72,2.16 v 15.84 l -3.87,-0.14 c -5.76,-0.21 -10.12,-1.2 -13.08,-3 -2.99,-1.79 -4.5,-4.68 -4.5,-8.66 0,-3.68 0.84,-6.45 2.54,-8.3 1.7,-1.838 4.03,-2.763 7,-2.763 z m -21.57,9.723 c 0,4.18 0.78,7.66 2.39,10.44 1.58,2.8 3.71,5.08 6.38,6.81 2.7,1.75 5.82,3 9.44,3.74 3.61,0.75 7.48,1.12 11.54,1.12 h 3.73 v 6.87 c 0,6.08 -1.06,10.27 -3.2,12.55 -2.15,2.29 -5.14,3.43 -9.01,3.43 -3.57,0 -6.54,-0.76 -8.92,-2.31 -2.39,-1.54 -4.28,-2.91 -5.65,-4.11 l -5.08,8.08 c 0.8,0.79 1.82,1.68 3.05,2.69 1.25,0.99 2.75,1.94 4.55,2.83 1.8,0.9 3.81,1.64 6.1,2.24 2.28,0.6 4.86,0.9 7.73,0.9 7.34,0 12.91,-2.04 16.66,-6.13 3.79,-4.08 5.66,-10.65 5.66,-19.72 v -32.73 c 0,-3.08 0.1,-6.095 0.32,-9.025 0.19,-2.949 0.39,-4.918 0.58,-5.914 h -11.44 l -0.47,7.926 h -0.29 c -0.4,-0.903 -0.98,-1.914 -1.78,-3.067 -0.82,-1.148 -1.8,-2.191 -2.99,-3.132 -1.19,-0.95 -2.62,-1.774 -4.32,-2.469 -1.68,-0.703 -3.67,-1.043 -5.93,-1.043 -2.68,0 -5.18,0.496 -7.52,1.492 -2.33,0.996 -4.38,2.395 -6.1,4.18 -1.74,1.793 -3.06,3.914 -4.02,6.362 -0.94,2.43 -1.41,5.09 -1.41,7.99 z m -7.01,42.88 c -0.29,0.19 -0.94,0.44 -1.93,0.75 -0.98,0.29 -2.31,0.45 -4.01,0.45 -3.78,0 -6.726,-1.03 -8.863,-3.07 -2.137,-2.04 -3.648,-4.25 -4.543,-6.64 V 990.211 H 978.77 v 71.719 h 11.019 v -9.71 h 0.289 c 0.496,1.4 1.152,2.77 1.942,4.12 0.789,1.34 1.785,2.54 2.984,3.58 1.184,1.04 2.598,1.87 4.234,2.47 1.642,0.59 3.612,0.89 5.872,0.89 1.7,0 3.05,-0.15 4.1,-0.45 1.06,-0.29 1.86,-0.55 2.45,-0.74 z m -70.08,2.54 c -4.266,0 -7.672,-1.79 -10.266,-5.38 -2.574,-3.59 -4.066,-8.77 -4.465,-15.54 h 26.036 c 0.097,0.5 0.168,1.22 0.23,2.18 0.051,0.93 0.078,1.95 0.078,3.05 0,4.98 -1.004,8.84 -2.976,11.58 -1.989,2.74 -4.864,4.11 -8.637,4.11 z m 22.613,-16.13 c 0,-3.1 -0.101,-5.76 -0.285,-8 -0.195,-2.25 -0.406,-4.21 -0.602,-5.9 h -36.457 c 0.399,-8.47 2.204,-14.7 5.442,-18.69 3.219,-3.98 7.851,-5.966 13.906,-5.966 2.078,0 3.969,0.246 5.648,0.742 1.692,0.504 3.161,1.104 4.391,1.794 1.246,0.69 2.274,1.39 3.125,2.1 0.836,0.68 1.465,1.24 1.871,1.64 l 4.453,-8.519 c -0.504,-0.503 -1.234,-1.222 -2.23,-2.168 -0.992,-0.949 -2.336,-1.894 -4.027,-2.835 -1.684,-0.95 -3.754,-1.774 -6.235,-2.469 -2.484,-0.703 -5.41,-1.043 -8.781,-1.043 -4.469,0 -8.508,0.742 -12.121,2.242 -3.629,1.492 -6.707,3.809 -9.238,6.941 -2.524,3.141 -4.485,7.131 -5.872,11.951 -1.39,4.83 -2.086,10.63 -2.086,17.41 0,6.38 0.715,11.89 2.165,16.51 1.437,4.64 3.394,8.44 5.871,11.44 2.48,2.98 5.367,5.2 8.629,6.63 3.277,1.46 6.796,2.18 10.566,2.18 6.855,0 12.195,-2.18 16.066,-6.5 3.868,-4.33 5.801,-10.83 5.801,-19.49 z m -89.719,-38.556 c 1.883,0 3.575,0.246 5.051,0.742 1.492,0.504 2.781,1.124 3.875,1.874 1.098,0.74 2.012,1.51 2.758,2.31 0.742,0.8 1.309,1.49 1.703,2.1 v 44.22 c -1.098,0.7 -2.351,1.3 -3.789,1.79 -1.437,0.5 -3.25,0.76 -5.434,0.76 -2.777,0 -5.375,-0.48 -7.808,-1.43 -2.43,-0.94 -4.543,-2.51 -6.32,-4.7 -1.79,-2.2 -3.207,-5.04 -4.247,-8.52 -1.039,-3.48 -1.566,-7.77 -1.566,-12.85 0,-4.98 0.426,-9.14 1.27,-12.48 0.843,-3.34 2.011,-6.02 3.496,-8.06 1.488,-2.05 3.172,-3.52 5.058,-4.41 1.891,-0.905 3.867,-1.346 5.953,-1.346 z m -28.273,25.846 c 0,7.27 0.941,13.35 2.832,18.23 1.887,4.88 4.312,8.82 7.285,11.81 2.981,2.98 6.356,5.1 10.121,6.34 3.774,1.25 7.535,1.87 11.313,1.87 2.277,0 4.258,-0.18 5.945,-0.52 1.688,-0.35 3.066,-0.78 4.164,-1.27 v 34.36 l 12.063,1.35 V 990.211 h -11.016 v 7.625 h -0.305 c -0.297,-0.602 -0.84,-1.418 -1.633,-2.469 -0.792,-1.043 -1.882,-2.086 -3.273,-3.133 -1.391,-1.039 -3.125,-1.945 -5.203,-2.691 -2.082,-0.75 -4.52,-1.117 -7.293,-1.117 -3.371,0 -6.57,0.668 -9.594,2.019 -3.031,1.344 -5.679,3.477 -7.965,6.422 -2.285,2.942 -4.086,6.723 -5.433,11.353 -1.332,4.63 -2.008,10.23 -2.008,16.81 z m -35.41,28.84 c -4.262,0 -7.684,-1.79 -10.274,-5.38 -2.574,-3.59 -4.062,-8.77 -4.461,-15.54 h 26.039 c 0.098,0.5 0.176,1.22 0.223,2.18 0.051,0.93 0.086,1.95 0.086,3.05 0,4.98 -0.996,8.84 -2.984,11.58 -1.985,2.74 -4.86,4.11 -8.629,4.11 z m 22.613,-16.13 c 0,-3.1 -0.098,-5.76 -0.289,-8 -0.199,-2.25 -0.398,-4.21 -0.602,-5.9 h -36.457 c 0.399,-8.47 2.219,-14.7 5.438,-18.69 3.223,-3.98 7.855,-5.966 13.906,-5.966 2.09,0 3.973,0.246 5.656,0.742 1.688,0.504 3.149,1.104 4.399,1.794 1.238,0.69 2.273,1.39 3.113,2.1 0.844,0.68 1.469,1.24 1.867,1.64 l 4.461,-8.519 c -0.492,-0.503 -1.238,-1.222 -2.234,-2.168 -0.984,-0.949 -2.328,-1.894 -4.016,-2.835 -1.687,-0.95 -3.765,-1.774 -6.242,-2.469 -2.48,-0.703 -5.418,-1.043 -8.785,-1.043 -4.461,0 -8.5,0.742 -12.125,2.242 -3.621,1.492 -6.703,3.809 -9.227,6.941 -2.535,3.141 -4.488,7.131 -5.882,11.951 -1.387,4.83 -2.082,10.63 -2.082,17.41 0,6.38 0.722,11.89 2.16,16.51 1.437,4.64 3.394,8.44 5.879,11.44 2.472,2.98 5.359,5.2 8.628,6.63 3.278,1.46 6.793,2.18 10.571,2.18 6.84,0 12.195,-2.18 16.066,-6.5 3.863,-4.33 5.797,-10.83 5.797,-19.49 z M 723.297,990.211 v 103.099 h 50.437 l -0.89,-10.31 h -36.598 v -38.1 h 33.774 v -10.31 h -33.774 v -44.379 h -12.949" /><path
       inkscape:connector-curvature="0"
       id="path18"
       style="fill:#231f20;fill-opacity:1;fill-rule:nonzero;stroke:none"
       d="m 394.855,998.52 c 0.34,2.8 0.54,5.71 0.54,8.68 0,1.61 0.011,3.49 -0.192,5.62 24.926,0.36 46.785,18.39 46.785,39.12 0,10.55 -6.851,18.52 -10.726,23.27 0.879,0.18 1.746,0.39 2.629,0.6 3.648,-3.18 14.007,-14.51 14.007,-28.82 0,-24.87 -24.761,-47.959 -53.043,-48.47 z m -25.105,86.62 c -0.465,2.78 -1.512,5.29 -3.113,7.44 0.078,2.53 1.117,4.96 5.183,2.96 -2.195,-2.26 -0.496,-6.25 -0.496,-6.25 0,0 4.496,2.09 3.563,5.07 6.676,-1.6 1.875,-10.6 -5.137,-9.22 z m -5.789,-12.76 c -0.895,3.71 -2.789,7.53 -5.211,10.41 -2.187,2.6 -5.828,5.69 -10.727,5.69 -2.242,0 -5.988,-1.05 -8.375,-2.06 -0.898,1.63 -2.64,5.56 -2.64,7.34 0,1.81 3.07,3.66 8.933,3.66 12.899,0 20.614,-5.85 20.614,-15.67 0,-3.45 -1.364,-6.59 -2.594,-9.37 z m 33.133,-167.001 c 1.5,0 2.23,-0.246 3.097,-0.563 3.719,-10.152 18.032,-29.293 18.633,-30.113 l 0.137,-0.172 0.211,0.051 c 3.504,0.563 12.469,1.926 19.976,1.926 h 0.168 c 0.821,0 1.739,0 2.332,-0.574 0.485,-0.496 0.731,-1.352 0.731,-2.567 0,-1.875 -0.797,-5.078 -1.738,-6.449 -2.637,2.879 -6.903,4.168 -13.715,4.168 -2.063,0 -4.485,-0.609 -5.793,-0.957 l -0.535,-0.117 -0.621,-0.16 3.945,-3.961 c 6.066,-6.094 11.332,-11.352 11.332,-14.868 0,-2.101 -2.051,-4.847 -3.945,-6.074 -0.403,6.426 -6.86,15.008 -13.141,19.813 l -0.535,0.402 -0.11,-2.254 c -0.085,-1.531 -0.218,-3.84 -0.218,-6.293 0,-12.215 -1.235,-14.07 -5.453,-14.07 -0.653,0 -1.641,0.183 -2.258,0.414 2.379,2.945 3.32,6.836 3.32,13.668 l -0.031,3.152 -0.035,2.539 c 0,2.793 0.289,4.875 0.515,6.535 l 0.121,0.942 -0.668,0.094 c -1.976,0.277 -5.636,0.781 -8.445,0.781 -6.012,0 -10.09,-0.555 -13.043,-3.348 -1.949,1.578 -3.949,4.305 -3.949,6.028 0,2.558 1.574,2.753 3.644,2.753 1.055,0 2.036,-0.144 3.387,-0.324 2.582,-0.379 6.481,-0.957 14.485,-0.957 h 0.5 l -0.153,0.496 c -2.023,5.828 -7.605,14.317 -16.551,25.231 0.793,2.918 1.59,4.828 4.403,4.828 z m -77.192,-30.059 -0.168,-0.496 h 0.5 c 8.008,0 11.911,0.578 14.496,0.957 1.356,0.18 2.321,0.324 3.372,0.324 2.07,0 3.66,-0.195 3.66,-2.753 0,-1.723 -2.012,-4.45 -3.949,-6.028 -2.954,2.793 -7.047,3.348 -13.047,3.348 -2.809,0 -6.477,-0.504 -8.45,-0.781 l -0.308,-0.039 -0.348,-0.055 0.117,-0.942 c 0.231,-1.66 0.516,-3.742 0.516,-6.535 l -0.031,-2.539 -0.032,-3.152 c 0,-6.832 0.934,-10.723 3.317,-13.668 -0.621,-0.231 -1.617,-0.414 -2.266,-0.414 -4.211,0 -5.441,1.855 -5.441,14.07 0,2.453 -0.137,4.762 -0.223,6.293 l -0.113,2.27 -0.535,-0.418 c -6.278,-4.805 -12.742,-13.387 -13.133,-19.813 -1.898,1.227 -3.945,3.973 -3.945,6.074 0,3.516 5.25,8.774 11.324,14.868 l 3.5,3.507 0.433,0.454 -1.144,0.277 c -1.305,0.348 -3.731,0.957 -5.793,0.957 -6.824,0 -11.078,-1.289 -13.719,-4.168 -0.941,1.371 -1.734,4.574 -1.734,6.449 0,1.215 0.234,2.071 0.719,2.567 0.597,0.574 1.523,0.574 2.332,0.574 h 0.171 c 7.504,0 16.489,-1.363 19.993,-1.926 l 0.203,-0.051 0.137,0.172 c 0.605,0.82 14.914,19.961 18.632,30.113 0.856,0.317 1.598,0.563 3.086,0.563 2.828,0 3.61,-1.91 4.414,-4.828 C 327.5,889.637 321.93,881.148 319.902,875.32 Z m -38.672,171.67 c 0,14.31 10.368,25.64 14.012,28.82 0.879,-0.21 1.754,-0.42 2.629,-0.6 -3.879,-4.75 -10.723,-12.72 -10.723,-23.27 0,-20.93 22.29,-39.12 47.516,-39.12 -0.156,-1.8 -0.25,-3.68 -0.25,-5.62 0,-3.09 0.172,-5.97 0.481,-8.68 -28.528,0.168 -53.665,23.42 -53.665,48.47 z m 191.387,-44.11 c 12.805,-20.325 22.821,-19.985 37.957,-19.985 -12.523,9.64 -20.804,21.975 -24.746,28.275 l -23.383,37.57 c -2.289,11.6 -8.265,22.46 -17.207,30.52 3.004,1.14 5.504,2.35 7.012,3.5 -15.27,0 -30.395,7.78 -38.719,7.78 -5.355,0 -8.797,-3.22 -8.797,-7.46 0.344,-4.73 5.192,-9.54 14.153,-9.54 2.043,0 4.629,0.26 7.484,0.73 4.852,-6.79 8.766,-12.93 8.766,-21.68 0,-16.45 -19.59,-29.27 -39.36,-29.27 -1.121,0 -2.179,0.04 -3.297,0.13 -1.796,4.07 -7.75,10.92 -7.75,18.71 0,13.06 8.493,23.73 8.493,36.68 0,8.04 -3.91,13.02 -5.414,15.1 2.429,2.26 5.089,5.04 5.699,6.94 -1.406,-0.61 -3.07,-0.69 -5.52,-0.69 -9.476,0 -17.195,2.48 -24.73,2.48 -4.293,0 -5.453,-1.33 -5.453,-2.6 0,-0.46 0.07,-0.94 0.191,-1.18 -1.601,0.64 -3.101,1.04 -4.894,1.38 -2.219,0.42 -4.61,0.64 -7.161,0.64 -9.156,0 -12.402,-3.85 -12.402,-7.15 0,-2.8 2.188,-7.9 4.676,-11.78 3.57,1.8 7.848,3.02 9.808,3.02 4.852,0 9.18,-4.64 11.465,-10.14 -3.265,-0.4 -3.898,-0.55 -7.199,-0.55 -8.906,0 -14.969,3.21 -16.215,3.21 -0.121,0 -0.359,-0.07 -0.359,-0.26 0,-1.26 2.515,-4.57 7.504,-6.4 6.554,-2.41 16.39,-3.41 18.027,-3.68 0,-0.29 -1.668,-3.41 -3.519,-4.01 -0.399,-0.13 -0.7,-0.14 -1.161,-0.05 -6.855,1.36 -8.769,1.94 -17.461,5.26 -0.273,0.1 -0.421,-0.07 -0.421,-0.34 0,-3.46 8.898,-11.08 16.875,-13.99 -6.664,-8.55 -14.985,-17.28 -18.903,-30.6 -1.109,-0.09 -2.183,-0.13 -3.304,-0.13 -19.766,0 -39.36,12.82 -39.36,29.27 0,8.75 3.93,14.89 8.781,21.68 2.852,-0.47 5.442,-0.73 7.469,-0.73 8.969,0 13.817,4.81 14.172,9.54 0,4.24 -3.441,7.46 -8.809,7.46 -8.324,0 -23.449,-7.78 -38.73,-7.78 1.516,-1.15 4.016,-2.36 7.012,-3.5 -8.942,-8.06 -14.918,-18.92 -17.203,-30.52 l -23.371,-37.57 c -3.938,-6.3 -12.243,-18.635 -24.758,-28.275 15.129,0 25.156,-0.34 37.961,19.985 l 11.984,19.26 c 0.891,-2.5 1.984,-4.93 3.27,-7.32 l -23.844,-38.3 c -3.973,-6.352 -12.184,-18.582 -24.762,-28.278 15.133,0 25.164,-0.347 37.965,19.969 l 20.519,32.989 c 1.532,-1.641 3.153,-3.243 4.856,-4.782 l -28.961,-46.555 c -3.98,-6.355 -12.156,-18.562 -24.75,-28.25 15.129,0 25.156,-0.371 37.953,19.965 l 28.238,45.387 c 1.86,-1.176 3.766,-2.324 5.727,-3.406 l -34.469,-55.371 c -3.972,-6.375 -12.152,-18.543 -24.746,-28.254 15.133,0 25.164,-0.352 37.961,19.961 l 35.488,57.046 c 2.102,-0.812 4.231,-1.586 6.399,-2.281 l -40.102,-64.449 c -3.926,-6.277 -12.289,-18.656 -24.738,-28.25 15.121,0 25.148,-0.336 37.953,19.965 l 42.734,68.687 c 0.434,-0.074 0.872,-0.148 1.289,-0.234 1.165,-3.719 1.973,-7.168 1.973,-10.629 0,-21.578 -14.101,-40.652 -31.023,-55.359 1.082,-0.485 2.961,-0.637 4.711,-0.637 3.492,0 5.746,0.18 7.332,0.457 -3.926,-8.945 -12.344,-20.508 -16.602,-26.488 -5.543,1.004 -13.605,1.785 -18.891,1.785 -5.523,0 -6.148,-3.246 -6.148,-6.141 0,-5.039 2.344,-9.043 5.082,-11.281 1.02,2.574 3.09,6.023 13.297,6.023 0.191,0 0.547,-0.027 1.027,-0.066 -2.984,-3.328 -12.332,-10.906 -12.332,-17.02 0,-4.039 4.414,-10.097 10.242,-10.097 -0.347,1.297 -0.296,2.5 -0.296,3.398 0,4.953 4.359,10.739 8.043,14.77 -0.11,-1.196 -0.051,-1.074 -0.051,-2.477 0,-11.691 1.051,-17.062 8.437,-17.062 3.633,0 6.133,2 6.996,2.597 -4.804,4.438 -5.047,7.922 -5.047,14.477 0.012,1.703 0.016,3.379 0.043,5.68 0.012,1.492 -0.011,3.484 -0.253,4.921 2.652,0.36 3.714,0.36 5.746,0.36 0,0 10.504,0.836 13.031,-4.641 2.851,2.621 6.988,6.324 6.988,10.403 0,2.707 -1.273,5.757 -6.683,5.757 -2.047,0 -8.489,-1.265 -13.872,-1.265 1.446,3.23 7.887,12.699 13.469,19.566 0.852,-2.656 2.168,-5.543 5.106,-7.894 0.394,4.414 2.976,18.386 9.851,26.554 0.801,-5.515 1.887,-11.179 1.887,-23.125 0,-29.047 -6.961,-50.496 -21.73,-54.593 1.929,-3.348 5.988,-6.368 10.207,-6.368 5.398,0 8.335,6.118 11.339,11.911 1.563,-4.27 5.879,-14.735 10.204,-14.735 4.324,0 8.644,10.465 10.203,14.735 3.004,-5.793 5.941,-11.911 11.351,-11.911 4.211,0 8.278,3.02 10.199,6.368 -14.761,4.097 -21.726,25.546 -21.726,54.593 0,11.946 1.078,17.61 1.879,23.125 6.875,-8.168 9.469,-22.14 9.859,-26.554 2.934,2.351 4.262,5.238 5.102,7.894 5.578,-6.867 12.031,-16.336 13.488,-19.566 -5.398,0 -11.844,1.265 -13.895,1.265 -5.398,0 -6.671,-3.05 -6.671,-5.757 0,-4.079 4.132,-7.782 6.988,-10.403 2.515,5.477 13.031,4.641 13.031,4.641 2.035,0 3.106,0 5.75,-0.36 -0.242,-1.437 -0.262,-3.429 -0.25,-4.921 0.027,-2.301 0.031,-3.977 0.035,-5.68 0,-6.555 -0.238,-10.039 -5.039,-14.477 0.86,-0.597 3.36,-2.597 6.985,-2.597 7.39,0 8.453,5.371 8.453,17.062 0,1.403 0.043,1.281 -0.055,2.477 3.676,-4.031 8.047,-9.817 8.047,-14.77 0,-0.898 0.047,-2.101 -0.309,-3.398 5.825,0 10.242,6.058 10.242,10.097 0,6.114 -9.343,13.692 -12.332,17.02 0.493,0.039 0.832,0.066 1.028,0.066 10.215,0 12.269,-3.449 13.293,-6.023 2.73,2.238 5.074,6.242 5.074,11.281 0,2.895 -0.613,6.141 -6.145,6.141 -5.277,0 -13.332,-0.781 -18.878,-1.785 -4.262,5.98 -12.676,17.543 -16.602,26.488 1.574,-0.277 3.848,-0.457 7.328,-0.457 1.754,0 3.637,0.152 4.719,0.637 -16.926,14.707 -31.043,33.781 -31.043,55.359 0,3.461 0.82,6.91 1.973,10.629 0.425,0.086 0.867,0.16 1.293,0.234 l 42.738,-68.687 c 12.797,-20.301 22.836,-19.965 37.953,-19.965 -12.453,9.594 -20.82,21.973 -24.727,28.25 l -40.109,64.449 c 2.176,0.695 4.305,1.469 6.402,2.281 l 35.485,-57.046 c 12.793,-20.313 22.82,-19.961 37.953,-19.961 -12.594,9.711 -20.774,21.879 -24.746,28.254 l -34.461,55.371 c 1.965,1.082 3.875,2.23 5.719,3.406 l 28.238,-45.387 c 12.812,-20.336 22.824,-19.965 37.945,-19.965 -12.578,9.688 -20.754,21.895 -24.742,28.25 l -28.949,46.555 c 1.699,1.539 3.32,3.141 4.843,4.782 l 20.532,-32.989 c 12.793,-20.316 22.824,-19.969 37.961,-19.969 -12.59,9.696 -20.785,21.926 -24.766,28.278 l -23.836,38.3 c 1.281,2.39 2.371,4.82 3.266,7.32 l 11.98,-19.26" /><path
       inkscape:connector-curvature="0"
       id="path20"
       style="fill:#f2cf04;fill-opacity:1;fill-rule:nonzero;stroke:none"
       d="M 611.516,588.461 H 630.27 V 337.34 H 586.5 v 251.121 h 25.016" /><path
       inkscape:connector-curvature="0"
       id="path22"
       style="fill:#ed1c24;fill-opacity:1;fill-rule:nonzero;stroke:none"
       d="M 611.516,840.809 H 630.27 V 588.461 H 586.5 v 252.348 h 25.016" /><path
       inkscape:connector-curvature="0"
       id="path24"
       style="fill:#231f20;fill-opacity:1;fill-rule:nonzero;stroke:none"
       d="M 630.27,1090.65 V 839.555 H 586.5 v 251.095 h 43.77" /><path
       inkscape:connector-curvature="0"
       id="path26"
       style="fill:#231f20;fill-opacity:1;fill-rule:nonzero;stroke:none"
       d="m 728.109,1363.32 v -1.82 c 0,-8.5 5.352,-11.19 10.461,-11.19 6.301,0 11.149,2.69 11.149,10.14 0,13.9 -28,12.33 -28,31.17 0,11.11 7.859,17 18.32,17 11.406,0 17.797,-5.56 17.285,-18.3 h -8.304 c 0.085,6.84 -2.071,11.36 -9.582,11.36 -4.758,0 -9.598,-2.43 -9.598,-9.21 0,-13.79 27.996,-11.79 27.996,-31.66 0,-13.2 -9.074,-17.44 -19.359,-17.44 -18.403,-0.19 -18.403,13.97 -18.235,19.95 h 7.867" /><path
       inkscape:connector-curvature="0"
       id="path28"
       style="fill:#231f20;fill-opacity:1;fill-rule:nonzero;stroke:none"
       d="m 779.008,1379.21 h 8.726 c 3.286,0 11.055,0.86 11.055,10.67 0,9.54 -7.086,10.5 -8.809,10.5 h -10.972 z m -7.949,-34.54 v 62.65 h 18.504 c 8.375,0 17.367,-3.12 17.367,-17.87 0,-14.24 -11.063,-17.19 -17.457,-17.19 h -10.465 v -27.59 h -7.949" /><path
       inkscape:connector-curvature="0"
       id="path30"
       style="fill:#231f20;fill-opacity:1;fill-rule:nonzero;stroke:none"
       d="m 848.926,1367.23 v 21.16 c 0,13.12 -8.988,13.55 -11.488,13.55 -2.516,0 -11.504,-0.43 -11.504,-13.55 v -21.16 c 0,-13.71 3.988,-17.18 11.504,-17.18 7.519,0 11.488,3.47 11.488,17.18 z m -31.098,0.34 v 20.57 c 0,12.5 6.391,20.48 19.61,20.48 13.21,0 19.613,-7.98 19.613,-20.48 v -20.57 c 0,-17.35 -6.403,-24.2 -19.613,-24.2 -13.219,0 -19.61,6.85 -19.61,24.2" /><path
       inkscape:connector-curvature="0"
       id="path32"
       style="fill:#231f20;fill-opacity:1;fill-rule:nonzero;stroke:none"
       d="m 914.098,1407.32 v -62.65 h -10.891 l -24.648,54.32 h -0.164 v -54.32 h -7.082 v 62.65 h 11.226 l 24.285,-53.63 h 0.18 v 53.63 h 7.094" /><path
       inkscape:connector-curvature="0"
       id="path34"
       style="fill:#231f20;fill-opacity:1;fill-rule:nonzero;stroke:none"
       d="m 934.652,1363.32 v -1.82 c 0,-8.5 5.371,-11.19 10.461,-11.19 6.313,0 11.153,2.69 11.153,10.14 0,13.9 -28.004,12.33 -28.004,31.17 0,11.11 7.867,17 18.324,17 11.41,0 17.793,-5.56 17.269,-18.3 h -8.289 c 0.098,6.84 -2.074,11.36 -9.589,11.36 -4.754,0 -9.582,-2.43 -9.582,-9.21 0,-13.79 27.984,-11.79 27.984,-31.66 0,-13.2 -9.07,-17.44 -19.344,-17.44 -18.418,-0.19 -18.418,13.97 -18.242,19.95 h 7.859" /><path
       inkscape:connector-curvature="0"
       id="path36"
       style="fill:#231f20;fill-opacity:1;fill-rule:nonzero;stroke:none"
       d="m 1007.44,1367.23 v 21.16 c 0,13.12 -8.995,13.55 -11.502,13.55 -2.508,0 -11.504,-0.43 -11.504,-13.55 v -21.16 c 0,-13.71 3.98,-17.18 11.504,-17.18 7.512,0 11.502,3.47 11.502,17.18 z m -31.131,0.34 v 20.57 c 0,12.5 6.39,20.48 19.629,20.48 13.202,0 19.622,-7.98 19.622,-20.48 v -20.57 c 0,-17.35 -6.42,-24.2 -19.622,-24.2 -13.239,0 -19.629,6.85 -19.629,24.2" /><path
       inkscape:connector-curvature="0"
       id="path38"
       style="fill:#231f20;fill-opacity:1;fill-rule:nonzero;stroke:none"
       d="m 1037.16,1380.42 h 11.92 c 5.7,0 8.45,4.96 8.45,10.41 0,4.51 -2.24,9.55 -8.36,9.55 h -12.01 z m 0,-6.95 v -28.8 h -7.95 v 62.65 h 21.51 c 11.07,0 14.94,-7.82 14.94,-15.62 0,-7.38 -4.04,-13.02 -11.39,-14.31 v -0.18 c 7.17,-1.13 9.77,-3.56 10.2,-16.14 0.08,-2.69 0.94,-12.5 2.15,-16.4 h -8.29 c -2.24,4.34 -1.73,12.49 -2.42,20.82 -0.62,7.64 -6.74,7.98 -9.43,7.98 h -9.32" /><path
       inkscape:connector-curvature="0"
       id="path40"
       style="fill:#231f20;fill-opacity:1;fill-rule:nonzero;stroke:none"
       d="m 1077.44,1344.67 v 62.65 h 32.13 v -6.94 h -24.18 v -20.14 h 22.46 v -6.94 h -22.46 v -21.69 h 24.7 v -6.94 h -32.65" /><path
       inkscape:connector-curvature="0"
       id="path42"
       style="fill:#231f20;fill-opacity:1;fill-rule:nonzero;stroke:none"
       d="m 1128.76,1351.61 h 7.52 c 11.06,0 15.12,4.16 15.12,18.73 v 12.68 c 0,12.67 -3.87,17.36 -12.19,17.36 h -10.45 z m -7.94,55.71 H 1140 c 7.98,0 13.67,-2.87 16.75,-9.55 2.54,-5.3 2.8,-17.79 2.8,-19.78 0,-13.37 -1.23,-21.08 -3.81,-25.25 -3.38,-5.39 -9.67,-8.07 -20.59,-8.07 h -14.33 v 62.65" /><path
       inkscape:connector-curvature="0"
       id="path44"
       style="fill:#231f20;fill-opacity:1;fill-rule:nonzero;stroke:none"
       d="m 1201.36,1351.61 h 11.21 c 8.5,0 11.55,6.07 11.55,10.67 0,9.98 -6.16,11.72 -14.3,11.72 h -8.46 z m 0,29.32 h 11.58 c 6.23,0.1 9.26,3.91 9.26,9.99 0,5.21 -2.97,9.46 -9.63,9.46 h -11.21 z m -7.95,-36.26 v 62.65 h 20.3 c 8.65,0 11.58,-2.96 13.92,-6.41 2.17,-3.4 2.52,-7.13 2.52,-8.35 0,-7.8 -2.69,-13.02 -10.72,-14.83 v -0.44 c 8.87,-1.04 12.77,-6.42 12.77,-15.01 0,-16.05 -11.64,-17.61 -18.75,-17.61 h -20.04" /><path
       inkscape:connector-curvature="0"
       id="path46"
       style="fill:#231f20;fill-opacity:1;fill-rule:nonzero;stroke:none"
       d="m 1272.83,1407.32 h 8.02 l -17.01,-38.8 v -23.85 h -7.95 v 23.85 l -16.77,38.8 h 8.92 l 12.15,-30.3 12.64,30.3" /><path
       inkscape:connector-curvature="0"
       id="path48"
       style="fill:#231f20;fill-opacity:1;fill-rule:nonzero;stroke:none"
       d="m 1342.83,1407.32 v -6.94 h -16.45 v -55.71 h -7.93 v 55.71 h -16.4 v 6.94 h 40.78" /><path
       inkscape:connector-curvature="0"
       id="path50"
       style="fill:#231f20;fill-opacity:1;fill-rule:nonzero;stroke:none"
       d="m 1351.54,1344.67 v 62.65 h 7.97 v -27.08 h 21.89 v 27.08 h 7.95 v -62.65 h -7.95 v 28.63 h -21.89 v -28.63 h -7.97" /><path
       inkscape:connector-curvature="0"
       id="path52"
       style="fill:#231f20;fill-opacity:1;fill-rule:nonzero;stroke:none"
       d="m 1403.84,1344.67 v 62.65 h 32.15 v -6.94 h -24.18 v -20.14 h 22.44 v -6.94 h -22.44 v -21.69 h 24.71 v -6.94 h -32.68" /></g></g></svg>