<svg xmlns="http://www.w3.org/2000/svg" xmlns:xlink="http://www.w3.org/1999/xlink" viewBox="0 0 540.029 215.625" width="540.03" height="215.626" xmlns:v="https://vecta.io/nano"><g fill="#211e1e"><use xlink:href="#B"/><use xlink:href="#C"/><path d="M300.718 45.41h1.1l2.462-8.973h-1.063l-1.17 4.345-.565 2.287-.202.97-.202-.955-.565-2.287-1.144-4.36h-1.1z"/><use xlink:href="#C" x="11.877"/><path d="M310.82 45.4h3.807v-.97h-2.744v-8.005h-1.063zm4.736-4.412c0 3.283 1.345 4.547 3.135 4.547 1.762 0 3.202-1.493 3.202-4.682 0-3.242-1.345-4.56-3.12-4.56-1.762 0-3.215 1.507-3.215 4.695zm1.076-.067c0-2.583.915-3.66 2.1-3.66s2.1 1.076 2.1 3.66c0 2.57-.915 3.646-2.1 3.646s-2.1-1.076-2.1-3.646zm8.026-3.55c1.413 0 2.14.7 2.14 2.22 0 1.762-1.022 2.354-2.1 2.354h-.283V37.38zm-1.305 8.032h1.063v-2.516h.27c2.14 0 3.175-1.4 3.175-3.4 0-2.112-1.305-3.067-3.296-3.067h-1.2z"/><use xlink:href="#C" x="35.709"/><use xlink:href="#B" x="48.033"/><path d="M345.12 37.38h.215c1.25 0 1.924.377 1.924 1.547 0 1-.417 1.682-1.776 1.682h-.363zm0 4.103h.62c1.36 0 1.883.632 1.883 1.534 0 1.238-.982 1.453-1.857 1.453h-.646zm-1.063 3.928h1.534c2.368 0 3.108-.982 3.108-2.422 0-.9-.4-1.413-.807-1.695-.23-.16-.498-.283-.794-.35a1.91 1.91 0 0 0 .62-.404c.3-.3.62-.794.62-1.64 0-1.8-1.278-2.462-2.987-2.462h-1.292zm7.436-3.606V45.4h1.076v-3.605l2.233-5.368h-1.117l-.996 2.475-.47 1.238-.188.525-.202-.525-.484-1.224-1.05-2.5h-1.144z"/></g><g fill-rule="evenodd"><path d="M388.35 78.748H286.474v71.57H388.35" fill="#4c4740"/><path d="M370.2 117.022l-8.077 5.103-8.43 4.34-15.84 6.647.82-5.223 15.722-16.38" fill="#99b085"/><path d="M286.46 113.84c.62.494 14.096-.246 16.06.86 2.248 1.266 4.136 2.17 6.307 3.475.005-.072 5.985 3.992 8.604 5.1.96.407 2.76 1.388 5.025 2.765 1.14.692 2.675 1.405 2.675 1.405l4.306 2.178c1.64.585 3.916 2.386 3.5 2.567 1.276.5 6.704 3.12 10.945 4.054 2.985.657 5.12-2.455 4.03-4.02-.763-1.094-3.73-1.753-5.54-2.696-1.597-.832-2.82-1.614-2.884-1.32 0 0-.62-.6.446-.09 4.162 1.993 9.373 3.89 13.8 5.476 3.13 1.123 6.48-3.628 5.07-4.63-1.583-1.122-11.588-5.817-12.782-7.08-.07-.075.155-.33.143-.353s2.495 1.49 4.615 2.66c3.037 1.68 7.892 3.518 8.098 3.63 2.94 1.574 9.918-1.163 7.4-4.51-.416-.55-2.533-1.39-3.1-1.676-1.138-.587-3.926-1.92-5.372-2.737-1.858-1.05-2.435-1.216-3.77-2.05-.407-.254-1.097-.726-1.36-.94-.44-.358.053-.44.036-.466 0 0 1.71 1.113 4.13 2.39 1.767.93 4 1.914 5.784 2.786.976.477 2.092.758 2.795 1.093 1.223.582.625.537 1.96.81 1.264.26 6.126-1.045 6.055-5.214-.01-.637-.868-1.488-1.06-1.597-1.286-.728-2.614-1.363-2.99-1.583-2.573-.582-11.21-11.627-11.21-11.627-.914-2.098-17.045-15.9-18.286-16.482-2.025-.95-8.272-3.546-10.483-3.584-1.762-.03-16.698 3.506-18.36 4.042 0 0-5.23 1.185-7.978.26-.353-.118-16.638-.77-16.603-.508.02.146.006 27.614.006 27.614zm29.115 10.823l.35.233-.13-.277s-.08.017-.22.043zm7.333 4.81c.087.096.885.403.957.49 0 0-.338.07-.304.1 0-.008-.208-.17-.208-.177.007-.133-.252-.342-.445-.405" fill="#b8db7d"/><path d="M345.084 84.02s-15.746 5.418-16.802 7.365l-3.1 6.302c-.347.718.186 1.208-.167 1.938l-2.608 5.024c-.268.46.124.908.32.98 7.064 2.626 10.924-2.67 12.78-5.75 0 0 8.01 3.483 11.952-.672 0 0-.53 1.273-.022 1.567 5.207 3.016 6.76 2.868 9.253 6.557l8.615 5.148c1.967 1.003 2.418.885 4.017 1.633.066.03 1.427.738 1.882.902.52.187 1.367-.478 2.04-.944.09-.062 14.983.156 15.106-.284.023-.082-.013-27.557-.018-27.557-2.616-.365-16.19 1.566-18.568-.001-1.802-1.187-10.844-2.76-18.72-3.72-2.47-.3-4.168.665-5.963 1.5" fill="#99b085"/><path d="M290.23 147.133v-7h7.83v1.01h-4.826v1.836h3.478v1.01h-3.478v3.14zm7.347 0l3.207-7h3.924l3.193 7h-3.087l-.603-1.515h-3.036l-.65 1.515zm3.975-2.508h2.29l-1.02-2.923h-.19zm8.074 2.508v-7h3.06v7zm9.054-5.988v2.034h1.187c.695 0 1.173-.074 1.445-.225s.405-.43.405-.836c0-.368-.143-.623-.423-.763s-.796-.2-1.532-.2zm0 3.045v2.943h-3.004v-7h4.407c1.656 0 2.848.16 3.59.48s1.104.834 1.104 1.545c0 .438-.147.793-.446 1.064-.294.27-.782.49-1.454.66l2.208 3.25h-3.1l-1.864-2.943zm11.51 1.912h1.522c.53 0 .925-.06 1.178-.178s.387-.306.387-.557v-3.37c0-.288-.193-.497-.58-.63s-.993-.202-1.822-.202h-.685zm-2.977 1.03v-7h4.27c1.656 0 2.88.157 3.676.47s1.192.798 1.192 1.452v3.126c0 .68-.377 1.176-1.132 1.487s-1.955.464-3.598.464zm11.874 0v-7h3.06v7zm9.054-5.988v2.034h1.187c.695 0 1.173-.074 1.445-.225s.405-.43.405-.836c0-.368-.142-.623-.423-.763s-.796-.2-1.532-.2zm0 3.045v2.943h-3.004v-7h4.407c1.656 0 2.848.16 3.59.48s1.104.834 1.104 1.545c0 .438-.147.793-.447 1.064s-.782.49-1.453.66l2.208 3.25h-3.1l-1.863-2.943zm8.534 2.943v-7h7.844v1.01h-4.84v1.836h3.487v1.01h-3.487v2.1h4.84v1.05zm9.8-1.796v-3.587c0-.552.42-.983 1.252-1.297s1.992-.47 3.47-.47c1.39 0 2.493.16 3.308.48s1.22.76 1.22 1.315v.672h-3.087v-.77c0-.24-.13-.423-.39-.543s-.65-.182-1.16-.182-.897.06-1.16.182-.39.302-.39.543v3.906c0 .243.13.424.39.548s.65.183 1.16.183.897-.06 1.16-.183.39-.306.39-.548v-.953h3.087v.732c0 .613-.4 1.086-1.205 1.418s-1.95.5-3.432.5c-1.518 0-2.67-.165-3.446-.494s-1.164-.813-1.164-1.452zm10.107-4.192v-1.01h9.247v1.01h-3.13v5.988h-3.004v-5.988" fill="#fff"/><path d="M329.48 128.473c0 1.078-.516 2.438-.516 3.798 1.315 1.313 3.098 1.923 5.258 1.923 3.192-3.236 5.962-7.315 4.084-12.145-1.643-4.408-7.793 5.486-8.826 6.424zm-2.817-15.334c-2.16.28-5.446 2.626-7.09 4.22-1.033 1.032-6.056 1.97-5.82 3.845-.798 4.55 4.788 5.862 6.854 4.033 1.972-1.688 5.587-5.064 8.45-6.05 1.455-.47 2.16-1.97 2.16-3.845-.516-2.44-1.878-2.954-4.554-2.204zm-6.01 14.396c1.268 2.814 5.633 4.314 6.666 2.86 1.22-1.22.423-.188 2.488-2.25 1.033-1.032 3.05-4.173 4.882-5.768 3.24-2.907.47-3.517-1.596-4.55-2.347-.47-14.084 6.284-12.44 9.707zm-2.394-9.19c3.85-4.36 1.127-5.533-1.972-5.768-3.145.47-6.9 1.97-9.2 4.267l-.422 2.063c1.737 2.72 1.55 5.3 6.948 2.485.094-.094 0-2.063 4.648-3.048" fill="#99b085"/></g><g transform="matrix(1.266202 0 0 1.266202 186.9677 31.375509)"><g fill="#1d1d1b"><path d="M195.4 98.4h2c1.6 0 2.9.8 2.9 2.4 0 1.7-1.4 2.4-3 2.4h-.8v2.9h-1.1zm1.1 3.9h.8c.7 0 1.9-.3 1.9-1.5s-1.2-1.5-1.8-1.5h-1v3zm4.7-.2c0-.5 0-.9-.1-1.4h1l.1 1.4h.1c.2-.7.8-1.5 1.6-1.5.3 0 .5.1.7.2v.9c-.2-.1-.4-.1-.6-.1-1 0-1.6 1-1.7 2.1v2.4h-1v-4zm6.3-1.5c1.8 0 2.6 1.6 2.6 2.8 0 1.4-.9 2.9-2.6 2.9s-2.7-1.4-2.7-2.9c0-1.2.8-2.8 2.7-2.8zm0 4.9c.8 0 1.6-.7 1.6-2.1s-.7-2.1-1.6-2.1c-.7 0-1.6.4-1.6 2.1-.1 1.1.4 2.1 1.6 2.1z"/><use xlink:href="#D"/><path d="M217.2 100.6c1.8 0 2.6 1.6 2.6 2.8 0 1.4-.9 2.9-2.6 2.9s-2.7-1.4-2.7-2.9c0-1.2.8-2.8 2.7-2.8zm0 4.9c.8 0 1.6-.7 1.6-2.1s-.7-2.1-1.6-2.1c-.7 0-1.6.4-1.6 2.1 0 1.1.5 2.1 1.6 2.1z"/><use xlink:href="#D" x="9.7"/><path d="M227 107.2c-.3.8-.9 1.1-1.5 1.1-.2 0-.5 0-.7-.1v-.9c.2.1.4.1.6.1.3 0 .6-.1.7-.4.1-.2.3-.7.3-.9.1-.2-.1-.4-.3-.4l-1.9-5h1.1l1.5 4.3h.1l1.3-4.3h1.1l-2.3 6.5zm3.9 1h-1v-7.4h.9v.8h.1c.4-.6.9-.9 1.6-.9 1.5 0 2.3 1.3 2.3 2.8 0 1.6-.8 2.8-2.2 2.8-1 0-1.4-.6-1.6-.9h-.1v.7zm1.3-6.8c-.7 0-1.3.8-1.4 1.3v1.3c0 .6.6 1.4 1.4 1.4 1 0 1.4-.9 1.4-2 .1-1.2-.4-2-1.4-2zm4 2.2c0 1.1.6 1.9 1.6 1.9.7 0 1.2-.4 1.3-1h1c-.1.9-.9 1.8-2.3 1.8-1.5 0-2.5-1.1-2.5-2.9 0-1.5.9-2.8 2.5-2.8 2 0 2.5 1.7 2.4 3zm2.8-.8c0-.5-.3-1.5-1.4-1.5-.7 0-1.3.5-1.4 1.5zm-43.6 5.7h4.3v.9h-3.2v2.6h3v.9h-3v3.4h-1.1zm9.8 2.3v4.5c0 .3 0 .6.1.9h-1v-.9h-.1c-.1.2-.7 1-1.7 1-.7 0-1.8-.4-1.8-2v-3.4h1v3.4c0 .7.3 1.2 1 1.2s1.4-.6 1.5-1.6v-3.1zm1 1c0-.3 0-.6-.1-.9h1v.9h.1c.1-.2.7-1 1.7-1 .6 0 1.8.3 1.8 2v3.5h-1v-3.5c0-.7-.3-1.2-.9-1.2-.7 0-1.4.7-1.6 1.6v3.1h-1zm9.1-3.3h1v7.7h-.9v-.8h-.1c-.4.6-.9.9-1.6.9-1.5 0-2.3-1.3-2.3-2.8 0-1.6.8-2.8 2.2-2.8 1 0 1.4.6 1.6.9h.1v-.7zm-1.4 7c.7 0 1.3-.8 1.3-1.3v-1.3c0-.6-.6-1.4-1.4-1.4-1 0-1.4.9-1.4 2 0 1.2.5 2 1.5 2z"/></g><path d="M225.5 37.6l6.6.8 7.8 15-7.8 12.6-12.3 3.2H212v20.3l6.3 2.2-.2 2.2-11.2-.2-11.2.2-.2-2.2 6.3-2.2V41.9l-6.3-2.2.2-2.2zM212 64.9l6.5 1.2 10-7 3.1-5.7-3.1-5.7-10-6.6-6.5.9z" fill="#099acf"/></g><g fill="#211e1e"><path d="M435.705 45.5c1.48 0 2.167-.942 2.167-2.167 0-1.17-.754-1.925-1.494-2.665l-.458-.458c-.58-.58-1.077-1.13-1.077-1.87 0-.713.417-1.117 1.104-1.117.417 0 .727.162.942.3a1.72 1.72 0 0 1 .3.296l.565-.794a2.41 2.41 0 0 0-.444-.4c-.3-.202-.767-.4-1.413-.4-1.13 0-2.14.686-2.14 2.154 0 1.1.62 1.8 1.265 2.436l.552.552c.713.713 1.198 1.17 1.198 1.965 0 .86-.417 1.198-1.104 1.198-.66 0-1.252-.43-1.467-.646l-.12-.12-.565.835c.148.175.336.3.552.43.363.23.915.444 1.63.444zm3.445-2.973c0 2.046.888 2.975 2.557 2.975s2.557-.97 2.557-3.002v-6.1h-1.077v5.855c0 1.238-.108 2.315-1.454 2.315-1.373 0-1.507-1.077-1.507-2.33V36.4h-1.077z"/><use xlink:href="#E"/><use xlink:href="#E" x="5.837"/><path d="M457.36 40.962c0 3.284 1.346 4.55 3.136 4.55 1.763 0 3.203-1.494 3.203-4.684 0-3.244-1.346-4.563-3.123-4.563-1.763 0-3.217 1.508-3.217 4.697zm1.077-.067c0-2.584.915-3.66 2.1-3.66s2.1 1.077 2.1 3.66c0 2.57-.915 3.648-2.1 3.648s-2.1-1.077-2.1-3.648zm7.963-3.555c1.413 0 2.073.633 2.073 2.046 0 1.7-.888 2.234-2.032 2.234h-.23v-4.28zm1.844 8.036h1.292l-1.777-3.082c1.198-.363 1.763-1.413 1.763-3.028 0-2.02-1.238-2.867-3.082-2.867h-1.28v8.978h1.05v-2.853l.444-.027zm1.643-8.008h1.844v8h1.063v-8h1.844v-.97h-4.75zm5.633 8.01h3.944v-.942h-2.88v-2.948h2.8v-.942h-2.8V37.34h2.76v-.94h-3.823zm6.532-.97v-7.04h.256c1.763 0 3.002 1.13 3.002 3.486 0 2.22-.983 3.553-2.907 3.553zm-1.063.97h1.265c3.23 0 4.12-2.396 4.12-4.496 0-3.07-1.7-4.482-4.36-4.482h-1.023zm10.474-8.038h.215c1.252 0 1.925.377 1.925 1.548 0 1-.417 1.682-1.777 1.682h-.363zm0 4.105h.62c1.36 0 1.884.633 1.884 1.534 0 1.238-.983 1.454-1.857 1.454h-.646zm-1.063 3.93h1.534c2.37 0 3.1-.983 3.1-2.423 0-.902-.4-1.413-.808-1.696a2.23 2.23 0 0 0-.794-.35 1.91 1.91 0 0 0 .62-.404c.3-.3.62-.794.62-1.642 0-1.8-1.28-2.463-2.988-2.463H490.4zm7.438-3.605v3.607h1.077V41.77l2.234-5.37h-1.117l-.996 2.477-.47 1.238-.188.525-.202-.525-.485-1.225-1.05-2.5h-1.144z"/></g><g fill="#231f20"><path d="M196.152 132.487v-6.157c0-.81-.14-1.39-.41-1.74s-.68-.53-1.24-.53c-.475 0-.87.12-1.188.36a4.44 4.44 0 0 0-.755.698v7.37h-1.604v-14.083l1.604-.18v5.68h.04c.055-.078.14-.188.252-.32s.27-.266.464-.398c.2-.133.44-.25.724-.35s.62-.15 1.003-.15c.833 0 1.495.272 1.98.82.49.542.735 1.447.735 2.707v6.276zm-7.56-7.71l-.19-.18c-.09-.08-.196-.16-.327-.24s-.29-.15-.48-.208a1.95 1.95 0 0 0-.633-.093c-.345 0-.664.065-.963.2a1.92 1.92 0 0 0-.771.608c-.22.28-.39.64-.52 1.085-.123.444-.183.986-.183 1.624 0 .704.055 1.294.164 1.773.115.477.27.858.472 1.145.192.286.437.49.72.618s.6.19.94.19c.492 0 .864-.087 1.125-.26.255-.172.437-.31.54-.418l.656 1.116a3.12 3.12 0 0 1-.287.289c-.13.113-.29.225-.487.33s-.443.198-.724.27-.612.108-.98.108c-.532 0-1.027-.086-1.487-.26-.47-.172-.868-.457-1.215-.855s-.612-.917-.812-1.555-.297-1.427-.297-2.37c0-.917.117-1.694.355-2.33.243-.638.552-1.153.937-1.543s.81-.678 1.276-.86c.472-.178.943-.268 1.417-.268.36 0 .673.033.945.1s.5.15.695.25a2.2 2.2 0 0 1 .475.319l.31.287zm-6.648-.44c-.04-.025-.125-.058-.26-.1s-.31-.06-.533-.06c-.505 0-.896.137-1.183.41-.28.27-.484.567-.604.885v7.013h-1.607v-9.563h1.47v1.297h.04a3.22 3.22 0 0 1 .257-.548c.107-.18.237-.34.396-.48s.35-.248.565-.328.48-.12.784-.12c.224 0 .407.02.547.06l.325.097zm-9.776 7c.22 0 .42-.03.596-.097a1.99 1.99 0 0 0 .443-.239c.125-.094.232-.196.315-.3l.23-.287v-2.112l-.515.02c-.767.027-1.35.16-1.743.398-.4.24-.6.625-.6 1.156 0 .5.112.86.336 1.106s.54.366.937.366zm-2.88-1.293c0-.557.107-1.022.317-1.393a2.62 2.62 0 0 1 .855-.906c.353-.234.776-.4 1.257-.5s.995-.15 1.54-.15h.495v-.917c0-.8-.143-1.368-.427-1.673s-.683-.46-1.196-.46c-.48 0-.877.104-1.195.3l-.755.548-.675-1.075a5.12 5.12 0 0 1 .408-.358 3.55 3.55 0 0 1 .604-.38c.24-.117.508-.22.816-.297.3-.08.648-.12 1.03-.12.98 0 1.72.272 2.224.82.5.542.753 1.42.753 2.63v4.36l.04 1.206.08.787h-1.527l-.06-1.055h-.04c-.055.12-.133.254-.24.408a2.04 2.04 0 0 1-.396.419 2.42 2.42 0 0 1-.575.328c-.224.092-.488.138-.795.138-.357 0-.69-.065-1.003-.2a2.44 2.44 0 0 1-.809-.557 2.53 2.53 0 0 1-.54-.846 3 3 0 0 1-.187-1.066zm-4.603-6.055c-.57 0-1.025.237-1.372.716-.34.477-.54 1.168-.59 2.07h3.47c.013-.068.024-.16.03-.29l.01-.407c0-.666-.133-1.18-.4-1.544s-.647-.547-1.15-.547zm3.016 2.15l-.04 1.066-.08.787h-4.86c.052 1.13.293 1.96.72 2.49s1.052.798 1.856.798a2.61 2.61 0 0 0 .756-.1c.22-.065.42-.145.585-.24a3.18 3.18 0 0 0 .417-.279l.244-.22.597 1.137-.3.288c-.128.126-.31.253-.53.38-.227.126-.505.233-.836.328s-.72.138-1.17.138c-.597 0-1.136-.1-1.62-.298a3.07 3.07 0 0 1-1.232-.925c-.333-.418-.6-.95-.78-1.594-.185-.643-.28-1.418-.28-2.32 0-.853.1-1.586.29-2.203s.453-1.125.78-1.523c.333-.397.716-.694 1.153-.887a3.45 3.45 0 0 1 1.407-.289c.913 0 1.63.29 2.143.866.52.58.776 1.445.776 2.6zm-8.948-1.294c-.11-.12-.296-.282-.577-.49-.276-.206-.64-.3-1.092-.3-.42 0-.744.102-.968.3a.92.92 0 0 0-.341.716c0 .358.104.654.31.887s.52.482.943.746l.597.358c.645.388 1.156.8 1.525 1.246s.552 1.02.552 1.722c0 .76-.257 1.397-.78 1.914s-1.273.776-2.252.776a3.85 3.85 0 0 1-1.011-.118c-.295-.08-.547-.172-.765-.28s-.4-.225-.547-.35-.267-.243-.357-.35l.773-1.275.29.28a2.46 2.46 0 0 0 .408.31 2.43 2.43 0 0 0 .535.247c.195.07.427.1.692.1.477 0 .84-.105 1.092-.32a.98.98 0 0 0 .377-.779c0-.224-.03-.42-.088-.585a1.4 1.4 0 0 0-.267-.447 2.52 2.52 0 0 0-.437-.379l-.596-.398-.596-.38c-.595-.385-1.06-.8-1.4-1.216s-.505-.97-.505-1.634c0-.358.068-.687.208-.984s.336-.56.587-.778.544-.392.883-.52.697-.19 1.08-.19c.373 0 .685.036.95.1s.495.164.685.28.35.227.48.34l.305.288zm-9.265-.856a1.6 1.6 0 0 0-1.369.716c-.344.477-.54 1.168-.595 2.07h3.472c.013-.068.023-.16.028-.29l.01-.407c0-.666-.13-1.18-.396-1.544s-.645-.547-1.15-.547zm3.016 2.15l-.04 1.066-.077.787h-4.863c.055 1.13.295 1.96.72 2.49.433.532 1.052.798 1.857.798a2.6 2.6 0 0 0 .755-.1 2.78 2.78 0 0 0 .587-.239 2.99 2.99 0 0 0 .416-.279l.245-.22.6 1.137-.3.288a2.79 2.79 0 0 1-.535.38c-.227.126-.505.233-.836.328s-.72.138-1.17.138c-.596 0-1.132-.1-1.62-.298-.48-.196-.89-.508-1.227-.925s-.6-.95-.785-1.594-.276-1.418-.276-2.32c0-.853.1-1.586.288-2.203s.45-1.125.78-1.523a3.13 3.13 0 0 1 1.152-.887c.435-.193.905-.29 1.408-.29.915 0 1.628.29 2.144.866s.773 1.445.773 2.6zm-10.258-3.466c0-.876-.242-1.522-.724-1.942s-1.24-.628-2.272-.628h-.834v5.397h.754c1.046 0 1.82-.246 2.322-.735s.754-1.2.754-2.092zm.696 9.8l-2.84-5.638-.455.03-.478.01h-.754v5.6h-1.724v-13.746h2.558c1.654 0 2.874.322 3.66.967s1.18 1.605 1.18 2.878c0 .918-.19 1.7-.576 2.35s-.973 1.15-1.767 1.495l3.215 6.056zm-16.646-1.195c.25 0 .475-.03.673-.1s.37-.15.516-.247a2.16 2.16 0 0 0 .367-.31c.1-.108.175-.198.228-.28v-5.897a2.36 2.36 0 0 0-.505-.238c-.192-.065-.434-.1-.725-.1-.37 0-.716.063-1.04.19s-.606.335-.844.627-.426.672-.565 1.135-.21 1.037-.21 1.715c0 .665.057 1.218.17 1.66s.268.805.466 1.075.423.47.675.59.516.178.794.178zm-3.77-3.445c0-.97.126-1.78.377-2.432s.575-1.175.972-1.573.847-.68 1.35-.846 1.004-.25 1.507-.25c.304 0 .568.023.793.07s.41.102.555.17v-4.582l1.607-.18v14.264h-1.467v-1.016h-.04a2.38 2.38 0 0 1-.217.33c-.107.14-.252.278-.437.417a2.66 2.66 0 0 1-.695.361c-.277.098-.602.147-.972.147-.45 0-.877-.1-1.28-.268s-.756-.465-1.062-.857-.545-.897-.725-1.515-.268-1.365-.268-2.24zm-3.57 4.64v-6.157c0-.81-.135-1.39-.406-1.74s-.685-.53-1.24-.53c-.477 0-.873.12-1.19.36s-.57.47-.755.698v7.37h-1.607v-9.563h1.47v1.078h.04c.04-.082.126-.197.258-.35s.305-.297.516-.438.464-.264.755-.368a2.86 2.86 0 0 1 .991-.16 3.35 3.35 0 0 1 1.151.189 2.07 2.07 0 0 1 .872.609c.24.28.423.64.556 1.085s.198.992.198 1.643v6.276zm-10.793-1.138a1.64 1.64 0 0 0 .595-.097 1.86 1.86 0 0 0 .447-.239c.125-.094.23-.196.317-.3l.228-.287v-2.112l-.516.02c-.767.027-1.35.16-1.745.398s-.595.625-.595 1.156c0 .5.112.86.338 1.106s.535.366.932.366zm-2.876-1.293c0-.557.106-1.022.318-1.393a2.59 2.59 0 0 1 .853-.906c.357-.234.777-.4 1.26-.5s.995-.15 1.537-.15h.495v-.917c0-.8-.143-1.368-.427-1.673s-.684-.46-1.2-.46c-.476 0-.873.104-1.192.3s-.568.388-.753.548l-.674-1.075c.106-.106.242-.227.406-.358s.367-.26.605-.38.51-.22.814-.297.647-.12 1.03-.12c.98 0 1.72.272 2.222.82.502.542.753 1.42.753 2.63v4.36l.04 1.206.08.787h-1.53l-.058-1.055h-.04c-.053.12-.132.254-.238.408s-.238.292-.397.42a2.47 2.47 0 0 1-.575.328c-.225.092-.5.138-.794.138-.357 0-.69-.065-1.002-.2s-.58-.32-.813-.557a2.51 2.51 0 0 1-.536-.846c-.125-.325-.188-.68-.188-1.066zm86.402-17.658v-6.155c0-.8-.137-1.39-.405-1.744s-.685-.527-1.243-.527c-.476 0-.875.12-1.19.358s-.57.47-.757.697v7.37h-1.604v-9.56h1.472v1.076h.04a1.83 1.83 0 0 1 .255-.349 2.46 2.46 0 0 1 .516-.438c.21-.14.464-.262.757-.37s.62-.16.99-.16c.425 0 .808.065 1.152.2a2.07 2.07 0 0 1 .872.607c.24.278.42.64.557 1.085.13.446.197.993.197 1.644v6.274zm-8.893-4.78c0-1.276-.18-2.202-.552-2.78s-.885-.866-1.547-.866-1.175.29-1.54.866-.547 1.504-.547 2.78.187 2.19.555 2.748.89.836 1.55.836 1.175-.28 1.54-.836.54-1.474.54-2.748zm-5.848 0c0-.877.1-1.634.31-2.27.2-.638.48-1.16.828-1.563s.756-.705 1.21-.897a3.73 3.73 0 0 1 1.459-.29 3.71 3.71 0 0 1 1.472.29c.448.192.84.49 1.17.897s.59.925.784 1.563.283 1.394.283 2.27c0 .89-.096 1.653-.293 2.29s-.472 1.158-.823 1.564-.76.7-1.224.885a3.88 3.88 0 0 1-1.467.28c-.527 0-1.02-.094-1.467-.28s-.84-.48-1.172-.885c-.328-.406-.593-.923-.783-1.554s-.287-1.4-.287-2.3zm-2.82-7.093c-.333 0-.596-.106-.793-.32s-.297-.49-.297-.837c0-.332.096-.604.297-.817s.46-.318.793-.318c.316 0 .58.105.775.318s.296.485.296.817c0 .346-.1.625-.296.837a1.01 1.01 0 0 1-.775.319zm.795 11.873h-1.607v-9.56h1.607zm-3.43-8.247h-2.087v5.298c0 .68.084 1.14.26 1.385s.46.368.872.368c.237 0 .443-.033.615-.1s.297-.127.377-.18l.22 1.295c-.067.053-.224.135-.476.25s-.587.17-1.013.17c-.817 0-1.432-.23-1.844-.687s-.615-1.22-.615-2.282v-5.517h-1.148v-1.076l1.148-.24.177-2.67h1.43v2.67h2.28zm-9.667 7.11c.224 0 .42-.033.596-.1a1.85 1.85 0 0 0 .445-.239c.125-.093.232-.196.32-.31l.227-.29v-2.11l-.517.02c-.767.027-1.35.16-1.745.398s-.593.624-.593 1.155c0 .492.112.86.34 1.106.22.246.536.368.93.368zm-2.875-1.294c0-.558.104-1.022.315-1.394a2.63 2.63 0 0 1 .852-.907c.36-.232.78-.398 1.263-.5s.997-.15 1.536-.15h.497v-.916c0-.8-.143-1.368-.427-1.673s-.685-.458-1.2-.458c-.475 0-.873.102-1.188.308-.32.206-.57.388-.757.548l-.672-1.077a5.06 5.06 0 0 1 .405-.358c.164-.132.368-.26.605-.378s.51-.22.812-.3.648-.12 1.03-.12c.983 0 1.72.272 2.227.818.5.545.753 1.42.753 2.63v4.363l.04 1.206.08.786h-1.53l-.06-1.056h-.04c-.052.12-.13.256-.237.41s-.237.292-.4.418-.348.236-.572.33-.492.14-.795.14a2.53 2.53 0 0 1-1.003-.199c-.31-.133-.583-.32-.815-.56s-.41-.52-.532-.846c-.13-.325-.19-.68-.19-1.066zm-1.808-5.28l-.184-.18c-.09-.08-.196-.16-.33-.238s-.29-.15-.48-.2a2.03 2.03 0 0 0-.633-.089 2.46 2.46 0 0 0-.963.188c-.297.127-.555.33-.77.61s-.39.64-.52 1.084-.19.987-.19 1.623c0 .705.06 1.295.17 1.773.115.48.27.86.467 1.146s.44.49.727.616c.28.128.6.2.94.2.487 0 .864-.085 1.12-.258s.445-.313.55-.42l.65 1.117c-.063.08-.16.176-.284.288s-.29.223-.487.33-.443.196-.727.27a3.94 3.94 0 0 1-.981.109c-.53 0-1.024-.087-1.484-.26a2.96 2.96 0 0 1-1.215-.857c-.343-.398-.615-.916-.812-1.553s-.297-1.43-.297-2.37c0-.917.12-1.694.357-2.33s.55-1.152.935-1.544a3.53 3.53 0 0 1 1.276-.856 3.95 3.95 0 0 1 1.417-.269c.36 0 .672.034.945.1s.503.15.695.25.352.206.475.318l.31.29zm-7.755 7.71h-1.47v-1.075h-.036a2.09 2.09 0 0 1-.26.347c-.13.153-.3.3-.505.44s-.456.26-.745.368-.615.16-.97.16c-.425 0-.805-.063-1.14-.19s-.625-.33-.863-.608-.422-.64-.545-1.087-.2-.992-.2-1.643v-6.275h1.61v6.156c0 .795.128 1.363.385 1.702s.656.508 1.2.508c.46 0 .852-.116 1.17-.35s.57-.46.756-.687v-7.33h1.607zm-12.52-1.195a2.11 2.11 0 0 0 .674-.099 2.04 2.04 0 0 0 .517-.249 2.21 2.21 0 0 0 .365-.308c.1-.107.177-.2.23-.28v-5.896c-.146-.093-.314-.173-.505-.24s-.433-.1-.726-.1c-.368 0-.717.063-1.04.19a2.04 2.04 0 0 0-.844.627c-.237.293-.426.67-.565 1.135s-.21 1.036-.21 1.713c0 .665.058 1.22.17 1.663s.267.804.467 1.076.422.47.673.587a1.81 1.81 0 0 0 .795.18zm-3.768-3.446c0-.97.124-1.78.374-2.43s.575-1.176.97-1.575.848-.68 1.35-.846 1.005-.25 1.508-.25a3.91 3.91 0 0 1 .793.07c.225.047.4.103.556.17v-4.582l1.608-.18V112.4h-1.47v-1.016h-.04c-.037.08-.11.19-.217.33a2.24 2.24 0 0 1-.437.419c-.184.14-.417.26-.693.36s-.603.15-.973.15a3.1 3.1 0 0 1-1.278-.269 2.76 2.76 0 0 1-1.061-.857c-.306-.39-.546-.896-.725-1.513s-.266-1.365-.266-2.24zm-1.887-7.73h-4.88v4.743h4.484v1.373h-4.484v4.82h5.378l-.1 1.434h-7.004V98.653h6.727zm-12.38 4.125h-1.943v8.247h-1.607v-8.247h-1.152v-1.076l1.152-.218v-1.913c0-.518.072-.963.217-1.335s.337-.677.577-.916a2.08 2.08 0 0 1 .833-.518c.318-.105.654-.16 1.01-.16.344 0 .635.047.872.14s.398.166.477.22l-.337 1.334a2.04 2.04 0 0 0-.338-.17 1.43 1.43 0 0 0-.535-.089c-.385 0-.676.12-.874.36s-.297.678-.297 1.316v1.712h2.143zm-7.58 3.467c0-1.276-.185-2.202-.555-2.78s-.887-.866-1.548-.866-1.173.29-1.537.866-.545 1.504-.545 2.78.185 2.19.555 2.748.886.836 1.547.836a1.73 1.73 0 0 0 1.538-.836c.363-.557.545-1.474.545-2.748zm-5.852 0c0-.877.102-1.634.307-2.27s.482-1.16.833-1.563.753-.705 1.2-.897.942-.3 1.458-.3c.53 0 1.018.097 1.468.3a3.03 3.03 0 0 1 1.171.897c.33.404.593.925.783 1.563s.29 1.394.29 2.27c0 .89-.1 1.653-.3 2.29s-.472 1.158-.822 1.564-.757.7-1.22.885a3.91 3.91 0 0 1-1.469.28 3.8 3.8 0 0 1-1.467-.28c-.45-.185-.84-.48-1.17-.885s-.592-.923-.784-1.554-.287-1.4-.287-2.3zm113.997-24.87l-2.977 10.12c-.344 1.17-.765 2.052-1.26 2.65s-1.213.896-2.153.896c-.196 0-.363-.023-.497-.07l-.275-.11V94.84l.256.09c.11.033.247.05.416.05.57 0 1.003-.18 1.3-.538s.552-.91.765-1.654l.14-.498-3.076-9.542h1.727l1.487 5.3.4 1.524c.12.472.19.893.22 1.265h.04c.03-.372.092-.79.188-1.256l.367-1.513 1.352-5.32zm-7.936 1.413a1.32 1.32 0 0 0-.263-.1c-.128-.04-.31-.06-.53-.06-.505 0-.896.137-1.183.41s-.487.567-.6.885v7.015h-1.61V82.75h1.468v1.295h.04c.064-.187.15-.37.255-.55a1.99 1.99 0 0 1 .401-.477 1.75 1.75 0 0 1 .565-.329 2.31 2.31 0 0 1 .781-.119c.224 0 .405.02.547.06l.325.1zm-6.012-.1h-2.08v5.3c0 .677.084 1.14.255 1.384s.464.37.876.37a1.73 1.73 0 0 0 .615-.099 2.37 2.37 0 0 0 .377-.179l.216 1.295c-.068.052-.22.135-.476.248s-.587.17-1.01.17c-.82 0-1.435-.23-1.847-.686s-.615-1.218-.615-2.282v-5.52h-1.15v-1.075l1.15-.24.18-2.67h1.43v2.67h2.28zm-6.904.617c-.104-.12-.297-.28-.576-.487s-.643-.308-1.09-.308c-.424 0-.745.1-.972.297a.92.92 0 0 0-.336.717c0 .36.105.655.308.885s.52.483.943.748l.596.36c.647.384 1.153.8 1.527 1.245s.555 1.02.555 1.723c0 .757-.26 1.395-.784 1.913s-1.27.777-2.253.777c-.38 0-.72-.04-1.01-.12a4.48 4.48 0 0 1-.767-.278c-.22-.107-.397-.223-.544-.35a3.36 3.36 0 0 1-.356-.349l.776-1.276.283.28a2.54 2.54 0 0 0 .409.308c.156.1.336.183.535.25s.43.1.697.1c.473 0 .836-.105 1.088-.318s.376-.472.376-.777a1.81 1.81 0 0 0-.087-.588c-.063-.165-.15-.315-.268-.447a2.66 2.66 0 0 0-.435-.379l-.6-.4-.597-.38c-.593-.384-1.057-.79-1.393-1.215s-.51-.97-.51-1.635c0-.357.07-.687.21-.985a2.34 2.34 0 0 1 .583-.777c.253-.22.545-.39.883-.517s.7-.19 1.084-.19c.37 0 .685.037.95.11a2.72 2.72 0 0 1 .684.28c.193.112.35.227.477.34l.307.288zm-7.36-4.243c-.333 0-.593-.105-.793-.32s-.297-.49-.297-.837c0-.33.096-.603.297-.816s.46-.32.793-.32c.316 0 .576.107.77.32.2.213.3.485.3.816 0 .347-.1.627-.3.837-.195.213-.455.32-.77.32zm.792 11.875h-1.604V82.75h1.604zm-5.615 0v-6.157c0-.81-.135-1.39-.407-1.743s-.684-.527-1.24-.527c-.475 0-.872.117-1.188.357s-.57.47-.755.697v7.372h-1.604V82.75h1.465v1.075h.043c.04-.08.124-.196.255-.35.136-.152.304-.297.52-.437s.46-.26.752-.37a2.9 2.9 0 0 1 .992-.159c.425 0 .805.064 1.15.19a2.04 2.04 0 0 1 .871.607c.24.28.427.643.56 1.087.127.444.197.993.197 1.644v6.276zm-8.448-11.875c-.333 0-.596-.105-.796-.32s-.297-.49-.297-.837c0-.33.1-.603.297-.816s.463-.32.796-.32c.316 0 .57.107.768.32s.3.485.3.816c0 .347-.1.627-.3.837s-.452.32-.768.32zm.792 11.875h-1.607V82.75h1.607zm-4.404-13.746V92.31h-1.667v-7.75l.008-1.116.032-.916.04-.617h-.06c-.065.307-.2.8-.407 1.484l-.703 2.2-2.263 6.715h-1.368l-2.263-6.715-.703-2.2-.407-1.484h-.057l.036.637.032.907.008 1.105v7.75h-1.67V78.565h1.927l3.235 9.483.385 1.285c.115.417.183.78.208 1.085h.04c.016-.305.08-.664.19-1.076l.385-1.275 3.235-9.503zM155.42 90.08c0 .4.057.677.167.836.115.16.308.24.587.24.148 0 .268-.013.367-.04s.175-.053.23-.08l.137 1.196c-.08.04-.224.093-.437.16s-.495.1-.85.1c-.54 0-.98-.165-1.31-.497s-.495-.923-.495-1.774V78.226l1.607-.18zm-7.18 1.096c.223 0 .424-.034.596-.1a1.89 1.89 0 0 0 .445-.239c.127-.093.232-.196.317-.31l.23-.288v-2.112l-.516.02c-.768.028-1.35.16-1.744.4s-.6.624-.6 1.155c0 .49.112.86.34 1.107s.537.368.933.368zm-2.876-1.296c0-.557.104-1.02.32-1.392s.495-.677.85-.908.776-.4 1.26-.5.997-.15 1.54-.15h.497v-.916c0-.81-.14-1.37-.427-1.673s-.685-.457-1.2-.457c-.476 0-.872.1-1.19.308s-.57.388-.753.548l-.677-1.077a6.11 6.11 0 0 1 .407-.359c.167-.132.367-.26.607-.377a4.17 4.17 0 0 1 .813-.299 4.06 4.06 0 0 1 1.031-.12c.98 0 1.72.272 2.22.817.505.544.755 1.42.755 2.63v4.364l.043 1.203.077.79h-1.525l-.063-1.057h-.04a2.52 2.52 0 0 1-.237.409 2.04 2.04 0 0 1-.399.418c-.16.127-.35.237-.576.33s-.49.14-.79.14a2.53 2.53 0 0 1-1.003-.199c-.31-.133-.584-.32-.813-.557a2.52 2.52 0 0 1-.536-.848c-.125-.324-.188-.68-.188-1.065zm-.935-5.717c-.04-.025-.125-.06-.257-.1s-.308-.06-.535-.06c-.504 0-.897.137-1.182.41a2.38 2.38 0 0 0-.606.885v7.015h-1.607V82.75h1.47v1.295h.04c.066-.187.154-.37.26-.55s.238-.34.398-.477a1.77 1.77 0 0 1 .565-.329c.22-.08.482-.12.783-.12.227 0 .407.02.547.06l.327.1zm-9.344-.34c-.57 0-1.023.24-1.37.717s-.542 1.17-.595 2.072h3.47a2.51 2.51 0 0 0 .031-.291l.01-.407c0-.664-.134-1.18-.397-1.544s-.65-.548-1.152-.548zm3.015 2.15l-.038 1.067-.08.787h-4.86c.053 1.13.294 1.96.726 2.492s1.047.795 1.854.795a2.66 2.66 0 0 0 .753-.099c.226-.067.42-.147.585-.24s.303-.185.417-.28l.25-.22.594 1.136-.297.29c-.132.127-.31.253-.537.378a3.76 3.76 0 0 1-.831.329 4.33 4.33 0 0 1-1.171.139c-.596 0-1.134-.1-1.616-.3a3.06 3.06 0 0 1-1.232-.925c-.337-.42-.598-.95-.783-1.593s-.278-1.417-.278-2.32c0-.85.095-1.585.29-2.2s.453-1.125.783-1.525.716-.693 1.15-.884a3.42 3.42 0 0 1 1.409-.291c.914 0 1.626.29 2.142.867s.773 1.444.773 2.6zm-11.963 5.14c.25 0 .477-.033.673-.1s.37-.15.517-.25.268-.2.368-.308a2.14 2.14 0 0 0 .227-.28v-5.896c-.146-.093-.313-.173-.505-.24s-.433-.1-.725-.1c-.37 0-.717.064-1.04.19s-.606.335-.843.627-.428.672-.566 1.136-.21 1.036-.21 1.713c0 .664.057 1.22.17 1.664s.268.803.466 1.075.423.47.674.588a1.81 1.81 0 0 0 .794.179zm-3.77-3.446c0-.97.125-1.78.378-2.43s.575-1.176.97-1.575a3.4 3.4 0 0 1 1.349-.845c.503-.167 1.005-.25 1.508-.25.304 0 .568.024.793.07s.41.104.555.17v-4.58l1.608-.18V92.31h-1.47v-1.017h-.04c-.04.08-.112.19-.218.33s-.25.278-.436.418-.417.26-.694.36-.603.15-.972.15a3.1 3.1 0 0 1-1.279-.269c-.404-.18-.757-.464-1.062-.856s-.545-.896-.724-1.514-.268-1.364-.268-2.24zm-4.72-3.845c-.568 0-1.025.24-1.37.717s-.542 1.17-.595 2.072h3.472a2.14 2.14 0 0 0 .03-.291l.01-.407c0-.664-.133-1.18-.398-1.544s-.648-.548-1.15-.548zm3.015 2.15l-.04 1.067-.08.787h-4.86c.053 1.13.296 1.96.725 2.492s1.047.795 1.854.795c.28 0 .53-.033.754-.1a2.97 2.97 0 0 0 .587-.239c.165-.092.303-.185.415-.28l.25-.22.595 1.136-.298.29c-.13.127-.3.253-.535.378s-.502.237-.832.33-.722.14-1.17.14c-.595 0-1.133-.1-1.617-.3s-.894-.508-1.23-.925-.598-.95-.784-1.593-.278-1.417-.278-2.32c0-.85.096-1.585.288-2.2s.453-1.125.784-1.525a3.11 3.11 0 0 1 1.15-.884 3.42 3.42 0 0 1 1.409-.291c.912 0 1.626.29 2.142.867s.773 1.444.773 2.6zM106.18 92.31V78.565h6.725l-.12 1.375h-4.88v5.08h4.503v1.375h-4.503v5.917h-1.727"/><path d="M62.387 91.203c.045-.373.072-.76.072-1.157l-.026-.75c3.323-.048 6.238-2.452 6.238-5.216 0-1.407-.913-2.47-1.43-3.103l.35-.08c.486.424 1.868 1.935 1.868 3.843 0 3.316-3.3 6.395-7.072 6.463zm-3.347-11.55a2.27 2.27 0 0 0-.415-.992c.01-.337.15-.66.69-.395-.293.3-.066.833-.066.833s.6-.28.475-.676c.9.213.25 1.413-.685 1.23zm-.772 1.7a3.51 3.51 0 0 0-.695-1.388c-.292-.347-.777-.76-1.43-.76-.3 0-.798.14-1.117.275-.12-.217-.352-.74-.352-.98s.41-.488 1.19-.488c1.72 0 2.75.78 2.75 2.09 0 .46-.182.88-.346 1.25zm4.418 22.267c.2 0 .297.033.413.075.496 1.354 2.404 3.906 2.484 4.015l.018.023.028-.007c.467-.075 1.663-.257 2.663-.257h.022c.11 0 .232 0 .31.077.065.066.097.18.097.342 0 .25-.106.677-.232.86-.352-.384-.92-.556-1.83-.556-.275 0-.598.08-.772.128l-.07.016-.083.02.526.528c.81.813 1.51 1.514 1.51 1.982 0 .28-.273.646-.526.8-.054-.857-.915-2-1.752-2.642l-.07-.054-.015.3-.03.84c0 1.63-.165 1.876-.727 1.876a1.01 1.01 0 0 1-.301-.055c.317-.393.443-.91.443-1.822l-.004-.42-.005-.34c0-.372.04-.65.07-.87l.016-.126-.09-.013-1.126-.104c-.802 0-1.345.074-1.74.446-.26-.2-.527-.574-.527-.804 0-.34.2-.367.486-.367.14 0 .27.02.452.043.344.05.864.128 1.93.128h.067l-.02-.066c-.27-.777-1.014-1.91-2.207-3.364.106-.39.212-.644.587-.644zm-10.292 4.008l-.022.066h.067c1.068 0 1.588-.077 1.933-.128l.45-.043c.276 0 .488.026.488.367 0 .23-.268.593-.527.804-.394-.372-.94-.446-1.74-.446-.375 0-.864.067-1.127.104l-.04.005-.046.007.016.126a5.89 5.89 0 0 1 .069.871l-.004.34-.004.42c0 .91.125 1.43.442 1.822a1.02 1.02 0 0 1-.302.055c-.56 0-.725-.247-.725-1.876l-.03-.84-.015-.303-.07.056c-.837.64-1.7 1.785-1.75 2.642-.253-.164-.526-.53-.526-.8 0-.47.7-1.17 1.5-1.982l.467-.468.058-.06-.153-.037a3.27 3.27 0 0 0-.772-.128c-.9 0-1.477.172-1.83.556-.125-.183-.23-.6-.23-.86 0-.162.03-.276.096-.342.08-.077.203-.077.31-.077h.023c1 0 2.2.182 2.666.257l.027.007.018-.023c.08-.11 1.99-2.66 2.484-4.015a1.02 1.02 0 0 1 .411-.075c.377 0 .48.255.59.644-1.193 1.455-1.935 2.587-2.206 3.364zm-5.156-22.89c0-1.908 1.382-3.42 1.868-3.843l.35.08c-.517.633-1.43 1.696-1.43 3.103 0 2.79 2.972 5.216 6.335 5.216l-.033.75a10.19 10.19 0 0 0 .064 1.157c-3.804-.022-7.155-3.123-7.155-6.463zm25.518 5.88c1.707 2.7 3.043 2.665 5.06 2.665-1.67-1.285-2.774-2.93-3.3-3.77l-3.118-5.01a7.43 7.43 0 0 0-2.294-4.069c.4-.152.734-.313.935-.467-2.036 0-4.053-1.037-5.163-1.037-.714 0-1.173.43-1.173.995.046.63.692 1.272 1.887 1.272.272 0 .617-.035.998-.097.647.905 1.17 1.724 1.17 2.89 0 2.193-2.612 3.903-5.248 3.903-.15 0-.29-.005-.44-.017-.24-.543-1.033-1.456-1.033-2.495 0-1.74 1.132-3.164 1.132-4.89 0-1.072-.52-1.736-.722-2.013.324-.3.68-.672.76-.925-.187.08-.41.092-.736.092-1.263 0-2.293-.33-3.297-.33-.572 0-.727.177-.727.347 0 .06.01.125.025.157a3.38 3.38 0 0 0-.653-.184c-.296-.056-.615-.085-.955-.085-1.22 0-1.654.513-1.654.953 0 .373.292 1.053.623 1.57.476-.24 1.046-.403 1.308-.403.647 0 1.224.62 1.53 1.352-.435.053-.52.073-.96.073-1.187 0-1.996-.428-2.162-.428-.016 0-.048.01-.048.035 0 .168.335.61 1 .853.874.32 2.185.455 2.404.49 0 .04-.222.455-.47.535-.053.017-.093.02-.155.007-.914-.18-1.17-.26-2.328-.7-.036-.013-.056.01-.056.045 0 .46 1.186 1.477 2.25 1.865-.89 1.14-1.998 2.304-2.52 4.08l-.44.017c-2.635 0-5.248-1.71-5.248-3.903 0-1.167.524-1.985 1.17-2.89a6.42 6.42 0 0 0 .996.097c1.196 0 1.842-.64 1.9-1.272 0-.565-.46-.995-1.175-.995-1.1 0-3.127 1.037-5.164 1.037.202.153.535.315.935.467-1.192 1.075-1.99 2.523-2.294 4.07l-3.116 5.01c-.525.84-1.632 2.485-3.3 3.77 2.017 0 3.354.045 5.06-2.665l1.598-2.568c.12.333.265.657.436.976l-3.18 5.107c-.53.847-1.625 2.478-3.302 3.77 2.018 0 3.355.046 5.062-2.663l2.736-4.4.647.638-3.86 6.207c-.53.847-1.62 2.475-3.3 3.767 2.017 0 3.354.05 5.06-2.662l3.765-6.052.764.454-4.596 7.383c-.53.85-1.62 2.472-3.3 3.767 2.018 0 3.355.047 5.06-2.66l4.732-7.606.853.304-5.347 8.593c-.523.837-1.64 2.487-3.298 3.767 2.016 0 3.353.045 5.06-2.662l5.698-9.158.172.03c.155.496.263.956.263 1.417 0 2.877-1.88 5.42-4.136 7.38.144.065.395.085.628.085.466 0 .766-.024.978-.06-.523 1.193-1.646 2.734-2.214 3.532a16.43 16.43 0 0 0-2.519-.238c-.736 0-.82.433-.82.82 0 .672.313 1.206.678 1.504.136-.343.412-.803 1.773-.803.025 0 .073.004.137.01-.398.444-1.644 1.454-1.644 2.27 0 .54.59 1.346 1.366 1.346-.046-.173-.04-.333-.04-.453 0-.66.58-1.432 1.072-1.97-.015.16-.007.143-.007.33 0 1.56.14 2.275 1.125 2.275.484 0 .818-.267.933-.346-.64-.592-.673-1.056-.673-1.93l.006-.757c.002-.2-.001-.465-.034-.656.354-.048.495-.048.766-.048 0 0 1.4-.11 1.737.62.38-.35.932-.843.932-1.387 0-.36-.17-.768-.89-.768-.273 0-1.132.17-1.85.17.193-.43 1.052-1.693 1.796-2.61.114.354.29.74.68 1.053.053-.59.397-2.45 1.313-3.54.107.735.252 1.49.252 3.083 0 3.873-.928 6.733-2.897 7.28.257.446.798.85 1.36.85.72 0 1.11-.816 1.512-1.588.208.57.784 1.965 1.36 1.965s1.153-1.395 1.36-1.965c.4.772.792 1.588 1.513 1.588.56 0 1.104-.403 1.36-.85-1.968-.546-2.897-3.406-2.897-7.28 0-1.593.144-2.348.25-3.083.917 1.09 1.263 2.952 1.315 3.54.39-.313.568-.698.68-1.053.744.916 1.604 2.178 1.798 2.61-.72 0-1.58-.17-1.853-.17-.72 0-.89.407-.89.768 0 .544.55 1.038.932 1.387.335-.73 1.737-.62 1.737-.62a4.57 4.57 0 0 1 .767.048c-.032.192-.035.457-.033.656l.005.757c0 .874-.032 1.34-.672 1.93.115.08.448.346.93.346.985 0 1.127-.716 1.127-2.275 0-.187.006-.17-.007-.33.5.537 1.073 1.31 1.073 1.97 0 .12.006.28-.04.453.777 0 1.366-.808 1.366-1.346 0-.815-1.246-1.826-1.644-2.27l.137-.01c1.362 0 1.636.46 1.772.803.364-.298.677-.832.677-1.504 0-.386-.082-.82-.82-.82-.704 0-1.778.104-2.517.238-.568-.797-1.7-2.34-2.214-3.532.2.037.513.06.977.06.234 0 .485-.02.63-.085-2.257-1.96-4.14-4.504-4.14-7.38 0-.46.11-.92.263-1.417l.172-.03 5.698 9.158c1.706 2.707 3.045 2.662 5.06 2.662-1.66-1.28-2.776-2.93-3.297-3.767l-5.348-8.593.854-.304 4.73 7.606c1.706 2.708 3.043 2.66 5.06 2.66-1.68-1.295-2.77-2.917-3.3-3.767l-4.595-7.383.763-.454 3.765 6.052c1.708 2.71 3.043 2.662 5.06 2.662-1.677-1.292-2.767-2.92-3.3-3.767l-3.86-6.207.646-.638 2.738 4.4c1.706 2.71 3.043 2.663 5.06 2.663-1.68-1.293-2.77-2.923-3.302-3.77l-3.178-5.107c.17-.32.316-.643.435-.976l1.597 2.568"/></g><path d="M91.275 145.878h2.5v33.483H87.94v-33.483h3.335" fill="#f2cf04"/><path d="M91.275 112.232h2.5v33.646H87.94v-33.646h3.335" fill="#ed1c24"/><path d="M93.775 78.92v33.48H87.94V78.92h5.836m13.044-36.356v.243c0 1.133.714 1.492 1.395 1.492.84 0 1.487-.36 1.487-1.352 0-1.853-3.733-1.644-3.733-4.156 0-1.48 1.048-2.267 2.443-2.267 1.52 0 2.373.74 2.305 2.44H109.6c.01-.912-.276-1.515-1.278-1.515-.634 0-1.28.324-1.28 1.228 0 1.84 3.733 1.572 3.733 4.22 0 1.76-1.2 2.325-2.58 2.325-2.454.025-2.454-1.863-2.43-2.66h1.05m6.782-2.117h1.163c.438 0 1.474-.115 1.474-1.423 0-1.272-.945-1.4-1.175-1.4h-1.463zm-1.06 4.605v-8.353h2.467c1.117 0 2.316.416 2.316 2.383 0 1.9-1.475 2.292-2.328 2.292h-1.395v3.68h-1.06m10.383-3v-2.82c0-1.75-1.198-1.807-1.532-1.807s-1.534.057-1.534 1.807v2.82c0 1.828.532 2.3 1.534 2.3s1.532-.463 1.532-2.3zm-4.146-.045v-2.743c0-1.667.852-2.73 2.615-2.73s2.615 1.064 2.615 2.73v2.743c0 2.313-.854 3.227-2.615 3.227s-2.615-.913-2.615-3.227m12.836-5.3v8.353h-1.452l-3.286-7.243h-.022v7.243h-.944v-8.353h1.497l3.238 7.15h.024v-7.15h.946m2.74 5.867v.243c0 1.133.716 1.492 1.395 1.492.842 0 1.487-.36 1.487-1.352 0-1.853-3.734-1.644-3.734-4.156 0-1.48 1.05-2.267 2.443-2.267 1.52 0 2.372.74 2.303 2.44h-1.105c.013-.912-.277-1.515-1.28-1.515-.634 0-1.278.324-1.278 1.228 0 1.84 3.73 1.572 3.73 4.22 0 1.76-1.2 2.325-2.58 2.325-2.456.025-2.456-1.863-2.432-2.66h1.048m9.707-.52v-2.82c0-1.75-1.2-1.807-1.534-1.807s-1.534.057-1.534 1.807v2.82c0 1.828.53 2.3 1.534 2.3s1.534-.463 1.534-2.3zm-4.15-.045v-2.743c0-1.667.852-2.73 2.617-2.73s2.616 1.064 2.616 2.73v2.743c0 2.313-.856 3.227-2.616 3.227s-2.617-.913-2.617-3.227m8.113-1.713h1.6c.76 0 1.127-.66 1.127-1.388 0-.6-.3-1.273-1.115-1.273h-1.6zm0 .927v3.84h-1.06v-8.353h2.868c1.476 0 1.992 1.043 1.992 2.083 0 .984-.54 1.736-1.52 1.908v.024c.956.15 1.303.475 1.36 2.152.01.36.125 1.667.287 2.187h-1.105c-.3-.58-.23-1.665-.323-2.776-.083-1.02-.9-1.064-1.257-1.064h-1.243m5.372 3.838v-8.353h4.284v.925h-3.224v2.685h2.995v.925h-2.995v2.892h3.293v.925h-4.353m6.842-.924h1.003c1.475 0 2.016-.555 2.016-2.497v-1.7c0-1.7-.516-2.315-1.625-2.315h-1.393zm-1.06-7.428h2.557c1.064 0 1.823.383 2.233 1.273.34.707.373 2.372.373 2.637 0 1.783-.164 2.8-.508 3.367-.45.72-1.3 1.076-2.745 1.076h-1.9v-8.353m10.74 7.428h1.495c1.133 0 1.54-.8 1.54-1.423 0-1.33-.82-1.563-1.907-1.563h-1.128zm0-3.9h1.544c.83-.013 1.235-.52 1.235-1.332 0-.695-.396-1.26-1.284-1.26h-1.495zm-1.06 4.835v-8.353h2.707c1.153 0 1.544.395 1.856.855a2.25 2.25 0 0 1 .336 1.113c0 1.04-.36 1.736-1.43 1.977v.06c1.183.14 1.703.856 1.703 2 0 2.14-1.552 2.348-2.5 2.348h-2.672m10.6-8.353h1.07l-2.268 5.173v3.18h-1.06v-3.18l-2.236-5.173h1.2l1.62 4.04 1.685-4.04m9.332 0v.925H186.6v7.428h-1.057v-7.428h-2.187v-.925h5.437m1.15 8.353v-8.353h1.063v3.6h2.92v-3.6h1.06v8.353h-1.06v-3.817h-2.92v3.817h-1.063m6.974 0v-8.353h4.287v.925h-3.224v2.685h2.992v.925h-2.992v2.892h3.295v.925h-4.357" fill="#231f20"/><defs ><path id="B" d="M287.682 44.442v-7.036h.256c1.762 0 3 1.13 3 3.484 0 2.22-.982 3.552-2.906 3.552zm-1.063.97h1.265c3.23 0 4.117-2.395 4.117-4.493 0-3.067-1.71-4.48-4.36-4.48h-1.022z"/><path id="C" d="M293.477 45.41h3.942v-.942h-2.88v-2.946h2.798v-.942h-2.798V37.38h2.758v-.942h-3.82z"/><path id="D" d="M210.6 100.7h.9l.2-1.6h.8v1.6h1.5v.8h-1.5v3c0 .5.2.8.7.8.3 0 .6-.1.8-.2v.8c-.2.1-.5.3-.9.3-1 0-1.6-.6-1.6-1.7v-3h-.9z"/><path id="E" d="M447.277 37.34c1.413 0 2.14.7 2.14 2.22 0 1.763-1.023 2.355-2.1 2.355h-.283V37.34zm-1.306 8.036h1.063V42.86h.27c2.14 0 3.177-1.4 3.177-3.392 0-2.113-1.306-3.07-3.298-3.07h-1.21z"/></defs></svg>