<svg xmlns="http://www.w3.org/2000/svg" xmlns:xlink="http://www.w3.org/1999/xlink" viewBox="0 0 567.937 217.178" width="567.938" height="217.179" xmlns:v="https://vecta.io/nano"><path d="M286.392 47.578h3.942v-.942h-2.88V43.7h2.798v-.942h-2.798v-3.202h2.758v-.942h-3.82zm9.718 0h1.103v-8.973h-1.063V44l.013.794.027.794-.296-.726-.753-1.682-2.18-4.574h-1.103v8.973h1.063v-4.6l-.027-1.7-.027-.673.256.66.713 1.614zm1.968-8.005h1.843v8.005h1.063v-8.005h1.843v-.97h-4.75zm10.867 8.005h1.103l1.695-8.973h-1.103l-.686 3.888-.175 1.076-.148 1.036-.148 1.1-.16-1.063-.4-2.153-.807-3.875h-.996l-.767 3.875-.377 2.166-.148 1.05-.148-1.05-.363-2.153-.74-3.888h-1.103l1.776 8.973h1.036l.888-4.413.296-1.722.148-.915.135.9.3 1.7zm3.933 0h1.063v-8.973h-1.063zm7.184-1.615a1.48 1.48 0 0 1-.377.39 1.82 1.82 0 0 1-1.157.39c-1.857 0-2.045-2.408-2.045-3.767 0-2.516.834-3.538 1.964-3.538.484 0 .848.188 1.103.363a2.48 2.48 0 0 1 .4.363l.417-.874c-.12-.148-.283-.283-.457-.404-.3-.202-.794-.417-1.453-.417-1.682 0-3.04 1.36-3.04 4.534 0 2.435.713 4.7 3.12 4.7.66 0 1.144-.202 1.466-.417a1.75 1.75 0 0 0 .47-.417zm1.618 1.615h1.063V43.38l2.866 4.197h1.305l-3.04-4.332 2.852-4.64h-1.197l-2.785 4.574v-4.574h-1.063zm6.255 0h3.942v-.942h-2.88V43.7h2.798v-.942h-2.798v-3.202h2.758v-.942h-3.82zm5.465 0h3.807v-.97h-2.744v-8.005H333.4zm3.724-8.005h1.843v8.005h1.063v-8.005h1.843v-.97h-4.75zm9.956 8.005h1.1l2.462-8.973h-1.063l-1.17 4.345-.565 2.287-.202.97-.202-.955-.565-2.287-1.144-4.36h-1.1zm4.22-4.413c0 3.283 1.345 4.547 3.135 4.547 1.762 0 3.202-1.493 3.202-4.682 0-3.242-1.345-4.56-3.12-4.56-1.762 0-3.215 1.507-3.215 4.695zm1.076-.067c0-2.583.915-3.66 2.1-3.66s2.1 1.076 2.1 3.66c0 2.57-.915 3.646-2.1 3.646s-2.1-1.076-2.1-3.646zm10.974 4.48h1.103v-8.973H363.4V44l.014.794.027.794-.296-.726-.753-1.682-2.18-4.574h-1.103v8.973h1.063v-4.6l-.027-1.7-.027-.673.256.66.713 1.614z" fill="#211e1e"/><g fill-rule="evenodd"><path d="M388.124 80.915H286.247v71.57h101.878" fill="#4c4740"/><path d="M369.983 119.19l-8.077 5.103-8.43 4.34-15.84 6.647.82-5.223 15.722-16.38" fill="#99b085"/><path d="M286.232 116.006c.62.494 14.096-.246 16.06.86 2.248 1.266 4.136 2.17 6.307 3.475.005-.072 5.985 3.992 8.604 5.1.96.407 2.76 1.388 5.025 2.765 1.14.692 2.675 1.405 2.675 1.405l4.306 2.178c1.64.585 3.916 2.386 3.5 2.567 1.276.5 6.704 3.12 10.945 4.054 2.985.657 5.12-2.455 4.03-4.02-.763-1.094-3.73-1.753-5.54-2.696-1.597-.832-2.82-1.614-2.884-1.32 0 0-.62-.6.446-.09 4.162 1.993 9.373 3.89 13.8 5.476 3.13 1.123 6.48-3.628 5.07-4.63-1.583-1.122-11.588-5.817-12.782-7.08-.07-.075.155-.33.143-.353s2.495 1.49 4.615 2.66c3.037 1.68 7.892 3.518 8.098 3.63 2.94 1.574 9.918-1.163 7.4-4.51-.416-.55-2.533-1.39-3.1-1.676-1.138-.587-3.926-1.92-5.372-2.737-1.858-1.05-2.435-1.216-3.77-2.05-.407-.254-1.097-.726-1.36-.94-.44-.358.053-.44.036-.466 0 0 1.71 1.113 4.13 2.39 1.767.93 4 1.914 5.784 2.786.976.477 2.092.758 2.795 1.093 1.223.582.625.537 1.96.81 1.264.26 6.126-1.045 6.055-5.214-.01-.637-.868-1.488-1.06-1.597-1.286-.728-2.614-1.363-2.99-1.583-2.573-.582-11.21-11.627-11.21-11.627-.914-2.098-17.045-15.9-18.286-16.482-2.025-.95-8.272-3.546-10.483-3.584-1.762-.03-16.698 3.506-18.36 4.042 0 0-5.23 1.185-7.978.26-.353-.118-16.638-.77-16.603-.508.02.146.006 27.614.006 27.614zm29.115 10.823l.35.233-.13-.277s-.08.017-.22.043zm7.333 4.81c.087.096.885.403.957.49 0 0-.338.07-.304.1 0-.008-.208-.17-.208-.177.007-.133-.252-.342-.445-.405" fill="#b8db7d"/><path d="M344.857 86.186s-15.746 5.418-16.802 7.365l-3.1 6.302c-.347.718.186 1.208-.167 1.938l-2.608 5.024c-.268.46.124.908.32.98 7.064 2.626 10.924-2.67 12.78-5.75 0 0 8.01 3.483 11.952-.672 0 0-.53 1.273-.022 1.567 5.207 3.016 6.76 2.868 9.253 6.557l8.615 5.148c1.967 1.003 2.418.885 4.017 1.633.066.03 1.427.738 1.882.902.52.187 1.367-.478 2.04-.944.09-.062 14.983.156 15.106-.284.023-.082-.013-27.557-.018-27.557-2.616-.365-16.19 1.566-18.568-.001-1.802-1.187-10.844-2.76-18.72-3.72-2.47-.3-4.168.665-5.963 1.5" fill="#99b085"/><path d="M290.005 149.3v-7h7.83v1.01h-4.826v1.836h3.478v1.01h-3.478v3.14zm7.347 0l3.207-7h3.924l3.193 7h-3.087l-.603-1.515h-3.036l-.65 1.515zm3.975-2.508h2.29l-1.02-2.923h-.19zm8.074 2.508v-7h3.06v7zm9.054-5.988v2.034h1.187c.695 0 1.173-.074 1.445-.225s.405-.43.405-.836c0-.368-.143-.623-.423-.763s-.796-.2-1.532-.2zm0 3.045v2.943h-3.004v-7h4.407c1.656 0 2.848.16 3.59.48s1.104.834 1.104 1.545c0 .438-.147.793-.446 1.064-.294.27-.782.49-1.454.66l2.208 3.25h-3.1l-1.864-2.943zm11.51 1.912h1.522c.53 0 .925-.06 1.178-.178s.387-.306.387-.557v-3.37c0-.288-.193-.497-.58-.63s-.993-.202-1.822-.202h-.685zm-2.977 1.03v-7h4.27c1.656 0 2.88.157 3.676.47s1.192.798 1.192 1.452v3.126c0 .68-.377 1.176-1.132 1.487s-1.955.464-3.598.464zm11.874 0v-7h3.06v7zm9.054-5.988v2.034h1.187c.695 0 1.173-.074 1.445-.225s.405-.43.405-.836c0-.368-.142-.623-.423-.763s-.796-.2-1.532-.2zm0 3.045v2.943h-3.004v-7h4.407c1.656 0 2.848.16 3.59.48s1.104.834 1.104 1.545c0 .438-.147.793-.447 1.064s-.782.49-1.453.66l2.208 3.25h-3.1l-1.863-2.943zm8.534 2.943v-7h7.844v1.01h-4.84v1.836h3.487v1.01h-3.487v2.1h4.84v1.05zm9.8-1.796v-3.587c0-.552.42-.983 1.252-1.297s1.992-.47 3.47-.47c1.39 0 2.493.16 3.308.48s1.22.76 1.22 1.315v.672h-3.087v-.77c0-.24-.13-.423-.39-.543s-.65-.182-1.16-.182-.897.06-1.16.182-.39.302-.39.543v3.906c0 .243.13.424.39.548s.65.183 1.16.183.897-.06 1.16-.183.39-.306.39-.548v-.953h3.087v.732c0 .613-.4 1.086-1.205 1.418s-1.95.5-3.432.5c-1.518 0-2.67-.165-3.446-.494s-1.164-.813-1.164-1.452zm10.107-4.192v-1.01h9.247v1.01h-3.13v5.988h-3.004v-5.988" fill="#fff"/><path d="M329.253 130.64c0 1.078-.516 2.438-.516 3.798 1.315 1.313 3.098 1.923 5.258 1.923 3.192-3.236 5.962-7.315 4.084-12.145-1.643-4.408-7.793 5.486-8.826 6.424zm-2.817-15.334c-2.16.28-5.446 2.626-7.09 4.22-1.033 1.032-6.056 1.97-5.82 3.845-.798 4.55 4.788 5.862 6.854 4.033 1.972-1.688 5.587-5.064 8.45-6.05 1.455-.47 2.16-1.97 2.16-3.845-.516-2.44-1.878-2.954-4.554-2.204zm-6.01 14.396c1.268 2.814 5.633 4.314 6.666 2.86 1.22-1.22.423-.188 2.488-2.25 1.033-1.032 3.05-4.173 4.882-5.768 3.24-2.907.47-3.517-1.596-4.55-2.347-.47-14.084 6.284-12.44 9.707zm-2.394-9.19c3.85-4.36 1.127-5.533-1.972-5.768-3.145.47-6.9 1.97-9.2 4.267l-.422 2.063c1.737 2.72 1.55 5.3 6.948 2.485.094-.094 0-2.063 4.648-3.048" fill="#99b085"/></g><g transform="matrix(1.266202 0 0 1.266202 186.74079 33.542548)"><g fill="#1d1d1b"><path d="M195.4 98.4h2c1.6 0 2.9.8 2.9 2.4 0 1.7-1.4 2.4-3 2.4h-.8v2.9h-1.1zm1.1 3.9h.8c.7 0 1.9-.3 1.9-1.5s-1.2-1.5-1.8-1.5h-1v3zm4.7-.2c0-.5 0-.9-.1-1.4h1l.1 1.4h.1c.2-.7.8-1.5 1.6-1.5.3 0 .5.1.7.2v.9c-.2-.1-.4-.1-.6-.1-1 0-1.6 1-1.7 2.1v2.4h-1v-4zm6.3-1.5c1.8 0 2.6 1.6 2.6 2.8 0 1.4-.9 2.9-2.6 2.9s-2.7-1.4-2.7-2.9c0-1.2.8-2.8 2.7-2.8zm0 4.9c.8 0 1.6-.7 1.6-2.1s-.7-2.1-1.6-2.1c-.7 0-1.6.4-1.6 2.1-.1 1.1.4 2.1 1.6 2.1z"/><use xlink:href="#B"/><path d="M217.2 100.6c1.8 0 2.6 1.6 2.6 2.8 0 1.4-.9 2.9-2.6 2.9s-2.7-1.4-2.7-2.9c0-1.2.8-2.8 2.7-2.8zm0 4.9c.8 0 1.6-.7 1.6-2.1s-.7-2.1-1.6-2.1c-.7 0-1.6.4-1.6 2.1 0 1.1.5 2.1 1.6 2.1z"/><use xlink:href="#B" x="9.7"/><path d="M227 107.2c-.3.8-.9 1.1-1.5 1.1-.2 0-.5 0-.7-.1v-.9c.2.1.4.1.6.1.3 0 .6-.1.7-.4.1-.2.3-.7.3-.9.1-.2-.1-.4-.3-.4l-1.9-5h1.1l1.5 4.3h.1l1.3-4.3h1.1l-2.3 6.5zm3.9 1h-1v-7.4h.9v.8h.1c.4-.6.9-.9 1.6-.9 1.5 0 2.3 1.3 2.3 2.8 0 1.6-.8 2.8-2.2 2.8-1 0-1.4-.6-1.6-.9h-.1v.7zm1.3-6.8c-.7 0-1.3.8-1.4 1.3v1.3c0 .6.6 1.4 1.4 1.4 1 0 1.4-.9 1.4-2 .1-1.2-.4-2-1.4-2zm4 2.2c0 1.1.6 1.9 1.6 1.9.7 0 1.2-.4 1.3-1h1c-.1.9-.9 1.8-2.3 1.8-1.5 0-2.5-1.1-2.5-2.9 0-1.5.9-2.8 2.5-2.8 2 0 2.5 1.7 2.4 3zm2.8-.8c0-.5-.3-1.5-1.4-1.5-.7 0-1.3.5-1.4 1.5zm-43.6 5.7h4.3v.9h-3.2v2.6h3v.9h-3v3.4h-1.1zm9.8 2.3v4.5c0 .3 0 .6.1.9h-1v-.9h-.1c-.1.2-.7 1-1.7 1-.7 0-1.8-.4-1.8-2v-3.4h1v3.4c0 .7.3 1.2 1 1.2s1.4-.6 1.5-1.6v-3.1zm1 1c0-.3 0-.6-.1-.9h1v.9h.1c.1-.2.7-1 1.7-1 .6 0 1.8.3 1.8 2v3.5h-1v-3.5c0-.7-.3-1.2-.9-1.2-.7 0-1.4.7-1.6 1.6v3.1h-1zm9.1-3.3h1v7.7h-.9v-.8h-.1c-.4.6-.9.9-1.6.9-1.5 0-2.3-1.3-2.3-2.8 0-1.6.8-2.8 2.2-2.8 1 0 1.4.6 1.6.9h.1v-.7zm-1.4 7c.7 0 1.3-.8 1.3-1.3v-1.3c0-.6-.6-1.4-1.4-1.4-1 0-1.4.9-1.4 2 0 1.2.5 2 1.5 2z"/></g><path d="M225.5 37.6l6.6.8 7.8 15-7.8 12.6-12.3 3.2H212v20.3l6.3 2.2-.2 2.2-11.2-.2-11.2.2-.2-2.2 6.3-2.2V41.9l-6.3-2.2.2-2.2zM212 64.9l6.5 1.2 10-7 3.1-5.7-3.1-5.7-10-6.6-6.5.9z" fill="#099acf"/></g><g fill="#211e1e"><path d="M433.796 44.704c0 2.046.888 2.975 2.557 2.975s2.557-.97 2.557-3.002v-6.1h-1.077v5.855c0 1.238-.108 2.315-1.454 2.315-1.373 0-1.507-1.077-1.507-2.33v-5.842h-1.077zm11.076 2.84h1.104v-8.978h-1.063v5.397l.014.794.027.794-.296-.727-.754-1.682-2.18-4.576h-1.104v8.978h1.063V42.94l-.027-1.7-.027-.673.256.66.713 1.615z"/><use xlink:href="#C"/><path d="M452.475 47.544h3.944v-.942h-2.88v-2.948h2.8v-.942h-2.8v-3.203h2.76v-.942h-3.823z"/><use xlink:href="#D"/><path d="M465.526 47.68c1.48 0 2.167-.942 2.167-2.167 0-1.17-.754-1.925-1.494-2.665l-.458-.458c-.58-.58-1.077-1.13-1.077-1.87 0-.713.417-1.117 1.104-1.117.417 0 .727.162.942.3.12.094.215.188.3.296l.565-.794c-.12-.148-.27-.27-.444-.4-.3-.202-.767-.4-1.413-.4-1.13 0-2.14.686-2.14 2.154 0 1.1.62 1.8 1.265 2.436l.552.552c.713.713 1.198 1.17 1.198 1.965 0 .86-.417 1.198-1.104 1.198-.66 0-1.252-.43-1.467-.646l-.12-.12-.565.835c.148.175.336.3.552.43.363.23.915.444 1.63.444z"/><use xlink:href="#C" x="21.372"/><path d="M473.807 44.704c0 2.046.888 2.975 2.557 2.975s2.557-.97 2.557-3.002v-6.11h-1.077v5.855c0 1.238-.108 2.315-1.454 2.315-1.373 0-1.507-1.077-1.507-2.33v-5.842h-1.077zm2.948-7.107h1.13v-1.333h-1.13zm-1.925 0h1.13v-1.333h-1.13z"/><use xlink:href="#C" x="32.913"/><path d="M484.715 47.544h4.253l.215-.942h-2.975l3.298-8.036h-4.16l-.162.942h2.867z"/><use xlink:href="#C" x="43.192"/><path d="M499.28 46.575v-7.04h.256c1.763 0 3.002 1.13 3.002 3.486 0 2.22-.983 3.553-2.907 3.553zm-1.063.97h1.265c3.23 0 4.12-2.396 4.12-4.496 0-3.07-1.7-4.482-4.36-4.482h-1.023zm6.82-2.84c0 2.046.888 2.975 2.557 2.975s2.557-.97 2.557-3.002v-6.1h-1.077v5.855c0 1.238-.108 2.315-1.454 2.315-1.373 0-1.508-1.077-1.508-2.33v-5.842h-1.077z"/><use xlink:href="#D" x="53.92"/><path d="M522.177 45.93a1.48 1.48 0 0 1-.377.39c-.256.202-.633.4-1.158.4-1.857 0-2.046-2.4-2.046-3.77 0-2.517.835-3.54 1.965-3.54.485 0 .848.188 1.104.363a2.48 2.48 0 0 1 .4.363l.417-.875c-.12-.148-.283-.283-.458-.404a2.63 2.63 0 0 0-1.454-.417c-1.682 0-3.042 1.36-3.042 4.536 0 2.436.713 4.7 3.123 4.7.66 0 1.144-.202 1.467-.417a1.75 1.75 0 0 0 .47-.417zm5.817 1.614h1.063v-8.978h-1.063v3.782h-3.055v-3.782h-1.063v8.978h1.063v-4.226h3.055zM207.5 127.742c0-.687-.16-1.172-.484-1.464a1.65 1.65 0 0 0-1.14-.437c-.464 0-.865.146-1.187.438-.333.292-.5.776-.5 1.464s.167 1.177.5 1.464c.323.297.714.438 1.146.438.464 0 .854-.14 1.182-.437.323-.286.484-.776.484-1.464zm-2.12 6.26a3.82 3.82 0 0 1-.734-.062 2.19 2.19 0 0 0-.349.24c-.1.094-.214.208-.307.34s-.167.286-.23.464a2.06 2.06 0 0 0-.09.625c0 1.016.562 1.526 1.687 1.526.964 0 1.672-.193 2.14-.568.458-.375.693-.807.693-1.297 0-.458-.146-.786-.437-.98s-.677-.286-1.172-.286zm4.417-7.964h-1.193c.307.5.458 1.068.458 1.703 0 .505-.083.953-.245 1.36a2.93 2.93 0 0 1-.693 1.016c-.302.28-.65.5-1.052.635a3.77 3.77 0 0 1-1.297.224h-.26a1.54 1.54 0 0 1-.255-.026 1.92 1.92 0 0 0-.495.318.72.72 0 0 0-.26.573.62.62 0 0 0 .229.49c.15.12.4.188.745.188h1.203a5.22 5.22 0 0 1 1.25.141c.385.088.72.234 1.005.443a2.14 2.14 0 0 1 .661.781c.156.318.24.703.24 1.146 0 .516-.1.984-.328 1.4a3.28 3.28 0 0 1-.922 1.089c-.396.302-.88.542-1.448.714s-1.203.255-1.9.255c-1.016 0-1.792-.224-2.318-.66-.53-.443-.792-1.078-.792-1.9 0-.354.063-.667.187-.922s.27-.484.443-.672a2.61 2.61 0 0 1 .526-.458l.427-.266v-.042c-.4-.302-.615-.745-.615-1.328 0-.25.047-.47.15-.65a1.86 1.86 0 0 1 .333-.453 1.9 1.9 0 0 1 .38-.292 2.52 2.52 0 0 1 .281-.146v-.042c-.484-.224-.875-.578-1.177-1.057-.297-.484-.443-1.1-.443-1.854 0-.53.083-.995.255-1.396.172-.406.4-.74.693-1a2.9 2.9 0 0 1 1.02-.594 3.82 3.82 0 0 1 1.255-.203c.458 0 .875.083 1.27.24h2.896zm-10.818 8.26v-6.125c0-.802-.135-1.38-.406-1.73s-.682-.526-1.24-.526c-.474 0-.87.12-1.187.36a4.34 4.34 0 0 0-.755.693v7.328h-1.604v-9.5h1.47v1.073h.042c.036-.083.12-.198.255-.35s.302-.297.516-.437.458-.26.75-.365c.292-.1.625-.16.995-.16a3.45 3.45 0 0 1 1.146.188 2.15 2.15 0 0 1 .875.609c.234.276.422.635.552 1.078s.198 1 .198 1.635v6.24zm-7.646 0h-1.464v-1.068h-.047c-.036.078-.125.193-.255.344a2.22 2.22 0 0 1-.505.432c-.203.14-.453.266-.745.37a2.72 2.72 0 0 1-.969.161c-.422 0-.802-.062-1.14-.193a2.07 2.07 0 0 1-.859-.604c-.24-.276-.422-.635-.547-1.073s-.187-1-.187-1.635v-6.245h1.604v6.125c0 .792.13 1.354.385 1.688.26.34.66.505 1.198.505.464 0 .854-.1 1.172-.344s.568-.453.75-.682v-7.292h1.6zm-10.66 0v-6.125c0-.802-.135-1.38-.406-1.73s-.682-.526-1.24-.526c-.474 0-.87.12-1.187.36-.312.234-.568.47-.75.693v7.328h-1.604v-14.005l1.604-.182v5.65h.036c.057-.083.135-.187.25-.318s.266-.266.464-.396.443-.25.724-.35c.286-.1.62-.15 1-.15.833 0 1.495.276 1.98.813.5.547.734 1.443.734 2.698v6.24zm-7.547-7.667l-.187-.182a2.07 2.07 0 0 0-.328-.234 2.55 2.55 0 0 0-.48-.208 2.09 2.09 0 0 0-.63-.089 2.42 2.42 0 0 0-.958.188 1.96 1.96 0 0 0-.776.604c-.22.28-.4.635-.516 1.078-.125.448-.187.984-.187 1.62 0 .698.057 1.286.172 1.76s.266.854.464 1.14c.198.28.437.484.724.6a2.28 2.28 0 0 0 .937.188c.5 0 .865-.083 1.12-.255s.443-.312.547-.417l.65 1.115a2.71 2.71 0 0 1-.286.286 2.43 2.43 0 0 1-.484.323c-.198.103-.438.193-.724.266a3.69 3.69 0 0 1-.979.115 4.24 4.24 0 0 1-1.484-.26 2.98 2.98 0 0 1-1.214-.849c-.34-.4-.6-.9-.807-1.542s-.302-1.422-.302-2.36c0-.917.12-1.687.36-2.323.24-.63.547-1.146.932-1.536a3.56 3.56 0 0 1 1.276-.849 4.02 4.02 0 0 1 1.417-.27c.36 0 .672.037.943.104a3.02 3.02 0 0 1 .693.245 2.1 2.1 0 0 1 .474.318l.307.286zm-8.12.078c-.1-.115-.297-.28-.578-.484s-.64-.307-1.1-.307c-.422 0-.745.1-.974.297-.22.198-.333.438-.333.714 0 .354.104.65.307.88s.516.48.938.745l.594.36c.65.38 1.156.792 1.53 1.234.365.443.552 1.016.552 1.714 0 .75-.26 1.385-.786 1.9-.516.516-1.27.776-2.245.776-.38 0-.72-.042-1-.12-.292-.083-.542-.172-.76-.276a2.66 2.66 0 0 1-.547-.35l-.354-.35.77-1.266.286.276c.1.1.25.214.406.307.156.1.34.182.536.25s.427.094.688.094c.48 0 .844-.1 1.094-.312a.95.95 0 0 0 .375-.776c0-.22-.03-.417-.1-.583a1.29 1.29 0 0 0-.266-.443c-.115-.13-.266-.26-.437-.375l-.594-.396-.594-.38c-.594-.385-1.057-.78-1.396-1.208-.34-.422-.505-.964-.505-1.625a2.28 2.28 0 0 1 .208-.98c.135-.297.333-.552.583-.776s.542-.385.88-.516a3.21 3.21 0 0 1 1.078-.187 3.41 3.41 0 0 1 .953.115 2.38 2.38 0 0 1 .682.276 2.79 2.79 0 0 1 .48.34l.307.286zm-5.6-.516c-.042-.026-.125-.057-.255-.1-.135-.037-.312-.057-.536-.057-.5 0-.896.135-1.177.406s-.5.563-.604.88v6.974h-1.6v-9.5h1.47v1.292h.036a2.91 2.91 0 0 1 .26-.547 1.92 1.92 0 0 1 .396-.474 1.72 1.72 0 0 1 .563-.328c.22-.078.48-.12.786-.12.22 0 .406.02.547.057l.323.1zm-7.865 3.35c0-1.266-.188-2.187-.557-2.76s-.885-.865-1.542-.865-1.172.286-1.536.865c-.365.573-.547 1.495-.547 2.76s.188 2.182.557 2.734.885.828 1.547.828a1.73 1.73 0 0 0 1.531-.828c.365-.552.547-1.464.547-2.734zm-5.844 0c0-.87.1-1.625.307-2.26.203-.63.48-1.15.828-1.552.354-.406.755-.703 1.214-.9a3.67 3.67 0 0 1 1.453-.292c.53 0 1.016.1 1.47.292.448.188.84.484 1.167.9.328.4.594.922.78 1.552.193.635.286 1.4.286 2.26 0 .885-.094 1.646-.297 2.28s-.47 1.146-.818 1.552c-.354.4-.76.698-1.22.88a3.99 3.99 0 0 1-1.47.28c-.526 0-1.016-.1-1.464-.28s-.84-.48-1.172-.88c-.328-.406-.6-.917-.78-1.542s-.286-1.4-.286-2.292zm-7.927 4.755v-13.672h6.72l-.12 1.37h-4.875v5.052h4.5v1.37h-4.5v5.88zm-10.38-1.193c.25 0 .474-.026.672-.094a2.16 2.16 0 0 0 .516-.25 1.84 1.84 0 0 0 .37-.307c.1-.104.177-.198.224-.276v-5.865c-.14-.094-.312-.172-.505-.234-.187-.068-.432-.1-.72-.1-.37 0-.72.057-1.042.188-.323.125-.604.333-.844.62s-.422.667-.562 1.13-.208 1.03-.208 1.703c0 .66.057 1.214.167 1.656s.27.802.47 1.068.422.464.672.583.516.177.792.177zm-3.766-3.422c0-.964.125-1.77.38-2.417s.573-1.172.97-1.568.844-.677 1.35-.84c.5-.167 1-.25 1.505-.25a4.33 4.33 0 0 1 .792.068c.224.047.4.104.552.172v-4.557l1.6-.182v14.19h-1.47v-1h-.042c-.037.078-.1.188-.214.328a2.46 2.46 0 0 1-.438.417c-.187.135-.417.255-.693.354s-.604.15-.974.15a3.15 3.15 0 0 1-1.276-.27 2.82 2.82 0 0 1-1.057-.849c-.307-.4-.547-.896-.724-1.505-.177-.615-.27-1.36-.27-2.23zm-3.562 4.615v-6.125c0-.802-.135-1.38-.406-1.73s-.682-.526-1.24-.526c-.474 0-.87.12-1.187.36a4.34 4.34 0 0 0-.755.693v7.328h-1.604v-9.5h1.464v1.073h.042c.042-.083.125-.198.26-.35.13-.15.302-.297.5-.437.214-.135.464-.26.755-.365.292-.1.62-.16 1-.16a3.47 3.47 0 0 1 1.15.188 2.13 2.13 0 0 1 .87.609c.24.276.422.635.557 1.078.13.443.198 1 .198 1.635v6.24zm-7.65 0h-1.464v-1.068h-.042c-.036.078-.125.193-.255.344a2.47 2.47 0 0 1-.505.432 3.31 3.31 0 0 1-.745.37 2.74 2.74 0 0 1-.969.161c-.422 0-.802-.062-1.14-.193a2.07 2.07 0 0 1-.859-.604c-.24-.276-.422-.635-.547-1.073s-.187-1-.187-1.635v-6.245h1.604v6.125c0 .792.13 1.354.385 1.688.26.34.656.505 1.198.505.464 0 .854-.1 1.172-.344s.568-.453.75-.682v-7.292h1.604zm68.115-26.536c0-.687-.167-1.177-.5-1.464a1.63 1.63 0 0 0-1.135-.437 1.72 1.72 0 0 0-1.187.438c-.328.286-.5.776-.5 1.464s.172 1.177.5 1.47a1.7 1.7 0 0 0 1.146.432 1.7 1.7 0 0 0 1.177-.432c.323-.292.5-.78.5-1.47zm-2.12 6.26c-.276 0-.52-.02-.734-.057-.12.068-.234.14-.344.234a1.67 1.67 0 0 0-.312.34 1.83 1.83 0 0 0-.224.464c-.062.177-.1.4-.1.625 0 1.02.563 1.526 1.682 1.526.964 0 1.677-.187 2.14-.562s.693-.812.693-1.297c0-.464-.146-.792-.437-.984s-.677-.286-1.167-.286zm4.417-7.964h-1.187c.302.505.453 1.068.453 1.703 0 .505-.078.958-.245 1.36a2.93 2.93 0 0 1-.693 1.021 2.87 2.87 0 0 1-1.052.63c-.4.146-.84.22-1.297.22h-.26a1.51 1.51 0 0 1-.255-.021c-.156.068-.323.172-.5.318a.73.73 0 0 0-.25.578c0 .198.073.36.224.484s.4.188.745.188h1.208a5.61 5.61 0 0 1 1.25.135 2.85 2.85 0 0 1 .995.448 2.06 2.06 0 0 1 .667.781c.156.318.24.698.24 1.15 0 .516-.1.984-.328 1.406a3.23 3.23 0 0 1-.922 1.089c-.396.307-.88.542-1.448.714s-1.203.26-1.9.26c-1.016 0-1.792-.224-2.318-.667s-.792-1.078-.792-1.9a2.11 2.11 0 0 1 .187-.922 2.96 2.96 0 0 1 .448-.672 2.59 2.59 0 0 1 .521-.458l.427-.266v-.042c-.4-.302-.615-.745-.615-1.328 0-.25.052-.464.15-.65a1.73 1.73 0 0 1 .333-.453 2.06 2.06 0 0 1 .38-.292l.286-.146v-.042a2.65 2.65 0 0 1-1.177-1.057c-.297-.484-.448-1.1-.448-1.854 0-.526.1-.995.255-1.396a2.91 2.91 0 0 1 .693-1 2.84 2.84 0 0 1 1.026-.594c.385-.13.807-.198 1.255-.198a3.29 3.29 0 0 1 1.266.24h2.896zm-10.818 8.26v-6.12c0-.807-.135-1.385-.406-1.734s-.682-.526-1.234-.526c-.48 0-.875.12-1.188.36-.323.234-.573.47-.755.693v7.328h-1.604v-9.505h1.464v1.068h.042c.036-.078.125-.198.255-.35s.302-.297.516-.437c.208-.135.464-.26.755-.365s.62-.156 1-.156c.422 0 .802.063 1.15.188a2.01 2.01 0 0 1 .865.604c.245.276.427.635.557 1.078s.198 1 .198 1.635v6.24zm-7.646 0h-1.47v-1.068h-.036c-.042.078-.13.193-.26.344s-.302.297-.505.438a3.47 3.47 0 0 1-.745.365 2.7 2.7 0 0 1-.969.161c-.422 0-.797-.062-1.135-.193a2.03 2.03 0 0 1-.865-.599c-.24-.28-.417-.64-.542-1.083s-.187-.984-.187-1.63v-6.24h1.604v6.12c0 .792.125 1.354.385 1.693s.65.505 1.198.505c.464 0 .85-.115 1.167-.35s.573-.453.755-.682v-7.286h1.604zm-12.5-1.187c.25 0 .474-.036.672-.1a1.98 1.98 0 0 0 .516-.25 1.99 1.99 0 0 0 .365-.307 1.89 1.89 0 0 0 .23-.276v-5.865a2.47 2.47 0 0 0-.505-.24 2.36 2.36 0 0 0-.724-.094 2.84 2.84 0 0 0-1.036.188c-.328.125-.604.333-.844.625-.24.286-.427.667-.563 1.125-.14.464-.208 1.03-.208 1.703 0 .66.052 1.214.167 1.656s.266.797.464 1.068a1.86 1.86 0 0 0 .672.59 1.83 1.83 0 0 0 .797.177zm-3.766-3.427c0-.964.125-1.77.375-2.417s.578-1.172.974-1.568a3.32 3.32 0 0 1 1.344-.84c.505-.167 1.005-.25 1.505-.25a4.37 4.37 0 0 1 .797.068c.224.047.4.104.552.172v-4.557l1.604-.177v14.182h-1.464v-1h-.042c-.036.083-.1.188-.22.328-.104.14-.25.276-.432.417-.188.135-.417.255-.698.36a3.01 3.01 0 0 1-.969.146 3.13 3.13 0 0 1-1.276-.266c-.406-.182-.76-.464-1.062-.854s-.542-.9-.72-1.505-.27-1.36-.27-2.23zm-2.495 2.396c0 .396.057.677.167.833s.307.234.583.234a1.5 1.5 0 0 0 .37-.036c.1-.026.172-.052.224-.078l.14 1.188a3.4 3.4 0 0 1-.432.156c-.214.068-.5.104-.854.104-.542 0-.98-.167-1.307-.5-.333-.328-.495-.917-.495-1.76v-11.927l1.604-.177zm-4.833-9.6c-.333 0-.594-.104-.792-.318-.203-.208-.302-.5-.302-.833a1.13 1.13 0 0 1 .302-.812c.198-.208.458-.312.792-.312a1.02 1.02 0 0 1 .771.313c.198.214.297.484.297.813 0 .344-.1.625-.297.833-.198.214-.458.318-.77.318zm.792 11.807h-1.604v-9.505h1.604zm-5.568-3.823c0-.74-.24-1.323-.724-1.75s-1.172-.646-2.068-.646h-1.172v4.792h1.073c1.016 0 1.75-.198 2.208-.604.453-.4.682-1 .682-1.792zm-.26-6.302c0-.63-.224-1.15-.672-1.562s-1.156-.615-2.12-.615h-.9v4.72h.896c.922 0 1.62-.23 2.1-.677.474-.448.708-1.068.708-1.865zm1.745-.057c0 .474-.057.9-.177 1.25a3.1 3.1 0 0 1-.484.922 2.59 2.59 0 0 1-.714.62 3.32 3.32 0 0 1-.844.359v.042c.36.063.693.188 1 .375.313.182.583.417.813.693s.417.604.557.984a3.61 3.61 0 0 1 .208 1.234c0 .542-.094 1.036-.276 1.484-.188.453-.474.84-.865 1.167-.4.333-.88.6-1.474.776s-1.302.276-2.12.276h-2.797V100.65h2.635c.807 0 1.495.078 2.073.245s1.047.4 1.417.703a2.68 2.68 0 0 1 .802 1.1 4.08 4.08 0 0 1 .245 1.438zm-12.84 2.083c-.037-.03-.125-.062-.255-.104-.13-.036-.312-.057-.536-.057-.5 0-.896.135-1.177.406a2.35 2.35 0 0 0-.604.88v6.974h-1.604v-9.505h1.464v1.28h.042a3 3 0 0 1 .255-.542 2.04 2.04 0 0 1 .396-.474 1.75 1.75 0 0 1 .568-.328c.218-.078.48-.12.78-.12.224 0 .406.02.547.057l.323.1zm-7.526-4.14c0 .302-.094.547-.276.73a.92.92 0 0 1-.677.281c-.26 0-.484-.094-.672-.28-.182-.182-.276-.427-.276-.73s.094-.552.276-.734a.91.91 0 0 1 .672-.276c.266 0 .5.1.677.276s.276.427.276.734zm-3.052 0c0 .302-.094.547-.276.73a.92.92 0 0 1-.677.281c-.26 0-.484-.094-.672-.28-.182-.182-.276-.427-.276-.73s.094-.552.276-.734a.91.91 0 0 1 .672-.276c.266 0 .5.1.677.276s.276.427.276.734zm3.943 12.24h-1.464v-1.068h-.042c-.042.078-.125.193-.26.344-.13.15-.297.297-.505.438-.203.135-.448.26-.74.365a2.75 2.75 0 0 1-.974.161c-.422 0-.802-.062-1.135-.193a2.03 2.03 0 0 1-.865-.599c-.234-.28-.417-.64-.542-1.083s-.188-.984-.188-1.63v-6.24h1.604v6.12c0 .792.125 1.354.385 1.693.255.34.656.505 1.198.505.464 0 .854-.115 1.167-.35s.573-.453.755-.682v-7.286h1.604zm-8.24-8.203h-1.943v8.203h-1.604v-8.203h-1.15v-1.068l1.15-.22v-1.9c0-.516.073-.958.22-1.328.14-.37.333-.672.573-.9s.516-.4.833-.516a3.13 3.13 0 0 1 1-.156c.344 0 .63.047.87.14s.396.16.474.214l-.333 1.328a1.99 1.99 0 0 0-.34-.167 1.47 1.47 0 0 0-.536-.09c-.38 0-.672.12-.87.354-.198.24-.297.677-.297 1.307v1.708h2.14zm124.8-11.775v-6.12c0-.78-.115-1.34-.34-1.682s-.6-.516-1.1-.516a2.28 2.28 0 0 0-.708.099 2.62 2.62 0 0 0-.542.245 2.23 2.23 0 0 0-.417.328l-.297.318v7.328h-1.604v-9.5H231v1.073h.042a3.82 3.82 0 0 1 .297-.385 2.96 2.96 0 0 1 .495-.437 2.94 2.94 0 0 1 .693-.35c.266-.1.563-.135.896-.135 1.083 0 1.85.422 2.297 1.266.1-.13.22-.27.38-.427a2.84 2.84 0 0 1 .547-.41c.214-.125.453-.23.72-.307.26-.083.552-.12.87-.12 1.927 0 2.896 1.12 2.896 3.37v6.375h-1.6v-6.12c0-.78-.135-1.34-.4-1.682s-.687-.516-1.234-.516c-.448 0-.818.1-1.115.323-.302.22-.536.427-.703.625l.057.47c.016.167.02.34.02.526v6.375zm-7.448 0h-1.47v-1.068h-.042c-.036.078-.125.193-.255.344-.13.156-.302.302-.505.437a3.47 3.47 0 0 1-.745.37c-.292.104-.615.156-.97.156-.422 0-.802-.062-1.14-.187a2.09 2.09 0 0 1-.865-.604c-.234-.28-.417-.635-.542-1.078s-.188-1-.188-1.635V84.83h1.604v6.125c0 .792.13 1.36.385 1.693.26.34.656.505 1.198.505.464 0 .854-.115 1.172-.344s.568-.464.75-.687V84.83h1.6zm-9.906-11.807c-.333 0-.594-.104-.797-.318-.198-.208-.297-.484-.297-.828 0-.333.1-.604.297-.812.203-.214.464-.318.797-.318a1 1 0 0 1 .77.318c.198.208.297.48.297.813 0 .344-.1.62-.297.828-.198.214-.458.318-.77.318zm.792 11.807h-1.6v-9.5h1.6zm-3.193-8.1c-.036-.026-.125-.062-.255-.1s-.313-.062-.536-.062c-.5 0-.896.135-1.177.406a2.39 2.39 0 0 0-.604.88v6.974h-1.604v-9.5h1.464v1.292h.036c.073-.187.156-.37.26-.547a2.03 2.03 0 0 1 .396-.474 1.95 1.95 0 0 1 .568-.328c.22-.078.48-.12.78-.12.224 0 .406.02.547.063l.323.1zm-9.328-.34a1.6 1.6 0 0 0-1.365.714c-.35.474-.547 1.16-.6 2.057h3.47c.01-.062.026-.16.03-.286l.01-.406c0-.66-.135-1.172-.4-1.536s-.646-.542-1.146-.542zm3 2.14l-.042 1.057-.078.78h-4.854c.052 1.125.292 1.953.724 2.48s1.047.792 1.854.792c.276 0 .526-.03.75-.1.224-.062.417-.146.583-.234a2.71 2.71 0 0 0 .417-.28c.115-.1.198-.167.25-.22l.594 1.13-.297.292c-.13.12-.312.245-.536.375s-.5.234-.828.323-.724.14-1.172.14c-.594 0-1.13-.1-1.615-.297a3.08 3.08 0 0 1-1.229-.922c-.333-.417-.6-.943-.78-1.583-.187-.64-.276-1.4-.276-2.307 0-.85.094-1.578.286-2.193s.453-1.12.78-1.5c.333-.4.714-.693 1.15-.885a3.43 3.43 0 0 1 1.406-.286c.9 0 1.625.286 2.14.86s.77 1.438.77 2.6zm-7.786-1.9h-2.078v5.27c0 .672.083 1.13.255 1.375s.464.365.87.365c.24 0 .448-.03.615-.1.172-.062.297-.125.38-.177l.214 1.286c-.062.052-.224.135-.474.25s-.6.167-1 .167c-.818 0-1.432-.23-1.844-.682-.406-.458-.615-1.214-.615-2.266v-5.5h-1.146V85.07l1.146-.24.182-2.65h1.427v2.65h2.276zm-6.896.615c-.104-.12-.292-.28-.573-.5-.276-.203-.64-.307-1.1-.307-.422 0-.745.1-.974.302a.9.9 0 0 0-.333.708c0 .36.1.65.307.885s.516.474.938.74l.6.36c.646.38 1.15.797 1.52 1.24s.557 1 .557 1.714c0 .75-.26 1.385-.786 1.9-.52.516-1.266.77-2.245.77-.385 0-.72-.042-1-.12s-.547-.172-.76-.276c-.22-.104-.4-.22-.547-.344l-.36-.35.776-1.27.286.28a2.72 2.72 0 0 0 .406.307 2.31 2.31 0 0 0 .536.245c.193.068.427.1.693.1.474 0 .84-.104 1.1-.318a.97.97 0 0 0 .375-.771c0-.224-.026-.417-.1-.583s-.146-.318-.266-.448a2.71 2.71 0 0 0-.437-.375l-.594-.396-.594-.38c-.594-.38-1.062-.78-1.4-1.208-.333-.422-.5-.964-.5-1.62 0-.36.068-.687.203-.984a2.29 2.29 0 0 1 .589-.771 2.84 2.84 0 0 1 .88-.516c.34-.125.698-.187 1.078-.187s.688.036.953.1a3 3 0 0 1 .688.276 3.04 3.04 0 0 1 .469.339l.307.286zm-7.35-4.224c-.328 0-.594-.104-.792-.318-.198-.208-.297-.484-.297-.828 0-.333.1-.604.297-.812.198-.214.464-.318.792-.318.318 0 .573.104.776.318.198.208.292.48.292.813 0 .344-.094.62-.292.828-.203.214-.458.318-.776.318zm.797 11.807h-1.6v-9.5h1.6zm-5.6 0v-6.12c0-.807-.135-1.385-.406-1.734s-.682-.526-1.24-.526c-.474 0-.87.12-1.188.36a4.34 4.34 0 0 0-.755.693v7.328h-1.604v-9.5h1.47v1.073h.036c.042-.083.13-.193.255-.35a2.47 2.47 0 0 1 .521-.432 3.64 3.64 0 0 1 .75-.37 2.97 2.97 0 0 1 1-.156c.427 0 .807.063 1.15.188a2.07 2.07 0 0 1 .87.604c.24.276.427.635.557 1.078s.198 1 .198 1.635v6.24zM173.17 82.53c-.328 0-.594-.104-.792-.318-.198-.208-.297-.484-.297-.828 0-.333.1-.604.297-.812.198-.214.464-.318.792-.318.318 0 .578.104.776.318.198.208.297.48.297.813 0 .344-.1.62-.297.828-.198.214-.458.318-.776.318zm.797 11.807h-1.604v-9.5h1.604zm-10.6 0v-6.12c0-.78-.115-1.34-.34-1.682s-.6-.516-1.094-.516c-.26 0-.495.03-.698.1s-.4.146-.547.245a2.39 2.39 0 0 0-.417.328l-.297.318v7.328h-1.604v-9.5h1.464v1.073h.042a3 3 0 0 1 .297-.385c.137-.15.297-.297.495-.437s.427-.255.698-.35c.26-.1.557-.135.885-.135 1.083 0 1.85.422 2.302 1.266.1-.13.22-.27.375-.427a2.76 2.76 0 0 1 .557-.411 3.03 3.03 0 0 1 .708-.307c.266-.083.557-.12.875-.12 1.927 0 2.9 1.12 2.9 3.37v6.375h-1.604v-6.12c0-.78-.14-1.34-.417-1.682s-.687-.516-1.23-.516c-.448 0-.818.1-1.12.323-.297.22-.53.427-.703.625l.063.47.02.526v6.375zm-7.828-7.583c-.104-.12-.297-.28-.573-.5-.28-.203-.64-.307-1.094-.307-.417 0-.745.1-.97.302a.9.9 0 0 0-.333.708c0 .36.1.65.307.885s.516.474.938.74l.594.36c.65.38 1.156.797 1.526 1.24s.557 1 .557 1.714a2.57 2.57 0 0 1-.78 1.9c-.526.516-1.276.77-2.25.77-.385 0-.72-.042-1-.12a4.48 4.48 0 0 1-.766-.276 2.31 2.31 0 0 1-.542-.344l-.36-.35.77-1.27.292.28a2.72 2.72 0 0 0 .406.307c.156.1.333.182.53.245a2.18 2.18 0 0 0 .698.1c.474 0 .84-.104 1.083-.318a.96.96 0 0 0 .38-.771c0-.224-.03-.417-.1-.583a1.36 1.36 0 0 0-.271-.448 2.6 2.6 0 0 0-.432-.375l-.594-.396-.594-.38c-.6-.38-1.063-.78-1.396-1.208-.34-.422-.5-.964-.5-1.62a2.35 2.35 0 0 1 .208-.984 2.29 2.29 0 0 1 .589-.771c.25-.22.542-.4.88-.516s.698-.187 1.078-.187c.37 0 .687.036.953.1.26.073.5.167.682.276.193.115.35.224.474.34l.307.286zm-9.25-.854c-.568 0-1.026.24-1.37.714s-.542 1.16-.594 2.057h3.47c.016-.062.02-.16.026-.286s.01-.255.01-.406c0-.66-.13-1.172-.396-1.536-.26-.36-.646-.542-1.146-.542zm3 2.14l-.042 1.057-.078.78h-4.854c.052 1.125.297 1.953.724 2.48s1.047.792 1.854.792c.276 0 .526-.03.75-.1.224-.062.422-.146.583-.234.167-.094.307-.187.422-.28l.245-.22.594 1.13-.297.292c-.13.12-.313.245-.536.375a3.64 3.64 0 0 1-.833.323c-.328.094-.72.14-1.167.14-.594 0-1.135-.1-1.615-.297a3.06 3.06 0 0 1-1.23-.922c-.333-.417-.6-.943-.78-1.583-.187-.64-.276-1.4-.276-2.307 0-.85.094-1.578.286-2.193s.448-1.12.78-1.5c.328-.4.714-.693 1.15-.885s.9-.286 1.406-.286c.9 0 1.625.286 2.14.86.5.578.77 1.438.77 2.6zm-11.948 5.1c.25 0 .474-.03.672-.1a1.93 1.93 0 0 0 .521-.245 2.46 2.46 0 0 0 .365-.307c.1-.1.172-.198.224-.28v-5.86a2.28 2.28 0 0 0-.505-.24c-.187-.068-.432-.1-.72-.1-.37 0-.72.063-1.042.188s-.604.333-.844.62c-.234.297-.422.672-.562 1.135-.14.458-.208 1.026-.208 1.703 0 .656.057 1.208.167 1.65s.27.802.464 1.073c.203.27.427.464.677.583s.516.177.792.177zm-3.76-3.427c0-.964.12-1.77.375-2.417s.573-1.167.97-1.562a3.37 3.37 0 0 1 1.349-.844 4.75 4.75 0 0 1 1.505-.25 3.9 3.9 0 0 1 .792.073c.224.042.4.1.552.167v-4.557l1.6-.177V94.34h-1.47v-1h-.036a2.51 2.51 0 0 1-.219.328c-.1.14-.25.276-.437.417a2.69 2.69 0 0 1-.693.359 3.02 3.02 0 0 1-.974.146c-.448 0-.87-.1-1.276-.266a2.79 2.79 0 0 1-1.063-.854c-.302-.4-.542-.9-.72-1.505s-.266-1.354-.266-2.23zm-3.568 4.615v-6.12c0-.807-.135-1.385-.406-1.734s-.682-.526-1.24-.526c-.474 0-.87.12-1.187.36a4.34 4.34 0 0 0-.755.693v7.328h-1.604v-9.5h1.47v1.073h.037c.042-.083.125-.193.26-.35a2.31 2.31 0 0 1 .516-.432 3.64 3.64 0 0 1 .75-.37c.292-.104.62-.156 1-.156.427 0 .807.063 1.15.188a2.04 2.04 0 0 1 .87.604c.24.276.422.635.557 1.078s.198 1 .198 1.635v6.24zm-7.646 0h-1.47V93.27h-.037c-.042.078-.13.193-.26.344a2.23 2.23 0 0 1-.505.437 3.47 3.47 0 0 1-.745.37c-.286.104-.615.156-.97.156-.422 0-.802-.062-1.14-.187a2.04 2.04 0 0 1-.859-.604c-.24-.28-.422-.635-.547-1.078s-.187-1-.187-1.635V84.83h1.604v6.125c0 .792.13 1.36.385 1.693.26.34.656.505 1.198.505.464 0 .854-.115 1.172-.344a4.33 4.33 0 0 0 .755-.687V84.83h1.604zm-10.62-3.823c0-.74-.245-1.323-.724-1.75s-1.172-.646-2.073-.646h-1.167v4.797h1.068c1.02 0 1.755-.203 2.208-.604.458-.406.688-1.005.688-1.797zm-.26-6.302c0-.63-.224-1.15-.672-1.562-.448-.406-1.156-.615-2.12-.615h-.9v4.72h.9c.927 0 1.625-.224 2.1-.677.48-.448.714-1.068.714-1.865zm1.745-.057c0 .474-.057.9-.177 1.25s-.28.66-.484.922c-.208.255-.443.464-.714.625a3.5 3.5 0 0 1-.844.354v.036c.354.068.688.193 1 .38a3.15 3.15 0 0 1 .813.693 3.22 3.22 0 0 1 .552.98 3.54 3.54 0 0 1 .208 1.24 3.83 3.83 0 0 1-.276 1.484 2.96 2.96 0 0 1-.86 1.172c-.4.328-.88.6-1.48.77-.594.188-1.302.276-2.12.276h-2.792V80.674h2.635c.807 0 1.495.083 2.073.245s1.042.4 1.4.703.64.672.802 1.1.25.9.25 1.438"/></g><path d="M91.198 147.617h2.5v33.297H87.87v-33.297h3.328" fill="#f0cf02"/><path d="M91.198 114.158h2.5v33.458H87.87v-33.458h3.328" fill="#eb1923"/><path d="M62.354 93.242a10.28 10.28 0 0 0 .068-1.151l-.02-.745c3.318-.047 6.23-2.437 6.23-5.187 0-1.4-.917-2.453-1.427-3.083l.35-.083c.484.422 1.865 1.927 1.865 3.823 0 3.297-3.297 6.36-7.062 6.427zM59 81.757a2.27 2.27 0 0 0-.417-.99c.01-.333.15-.656.693-.4-.297.297-.068.828-.068.828s.6-.276.474-.672c.9.214.25 1.406-.682 1.224zm-.77 1.693c-.12-.495-.37-1-.693-1.38-.297-.344-.78-.755-1.427-.755-.302 0-.802.135-1.12.27-.12-.214-.35-.74-.35-.974 0-.24.406-.484 1.188-.484 1.72 0 2.745.776 2.745 2.078 0 .458-.182.875-.344 1.245zm4.4 22.14c.198 0 .297.03.4.078.495 1.344 2.4 3.88 2.48 4l.02.02.026-.005c.47-.073 1.66-.255 2.66-.255h.026c.104 0 .23 0 .307.078.062.068.094.177.094.34 0 .25-.104.677-.23.854-.35-.38-.917-.552-1.828-.552-.27 0-.594.083-.77.13l-.068.016-.083.02.526.526c.807.807 1.505 1.505 1.505 1.97 0 .28-.27.64-.52.807-.057-.854-.917-2-1.75-2.625l-.073-.057-.016.297-.03.84c0 1.62-.16 1.865-.724 1.865a1.03 1.03 0 0 1-.302-.057c.318-.4.443-.906.443-1.812l-.005-.417-.005-.333c0-.375.042-.646.068-.87l.02-.125-.1-.01-1.125-.104c-.802 0-1.344.073-1.74.443-.255-.208-.52-.568-.52-.797 0-.34.208-.365.484-.365.14 0 .27.02.448.042.344.052.865.125 1.932.125h.062l-.016-.062c-.276-.776-1.016-1.9-2.208-3.35.1-.385.214-.64.6-.64zm-10.28 4l-.02.063h.068c1.068 0 1.583-.073 1.927-.125l.453-.042c.276 0 .484.026.484.365 0 .23-.266.6-.526.797-.4-.37-.938-.443-1.734-.443-.375 0-.865.068-1.125.104l-.042.005-.047.005.016.125a5.83 5.83 0 0 1 .068.87l-.005.333v.417c0 .906.12 1.422.438 1.813a.97.97 0 0 1-.297.057c-.562 0-.73-.245-.73-1.865l-.026-.84-.016-.297-.073.057c-.833.635-1.698 1.77-1.75 2.625-.25-.167-.52-.526-.52-.807 0-.464.698-1.16 1.505-1.97l.526-.526-.156-.036c-.172-.047-.495-.13-.77-.13-.906 0-1.474.172-1.823.552-.125-.177-.234-.604-.234-.854 0-.16.036-.27.1-.34.078-.078.203-.078.307-.078h.026c1 0 2.193.182 2.66.255l.026.005.016-.02c.083-.1 2-2.646 2.484-4 .115-.047.214-.078.4-.078.375 0 .48.255.6.64-1.193 1.448-1.937 2.573-2.208 3.35zm-5.146-22.766c0-1.896 1.38-3.4 1.865-3.823l.35.083c-.516.63-1.427 1.682-1.427 3.083 0 2.776 2.97 5.188 6.328 5.188l-.03.745a9.97 9.97 0 0 0 .062 1.151c-3.802-.02-7.146-3.104-7.146-6.427zm25.484 5.85c1.703 2.693 3.036 2.65 5.052 2.65-1.667-1.276-2.77-2.917-3.297-3.75l-3.1-4.984c-.307-1.536-1.104-2.974-2.297-4.042.4-.156.734-.312.938-.464-2.03 0-4.047-1.03-5.156-1.03-.714 0-1.172.422-1.172.984.047.63.693 1.27 1.885 1.27a6.29 6.29 0 0 0 .995-.1c.646.896 1.167 1.714 1.167 2.875 0 2.177-2.604 3.88-5.24 3.88a4.12 4.12 0 0 1-.437-.021c-.24-.536-1.03-1.448-1.03-2.48 0-1.73 1.13-3.146 1.13-4.865 0-1.068-.52-1.724-.724-2 .328-.302.677-.672.766-.922-.193.083-.4.094-.74.094-1.26 0-2.292-.328-3.292-.328-.573 0-.73.172-.73.344 0 .063.01.125.03.156a3.06 3.06 0 0 0-.656-.182 4.98 4.98 0 0 0-.953-.089c-1.22 0-1.65.5-1.65.948 0 .375.292 1.047.62 1.563.48-.24 1.047-.4 1.313-.4.64 0 1.22.615 1.526 1.35-.437.052-.52.073-.964.073-1.182 0-2-.427-2.156-.427-.016 0-.047.005-.047.036 0 .167.333.604.995.85.875.318 2.188.448 2.406.484 0 .036-.224.453-.474.53a.22.22 0 0 1-.15.005c-.917-.182-1.167-.255-2.328-.693-.03-.016-.052.005-.052.042 0 .458 1.182 1.47 2.245 1.854-.885 1.135-1.995 2.292-2.516 4.057-.15.016-.292.02-.443.02-2.63 0-5.24-1.703-5.24-3.88 0-1.16.52-1.98 1.172-2.875a6.4 6.4 0 0 0 1 .1c1.198 0 1.844-.64 1.9-1.27 0-.562-.458-.984-1.172-.984-1.1 0-3.125 1.03-5.156 1.03.198.15.53.307.932.464-1.193 1.068-1.984 2.505-2.292 4.042l-3.1 4.984c-.526.833-1.63 2.474-3.297 3.75 2 0 3.35.042 5.052-2.65l1.6-2.557a6.46 6.46 0 0 0 .432.974l-3.177 5.078c-.526.844-1.62 2.464-3.292 3.75 2 0 3.35.047 5.052-2.646l2.734-4.375.646.63-3.86 6.177c-.526.844-1.615 2.458-3.297 3.745 2.016 0 3.354.047 5.057-2.646l3.76-6.02.76.453-4.6 7.344c-.53.844-1.62 2.458-3.292 3.745 2 0 3.35.047 5.052-2.646l4.724-7.568.85.307-5.34 8.542c-.52.833-1.63 2.474-3.292 3.745 2.016 0 3.35.047 5.052-2.646l5.693-9.104c.057.005.115.016.172.026.156.495.26.953.26 1.4 0 2.865-1.875 5.4-4.13 7.344.14.063.396.083.63.083.464 0 .766-.026.974-.062-.526 1.182-1.646 2.72-2.214 3.5a16.75 16.75 0 0 0-2.5-.234c-.734 0-.823.432-.823.813 0 .672.313 1.203.677 1.5.14-.344.4-.802 1.77-.802.026 0 .073.005.135.01-.396.443-1.64 1.448-1.64 2.255 0 .536.6 1.34 1.365 1.34-.047-.172-.042-.328-.042-.448 0-.656.583-1.427 1.073-1.958-.016.156-.005.14-.005.328 0 1.547.14 2.26 1.125 2.26.48 0 .813-.26.927-.344-.64-.6-.672-1.052-.672-1.922l.005-.75a3.98 3.98 0 0 0-.03-.65c.354-.052.495-.052.766-.052 0 0 1.396-.1 1.734.615.38-.344.932-.833.932-1.375 0-.36-.172-.766-.9-.766-.276 0-1.13.167-1.85.167.193-.427 1.052-1.682 1.797-2.594.1.354.286.734.677 1.047.052-.583.396-2.437 1.312-3.52.104.734.25 1.484.25 3.068 0 3.85-.927 6.693-2.9 7.24.255.443.797.844 1.36.844.714 0 1.1-.812 1.505-1.578.208.563.786 1.953 1.36 1.953s1.15-1.4 1.36-1.953c.4.766.792 1.578 1.5 1.578.563 0 1.104-.4 1.36-.844-1.964-.547-2.896-3.4-2.896-7.24 0-1.583.146-2.333.25-3.068.922 1.083 1.266 2.938 1.318 3.52.4-.312.563-.693.677-1.047.745.9 1.6 2.167 1.797 2.594-.72 0-1.578-.167-1.85-.167-.72 0-.9.406-.9.766 0 .542.552 1.03.932 1.375.333-.724 1.734-.615 1.734-.615a4.24 4.24 0 0 1 .766.052c-.03.188-.036.453-.03.65v.75c0 .87-.03 1.333-.672 1.922.12.083.453.344.932.344.984 0 1.125-.714 1.125-2.26l-.005-.328c.5.53 1.068 1.302 1.068 1.958 0 .12.01.276-.042.448.78 0 1.37-.802 1.37-1.34 0-.807-1.245-1.812-1.646-2.255l.135-.01c1.36 0 1.635.458 1.77.802.365-.297.677-.828.677-1.5 0-.38-.083-.812-.818-.812a16.91 16.91 0 0 0-2.516.234c-.568-.792-1.687-2.328-2.208-3.5.208.036.5.063.974.063.234 0 .484-.02.63-.083-2.255-1.953-4.135-4.48-4.135-7.344 0-.458.1-.917.266-1.4l.172-.026 5.693 9.104c1.703 2.693 3.036 2.646 5.052 2.646-1.66-1.27-2.776-2.9-3.292-3.745l-5.344-8.542.854-.307 4.724 7.568c1.703 2.693 3.036 2.646 5.052 2.646-1.677-1.286-2.766-2.9-3.292-3.745l-4.6-7.344.76-.453 3.76 6.02c1.703 2.693 3.036 2.646 5.052 2.646-1.677-1.286-2.766-2.9-3.297-3.745l-3.854-6.177c.23-.198.443-.417.646-.63l2.734 4.375c1.703 2.693 3.036 2.646 5.052 2.646-1.672-1.286-2.766-2.906-3.297-3.75l-3.172-5.078a6.9 6.9 0 0 0 .432-.974l1.6 2.557m20.997-11.647v33.292H87.87V81.028h5.828m16.218-39.548c0-1-.406-1.53-1.495-1.53-.34 0-1.547.063-1.547 1.823v2.85c0 1.844.53 2.307 1.547 2.307.77 0 1.286-.208 1.505-.375V44.04h-1.552v-.94H111v4.1c-.687.375-1.5.625-2.578.625-1.78 0-2.646-.917-2.646-3.25V41.8c0-1.682.865-2.755 2.646-2.755 1.823 0 2.687.667 2.615 2.427h-1.12m3.083 6.17V39.23h4.34v.932h-3.266v2.708h3.03v.932h-3.03v2.917h3.333v.932H113m5.76.002V39.23h4.177v.932h-3.104v2.708h2.943v.932h-2.943v3.85h-1.073m9.464-9.416h-1.1v-1.208h1.1zm-.036 6.385v-2.85c0-1.76-1.214-1.823-1.552-1.823s-1.552.063-1.552 1.823v2.85c0 1.844.536 2.307 1.552 2.307s1.552-.464 1.552-2.307zm-2.02-6.385h-1.094v-1.208h1.094zm-2.182 6.34V41.8c0-1.682.865-2.755 2.65-2.755s2.646 1.073 2.646 2.755v2.766c0 2.333-.86 3.25-2.646 3.25s-2.65-.917-2.65-3.25m8.212-1.73h1.615c.766 0 1.14-.667 1.14-1.4 0-.604-.302-1.28-1.13-1.28h-1.625zm0 .932v3.875h-1.073V39.23h2.906c1.495 0 2.02 1.047 2.02 2.1 0 1-.552 1.75-1.542 1.927v.02c.97.15 1.318.48 1.375 2.167.01.365.13 1.682.292 2.208h-1.12c-.302-.583-.234-1.677-.323-2.802-.083-1.026-.9-1.073-1.276-1.073h-1.26m6.537 2.943h1.016c1.5 0 2.042-.562 2.042-2.52v-1.703c0-1.703-.526-2.333-1.646-2.333h-1.4zm-1.073-7.5h2.6c1.073 0 1.844.385 2.266 1.28.34.714.37 2.4.37 2.66 0 1.797-.16 2.833-.5 3.396-.458.72-1.307 1.083-2.776 1.083h-1.937v-8.41m7.09 8.423V39.23h4.34v.932h-3.266v2.708h3.03v.932h-3.03v2.917h3.34v.932h-4.4m6.88-4.805h1.604c.77 0 1.146-.667 1.146-1.4 0-.604-.302-1.28-1.135-1.28h-1.615zm0 .932v3.875h-1.078V39.23h2.906c1.495 0 2.016 1.047 2.016 2.1 0 1-.547 1.75-1.536 1.927v.02c.964.15 1.318.48 1.375 2.167.01.365.13 1.682.292 2.208h-1.12c-.302-.583-.234-1.677-.328-2.802-.078-1.026-.9-1.073-1.27-1.073h-1.255m10.155-4.547v.932h-2.214v7.5h-1.073v-7.5h-2.22v-.932h5.505m6.632 8.423h-1.286l-2.437-8.422h1.167l1.927 7.406h.02l1.97-7.406h1.1l-2.458 8.422m7.716-3.03v-2.85c0-1.76-1.208-1.823-1.547-1.823s-1.552.063-1.552 1.823v2.85c0 1.844.536 2.307 1.552 2.307 1 0 1.547-.464 1.547-2.307zm-4.198-.047V41.8c0-1.682.865-2.755 2.65-2.755s2.646 1.073 2.646 2.755v2.766c0 2.333-.865 3.25-2.646 3.25-1.786 0-2.65-.917-2.65-3.25m8.177 3.077h-1V39.23h1.734l2.125 7.068h.026l2.146-7.068h1.77v8.422h-1.073v-7.5h-.026l-2.354 7.5h-1.016l-2.307-7.5h-.026v7.5" fill="#211e1e"/><defs ><path id="B" d="M210.6 100.7h.9l.2-1.6h.8v1.6h1.5v.8h-1.5v3c0 .5.2.8.7.8.3 0 .6-.1.8-.2v.8c-.2.1-.5.3-.9.3-1 0-1.6-.6-1.6-1.7v-3h-.9z"/><path id="C" d="M446.842 39.535h1.844v8.01h1.063v-8.01h1.844v-.97h-4.75z"/><path id="D" d="M459.18 39.508c1.413 0 2.073.633 2.073 2.046 0 1.71-.888 2.234-2.032 2.234h-.23v-4.28zm1.844 8.036h1.292l-1.777-3.082c1.198-.363 1.763-1.413 1.763-3.028 0-2.02-1.238-2.867-3.082-2.867h-1.28v8.978h1.05V44.7l.444-.027z"/></defs></svg>