<?xml version="1.0" encoding="UTF-8" standalone="no"?>
<svg
   xmlns:dc="http://purl.org/dc/elements/1.1/"
   xmlns:cc="http://creativecommons.org/ns#"
   xmlns:rdf="http://www.w3.org/1999/02/22-rdf-syntax-ns#"
   xmlns:svg="http://www.w3.org/2000/svg"
   xmlns="http://www.w3.org/2000/svg"
   xmlns:sodipodi="http://sodipodi.sourceforge.net/DTD/sodipodi-0.dtd"
   xmlns:inkscape="http://www.inkscape.org/namespaces/inkscape"
   class="barcode-canvas"
   version="1.1"
   style="shape-rendering:crispEdges"
   id="svg1162"
   sodipodi:docname="Barcode.EAN13.1000110007387.svg"
   width="210mm"
   height="297mm"
   inkscape:version="0.92.4 (5da689c313, 2019-01-14)">
  <metadata
     id="metadata1168">
    <rdf:RDF>
      <cc:Work
         rdf:about="">
        <dc:format>image/svg+xml</dc:format>
        <dc:type
           rdf:resource="http://purl.org/dc/dcmitype/StillImage" />
        <dc:title></dc:title>
      </cc:Work>
    </rdf:RDF>
  </metadata>
  <defs
     id="defs1166" />
  <sodipodi:namedview
     pagecolor="#ffffff"
     bordercolor="#666666"
     borderopacity="1"
     objecttolerance="10"
     gridtolerance="10"
     guidetolerance="10"
     inkscape:pageopacity="0"
     inkscape:pageshadow="2"
     inkscape:window-width="1280"
     inkscape:window-height="1000"
     id="namedview1164"
     showgrid="false"
     units="mm"
     inkscape:zoom="0.33"
     inkscape:cx="174.9053"
     inkscape:cy="50"
     inkscape:window-x="0"
     inkscape:window-y="0"
     inkscape:window-maximized="1"
     inkscape:current-layer="svg1162" />
  <g
     id="g1160"
     style="text-rendering:geometricPrecision"
     transform="matrix(1.6828852,0,0,1.6828852,35.393939,290.15608)">
    <rect
       x="0"
       y="0"
       width="426"
       height="304"
       id="rect1086"
       style="fill:#ffffff" />
    <rect
       x="40"
       y="7"
       width="4"
       height="259"
       id="rect1088"
       style="fill:#000000" />
    <rect
       x="48"
       y="7"
       width="4"
       height="259"
       id="rect1090"
       style="fill:#000000" />
    <rect
       x="64"
       y="7"
       width="8"
       height="259"
       id="rect1092"
       style="fill:#000000" />
    <rect
       x="76"
       y="7"
       width="4"
       height="259"
       id="rect1094"
       style="fill:#000000" />
    <rect
       x="92"
       y="7"
       width="8"
       height="259"
       id="rect1096"
       style="fill:#000000" />
    <rect
       x="104"
       y="7"
       width="4"
       height="259"
       id="rect1098"
       style="fill:#000000" />
    <rect
       x="112"
       y="7"
       width="4"
       height="259"
       id="rect1100"
       style="fill:#000000" />
    <rect
       x="124"
       y="7"
       width="12"
       height="259"
       id="rect1102"
       style="fill:#000000" />
    <rect
       x="144"
       y="7"
       width="8"
       height="259"
       id="rect1104"
       style="fill:#000000" />
    <rect
       x="160"
       y="7"
       width="4"
       height="259"
       id="rect1106"
       style="fill:#000000" />
    <rect
       x="168"
       y="7"
       width="8"
       height="259"
       id="rect1108"
       style="fill:#000000" />
    <rect
       x="184"
       y="7"
       width="8"
       height="259"
       id="rect1110"
       style="fill:#000000" />
    <rect
       x="196"
       y="7"
       width="4"
       height="259"
       id="rect1112"
       style="fill:#000000" />
    <rect
       x="208"
       y="7"
       width="12"
       height="259"
       id="rect1114"
       style="fill:#000000" />
    <rect
       x="224"
       y="7"
       width="4"
       height="259"
       id="rect1116"
       style="fill:#000000" />
    <rect
       x="232"
       y="7"
       width="4"
       height="259"
       id="rect1118"
       style="fill:#000000" />
    <rect
       x="240"
       y="7"
       width="12"
       height="259"
       id="rect1120"
       style="fill:#000000" />
    <rect
       x="260"
       y="7"
       width="4"
       height="259"
       id="rect1122"
       style="fill:#000000" />
    <rect
       x="268"
       y="7"
       width="12"
       height="259"
       id="rect1124"
       style="fill:#000000" />
    <rect
       x="288"
       y="7"
       width="4"
       height="259"
       id="rect1126"
       style="fill:#000000" />
    <rect
       x="296"
       y="7"
       width="4"
       height="259"
       id="rect1128"
       style="fill:#000000" />
    <rect
       x="312"
       y="7"
       width="4"
       height="259"
       id="rect1130"
       style="fill:#000000" />
    <rect
       x="324"
       y="7"
       width="4"
       height="259"
       id="rect1132"
       style="fill:#000000" />
    <rect
       x="344"
       y="7"
       width="4"
       height="259"
       id="rect1134"
       style="fill:#000000" />
    <rect
       x="352"
       y="7"
       width="4"
       height="259"
       id="rect1136"
       style="fill:#000000" />
    <rect
       x="364"
       y="7"
       width="4"
       height="259"
       id="rect1138"
       style="fill:#000000" />
    <rect
       x="380"
       y="7"
       width="4"
       height="259"
       id="rect1140"
       style="fill:#000000" />
    <rect
       x="396"
       y="7"
       width="4"
       height="259"
       id="rect1142"
       style="fill:#000000" />
    <rect
       x="408"
       y="7"
       width="4"
       height="259"
       id="rect1144"
       style="fill:#000000" />
    <rect
       x="416"
       y="7"
       width="4"
       height="259"
       id="rect1146"
       style="fill:#000000" />
    <rect
       x="7"
       y="253"
       width="33"
       height="45"
       id="rect1148"
       style="fill:#ffffff" />
    <path
       d="m 25.40625,285.58984 h -3.164063 v -20.16211 c -0.76172,0.72657 -1.760744,1.45313 -2.99707,2.17969 -1.23633,0.72656 -2.34668,1.27149 -3.331054,1.63477 v -3.0586 c 1.769529,-0.83203 3.316404,-1.83984 4.640624,-3.02343 1.324217,-1.1836 2.261717,-2.33204 2.8125,-3.44532 h 2.039063 z"
       id="path1150"
       inkscape:connector-curvature="0"
       style="fill:#000000;shape-rendering:geometricPrecision" />
    <rect
       x="53"
       y="253"
       width="168"
       height="45"
       id="rect1152"
       style="fill:#ffffff" />
    <rect
       x="237"
       y="253"
       width="168"
       height="45"
       id="rect1154"
       style="fill:#ffffff" />
    <path
       d="m 76.488281,272.88086 c 0,-3.04688 0.313469,-5.49902 0.94043,-7.35645 0.626945,-1.85742 1.558586,-3.29004 2.794922,-4.29785 1.23632,-1.00781 2.791984,-1.51172 4.666992,-1.51172 1.382805,0 2.595695,0.27832 3.638672,0.83496 1.042961,0.55665 1.904289,1.35938 2.583984,2.40821 0.67968,1.04883 1.212883,2.32617 1.59961,3.83203 0.386718,1.50586 0.580078,3.53613 0.580078,6.09082 0,3.02344 -0.310555,5.46387 -0.931641,7.32129 -0.621101,1.85739 -1.549812,3.29297 -2.786133,4.30664 -1.236335,1.01364 -2.797859,1.52051 -4.68457,1.52051 -2.484383,0 -4.435555,-0.89066 -5.853516,-2.67188 -1.699218,-2.14453 -2.548828,-5.63672 -2.548828,-10.47656 z m 3.251953,0 c 0,4.23047 0.49511,7.0459 1.485352,8.44629 0.990227,1.40039 2.211906,2.10058 3.665039,2.10058 1.453117,0 2.674797,-0.70312 3.665039,-2.10937 0.990227,-1.40625 1.485352,-4.21875 1.485352,-8.4375 0,-4.24219 -0.495125,-7.06055 -1.485352,-8.45508 -0.990242,-1.39453 -2.223633,-2.0918 -3.700195,-2.0918 -1.453133,0 -2.613289,0.61524 -3.480469,1.84571 -1.089844,1.57031 -1.634766,4.4707 -1.634766,8.70117 z m 17.367188,0 c 0,-3.04688 0.313469,-5.49902 0.94043,-7.35645 0.626945,-1.85742 1.558586,-3.29004 2.794918,-4.29785 1.23632,-1.00781 2.79199,-1.51172 4.667,-1.51172 1.3828,0 2.59569,0.27832 3.63867,0.83496 1.04296,0.55665 1.90429,1.35938 2.58398,2.40821 0.67968,1.04883 1.21288,2.32617 1.59961,3.83203 0.38672,1.50586 0.58008,3.53613 0.58008,6.09082 0,3.02344 -0.31056,5.46387 -0.93164,7.32129 -0.6211,1.85739 -1.54981,3.29297 -2.78613,4.30664 -1.23634,1.01364 -2.79786,1.52051 -4.68457,1.52051 -2.48439,0 -4.43556,-0.89066 -5.85352,-2.67188 -1.699219,-2.14453 -2.548828,-5.63672 -2.548828,-10.47656 z m 3.251958,0 c 0,4.23047 0.4951,7.0459 1.48535,8.44629 0.99022,1.40039 2.2119,2.10058 3.66504,2.10058 1.45311,0 2.67479,-0.70312 3.66503,-2.10937 0.99023,-1.40625 1.48536,-4.21875 1.48536,-8.4375 0,-4.24219 -0.49513,-7.06055 -1.48536,-8.45508 -0.99024,-1.39453 -2.22363,-2.0918 -3.70019,-2.0918 -1.45313,0 -2.61329,0.61524 -3.48047,1.84571 -1.08984,1.57031 -1.63476,4.4707 -1.63476,8.70117 z m 17.36718,0 c 0,-3.04688 0.31347,-5.49902 0.94043,-7.35645 0.62695,-1.85742 1.55859,-3.29004 2.79492,-4.29785 1.23632,-1.00781 2.79199,-1.51172 4.667,-1.51172 1.3828,0 2.59568,0.27832 3.63867,0.83496 1.04295,0.55665 1.90428,1.35938 2.58398,2.40821 0.67967,1.04883 1.21288,2.32617 1.59961,3.83203 0.38672,1.50586 0.58008,3.53613 0.58008,6.09082 0,3.02344 -0.31056,5.46387 -0.93164,7.32129 -0.62111,1.85739 -1.54982,3.29297 -2.78613,4.30664 -1.23635,1.01364 -2.79787,1.52051 -4.68457,1.52051 -2.48439,0 -4.43556,-0.89066 -5.85352,-2.67188 -1.69922,-2.14453 -2.54883,-5.63672 -2.54883,-10.47656 z m 3.25196,0 c 0,4.23047 0.49511,7.0459 1.48535,8.44629 0.99022,1.40039 2.2119,2.10058 3.66504,2.10058 1.45311,0 2.67479,-0.70312 3.66504,-2.10937 0.99021,-1.40625 1.48535,-4.21875 1.48535,-8.4375 0,-4.24219 -0.49514,-7.06055 -1.48535,-8.45508 -0.99025,-1.39453 -2.22364,-2.0918 -3.7002,-2.0918 -1.45313,0 -2.61329,0.61524 -3.48047,1.84571 -1.08984,1.57031 -1.63476,4.4707 -1.63476,8.70117 z m 29.28515,12.70898 h -3.16406 v -20.16211 c -0.76173,0.72657 -1.76076,1.45313 -2.99707,2.17969 -1.23634,0.72656 -2.34668,1.27149 -3.33106,1.63477 v -3.0586 c 1.76952,-0.83203 3.3164,-1.83984 4.64063,-3.02343 1.3242,-1.1836 2.2617,-2.33204 2.8125,-3.44532 h 2.03906 z m 17.87695,0 h -3.16406 v -20.16211 c -0.76173,0.72657 -1.76075,1.45313 -2.99707,2.17969 -1.23634,0.72656 -2.34668,1.27149 -3.33105,1.63477 v -3.0586 c 1.76951,-0.83203 3.31639,-1.83984 4.64062,-3.02343 1.32421,-1.1836 2.26171,-2.33204 2.8125,-3.44532 h 2.03906 z m 8.70118,-12.70898 c 0,-3.04688 0.31346,-5.49902 0.94043,-7.35645 0.62693,-1.85742 1.55858,-3.29004 2.79492,-4.29785 1.23631,-1.00781 2.79198,-1.51172 4.66699,-1.51172 1.3828,0 2.59569,0.27832 3.63867,0.83496 1.04296,0.55665 1.90428,1.35938 2.58399,2.40821 0.67967,1.04883 1.21287,2.32617 1.59961,3.83203 0.38671,1.50586 0.58007,3.53613 0.58007,6.09082 0,3.02344 -0.31056,5.46387 -0.93164,7.32129 -0.62111,1.85739 -1.54982,3.29297 -2.78613,4.30664 -1.23634,1.01364 -2.79787,1.52051 -4.68457,1.52051 -2.48439,0 -4.43556,-0.89066 -5.85352,-2.67188 -1.69921,-2.14453 -2.54882,-5.63672 -2.54882,-10.47656 z m 3.25195,0 c 0,4.23047 0.4951,7.0459 1.48535,8.44629 0.99022,1.40039 2.2119,2.10058 3.66504,2.10058 1.45311,0 2.67479,-0.70312 3.66504,-2.10937 0.99022,-1.40625 1.48535,-4.21875 1.48535,-8.4375 0,-4.24219 -0.49513,-7.06055 -1.48535,-8.45508 -0.99025,-1.39453 -2.22363,-2.0918 -3.7002,-2.0918 -1.45314,0 -2.61329,0.61524 -3.48046,1.84571 -1.08985,1.57031 -1.63477,4.4707 -1.63477,8.70117 z"
       id="path1156"
       inkscape:connector-curvature="0"
       style="fill:#000000;shape-rendering:geometricPrecision" />
    <path
       d="m 260.48828,272.88086 c 0,-3.04688 0.31345,-5.49902 0.94043,-7.35645 0.62692,-1.85742 1.55856,-3.29004 2.79492,-4.29785 1.2363,-1.00781 2.79196,-1.51172 4.66699,-1.51172 1.38279,0 2.59568,0.27832 3.63868,0.83496 1.04294,0.55665 1.90426,1.35938 2.58398,2.40821 0.67966,1.04883 1.21286,2.32617 1.59961,3.83203 0.38672,1.50586 0.58008,3.53613 0.58008,6.09082 0,3.02344 -0.31058,5.46387 -0.93164,7.32129 -0.62113,1.85739 -1.54984,3.29297 -2.78613,4.30664 -1.23636,1.01364 -2.79789,1.52051 -4.68458,1.52051 -2.4844,0 -4.43557,-0.89066 -5.85351,-2.67188 -1.69922,-2.14453 -2.54883,-5.63672 -2.54883,-10.47656 z m 3.25195,0 c 0,4.23047 0.49509,7.0459 1.48536,8.44629 0.9902,1.40039 2.21188,2.10058 3.66503,2.10058 1.4531,0 2.67478,-0.70312 3.66504,-2.10937 0.99021,-1.40625 1.48536,-4.21875 1.48536,-8.4375 0,-4.24219 -0.49515,-7.06055 -1.48536,-8.45508 -0.99026,-1.39453 -2.22363,-2.0918 -3.70019,-2.0918 -1.45316,0 -2.61331,0.61524 -3.48047,1.84571 -1.08984,1.57031 -1.63477,4.4707 -1.63477,8.70117 z m 17.36719,0 c 0,-3.04688 0.31345,-5.49902 0.94043,-7.35645 0.62692,-1.85742 1.55856,-3.29004 2.79492,-4.29785 1.2363,-1.00781 2.79197,-1.51172 4.667,-1.51172 1.38278,0 2.59567,0.27832 3.63867,0.83496 1.04294,0.55665 1.90426,1.35938 2.58398,2.40821 0.67966,1.04883 1.21286,2.32617 1.59961,3.83203 0.38672,1.50586 0.58008,3.53613 0.58008,6.09082 0,3.02344 -0.31058,5.46387 -0.93164,7.32129 -0.62113,1.85739 -1.54984,3.29297 -2.78613,4.30664 -1.23636,1.01364 -2.79789,1.52051 -4.68457,1.52051 -2.48441,0 -4.43558,-0.89066 -5.85352,-2.67188 -1.69922,-2.14453 -2.54883,-5.63672 -2.54883,-10.47656 z m 3.25195,0 c 0,4.23047 0.49509,7.0459 1.48536,8.44629 0.9902,1.40039 2.21188,2.10058 3.66504,2.10058 1.45309,0 2.67477,-0.70312 3.66503,-2.10937 0.99021,-1.40625 1.48536,-4.21875 1.48536,-8.4375 0,-4.24219 -0.49515,-7.06055 -1.48536,-8.45508 -0.99026,-1.39453 -2.22363,-2.0918 -3.70019,-2.0918 -1.45316,0 -2.61331,0.61524 -3.48047,1.84571 -1.08984,1.57031 -1.63477,4.4707 -1.63477,8.70117 z m 17.57813,-9.68555 v -3.04101 h 16.68164 v 2.46093 c -1.64065,1.7461 -3.26663,4.06641 -4.87793,6.96094 -1.61133,2.89453 -2.85644,5.8711 -3.73535,8.92969 -0.63281,2.15625 -1.03711,4.51758 -1.21289,7.08398 h -3.25195 c 0.0351,-2.02734 0.43356,-4.47659 1.19531,-7.34765 0.76169,-2.8711 1.85446,-5.63965 3.27832,-8.30567 1.42383,-2.66601 2.93844,-4.91308 4.54394,-6.74121 z m 20.42578,15.5918 3.16406,-0.42188 c 0.36325,1.79297 0.98142,3.08497 1.8545,3.87598 0.87301,0.79102 1.93649,1.18652 3.19043,1.18652 1.48825,0 2.74508,-0.51562 3.7705,-1.54687 1.02536,-1.03125 1.53806,-2.30859 1.53809,-3.83203 -3e-5,-1.45313 -0.47464,-2.65137 -1.42383,-3.59473 -0.94922,-0.94336 -2.15628,-1.41504 -3.62109,-1.41504 -0.59766,0 -1.34183,0.11719 -2.23242,0.35156 l 0.35156,-2.77734 c 0.21094,0.0234 0.38083,0.0352 0.50976,0.0352 1.34763,0 2.56052,-0.35157 3.63868,-1.05469 1.07809,-0.70313 1.61715,-1.78711 1.61718,-3.25195 -3e-5,-1.16016 -0.39261,-2.1211 -1.17773,-2.88282 -0.78519,-0.76171 -1.79886,-1.14257 -3.04102,-1.14257 -1.2305,0 -2.25589,0.38671 -3.07617,1.16015 -0.82034,0.77344 -1.34769,1.9336 -1.58203,3.48047 l -3.16406,-0.5625 c 0.38672,-2.12109 1.26562,-3.76465 2.63672,-4.93066 1.37109,-1.16602 3.07617,-1.74903 5.11523,-1.74903 1.40625,0 2.70114,0.30176 3.88477,0.90528 1.18356,0.60351 2.08883,1.42675 2.71582,2.46972 0.62692,1.04297 0.94043,2.15039 0.94043,3.32227 0,1.11328 -0.29883,2.12695 -0.89649,3.04101 -0.59765,0.91407 -1.48245,1.64063 -2.6543,2.17969 1.52341,0.35156 2.70704,1.08106 3.55079,2.18848 0.84375,1.10742 1.26562,2.49316 1.26562,4.15723 0,2.25 -0.82034,4.15722 -2.46094,5.72168 -1.64065,1.56442 -3.71487,2.34667 -6.22265,2.34667 -2.26175,0 -4.13965,-0.67385 -5.63379,-2.02148 -1.49414,-1.34766 -2.34668,-3.09375 -2.55762,-5.23828 z m 25.4707,-7.17188 c -1.31253,-0.48046 -2.28515,-1.16601 -2.91796,-2.05664 -0.63282,-0.89062 -0.94922,-1.95703 -0.94922,-3.19922 0,-1.875 0.67382,-3.45117 2.02148,-4.72851 1.34763,-1.27734 3.1406,-1.91602 5.37891,-1.91602 2.25,0 4.06054,0.65332 5.43164,1.95996 1.37109,1.30665 2.05664,2.89747 2.05664,4.77247 0,1.19531 -0.31351,2.23535 -0.94043,3.12011 -0.62698,0.88477 -1.57913,1.56739 -2.85645,2.04785 1.58203,0.51563 2.78614,1.34766 3.61231,2.4961 0.82617,1.14844 1.23926,2.51953 1.23926,4.11328 0,2.20312 -0.77933,4.05469 -2.33789,5.55469 -1.55863,1.49997 -3.60941,2.25 -6.15235,2.25 -2.543,0 -4.59378,-0.75296 -6.15234,-2.25879 -1.55863,-1.50586 -2.33789,-3.38379 -2.33789,-5.63379 0,-1.67578 0.42477,-3.0791 1.27441,-4.20996 0.84958,-1.13086 2.05954,-1.90137 3.62988,-2.31153 z m -0.63281,-5.36132 c 0,1.21875 0.39255,2.21484 1.17774,2.98828 0.78512,0.77343 1.80465,1.16015 3.05859,1.16015 1.21872,0 2.21774,-0.38379 2.99707,-1.15136 0.77927,-0.76758 1.16892,-1.70801 1.16895,-2.82129 -3e-5,-1.16016 -0.4014,-2.13574 -1.20411,-2.92676 -0.80276,-0.79102 -1.80175,-1.18652 -2.99707,-1.18652 -1.20706,0 -2.20901,0.38671 -3.00586,1.16015 -0.7969,0.77344 -1.19531,1.69922 -1.19531,2.77735 z m -1.01953,11.90039 c 0,0.90234 0.21384,1.77539 0.6416,2.61914 0.42771,0.84375 1.06348,1.49707 1.90723,1.95996 0.84375,0.46289 1.75192,0.69433 2.72461,0.69433 1.51172,0 2.75976,-0.48632 3.74414,-1.45898 0.98437,-0.97266 1.47656,-2.20898 1.47656,-3.70898 0,-1.52344 -0.50687,-2.78321 -1.52051,-3.7793 -1.0137,-0.9961 -2.28225,-1.49414 -3.80566,-1.49414 -1.48831,0 -2.72171,0.49219 -3.7002,1.47656 -0.97854,0.98438 -1.46777,2.21484 -1.46777,3.69141 z m 17.61328,-14.95899 v -3.04101 h 16.68164 v 2.46093 c -1.64065,1.7461 -3.26663,4.06641 -4.87793,6.96094 -1.61133,2.89453 -2.85644,5.8711 -3.73535,8.92969 -0.63281,2.15625 -1.03711,4.51758 -1.21289,7.08398 h -3.25195 c 0.0351,-2.02734 0.43356,-4.47659 1.19531,-7.34765 0.76169,-2.8711 1.85446,-5.63965 3.27832,-8.30567 1.42383,-2.66601 2.93845,-4.91308 4.54395,-6.74121 z"
       id="path1158"
       inkscape:connector-curvature="0"
       style="fill:#000000;shape-rendering:geometricPrecision" />
  </g>
</svg>
