<?xml version="1.0" encoding="UTF-8" standalone="no"?>
<svg
   xmlns:dc="http://purl.org/dc/elements/1.1/"
   xmlns:cc="http://creativecommons.org/ns#"
   xmlns:rdf="http://www.w3.org/1999/02/22-rdf-syntax-ns#"
   xmlns:svg="http://www.w3.org/2000/svg"
   xmlns="http://www.w3.org/2000/svg"
   xmlns:sodipodi="http://sodipodi.sourceforge.net/DTD/sodipodi-0.dtd"
   xmlns:inkscape="http://www.inkscape.org/namespaces/inkscape"
   width="210mm"
   height="297mm"
   version="1.1"
   id="svg1043"
   sodipodi:docname="Barcode.EAN13.7613035588165.svg"
   inkscape:version="0.92.4 (5da689c313, 2019-01-14)">
  <metadata
     id="metadata1049">
    <rdf:RDF>
      <cc:Work
         rdf:about="">
        <dc:format>image/svg+xml</dc:format>
        <dc:type
           rdf:resource="http://purl.org/dc/dcmitype/StillImage" />
        <dc:title></dc:title>
      </cc:Work>
    </rdf:RDF>
  </metadata>
  <defs
     id="defs1047" />
  <sodipodi:namedview
     pagecolor="#ffffff"
     bordercolor="#666666"
     borderopacity="1"
     objecttolerance="10"
     gridtolerance="10"
     guidetolerance="10"
     inkscape:pageopacity="0"
     inkscape:pageshadow="2"
     inkscape:window-width="1280"
     inkscape:window-height="1000"
     id="namedview1045"
     showgrid="false"
     units="mm"
     inkscape:document-units="mm"
     inkscape:zoom="0.28913044"
     inkscape:cx="124.72744"
     inkscape:cy="88.5"
     inkscape:window-x="0"
     inkscape:window-y="0"
     inkscape:window-maximized="1"
     inkscape:current-layer="svg1043" />
  <desc
     id="desc960">7613035588165
   </desc>
  <g
     id="barcode"
     style="fill:#000000"
     transform="matrix(2.1306656,0,0,2.1306656,43.834586,365.89567)">
    <rect
       x="0"
       y="0"
       width="345"
       height="177"
       id="rect962"
       style="fill:#ffffff" />
    <rect
       x="30"
       y="0"
       width="3"
       height="150"
       id="rect964" />
    <rect
       x="36"
       y="0"
       width="3"
       height="150"
       id="rect966" />
    <rect
       x="42"
       y="0"
       width="3"
       height="150"
       id="rect968" />
    <rect
       x="48"
       y="0"
       width="12"
       height="150"
       id="rect970" />
    <rect
       x="63"
       y="0"
       width="6"
       height="150"
       id="rect972" />
    <rect
       x="75"
       y="0"
       width="6"
       height="150"
       id="rect974" />
    <rect
       x="84"
       y="0"
       width="12"
       height="150"
       id="rect976" />
    <rect
       x="99"
       y="0"
       width="3"
       height="150"
       id="rect978" />
    <rect
       x="105"
       y="0"
       width="3"
       height="150"
       id="rect980" />
    <rect
       x="114"
       y="0"
       width="9"
       height="150"
       id="rect982" />
    <rect
       x="126"
       y="0"
       width="12"
       height="150"
       id="rect984" />
    <rect
       x="141"
       y="0"
       width="3"
       height="150"
       id="rect986" />
    <rect
       x="147"
       y="0"
       width="9"
       height="150"
       id="rect988" />
    <rect
       x="162"
       y="0"
       width="3"
       height="150"
       id="rect990" />
    <rect
       x="168"
       y="0"
       width="3"
       height="150"
       id="rect992" />
    <rect
       x="174"
       y="0"
       width="3"
       height="150"
       id="rect994" />
    <rect
       x="180"
       y="0"
       width="3"
       height="150"
       id="rect996" />
    <rect
       x="189"
       y="0"
       width="9"
       height="150"
       id="rect998" />
    <rect
       x="201"
       y="0"
       width="3"
       height="150"
       id="rect1000" />
    <rect
       x="210"
       y="0"
       width="3"
       height="150"
       id="rect1002" />
    <rect
       x="222"
       y="0"
       width="3"
       height="150"
       id="rect1004" />
    <rect
       x="231"
       y="0"
       width="3"
       height="150"
       id="rect1006" />
    <rect
       x="243"
       y="0"
       width="6"
       height="150"
       id="rect1008" />
    <rect
       x="255"
       y="0"
       width="6"
       height="150"
       id="rect1010" />
    <rect
       x="264"
       y="0"
       width="3"
       height="150"
       id="rect1012" />
    <rect
       x="270"
       y="0"
       width="3"
       height="150"
       id="rect1014" />
    <rect
       x="285"
       y="0"
       width="3"
       height="150"
       id="rect1016" />
    <rect
       x="294"
       y="0"
       width="9"
       height="150"
       id="rect1018" />
    <rect
       x="306"
       y="0"
       width="3"
       height="150"
       id="rect1020" />
    <rect
       x="312"
       y="0"
       width="3"
       height="150"
       id="rect1022" />
    <rect
       x="30"
       y="150"
       width="3"
       height="15"
       id="rect1024" />
    <rect
       x="36"
       y="150"
       width="3"
       height="15"
       id="rect1026" />
    <rect
       x="168"
       y="150"
       width="3"
       height="15"
       id="rect1028" />
    <rect
       x="174"
       y="150"
       width="3"
       height="15"
       id="rect1030" />
    <rect
       x="306"
       y="150"
       width="3"
       height="15"
       id="rect1032" />
    <rect
       x="312"
       y="150"
       width="3"
       height="15"
       id="rect1034" />
    <text
       x="9"
       y="177"
       font-size="33.0"
       id="text1036"
       style="font-size:33px;font-family:Helvetica;text-anchor:middle;fill:#000000">7</text>
    <text
       x="102"
       y="177"
       font-size="33.0"
       id="text1038"
       style="font-size:33px;font-family:Helvetica;text-anchor:middle;fill:#000000">613035</text>
    <text
       x="243"
       y="177"
       font-size="33.0"
       id="text1040"
       style="font-size:33px;font-family:Helvetica;text-anchor:middle;fill:#000000">588165</text>
  </g>
</svg>
